<svg width="60" height="61" viewBox="0 0 60 61" fill="none" xmlns="http://www.w3.org/2000/svg">
<rect x="0.5" y="1" width="59" height="59" rx="29.5" fill="url(#paint0_linear_1035_4684)"/>
<rect x="0.5" y="1" width="59" height="59" rx="29.5" fill="url(#paint1_linear_1035_4684)"/>
<rect x="0.5" y="1" width="59" height="59" rx="29.5" stroke="url(#paint2_linear_1035_4684)"/>
<rect x="0.5" y="1" width="59" height="59" rx="29.5" stroke="url(#paint3_linear_1035_4684)"/>
<path d="M44.7579 25.3306C44.7579 25.315 44.7555 25.2995 44.7531 25.2839C44.7531 25.2766 44.7531 25.2694 44.7507 25.2621C44.7459 25.2393 44.7388 25.2175 44.7292 25.1967C44.7268 25.1915 44.7232 25.1874 44.7208 25.1822C44.7124 25.1656 44.7028 25.15 44.692 25.1344C44.692 25.1324 44.6908 25.1313 44.6896 25.1292C44.6848 25.1241 44.68 25.1189 44.6752 25.1137C44.6656 25.1023 44.6548 25.0898 44.6428 25.0794C44.6344 25.0722 44.626 25.0659 44.6177 25.0587C44.6069 25.0504 44.5961 25.0421 44.5841 25.0348C44.5733 25.0286 44.5637 25.0223 44.5529 25.0171C44.5409 25.0109 44.5301 25.0057 44.5169 25.0005C44.505 24.9954 44.493 24.9912 44.4798 24.987C44.4726 24.985 44.4666 24.9819 44.4606 24.9798L42.4632 24.4618C42.2401 24.4037 42.0076 24.5137 41.9404 24.7058C41.8745 24.8978 42.0004 25.1002 42.2222 25.1583L43.3576 25.4531L36.0176 29.6351C35.6963 29.3662 35.2611 29.1991 34.7803 29.1991C34.1988 29.1991 33.6833 29.443 33.3584 29.8167L28.6309 27.9536C28.6597 27.8446 28.6753 27.7325 28.6753 27.6162C28.6753 26.7661 27.8768 26.0738 26.8937 26.0738C25.9105 26.0738 25.112 26.7651 25.112 27.6162C25.112 27.8062 25.154 27.9878 25.2271 28.156L20.2443 31.1578C19.9242 30.8889 19.4878 30.7228 19.0082 30.7228C18.0263 30.7228 17.2266 31.4141 17.2266 32.2653C17.2266 33.1164 18.0251 33.8077 19.0082 33.8077C19.9913 33.8077 20.7898 33.1154 20.7898 32.2653C20.7898 32.093 20.7551 31.9269 20.6951 31.7722L25.6995 28.7569C26.016 29.0061 26.4345 29.1586 26.8949 29.1586C27.4428 29.1586 27.9319 28.9438 28.2593 28.6054L33.0275 30.4852C33.0107 30.5692 33.0011 30.6543 33.0011 30.7415C33.0011 31.5916 33.7996 32.2839 34.7827 32.2839C35.7658 32.2839 36.5643 31.5927 36.5643 30.7415C36.5643 30.5692 36.5296 30.4042 36.4696 30.2495L43.7544 26.0987L43.5662 26.9966C43.5254 27.1938 43.6765 27.3827 43.9043 27.419C43.9295 27.4232 43.9546 27.4252 43.9798 27.4252C44.1788 27.4252 44.3551 27.3017 44.3923 27.1263L44.7543 25.3939C44.7567 25.3825 44.7567 25.3711 44.7579 25.3597C44.7579 25.3503 44.7603 25.34 44.7603 25.3306H44.7579ZM19.007 33.0821C18.4879 33.0821 18.0646 32.7168 18.0646 32.2663C18.0646 31.8158 18.4867 31.4505 19.007 31.4505C19.5273 31.4505 19.9494 31.8158 19.9494 32.2663C19.9494 32.7168 19.5273 33.0821 19.007 33.0821ZM26.8925 28.4331C26.3733 28.4331 25.9501 28.0677 25.9501 27.6173C25.9501 27.1668 26.3721 26.8014 26.8925 26.8014C27.4128 26.8014 27.8348 27.1668 27.8348 27.6173C27.8348 28.0677 27.4128 28.4331 26.8925 28.4331ZM34.7803 31.5584C34.2612 31.5584 33.8379 31.193 33.8379 30.7426C33.8379 30.2921 34.26 29.9267 34.7803 29.9267C35.3007 29.9267 35.7227 30.2921 35.7227 30.7426C35.7227 31.193 35.3007 31.5584 34.7803 31.5584Z" fill="white"/>
<path d="M44.3018 28.7534H41.0683C40.7457 28.7534 40.4844 28.9797 40.4844 29.2589V41.3823C40.4844 41.6616 40.7457 41.8878 41.0683 41.8878H44.3018C44.6243 41.8878 44.8857 41.6616 44.8857 41.3823V29.2589C44.8857 28.9797 44.6243 28.7534 44.3018 28.7534ZM44.0632 40.6485C44.0632 40.9267 43.8019 41.153 43.4805 41.153H41.8883C41.567 41.153 41.3057 40.9267 41.3057 40.6485V29.9927C41.3057 29.7146 41.567 29.4883 41.8883 29.4883H43.4805C43.8019 29.4883 44.0632 29.7146 44.0632 29.9927V40.6485Z" fill="white"/>
<path d="M36.3956 33.085H33.162C32.8395 33.085 32.5781 33.3112 32.5781 33.5905V41.3825C32.5781 41.6617 32.8395 41.8879 33.162 41.8879H36.3956C36.7181 41.8879 36.9795 41.6617 36.9795 41.3825V33.5905C36.9795 33.3112 36.7181 33.085 36.3956 33.085ZM36.157 40.6486C36.157 40.9268 35.8956 41.1531 35.5743 41.1531H33.9821C33.6608 41.1531 33.3994 40.9268 33.3994 40.6486V34.3243C33.3994 34.0461 33.6608 33.8198 33.9821 33.8198H35.5743C35.8956 33.8198 36.157 34.0461 36.157 34.3243V40.6486Z" fill="white"/>
<path d="M28.5128 30.2847H25.2792C24.9567 30.2847 24.6953 30.5109 24.6953 30.7902V41.3826C24.6953 41.6618 24.9567 41.8881 25.2792 41.8881H28.5128C28.8353 41.8881 29.0966 41.6618 29.0966 41.3826V30.7902C29.0966 30.5109 28.8353 30.2847 28.5128 30.2847ZM28.2742 40.6488C28.2742 40.9269 28.0128 41.1532 27.6915 41.1532H26.0993C25.778 41.1532 25.5166 40.9269 25.5166 40.6488V31.524C25.5166 31.2458 25.778 31.0195 26.0993 31.0195H27.6915C28.0128 31.0195 28.2742 31.2458 28.2742 31.524V40.6488Z" fill="white"/>
<path d="M20.6221 34.6523H17.3886C17.0661 34.6523 16.8047 34.8786 16.8047 35.1578V41.3825C16.8047 41.6617 17.0661 41.888 17.3886 41.888H20.6221C20.9446 41.888 21.206 41.6617 21.206 41.3825V35.1578C21.206 34.8786 20.9446 34.6523 20.6221 34.6523ZM20.3835 40.6487C20.3835 40.9268 20.1222 41.1531 19.8009 41.1531H18.2087C17.8873 41.1531 17.626 40.9268 17.626 40.6487V35.8917C17.626 35.6135 17.8873 35.3872 18.2087 35.3872H19.8009C20.1222 35.3872 20.3835 35.6135 20.3835 35.8917V40.6487Z" fill="white"/>
<path d="M34.4829 19.9507C34.4829 19.9404 34.4805 19.931 34.4781 19.9206C34.4709 19.8833 34.4589 19.8469 34.4385 19.8137C34.4373 19.8116 34.4373 19.8085 34.4361 19.8065C34.4361 19.8065 34.4349 19.8065 34.4349 19.8044C34.4121 19.7691 34.3798 19.74 34.3438 19.713C34.3342 19.7058 34.3246 19.7006 34.315 19.6944C34.3042 19.6881 34.2958 19.6798 34.2838 19.6736L30.1007 17.6558C29.9772 17.5966 29.8274 17.5977 29.7063 17.6599L25.8217 19.631H23.5785C23.3591 19.631 23.1804 19.7847 23.1804 19.9756C23.1804 20.1666 23.3579 20.3202 23.5785 20.3202H25.5327V21.6146H22.2213C22.0019 21.6146 21.8232 21.7682 21.8232 21.9592C21.8232 22.1502 22.0007 22.3038 22.2213 22.3038H25.5327V23.841H21.2106C20.9911 23.841 20.8125 23.9946 20.8125 24.1856C20.8125 24.3766 20.9899 24.5302 21.2106 24.5302H25.8337L29.7255 26.2678C29.7315 26.2709 29.7386 26.2709 29.7446 26.274C29.753 26.2771 29.7602 26.2792 29.7686 26.2823C29.8142 26.2969 29.8609 26.3062 29.9077 26.3062C29.9545 26.3062 30 26.2969 30.0444 26.2823C30.0552 26.2792 30.0648 26.2761 30.0755 26.2719C30.0839 26.2688 30.0935 26.2668 30.1019 26.2626L34.285 24.2375C34.4109 24.1763 34.4889 24.0621 34.4889 23.9376V19.9798C34.4889 19.9715 34.4853 19.9632 34.4853 19.9549L34.4829 19.9507ZM29.9113 18.3533L33.2767 19.9767L29.9113 21.6177L26.7113 19.9767L29.9113 18.3533ZM26.3252 20.5787L29.5084 22.2114V25.3938L26.3252 23.9728V20.5787ZM30.3033 25.371V22.2166L33.6916 20.5642V23.731L30.3033 25.371Z" fill="white"/>
<path d="M20.2574 20.3098H21.3832C21.6026 20.3098 21.7813 20.1562 21.7813 19.9652C21.7813 19.7742 21.6038 19.6206 21.3832 19.6206H20.2574C20.038 19.6206 19.8594 19.7742 19.8594 19.9652C19.8594 20.1562 20.0368 20.3098 20.2574 20.3098Z" fill="white"/>
<path d="M20.4326 21.6709H18.9879C18.7685 21.6709 18.5898 21.8245 18.5898 22.0155C18.5898 22.2065 18.7673 22.3601 18.9879 22.3601H20.4326C20.652 22.3601 20.8307 22.2065 20.8307 22.0155C20.8307 21.8245 20.6532 21.6709 20.4326 21.6709Z" fill="white"/>
<path d="M18.986 23.7153H17.859C17.6396 23.7153 17.4609 23.869 17.4609 24.0599C17.4609 24.2509 17.6384 24.4045 17.859 24.4045H18.986C19.2054 24.4045 19.384 24.2509 19.384 24.0599C19.384 23.869 19.2066 23.7153 18.986 23.7153Z" fill="white"/>
<path d="M44.5204 43.5H15.4796C15.2146 43.5 15 43.3142 15 43.0848V17.9152C15 17.6858 15.2146 17.5 15.4796 17.5C15.7445 17.5 15.9592 17.6858 15.9592 17.9152V42.6696H44.5204C44.7854 42.6696 45 42.8554 45 43.0848C45 43.3142 44.7854 43.5 44.5204 43.5Z" fill="white"/>
<defs>
<linearGradient id="paint0_linear_1035_4684" x1="26.4583" y1="35.6429" x2="85.8941" y2="49.4051" gradientUnits="userSpaceOnUse">
<stop stop-color="#6DE8FF"/>
<stop offset="1" stop-color="#276174"/>
</linearGradient>
<linearGradient id="paint1_linear_1035_4684" x1="23.0833" y1="24.7571" x2="71.4751" y2="39.347" gradientUnits="userSpaceOnUse">
<stop stop-color="#479EBE"/>
<stop offset="1" stop-color="#24586C"/>
</linearGradient>
<linearGradient id="paint2_linear_1035_4684" x1="26.4583" y1="35.6429" x2="85.8941" y2="49.4051" gradientUnits="userSpaceOnUse">
<stop stop-color="#6DE8FF"/>
<stop offset="1" stop-color="#276174"/>
</linearGradient>
<linearGradient id="paint3_linear_1035_4684" x1="23.0833" y1="24.7571" x2="71.4751" y2="39.347" gradientUnits="userSpaceOnUse">
<stop stop-color="#479EBE"/>
<stop offset="1" stop-color="#24586C"/>
</linearGradient>
</defs>
</svg>
