<svg width="99" height="40" viewBox="0 0 99 40" fill="none" xmlns="http://www.w3.org/2000/svg">
<path d="M18.5899 5.15699C17.4489 6.50809 15.6232 7.57374 13.7975 7.4215C13.5693 5.59467 14.4631 3.65366 15.5091 2.4548C16.6502 1.06565 18.647 0.076118 20.2635 0C20.4536 1.90295 19.712 3.76784 18.5899 5.15699ZM20.2444 7.78306C17.601 7.63083 15.338 9.28639 14.0828 9.28639C12.8086 9.28639 10.8879 7.85918 8.79596 7.89724C6.07647 7.9353 3.54715 9.47669 2.15888 11.9315C-0.693732 16.8411 1.4172 24.1104 4.17473 28.1066C5.52496 30.0856 7.14144 32.255 9.27139 32.1789C11.2872 32.1028 12.086 30.8658 14.5202 30.8658C16.9734 30.8658 17.6771 32.1789 19.807 32.1408C22.0131 32.1028 23.4013 30.1617 24.7516 28.1827C26.292 25.9372 26.9196 23.7488 26.9576 23.6346C26.9196 23.5966 22.6977 21.9791 22.6597 17.1075C22.6216 13.0352 25.9877 11.0942 26.1398 10.98C24.2381 8.16365 21.2714 7.85918 20.2444 7.78306ZM35.5154 2.26451V31.9315H40.1176V21.7888H46.4885C52.3078 21.7888 56.3966 17.7926 56.3966 12.0076C56.3966 6.22264 52.3839 2.26451 46.6406 2.26451H35.5154ZM40.1176 6.14653H45.4235C49.4172 6.14653 51.6992 8.27783 51.6992 12.0266C51.6992 15.7755 49.4172 17.9258 45.4045 17.9258H40.1176V6.14653ZM64.8023 32.1598C67.6929 32.1598 70.3744 30.6946 71.5915 28.373H71.6866V31.9315H75.9465V17.1646C75.9465 12.883 72.5233 10.1237 67.2555 10.1237C62.368 10.1237 58.7547 12.921 58.6216 16.765H62.7674C63.1097 14.9382 64.8023 13.7393 67.1224 13.7393C69.937 13.7393 71.5154 15.0523 71.5154 17.4691V19.1056L65.7721 19.4481C60.4282 19.7716 57.5376 21.96 57.5376 25.7659C57.5376 29.6099 60.5233 32.1598 64.8023 32.1598ZM66.0384 28.6394C63.5851 28.6394 62.0257 27.4596 62.0257 25.6518C62.0257 23.7869 63.5281 22.7022 66.3997 22.5309L71.5154 22.2074V23.882C71.5154 26.6603 69.1572 28.6394 66.0384 28.6394ZM81.6327 40C86.1208 40 88.2317 38.2873 90.0764 33.0923L98.1588 10.4091H93.4805L88.0606 27.9353H87.9655L82.5455 10.4091H77.7341L85.5312 32.0076L85.1129 33.3206C84.4092 35.5471 83.2682 36.4034 81.2333 36.4034C80.872 36.4034 80.1683 36.3654 79.8831 36.3273V39.8858C80.1493 39.9619 81.2904 40 81.6327 40Z" fill="#2E3A65"/>
</svg>
