<svg width="604" height="370" viewBox="0 0 604 370" fill="none" xmlns="http://www.w3.org/2000/svg">
<path opacity="0.15" fill-rule="evenodd" clip-rule="evenodd" d="M515 244C515 124.706 418.294 28 299 28C179.706 28 83 124.706 83 244C83 363.293 179.706 460 299 460C418.294 460 515 363.293 515 244ZM427 244C427 314.692 369.692 372 299 372C228.308 372 171 314.692 171 244C171 173.308 228.308 116 299 116C369.692 116 427 173.308 427 244Z" fill="url(#paint0_linear_1153_17760)"/>
<path opacity="0.15" fill-rule="evenodd" clip-rule="evenodd" d="M46 62C46 39.3563 27.6437 21 5 21C-17.6437 21 -36 39.3563 -36 62C-36 84.6437 -17.6437 103 5 103C27.6437 103 46 84.6437 46 62ZM29.2969 61.9999C29.2969 75.4184 18.4191 86.2962 5.00058 86.2962C-8.4179 86.2962 -19.2957 75.4184 -19.2957 61.9999C-19.2957 48.5814 -8.4179 37.7036 5.00058 37.7036C18.4191 37.7036 29.2969 48.5814 29.2969 61.9999Z" fill="url(#paint1_linear_1153_17760)"/>
<path opacity="0.15" fill-rule="evenodd" clip-rule="evenodd" d="M154 41C154 18.3563 135.644 0 113 0C90.3563 0 72 18.3563 72 41C72 63.6437 90.3563 82 113 82C135.644 82 154 63.6437 154 41ZM137.297 40.9999C137.297 54.4184 126.419 65.2962 113.001 65.2962C99.5821 65.2962 88.7043 54.4184 88.7043 40.9999C88.7043 27.5814 99.5821 16.7036 113.001 16.7036C126.419 16.7036 137.297 27.5814 137.297 40.9999Z" fill="url(#paint2_linear_1153_17760)"/>
<path opacity="0.15" fill-rule="evenodd" clip-rule="evenodd" d="M604 303C604 280.356 585.644 262 563 262C540.356 262 522 280.356 522 303C522 325.644 540.356 344 563 344C585.644 344 604 325.644 604 303ZM587.297 302.999C587.297 316.418 576.419 327.296 563.001 327.296C549.582 327.296 538.704 316.418 538.704 302.999C538.704 289.581 549.582 278.703 563.001 278.703C576.419 278.703 587.297 289.581 587.297 302.999Z" fill="url(#paint3_linear_1153_17760)"/>
<path opacity="0.15" fill-rule="evenodd" clip-rule="evenodd" d="M591 197.5C591 182.864 579.136 171 564.5 171C549.864 171 538 182.864 538 197.5C538 212.136 549.864 224 564.5 224C579.136 224 591 212.136 591 197.5ZM580.203 197.5C580.203 206.173 573.172 213.203 564.499 213.203C555.827 213.203 548.796 206.173 548.796 197.5C548.796 188.827 555.827 181.796 564.499 181.796C573.172 181.796 580.203 188.827 580.203 197.5Z" fill="url(#paint4_linear_1153_17760)"/>
<path opacity="0.15" fill-rule="evenodd" clip-rule="evenodd" d="M591 81.5C591 48.0868 563.913 21 530.5 21C497.087 21 470 48.0868 470 81.5C470 114.913 497.087 142 530.5 142C563.913 142 591 114.913 591 81.5ZM566.352 81.4999C566.352 101.3 550.3 117.352 530.5 117.352C510.699 117.352 494.648 101.3 494.648 81.4999C494.648 61.6995 510.699 45.6481 530.5 45.6481C550.3 45.6481 566.352 61.6995 566.352 81.4999Z" fill="url(#paint5_linear_1153_17760)"/>
<defs>
<linearGradient id="paint0_linear_1153_17760" x1="514.424" y1="460" x2="514.424" y2="29.1516" gradientUnits="userSpaceOnUse">
<stop stop-color="white" stop-opacity="0.01"/>
<stop offset="1" stop-color="#9EF9E8"/>
</linearGradient>
<linearGradient id="paint1_linear_1153_17760" x1="45.8907" y1="103" x2="45.8907" y2="21.2186" gradientUnits="userSpaceOnUse">
<stop stop-color="white" stop-opacity="0.01"/>
<stop offset="1" stop-color="#9EF9E8"/>
</linearGradient>
<linearGradient id="paint2_linear_1153_17760" x1="153.891" y1="82" x2="153.891" y2="0.218594" gradientUnits="userSpaceOnUse">
<stop stop-color="white" stop-opacity="0.01"/>
<stop offset="1" stop-color="#9EF9E8"/>
</linearGradient>
<linearGradient id="paint3_linear_1153_17760" x1="603.891" y1="344" x2="603.891" y2="262.219" gradientUnits="userSpaceOnUse">
<stop stop-color="white" stop-opacity="0.01"/>
<stop offset="1" stop-color="#9EF9E8"/>
</linearGradient>
<linearGradient id="paint4_linear_1153_17760" x1="590.929" y1="224" x2="590.929" y2="171.141" gradientUnits="userSpaceOnUse">
<stop stop-color="white" stop-opacity="0.01"/>
<stop offset="1" stop-color="#9EF9E8"/>
</linearGradient>
<linearGradient id="paint5_linear_1153_17760" x1="590.839" y1="142" x2="590.839" y2="21.3226" gradientUnits="userSpaceOnUse">
<stop stop-color="white" stop-opacity="0.01"/>
<stop offset="1" stop-color="#9EF9E8"/>
</linearGradient>
</defs>
</svg>