<svg width="180" height="174" viewBox="0 0 180 174" fill="none" xmlns="http://www.w3.org/2000/svg">
<g opacity="0.5">
<path d="M54.9869 39.3339L48.8685 45.6444L50.4612 49.7692C51.3228 52.0446 52.3148 54.7456 52.6551 55.7511L53.2562 57.6081L39.6793 56.5584L26.1024 55.5087L17.6851 63.4198L9.21372 71.3128L13.1919 78.9359C15.3907 83.1106 17.6973 87.3213 18.358 88.2556L19.5237 89.9957L32.5972 92.4057C39.7527 93.7284 45.7564 94.8953 45.8739 95.0365C46.0453 95.1958 44.5497 97.5745 42.5403 100.342C39.7704 104.231 38.9688 105.619 39.1502 106.316C39.5034 107.606 46.1007 121.43 46.3291 121.354C46.4432 121.315 48.1805 119.578 50.1872 117.497L53.8551 113.705L52.1393 110.38L50.4234 107.054L52.0243 105.399C52.8961 104.493 53.7775 103.692 53.9678 103.628C54.1581 103.565 54.933 104.461 55.7048 105.61C56.4767 106.76 57.3883 108.008 57.747 108.357L58.3408 108.989L60.1003 107.208L61.8598 105.427L55.5554 92.9493L49.2129 80.4847L39.7283 78.7143C28.9459 76.7647 29.4947 76.617 31.5634 80.7991C32.1767 82.0743 32.7616 83.4673 32.838 83.875C32.9433 84.5981 32.8513 84.5928 29.7576 84.2207L26.5179 83.8252L24.345 80.2197C23.1822 78.2258 21.8288 75.8624 21.3681 74.9695L20.526 73.3377L25.1862 68.5268C27.7413 65.8654 29.9065 63.6596 30.0588 63.6086C30.173 63.5703 31.5406 63.7984 33.1462 64.055L36.0592 64.596L33.8631 68.0399C31.9809 71.0537 31.775 71.5199 32.5049 71.6365C35.9699 72.2093 50.2481 73.4935 50.5271 73.2556C50.9044 72.9487 70.6197 52.5867 70.7464 52.3998C70.7527 52.3255 70.3012 51.1045 69.7386 49.6679L68.7022 47.0539L65.884 49.984C64.3052 51.5962 62.9515 52.9524 62.8754 52.9779C62.7612 53.0161 62.1353 51.8896 61.4965 50.4786L60.292 47.8848L63.1897 45.1087C65.6436 42.7701 66.0238 42.2094 65.817 41.3759C65.4922 39.968 61.6984 32.7886 61.3939 32.8906C61.2195 32.9852 58.3695 35.8537 54.9869 39.3339Z" fill="#D2EEEE"/>
<path d="M67.138 36.2399L69.4893 40.7968L74.0267 41.3714L78.5641 41.9461L79.5809 43.9166C80.1529 45.0251 80.4614 45.969 80.3091 46.02C80.1188 46.0837 78.3199 46.1446 76.2291 46.1588L72.4917 46.1828L73.5691 48.5303C74.1602 49.849 74.7004 50.8958 74.8083 50.9319C74.9003 50.9372 82.2964 51.6016 91.2885 52.4175L107.661 53.867L113.938 48.2976C117.382 45.1944 120.343 42.5414 120.416 42.3364C120.504 42.1623 118.635 41.7411 116.278 41.4113C113.866 41.0635 111.769 40.7188 111.575 40.6031C111.118 40.3228 114.573 36.6377 115.436 36.4931C115.811 36.44 119.069 36.6124 122.727 36.8676L129.308 37.3357L132.263 43.0626L135.218 48.7895L133.252 50.6035C132.168 51.6166 131.211 52.4429 131.135 52.4684C131.058 52.4939 129.829 51.0639 128.334 49.2898L125.701 46.0911L120.188 52.0181L114.698 57.9016L121.097 70.5636L127.519 83.1821L130.531 83.6541L133.596 84.1441L132.042 80.8729C130.942 78.569 130.602 77.5635 130.945 77.4487C131.211 77.3595 132.667 77.4134 134.225 77.5777L137.033 77.8288L138.822 81.3824L140.611 84.9359L146.545 85.6207C149.822 86.0034 152.7 86.3034 152.869 86.2832C153.091 86.281 151.387 82.8071 149.141 78.5401L145.023 70.8193L137.823 69.5836C133.85 68.8921 130.538 68.2683 130.49 68.176C130.426 68.0528 133.679 64.1468 137.736 59.4656C141.755 54.7971 145.188 50.7223 145.321 50.461C145.67 49.8387 137.273 30.6236 136.587 30.4198C136.355 30.3169 130.761 29.7711 124.171 29.1979L112.171 28.0895L102.888 36.3989C97.7868 40.9603 93.4748 44.7157 93.3289 44.6924C93.1829 44.669 91.3853 42.31 89.3176 39.4276L85.5603 34.2222L75.5557 32.9149C70.0664 32.2257 65.383 31.6277 65.1768 31.6607C64.9547 31.6628 65.7875 33.6228 67.138 36.2399Z" fill="#D2EEEE"/>
<path d="M65.6252 68.5001C60.8667 73.5635 56.657 78.0454 56.2731 78.4269C55.6259 79.0774 56.3182 79.2069 69.975 80.7399C77.8941 81.6289 84.7305 82.4108 85.1528 82.45C85.7751 82.5306 86.7111 81.7473 89.3125 78.9967C91.162 77.04 92.6339 75.3905 92.6021 75.3289C92.5703 75.2673 90.1156 74.7524 87.1244 74.2365C84.1712 73.7078 81.6944 73.2365 81.6785 73.2057C81.6626 73.1749 82.6363 71.9452 83.8512 70.4902L86.0336 67.88L92.3112 68.7045C95.9532 69.183 98.7315 69.3727 98.9345 69.1602C99.1376 68.9476 100.495 67.3364 102.034 65.5562L104.765 62.3646L89.965 60.7808C81.8015 59.9376 74.9588 59.2301 74.7144 59.2758C74.4921 59.278 70.3838 63.4368 65.6252 68.5001Z" fill="#3EADBC" fill-opacity="0.29"/>
<path d="M104.291 67.8719L101.023 71.7467L104.121 77.7501L107.218 83.7536L104.505 86.5401L101.83 89.3138L98.6337 83.3794C96.8959 80.0979 95.3838 77.4269 95.3077 77.4524C95.2316 77.4779 93.8179 78.8902 92.1728 80.6328L89.152 83.775L94.6137 94.6195C97.6574 100.605 100.228 105.413 100.332 105.27C100.491 105.144 104.821 100.733 110.038 95.4469L119.449 85.8312L113.762 74.8095C110.633 68.7445 107.961 63.826 107.825 63.9078C107.634 63.9715 106.059 65.7629 104.291 67.8719Z" fill="#3EADBC" fill-opacity="0.29"/>
<path d="M60.6398 92.9077L66.2821 103.583L81.0028 105.296C89.1151 106.226 95.9837 106.994 96.2978 106.997C96.7038 107.006 95.6583 104.72 91.2899 96.2538L85.7458 85.5092L71.4884 84.0021C63.6839 83.15 56.7392 82.407 56.1333 82.3572L55.0515 82.2502L60.6398 92.9077Z" fill="#3EADBC" fill-opacity="0.29"/>
<path d="M63.1932 109.93C62.1303 110.901 61.334 111.782 61.3817 111.874C61.4294 111.967 63.4205 112.276 65.7481 112.544C68.1138 112.8 70.0509 113.091 70.0668 113.121C70.0986 113.183 69.1817 114.177 68.0999 115.371L66.0694 117.496L61.6269 116.852C59.1595 116.486 57.016 116.228 56.9018 116.266C56.7494 116.318 54.8965 118.095 52.7359 120.228C49.357 123.637 48.9827 124.124 49.767 124.259C50.2434 124.316 54.8764 124.896 60.0619 125.509L69.4803 126.618L74.5952 122.158C77.3779 119.672 79.7863 117.672 79.8562 117.721C79.9642 117.757 82.5999 122.26 85.7223 127.792C88.8287 133.293 91.4263 137.808 91.4263 137.808C91.4803 137.826 97.1773 138.737 104.081 139.822L116.643 141.83L123.982 134.059C128.043 129.807 131.408 126.114 131.488 125.834C131.583 125.585 129.836 120.641 127.628 114.803C125.435 108.995 123.66 104.168 123.682 104.125C123.688 104.051 127.13 104.054 131.293 104.069L138.853 104.175L145.519 97.7858C149.203 94.2749 152.176 91.2912 152.128 91.1988C151.985 90.9214 140.807 89.6057 140.236 89.7971C140.007 89.8737 138.627 91.095 137.174 92.5215L134.547 95.1363L131.937 94.9264C130.485 94.7981 129.203 94.6495 129.079 94.5826C128.917 94.5284 129.789 93.1882 130.918 91.6534C132.069 90.075 133.011 88.7836 132.996 88.7528C132.932 88.6295 127.172 88.0291 126.867 88.1311C126.676 88.1949 122.089 92.9845 116.6 98.7987L106.677 109.351L109.512 116.751C111.074 120.818 112.454 124.186 112.578 124.253C112.724 124.276 114.219 123.017 115.907 121.439C117.595 119.862 119.073 118.572 119.143 118.62C119.251 118.657 119.801 119.81 120.387 121.204L121.43 123.746L117.306 128.308L113.182 132.87L105.761 131.994C97.6094 131.002 97.7873 131.087 96.7339 128.007L96.1198 126.297L100.93 126.095L105.702 125.906L102.077 118.88L98.4518 111.854L82.0568 109.864C73.0607 108.793 65.5254 107.956 65.3508 108.051C65.1985 108.102 64.2021 108.942 63.1932 109.93Z" fill="#D2EEEE"/>
</g>
</svg>