<svg width="25" height="25" viewBox="0 0 25 25" fill="none" xmlns="http://www.w3.org/2000/svg">
<mask id="mask0_1153_17605" style="mask-type:alpha" maskUnits="userSpaceOnUse" x="0" y="0" width="25" height="25">
<rect x="0.5" y="0.5" width="24" height="24" fill="#D9D9D9"/>
</mask>
<g mask="url(#mask0_1153_17605)">
<path d="M11.5 18.55V8.7C10.8167 8.3 10.0917 8 9.325 7.8C8.55833 7.6 7.78333 7.5 7 7.5C6.4 7.5 5.80417 7.55833 5.2125 7.675C4.62083 7.79167 4.05 7.96667 3.5 8.2V18.1C4.08333 17.9 4.6625 17.75 5.2375 17.65C5.8125 17.55 6.4 17.5 7 17.5C7.78333 17.5 8.54583 17.5875 9.2875 17.7625C10.0292 17.9375 10.7667 18.2 11.5 18.55ZM12.5 21.5C11.7 20.8667 10.8333 20.375 9.9 20.025C8.96667 19.675 8 19.5 7 19.5C6.3 19.5 5.6125 19.5917 4.9375 19.775C4.2625 19.9583 3.61667 20.2167 3 20.55C2.65 20.7333 2.3125 20.725 1.9875 20.525C1.6625 20.325 1.5 20.0333 1.5 19.65V7.6C1.5 7.41667 1.54583 7.24167 1.6375 7.075C1.72917 6.90833 1.86667 6.78333 2.05 6.7C2.81667 6.3 3.61667 6 4.45 5.8C5.28333 5.6 6.13333 5.5 7 5.5C8.23333 5.5 9.28333 5.64167 10.15 5.925C11.0167 6.20833 11.95 6.64167 12.95 7.225C13.1333 7.325 13.2708 7.44167 13.3625 7.575C13.4542 7.70833 13.5 7.88333 13.5 8.1V18.55C14.2333 18.2 14.9708 17.9375 15.7125 17.7625C16.4542 17.5875 17.2167 17.5 18 17.5C18.6 17.5 19.1875 17.55 19.7625 17.65C20.3375 17.75 20.9167 17.9 21.5 18.1V6.075C21.75 6.15833 21.9958 6.25 22.2375 6.35C22.4792 6.45 22.7167 6.56667 22.95 6.7C23.1333 6.78333 23.2708 6.90833 23.3625 7.075C23.4542 7.24167 23.5 7.41667 23.5 7.6V19.65C23.5 20.0333 23.3375 20.325 23.0125 20.525C22.6875 20.725 22.35 20.7333 22 20.55C21.3833 20.2167 20.7375 19.9583 20.0625 19.775C19.3875 19.5917 18.7 19.5 18 19.5C17 19.5 16.0333 19.675 15.1 20.025C14.1667 20.375 13.3 20.8667 12.5 21.5ZM16 15.5V4.5L19 3.5V14.5L16 15.5Z" fill="white"/>
</g>
</svg>