<svg width="13" height="12" viewBox="0 0 13 12" fill="none" xmlns="http://www.w3.org/2000/svg">
<path d="M2.77604 5.4H4.10938V6.6H2.77604V5.4ZM12.1094 2.4V10.8C12.1094 11.46 11.5094 12 10.776 12H1.44271C1.08909 12 0.749948 11.8736 0.499899 11.6485C0.249851 11.4235 0.109375 11.1183 0.109375 10.8L0.116042 2.4C0.116042 1.74 0.702708 1.2 1.44271 1.2H2.10938V0H3.44271V1.2H8.77604V0H10.1094V1.2H10.776C11.5094 1.2 12.1094 1.74 12.1094 2.4ZM1.44271 3.6H10.776V2.4H1.44271V3.6ZM10.776 10.8V4.8H1.44271V10.8H10.776ZM8.10938 6.6H9.44271V5.4H8.10938V6.6ZM5.44271 6.6H6.77604V5.4H5.44271V6.6Z" fill="#555555"/>
</svg>