<svg width="29" height="29" viewBox="0 0 29 29" fill="none" xmlns="http://www.w3.org/2000/svg">
<path d="M16.2059 0.424316V2.35275C18.1133 2.35275 19.9002 2.83486 21.5666 3.79908C23.1528 4.74321 24.4177 6.00875 25.3613 7.59569C26.3251 9.26299 26.8069 11.0508 26.8069 12.9592H28.7344C28.7344 10.6892 28.1622 8.58 27.0177 6.63147C25.9135 4.74321 24.4177 3.24666 22.5304 2.14183C20.5828 0.996821 18.4747 0.424316 16.2059 0.424316ZM6.23733 3.31697C5.69524 3.31697 5.22341 3.48772 4.82186 3.82921L1.71985 6.99305L1.8102 6.93279C1.30826 7.35464 0.97698 7.87692 0.816359 8.49965C0.675815 9.12237 0.71597 9.72501 0.936825 10.3076C1.499 11.8744 2.25191 13.4814 3.19556 15.1286C4.52069 17.3986 6.09679 19.4375 7.92386 21.2454C10.8552 24.1983 14.4993 26.5285 18.8562 28.236H18.8863C19.4685 28.4369 20.0508 28.477 20.633 28.3565C21.2354 28.236 21.7674 27.9748 22.2292 27.5731L25.271 24.5298C25.6725 24.128 25.8733 23.6359 25.8733 23.0533C25.8733 22.4507 25.6725 21.9485 25.271 21.5467L21.3257 17.5693C20.9242 17.1676 20.4222 16.9667 19.8199 16.9667C19.2176 16.9667 18.7156 17.1676 18.3141 17.5693L16.4167 19.4978C14.8908 18.7746 13.5657 17.8807 12.4413 16.816C11.317 15.7313 10.4235 14.4155 9.76097 12.8688L11.6884 10.9403C12.1101 10.4984 12.3209 9.97611 12.3209 9.37347C12.3209 8.75074 12.0799 8.24855 11.5981 7.86688L11.6884 7.95727L7.65281 3.82921C7.25126 3.48772 6.77943 3.31697 6.23733 3.31697ZM16.2059 4.28119V6.20963C17.4306 6.20963 18.555 6.51095 19.579 7.11358C20.623 7.71622 21.4462 8.53982 22.0485 9.58439C22.6508 10.6089 22.952 11.7338 22.952 12.9592H24.8795C24.8795 11.3923 24.4879 9.93593 23.7049 8.59004C22.9219 7.28433 21.8778 6.23976 20.5728 5.45633C19.2276 4.6729 17.772 4.28119 16.2059 4.28119ZM6.23733 5.24541C6.29757 5.24541 6.36784 5.27554 6.44815 5.3358L10.3934 9.37347C10.4135 9.45382 10.3934 9.52413 10.3332 9.58439L7.47211 12.4168L7.68293 13.0194L8.07444 13.8631C8.39568 14.5461 8.76712 15.209 9.18875 15.8518C9.771 16.7558 10.4135 17.5292 11.1162 18.172C12.0599 19.096 13.1942 19.9397 14.5194 20.703C15.1819 21.0847 15.7441 21.3659 16.2059 21.5467L16.8082 21.8179L19.7295 18.8951C19.7697 18.8549 19.7998 18.8349 19.8199 18.8349C19.84 18.8349 19.8701 18.8549 19.9102 18.8951L23.976 22.9629C24.0161 23.0031 24.0362 23.0332 24.0362 23.0533C24.0362 23.0533 24.0161 23.0734 23.976 23.1136L20.9643 26.0966C20.5226 26.4783 20.0407 26.5787 19.5187 26.398C15.4229 24.811 12.0097 22.6415 9.2791 19.8895C7.59258 18.2021 6.11687 16.2837 4.85197 14.1343C3.94848 12.5875 3.24576 11.091 2.74382 9.64466V9.61452C2.66351 9.43373 2.65347 9.22281 2.7137 8.98176C2.77393 8.72061 2.88436 8.51973 3.04498 8.37912L6.02652 5.3358C6.08675 5.27554 6.15702 5.24541 6.23733 5.24541ZM16.2059 8.13806V10.0665C17.009 10.0665 17.6917 10.3477 18.2538 10.9102C18.816 11.4727 19.0971 12.1556 19.0971 12.9592H21.0245C21.0245 12.0954 20.8037 11.2919 20.362 10.5486C19.9403 9.80536 19.3581 9.22281 18.6152 8.80096C17.8723 8.35903 17.0692 8.13806 16.2059 8.13806Z" fill="url(#paint0_linear_1319_19119)"/>
<path d="M16.2059 0.424316V2.35275C18.1133 2.35275 19.9002 2.83486 21.5666 3.79908C23.1528 4.74321 24.4177 6.00875 25.3613 7.59569C26.3251 9.26299 26.8069 11.0508 26.8069 12.9592H28.7344C28.7344 10.6892 28.1622 8.58 27.0177 6.63147C25.9135 4.74321 24.4177 3.24666 22.5304 2.14183C20.5828 0.996821 18.4747 0.424316 16.2059 0.424316ZM6.23733 3.31697C5.69524 3.31697 5.22341 3.48772 4.82186 3.82921L1.71985 6.99305L1.8102 6.93279C1.30826 7.35464 0.97698 7.87692 0.816359 8.49965C0.675815 9.12237 0.71597 9.72501 0.936825 10.3076C1.499 11.8744 2.25191 13.4814 3.19556 15.1286C4.52069 17.3986 6.09679 19.4375 7.92386 21.2454C10.8552 24.1983 14.4993 26.5285 18.8562 28.236H18.8863C19.4685 28.4369 20.0508 28.477 20.633 28.3565C21.2354 28.236 21.7674 27.9748 22.2292 27.5731L25.271 24.5298C25.6725 24.128 25.8733 23.6359 25.8733 23.0533C25.8733 22.4507 25.6725 21.9485 25.271 21.5467L21.3257 17.5693C20.9242 17.1676 20.4222 16.9667 19.8199 16.9667C19.2176 16.9667 18.7156 17.1676 18.3141 17.5693L16.4167 19.4978C14.8908 18.7746 13.5657 17.8807 12.4413 16.816C11.317 15.7313 10.4235 14.4155 9.76097 12.8688L11.6884 10.9403C12.1101 10.4984 12.3209 9.97611 12.3209 9.37347C12.3209 8.75074 12.0799 8.24855 11.5981 7.86688L11.6884 7.95727L7.65281 3.82921C7.25126 3.48772 6.77943 3.31697 6.23733 3.31697ZM16.2059 4.28119V6.20963C17.4306 6.20963 18.555 6.51095 19.579 7.11358C20.623 7.71622 21.4462 8.53982 22.0485 9.58439C22.6508 10.6089 22.952 11.7338 22.952 12.9592H24.8795C24.8795 11.3923 24.4879 9.93593 23.7049 8.59004C22.9219 7.28433 21.8778 6.23976 20.5728 5.45633C19.2276 4.6729 17.772 4.28119 16.2059 4.28119ZM6.23733 5.24541C6.29757 5.24541 6.36784 5.27554 6.44815 5.3358L10.3934 9.37347C10.4135 9.45382 10.3934 9.52413 10.3332 9.58439L7.47211 12.4168L7.68293 13.0194L8.07444 13.8631C8.39568 14.5461 8.76712 15.209 9.18875 15.8518C9.771 16.7558 10.4135 17.5292 11.1162 18.172C12.0599 19.096 13.1942 19.9397 14.5194 20.703C15.1819 21.0847 15.7441 21.3659 16.2059 21.5467L16.8082 21.8179L19.7295 18.8951C19.7697 18.8549 19.7998 18.8349 19.8199 18.8349C19.84 18.8349 19.8701 18.8549 19.9102 18.8951L23.976 22.9629C24.0161 23.0031 24.0362 23.0332 24.0362 23.0533C24.0362 23.0533 24.0161 23.0734 23.976 23.1136L20.9643 26.0966C20.5226 26.4783 20.0407 26.5787 19.5187 26.398C15.4229 24.811 12.0097 22.6415 9.2791 19.8895C7.59258 18.2021 6.11687 16.2837 4.85197 14.1343C3.94848 12.5875 3.24576 11.091 2.74382 9.64466V9.61452C2.66351 9.43373 2.65347 9.22281 2.7137 8.98176C2.77393 8.72061 2.88436 8.51973 3.04498 8.37912L6.02652 5.3358C6.08675 5.27554 6.15702 5.24541 6.23733 5.24541ZM16.2059 8.13806V10.0665C17.009 10.0665 17.6917 10.3477 18.2538 10.9102C18.816 11.4727 19.0971 12.1556 19.0971 12.9592H21.0245C21.0245 12.0954 20.8037 11.2919 20.362 10.5486C19.9403 9.80536 19.3581 9.22281 18.6152 8.80096C17.8723 8.35903 17.0692 8.13806 16.2059 8.13806Z" fill="url(#paint1_linear_1319_19119)"/>
<defs>
<linearGradient id="paint0_linear_1319_19119" x1="13.0816" y1="16.8243" x2="40.8183" y2="23.2467" gradientUnits="userSpaceOnUse">
<stop stop-color="#6DE8FF"/>
<stop offset="1" stop-color="#276174"/>
</linearGradient>
<linearGradient id="paint1_linear_1319_19119" x1="11.5066" y1="11.7443" x2="34.0894" y2="18.5529" gradientUnits="userSpaceOnUse">
<stop stop-color="#479EBE"/>
<stop offset="1" stop-color="#24586C"/>
</linearGradient>
</defs>
</svg>
