<svg width="16" height="16" viewBox="0 0 16 16" fill="none" xmlns="http://www.w3.org/2000/svg">
<path d="M8.84087 0V1.10196C9.9308 1.10196 10.9519 1.37745 11.9042 1.92844C12.8105 2.46794 13.5333 3.1911 14.0725 4.09793C14.6232 5.05067 14.8986 6.07228 14.8986 7.16277H16C16 5.86566 15.673 4.66039 15.0191 3.54695C14.388 2.46794 13.5333 1.61277 12.4549 0.981437C11.342 0.327146 10.1373 0 8.84087 0ZM3.14455 1.65295C2.83478 1.65295 2.56516 1.75052 2.3357 1.94566L0.563131 3.75356L0.61476 3.71913C0.327935 3.96018 0.138632 4.25863 0.0468479 4.61447C-0.0334628 4.97032 -0.0105169 5.31468 0.115686 5.64757C0.436929 6.54291 0.867165 7.46121 1.40639 8.40248C2.16361 9.69958 3.06424 10.8647 4.10828 11.8978C5.78333 13.5851 7.86567 14.9167 10.3553 15.8924H10.3725C10.7052 16.0072 11.0379 16.0301 11.3707 15.9613C11.7148 15.8924 12.0189 15.7432 12.2828 15.5136L14.0209 13.7745C14.2504 13.545 14.3651 13.2637 14.3651 12.9309C14.3651 12.5865 14.2504 12.2995 14.0209 12.0699L11.7665 9.79715C11.537 9.56757 11.2502 9.45278 10.906 9.45278C10.5618 9.45278 10.275 9.56757 10.0455 9.79715L8.96134 10.8991C8.08939 10.4859 7.33218 9.97507 6.68969 9.36669C6.04721 8.74684 5.53666 7.99498 5.15805 7.11111L6.25946 6.00915C6.50039 5.75661 6.62085 5.45817 6.62085 5.1138C6.62085 4.75796 6.48318 4.47099 6.20783 4.25289L6.25946 4.30455L3.95339 1.94566C3.72393 1.75052 3.45432 1.65295 3.14455 1.65295ZM8.84087 2.20393V3.30589C9.54072 3.30589 10.1832 3.47807 10.7683 3.82244C11.3649 4.1668 11.8353 4.63743 12.1795 5.23433C12.5237 5.81975 12.6958 6.46256 12.6958 7.16277H13.7972C13.7972 6.26742 13.5735 5.43521 13.126 4.66613C12.6786 3.92001 12.082 3.32311 11.3362 2.87544C10.5676 2.42776 9.73576 2.20393 8.84087 2.20393ZM3.14455 2.75491C3.17897 2.75491 3.21912 2.77213 3.26501 2.80656L5.51945 5.1138C5.53092 5.15972 5.51945 5.19989 5.48503 5.23433L3.85013 6.85284L3.9706 7.1972L4.19432 7.67931C4.37789 8.06959 4.59014 8.44839 4.83107 8.81571C5.16379 9.33226 5.53092 9.77419 5.93248 10.1415C6.47171 10.6695 7.11993 11.1516 7.87714 11.5878C8.25575 11.8059 8.57699 11.9666 8.84087 12.0699L9.18506 12.2249L10.8544 10.5547C10.8773 10.5318 10.8945 10.5203 10.906 10.5203C10.9175 10.5203 10.9347 10.5318 10.9576 10.5547L13.2809 12.8792C13.3039 12.9022 13.3153 12.9194 13.3153 12.9309C13.3153 12.9309 13.3039 12.9423 13.2809 12.9653L11.56 14.6699C11.3076 14.888 11.0322 14.9454 10.7339 14.8421C8.39343 13.9353 6.44302 12.6955 4.8827 11.1229C3.91897 10.1587 3.07571 9.06251 2.35291 7.83428C1.83663 6.95041 1.43508 6.09524 1.14825 5.26877V5.25155C1.10236 5.14824 1.09662 5.02771 1.13104 4.88997C1.16546 4.74074 1.22856 4.62595 1.32035 4.5456L3.02408 2.80656C3.0585 2.77213 3.09866 2.75491 3.14455 2.75491ZM8.84087 4.40786V5.50982C9.29979 5.50982 9.68987 5.67052 10.0111 5.99193C10.3324 6.31334 10.493 6.70361 10.493 7.16277H11.5944C11.5944 6.66918 11.4682 6.21003 11.2158 5.78531C10.9748 5.3606 10.6421 5.02771 10.2176 4.78666C9.79313 4.53412 9.33421 4.40786 8.84087 4.40786Z" fill="#F7F7F7"/>
</svg>
