<svg width="49" height="49" viewBox="0 0 49 49" fill="none" xmlns="http://www.w3.org/2000/svg">
<g clip-path="url(#clip0_1300_19333)">
<rect width="48" height="48" transform="translate(0.667969 0.5)" fill="#F1F3F7"/>
<path fill-rule="evenodd" clip-rule="evenodd" d="M24.6675 16.8204C22.9926 16.8204 21.6348 18.1781 21.6348 19.853C21.6348 21.5279 22.9926 22.8856 24.6675 22.8856C26.3424 22.8856 27.7001 21.5279 27.7001 19.853C27.7001 18.1781 26.3424 16.8204 24.6675 16.8204ZM20.1484 19.853C20.1484 17.3572 22.1717 15.334 24.6675 15.334C27.1633 15.334 29.1865 17.3572 29.1865 19.853C29.1865 22.3488 27.1633 24.372 24.6675 24.372C22.1717 24.372 20.1484 22.3488 20.1484 19.853Z" fill="#2E3A65"/>
<path fill-rule="evenodd" clip-rule="evenodd" d="M18.9985 27.4318C20.3567 26.6211 22.1942 26.0811 24.6676 26.0811C27.141 26.0811 28.9785 26.6211 30.3367 27.4318C31.6954 28.2428 32.5309 29.2989 33.04 30.2627L33.04 30.2628C33.4955 31.1254 33.3465 32.0204 32.8295 32.6696C32.3321 33.2941 31.5227 33.6669 30.6537 33.6669H18.6814C17.8125 33.6669 17.003 33.2941 16.5057 32.6696C15.9887 32.0203 15.8396 31.1253 16.2952 30.2628C16.8042 29.2989 17.6398 28.2428 18.9985 27.4318ZM19.7604 28.7081C18.6709 29.3584 18.0119 30.1951 17.6096 30.9569L17.6096 30.9569C17.4456 31.2674 17.4978 31.5293 17.6685 31.7437C17.8589 31.9828 18.2237 32.1805 18.6814 32.1805H30.6537C31.1114 32.1805 31.4763 31.9828 31.6667 31.7437C31.8374 31.5293 31.8896 31.2674 31.7257 30.9569C31.3233 30.1951 30.6643 29.3584 29.5748 28.7081C28.4848 28.0574 26.9204 27.5675 24.6676 27.5675C22.4148 27.5675 20.8504 28.0574 19.7604 28.7081Z" fill="#2E3A65"/>
</g>
<defs>
<clipPath id="clip0_1300_19333">
<rect x="0.667969" y="0.5" width="48" height="48" rx="24" fill="white"/>
</clipPath>
</defs>
</svg>