<svg width="33" height="33" viewBox="0 0 33 33" fill="none" xmlns="http://www.w3.org/2000/svg">
<g clip-path="url(#clip0_1153_17618)">
<rect width="32" height="32" transform="translate(0.5 0.5)" fill="#F1F3F7"/>
<path fill-rule="evenodd" clip-rule="evenodd" d="M16.501 11.3801C15.3844 11.3801 14.4792 12.2853 14.4792 13.4018C14.4792 14.5184 15.3844 15.4236 16.501 15.4236C17.6176 15.4236 18.5227 14.5184 18.5227 13.4018C18.5227 12.2853 17.6176 11.3801 16.501 11.3801ZM13.4883 13.4018C13.4883 11.738 14.8371 10.3892 16.501 10.3892C18.1648 10.3892 19.5137 11.738 19.5137 13.4018C19.5137 15.0657 18.1648 16.4145 16.501 16.4145C14.8371 16.4145 13.4883 15.0657 13.4883 13.4018Z" fill="#191B44"/>
<path fill-rule="evenodd" clip-rule="evenodd" d="M12.7217 18.4542C13.6271 17.9137 14.8521 17.5537 16.501 17.5537C18.15 17.5537 19.375 17.9137 20.2804 18.4542C21.1863 18.9949 21.7433 19.699 22.0827 20.3415L22.0827 20.3415C22.3864 20.9166 22.287 21.5132 21.9423 21.9461C21.6108 22.3624 21.0711 22.6109 20.4918 22.6109H12.5103C11.931 22.6109 11.3913 22.3624 11.0598 21.9461C10.7151 21.5132 10.6157 20.9166 10.9195 20.3415C11.2588 19.699 11.8158 18.9949 12.7217 18.4542ZM13.2296 19.3051C12.5032 19.7386 12.0639 20.2964 11.7957 20.8043L11.7957 20.8043C11.6864 21.0113 11.7212 21.1859 11.835 21.3288C11.9619 21.4882 12.2051 21.62 12.5103 21.62H20.4918C20.7969 21.62 21.0402 21.4882 21.1671 21.3288C21.2809 21.1859 21.3157 21.0113 21.2064 20.8043C20.9382 20.2964 20.4988 19.7386 19.7725 19.3051C19.0458 18.8713 18.0029 18.5446 16.501 18.5446C14.9992 18.5446 13.9563 18.8713 13.2296 19.3051Z" fill="#191B44"/>
</g>
<defs>
<clipPath id="clip0_1153_17618">
<rect x="0.5" y="0.5" width="32" height="32" rx="16" fill="white"/>
</clipPath>
</defs>
</svg>