<svg width="16" height="12" viewBox="0 0 16 12" fill="none" xmlns="http://www.w3.org/2000/svg">
<path d="M8.13167 0C3.79218 0 0.261719 2.6916 0.261719 6C0.261719 9.3084 3.79218 12 8.13167 12C12.4712 12 16.0016 9.3084 16.0016 6C16.0016 2.6916 12.4712 0 8.13167 0ZM8.13167 10.8C4.66024 10.8 1.83571 8.6466 1.83571 6C1.83571 3.3534 4.66024 1.2 8.13167 1.2C11.6031 1.2 14.4276 3.3534 14.4276 6C14.4276 8.6466 11.6031 10.8 8.13167 10.8Z" fill="#555555"/>
<path d="M9.10646 3H6.82031V6.2484L10.5844 8.2242L12.2007 7.3758L9.10646 5.7516V3Z" fill="#555555"/>
</svg>