<svg width="166" height="66" viewBox="0 0 166 66" fill="none" xmlns="http://www.w3.org/2000/svg">
<path d="M0 46.7561C0 56.8109 9.47835 65.0638 21.5644 65.9234C22.2534 65.974 22.9522 66 23.6569 66H138.149C153.529 66 166 55.8548 166 43.3437C166 30.8326 153.529 20.6827 138.149 20.6827C136.057 20.6825 133.972 20.8717 131.936 21.2466C131.936 21.0597 131.947 20.8728 131.947 20.6827C131.947 10.9558 122.252 3.0707 110.297 3.0707C104.879 3.07455 99.6706 4.7113 95.7458 7.64303C91.842 3.02626 85.3032 0 77.8958 0C65.9405 0 56.2455 7.88513 56.2455 17.6212C56.2437 18.8644 56.4046 20.1044 56.7257 21.3217C56.7706 21.4887 56.8155 21.6588 56.8662 21.8228C56.7432 21.6849 56.6183 21.55 56.4758 21.4182C55.3279 20.2534 53.8566 19.3095 52.1738 18.6584C50.491 18.0074 48.6412 17.6663 46.7652 17.6611C39.8497 17.6611 34.2478 22.2196 34.2478 27.8446C34.2501 28.4424 34.3154 29.0389 34.443 29.6282C34.767 29.7661 35.091 29.9086 35.4072 30.0557L34.644 30.3806C34.5659 30.1308 34.4976 29.8826 34.4488 29.6282C31.1275 28.2394 27.4219 27.5137 23.6588 27.5152C10.5909 27.5121 0 36.1282 0 46.7561Z" fill="white" fill-opacity="0.49"/>
</svg>