<svg width="275" height="325" viewBox="0 0 275 325" fill="none" xmlns="http://www.w3.org/2000/svg">
<g opacity="0.07">
<path d="M18.907 92.5596C-1.59497 119.537 -19.7324 143.416 -21.3861 145.449C-24.1742 148.915 -21.1982 149.6 37.5197 157.675C71.5681 162.358 100.961 166.477 102.777 166.684C105.453 167.109 109.484 162.934 120.692 148.279C128.66 137.854 135.002 129.066 134.866 128.738C134.73 128.411 124.178 125.685 111.318 122.958C98.6223 120.162 87.9744 117.669 87.9063 117.505C87.8382 117.341 92.035 110.791 97.2706 103.04L106.675 89.1341L133.665 93.4838C149.324 96.0085 161.27 97.0011 162.145 95.8685C163.019 94.736 168.87 86.1525 175.5 76.6685L187.269 59.6654L123.636 51.327C88.5359 46.889 59.1153 43.1654 58.0638 43.4103C57.108 43.4232 39.4089 65.5827 18.907 92.5596Z" fill="#448F9D"/>
<path d="M185.297 89.1272L171.203 109.788L184.49 141.748L197.777 173.708L186.078 188.567L174.542 203.359L160.832 171.767C153.377 154.298 146.889 140.079 146.562 140.216C146.234 140.352 140.138 147.884 133.045 157.176L120.019 173.933L143.444 231.665C156.499 263.53 167.524 289.125 167.976 288.361C168.659 287.693 187.328 264.169 209.825 235.978L250.403 184.7L226.01 126.024C212.587 93.7366 201.125 67.5534 200.537 67.9898C199.718 68.3305 192.924 77.8827 185.297 89.1272Z" fill="#448F9D"/>
<path d="M-2.57568 222.595L21.628 279.427L84.9737 288.461C119.882 293.364 149.439 297.415 150.791 297.43C152.538 297.472 148.056 285.303 129.318 240.231L105.538 183.031L44.1849 175.09C10.6005 170.599 -19.2842 166.684 -21.8918 166.422L-26.5473 165.859L-2.57568 222.595Z" fill="#448F9D"/>
</g>
</svg>