<svg width="80" height="80" viewBox="0 0 80 80" fill="none" xmlns="http://www.w3.org/2000/svg">
<rect width="80" height="80" rx="40" fill="#00EBFC" fill-opacity="0.4"/>
<path d="M46.1095 20.8337C40.7075 19.3703 35.9264 18.0765 35.5126 17.9496C34.809 17.738 34.8889 18.236 37.2981 27.725C38.695 33.2273 39.8891 37.9821 39.9703 38.2729C40.0713 38.7088 40.9606 39.0667 43.8995 39.8724C45.9899 40.4449 47.7287 40.8701 47.7705 40.8289C47.8122 40.7877 47.5743 39.0034 47.1934 36.8657C46.8332 34.7489 46.5538 32.9643 46.5747 32.9437C46.5955 32.9231 47.8587 33.1588 49.3701 33.479L52.0824 34.0553L53.0922 38.4565C53.6778 41.0101 54.2675 42.9002 54.4952 42.9638C54.7228 43.0274 56.3998 43.3901 58.2631 43.816L61.5963 44.562L58.9223 34.3043C57.4226 28.6562 56.1661 23.9218 56.0634 23.7761C56.0021 23.6306 51.5115 22.2971 46.1095 20.8337Z" fill="#F7F7F7"/>
<path d="M56.9634 46.0889L52.9261 45.2143L48.859 49.2321L44.7918 53.2499L41.7911 52.3816L38.8109 51.5342L42.7954 47.4744C45.0065 45.2489 46.7801 43.3732 46.7389 43.3314C46.6977 43.2897 45.1664 42.8243 43.3037 42.3154L39.9302 41.3619L32.5476 48.5314C28.4807 52.5078 25.2474 55.7844 25.3924 55.806C25.5371 55.8691 30.2968 57.2664 36.0084 58.9597L46.3763 61.9875L53.8432 54.6112C57.952 50.5522 61.2482 47.1723 61.1449 47.1095C61.0419 47.0052 59.1581 46.5584 56.9634 46.0889Z" fill="#F7F7F7"/>
<path d="M24.8714 25.6175L17.675 32.8503L20.2246 43.1072C21.6414 48.7548 22.8561 53.5304 22.9378 53.7382C23.0398 54.0083 24.6242 52.5668 30.3599 46.9006L37.639 39.7098L35.0456 29.8258C33.6482 24.4064 32.3922 19.589 32.2704 19.1736L32.0676 18.4261L24.8714 25.6175Z" fill="#F7F7F7"/>
</svg>