<svg width="801" height="700" viewBox="0 0 801 700" fill="none" xmlns="http://www.w3.org/2000/svg">
<path d="M241.203 141.916L214.328 176.198L221.279 198.572C225.039 210.914 229.368 225.565 230.852 231.02L233.473 241.093L173.954 235.481L114.434 229.87L77.4671 272.852L40.2635 315.737L57.6468 357.08C67.255 379.72 77.336 402.556 80.2254 407.621L85.3231 417.057L142.625 430.053C173.988 437.187 200.302 443.481 200.816 444.247C201.567 445.11 194.99 458.028 186.159 473.058C173.984 494.179 170.459 501.716 171.249 505.5C172.787 512.498 201.606 587.472 202.608 587.056C203.109 586.847 210.74 577.408 219.554 566.106L235.665 545.503L228.168 527.469L220.67 509.434L227.703 500.44C231.532 495.518 235.403 491.167 236.237 490.82C237.072 490.473 240.463 495.331 243.838 501.565C247.213 507.8 251.2 514.564 252.771 516.457L255.369 519.881L263.098 510.205L270.826 500.53L243.281 432.86L215.569 365.26L173.997 355.712C126.737 345.199 129.144 344.394 138.182 367.076C140.861 373.992 143.415 381.547 143.747 383.759C144.203 387.683 143.799 387.654 130.238 385.654L116.037 383.529L106.537 363.977C101.455 353.164 95.539 340.347 93.5258 335.505L89.8465 326.655L110.316 300.519C121.54 286.061 131.05 274.077 131.718 273.8C132.219 273.591 138.214 274.82 145.251 276.203L158.019 279.12L148.364 297.823C140.088 314.189 139.182 316.72 142.381 317.349C157.569 320.435 220.162 327.315 221.387 326.022C223.043 324.354 309.642 213.736 310.199 212.721C310.228 212.317 308.258 205.694 305.802 197.902L301.278 183.723L288.899 199.641C281.964 208.4 276.018 215.768 275.684 215.906C275.183 216.115 272.448 210.006 269.658 202.353L264.397 188.285L277.123 173.202C287.9 160.496 289.572 157.451 288.671 152.929C287.259 145.291 270.68 106.356 269.344 106.911C268.579 107.425 256.061 123.009 241.203 141.916Z" fill="#F7F7F7" fill-opacity="0.07"/>
<path d="M294.078 125.418L304.352 150.131L324.242 153.221L344.132 156.311L348.575 166.998C351.074 173.01 352.419 178.13 351.751 178.408C350.916 178.755 343.029 179.096 333.862 179.186L317.475 179.34L322.18 192.072C324.762 199.225 327.122 204.902 327.595 205.097C327.998 205.125 360.421 208.684 399.841 213.056L471.614 220.82L499.181 190.558C514.302 173.696 527.306 159.281 527.627 158.169C528.017 157.223 519.825 154.949 509.491 153.174C498.92 151.302 489.727 149.444 488.879 148.818C486.877 147.3 502.056 127.28 505.84 126.49C507.482 126.2 521.767 127.115 537.805 128.477L566.654 130.976L579.566 162.035L592.478 193.094L583.846 202.95C579.084 208.455 574.88 212.945 574.546 213.084C574.212 213.222 568.834 205.47 562.29 195.852L550.772 178.51L526.555 210.708L502.437 242.67L530.398 311.342L558.457 379.777L571.657 382.319L585.092 384.959L578.304 367.217C573.501 354.722 572.017 349.267 573.52 348.643C574.688 348.157 581.073 348.44 587.903 349.322L600.213 350.667L608.029 369.94L615.845 389.212L641.856 392.891C656.224 394.948 668.839 396.557 669.577 396.447C670.551 396.434 663.109 377.593 653.293 354.451L635.298 312.58L603.74 305.919C586.327 302.191 571.806 298.827 571.598 298.326C571.321 297.658 585.61 276.442 603.436 251.013C621.095 225.654 636.178 203.52 636.763 202.102C638.296 198.723 601.627 94.5024 598.623 93.4011C597.608 92.8438 573.086 89.917 544.195 86.8475L491.59 80.9075L450.823 126.057C428.421 150.842 409.486 171.248 408.847 171.122C408.207 170.997 400.344 158.206 391.3 142.577L374.866 114.353L331.011 107.321C306.949 103.616 286.419 100.4 285.515 100.58C284.541 100.593 288.177 111.224 294.078 125.418Z" fill="#F7F7F7" fill-opacity="0.07"/>
<path d="M287.47 300.312C266.582 327.797 248.103 352.126 246.418 354.197C243.577 357.728 246.609 358.426 306.433 366.654C341.122 371.425 371.069 375.622 372.919 375.832C375.645 376.265 379.752 372.012 391.171 357.081C399.289 346.459 405.751 337.506 405.612 337.172C405.473 336.838 394.722 334.061 381.621 331.283C368.686 328.435 357.838 325.894 357.768 325.727C357.699 325.56 361.975 318.887 367.309 310.99L376.891 296.822L404.389 301.254C420.342 303.826 432.513 304.837 433.404 303.683C434.296 302.529 440.256 293.784 447.011 284.122L459.002 266.799L394.171 258.303C358.41 253.782 328.435 249.988 327.364 250.238C326.39 250.251 308.358 272.827 287.47 300.312Z" fill="#3EADBC" fill-opacity="0.29"/>
<path d="M456.989 296.816L442.63 317.866L456.167 350.428L469.704 382.99L457.784 398.129L446.032 413.199L432.063 381.012C424.468 363.214 417.858 348.728 417.524 348.867C417.19 349.006 410.98 356.679 403.753 366.147L390.482 383.219L414.348 442.038C427.649 474.502 438.882 500.58 439.341 499.801C440.037 499.12 459.059 475.153 481.978 446.432L523.321 394.189L498.468 334.408C484.792 301.513 473.115 274.836 472.516 275.281C471.681 275.628 464.76 285.36 456.989 296.816Z" fill="#3EADBC" fill-opacity="0.29"/>
<path d="M265.58 432.794L290.239 490.696L354.777 499.901C390.343 504.895 420.456 509.023 421.834 509.038C423.614 509.081 419.047 496.683 399.957 450.762L375.729 392.485L313.221 384.395C279.004 379.819 248.556 375.83 245.9 375.564L241.157 374.99L265.58 432.794Z" fill="#3EADBC" fill-opacity="0.29"/>
<path d="M276.87 525.435C272.206 530.703 268.711 535.486 268.919 535.987C269.127 536.488 277.848 538.15 288.043 539.591C298.406 540.962 306.89 542.527 306.959 542.694C307.098 543.028 303.074 548.422 298.325 554.901L289.413 566.44L269.955 562.974C259.147 561.004 249.759 559.62 249.258 559.828C248.59 560.105 240.458 569.753 230.976 581.333C216.146 599.837 214.503 602.478 217.938 603.204C220.025 603.512 240.318 606.63 263.031 609.917L304.286 615.876L326.729 591.662C338.94 578.164 349.506 567.308 349.812 567.573C350.285 567.768 361.798 592.162 375.434 622.137C389.001 651.944 400.347 676.409 400.347 676.409C400.583 676.506 425.535 681.409 455.772 687.247L510.795 698.058L543.004 655.879C560.828 632.801 575.603 612.753 575.952 611.237C576.37 609.888 568.755 583.09 559.126 551.45C549.566 519.976 541.825 493.818 541.922 493.581C541.951 493.178 557.03 493.176 575.267 493.232L608.388 493.759L637.642 459.075C653.807 440.017 666.854 423.821 666.646 423.32C666.021 421.817 617.061 414.753 614.557 415.795C613.555 416.211 607.498 422.842 601.121 430.585L589.592 444.779L578.158 443.657C571.801 442.97 566.182 442.173 565.64 441.811C564.93 441.518 568.762 434.246 573.721 425.917C578.777 417.352 582.914 410.344 582.845 410.177C582.567 409.51 557.335 406.29 556 406.845C555.165 407.192 535.029 433.189 510.938 464.748L467.38 522.025L479.743 562.126C486.555 584.166 492.578 602.421 493.12 602.783C493.76 602.909 500.317 596.07 507.725 587.507C515.132 578.944 521.62 571.938 521.926 572.203C522.399 572.398 524.8 578.646 527.354 586.201L531.906 599.976L513.802 624.737L495.698 649.498L463.193 644.798C427.488 639.469 428.267 639.929 423.676 623.233L420.998 613.966L442.074 612.842L462.983 611.787L447.155 573.715L431.327 535.643L359.514 524.958C320.11 519.209 287.103 514.718 286.338 515.232C285.67 515.509 281.298 520.069 276.87 525.435Z" fill="#F7F7F7" fill-opacity="0.07"/>
</svg>