<svg width="20" height="21" viewBox="0 0 20 21" fill="none" xmlns="http://www.w3.org/2000/svg">
<g filter="url(#filter0_d_1153_18085)">
<path d="M4.5 5.80022C4.5 4.80599 5.16357 4 5.98212 4H13.7632C14.5818 4 15.2454 4.80599 15.2454 5.80022V12.9451C15.2454 13.9394 14.5818 14.7454 13.7632 14.7454H5.98212C5.16357 14.7454 4.5 13.9394 4.5 12.9451L4.5 5.80022Z" fill="white" stroke="#C1C5BF" stroke-width="0.8" stroke-linecap="round" stroke-linejoin="round"/>
<path d="M5.0742 4.36279L8.33834 7.92296C9.15996 8.81909 10.5763 8.80801 11.3838 7.89913L14.5257 4.36279" fill="white"/>
<path d="M5.07422 4.47412L8.33835 8.03428C9.15997 8.93042 10.5763 8.91934 11.3838 8.01045L14.5257 4.47412" stroke="#C1C5BF" stroke-width="0.8" stroke-linecap="square" stroke-linejoin="round"/>
</g>
<defs>
<filter id="filter0_d_1153_18085" x="0.101562" y="0.600098" width="19.543" height="19.5454" filterUnits="userSpaceOnUse" color-interpolation-filters="sRGB">
<feFlood flood-opacity="0" result="BackgroundImageFix"/>
<feColorMatrix in="SourceAlpha" type="matrix" values="0 0 0 0 0 0 0 0 0 0 0 0 0 0 0 0 0 0 127 0" result="hardAlpha"/>
<feOffset dy="1"/>
<feGaussianBlur stdDeviation="2"/>
<feComposite in2="hardAlpha" operator="out"/>
<feColorMatrix type="matrix" values="0 0 0 0 0.0969792 0 0 0 0 0.127894 0 0 0 0 0.2375 0 0 0 0.08 0"/>
<feBlend mode="normal" in2="BackgroundImageFix" result="effect1_dropShadow_1153_18085"/>
<feBlend mode="normal" in="SourceGraphic" in2="effect1_dropShadow_1153_18085" result="shape"/>
</filter>
</defs>
</svg>
