<svg width="33" height="33" viewBox="0 0 33 33" fill="none" xmlns="http://www.w3.org/2000/svg">
<path d="M29.7457 8.12305C30.2532 8.93176 30.6251 9.8044 30.9527 10.6972C31.3128 11.6786 31.5551 12.6911 31.7114 13.7229C31.7841 14.2026 31.8153 14.6885 31.8654 15.1715C31.9268 16.437 31.7891 17.6831 31.5069 18.9161C31.0408 20.952 30.2216 22.8293 29.0018 24.5287C27.8934 26.0727 26.5509 27.3806 24.9891 28.4577C23.6913 29.3527 22.2845 30.0348 20.7769 30.5038C19.6443 30.8817 18.4829 31.1101 17.2933 31.22C16.8144 31.2642 16.3325 31.2851 15.8575 31.2852C14.6849 31.2855 13.5213 31.1551 12.3722 30.8914C9.9413 30.3337 7.76486 29.2612 5.8313 27.6961C3.82031 26.0683 2.27237 24.0808 1.23749 21.7015C0.821953 20.7461 0.481431 19.7666 0.269916 18.7457C0.219478 18.5023 0.17522 18.2556 0.155027 18.0063C0.0390966 17.0947 -0.00762272 16.1802 0.00100146 15.2607C0.0129172 13.9908 0.224771 12.7531 0.559073 11.5337C0.837564 10.5179 1.23624 9.54766 1.71129 8.60851C1.75344 8.52519 1.80758 8.44795 1.85615 8.36789C1.99116 8.40244 1.95306 8.50517 1.9373 8.59089C1.92043 8.68264 1.88537 8.77087 1.85527 8.8593C1.79523 9.03566 1.80239 9.17583 1.95593 9.32063C2.12159 9.47687 2.13707 9.71131 2.15269 9.93068C2.16043 10.0394 2.1519 10.1491 2.16938 10.2576C2.16911 10.3629 2.12376 10.4557 2.08913 10.5519C1.62268 11.8472 1.31202 13.1753 1.20343 14.5517C0.994655 17.1983 1.54213 19.6886 2.74165 22.0408C3.3455 23.2249 4.11991 24.2923 5.02083 25.2746C6.26167 26.6274 7.71262 27.6929 9.34772 28.5072C10.9492 29.3047 12.6454 29.7921 14.4317 29.9514C14.9252 29.9954 15.4191 30.0541 15.9144 30.0388C18.0861 29.9719 20.1765 29.5453 22.1597 28.6303C23.442 28.0386 24.6216 27.2904 25.6885 26.3692C27.0312 25.21 28.1162 23.8436 28.9548 22.2766C29.7478 20.795 30.2681 19.2286 30.4995 17.5663C30.5634 17.107 30.5987 16.6449 30.6272 16.1808C30.6918 15.1282 30.5799 14.0929 30.4097 13.0593C30.4007 13.0046 30.3969 12.9499 30.4068 12.8947C30.5116 12.567 30.3764 12.2629 30.3134 11.9519C30.3088 11.9292 30.2901 11.9086 30.2883 11.8862C30.2392 11.2739 29.9201 10.7141 29.9479 10.0844C29.9586 9.84292 29.9265 9.59581 29.8768 9.35854C29.8043 9.01314 29.8001 8.65442 29.67 8.3198C29.6419 8.24771 29.6138 8.14701 29.7457 8.12305Z" fill="#B0B6BA"/>
<path d="M20.7593 30.4416C22.4954 29.9087 24.0753 29.0708 25.5337 27.9958C26.4038 27.3544 27.188 26.6127 27.9021 25.8093C29.5381 23.9688 30.688 21.858 31.3025 19.4624C31.5422 18.5278 31.7179 17.5879 31.7815 16.6227C31.8074 16.2299 31.8035 15.8387 31.8184 15.4469C31.822 15.3527 31.8125 15.2573 31.8652 15.1719C31.9662 15.4129 31.9731 15.6752 31.9958 15.926C32.0515 16.5421 32.1316 17.1609 32.0947 17.7799C32.0431 18.6455 31.9645 19.507 31.7902 20.3624C31.5062 21.7557 31.0484 23.0816 30.3975 24.3421C29.8634 25.3765 29.2237 26.3405 28.4777 27.2372C27.0933 28.9013 25.4409 30.2223 23.5165 31.2122C22.0547 31.9642 20.5153 32.4711 18.8979 32.7538C17.7423 32.9558 16.5768 33.0407 15.4082 32.9817C13.854 32.9032 12.3323 32.6248 10.8638 32.0919C10.8358 32.0818 10.8119 32.0604 10.786 32.0443C10.7751 31.9091 10.8697 31.8717 10.9732 31.8476C11.058 31.8279 11.1455 31.831 11.2318 31.8338C12.5199 31.8757 13.8068 31.9437 15.0967 31.9398C15.4843 31.9386 15.8681 32.0643 16.267 32.0269C16.9713 31.961 17.6696 31.864 18.3557 31.6911C18.6146 31.6258 18.8649 31.5289 19.128 31.4763C19.2758 31.4467 19.4118 31.3828 19.5331 31.2917C19.679 31.1823 19.842 31.106 20.0069 31.0302C20.3031 30.894 20.547 30.6871 20.7593 30.4416Z" fill="#D5D9DC"/>
<path d="M20.7607 30.4418C20.7744 30.5648 20.7016 30.6228 20.6179 30.7074C20.3054 31.023 19.8618 31.1154 19.5266 31.3853C19.4324 31.4611 19.321 31.4983 19.2072 31.5285C18.4757 31.7224 17.7484 31.9193 16.9917 32.0192C16.6605 32.0629 16.3235 32.0496 15.9944 32.1207C15.8635 32.1489 15.7111 32.1227 15.5777 32.0871C14.9495 31.9193 14.3106 32.0136 13.6771 32.0024C13.2141 31.9942 12.7539 31.9292 12.2936 31.9338C11.8728 31.9381 11.4556 31.8725 11.035 31.8997C10.9201 31.9072 10.8388 31.9427 10.7874 32.0445C9.80154 31.7311 8.88756 31.2637 8.00031 30.74C6.63796 29.9357 5.43343 28.9329 4.37027 27.7682C3.49647 26.811 2.73424 25.7676 2.10927 24.6252C1.39264 23.3153 0.85944 21.9373 0.519426 20.4858C0.328549 19.671 0.183486 18.8469 0.15625 18.0068C0.27936 18.5144 0.389249 19.0256 0.528164 19.5289C0.876592 20.791 1.38242 21.9885 2.0236 23.1311C2.4394 23.872 2.90566 24.5794 3.44636 25.2314C4.09804 26.0171 4.80618 26.7489 5.59202 27.4093C6.27323 27.9818 6.99131 28.4958 7.7455 28.9613C8.59016 29.4826 9.48758 29.8991 10.4178 30.2442C11.5751 30.6735 12.7683 30.9486 13.9929 31.1076C14.5093 31.1747 15.0241 31.1796 15.5413 31.1983C17.2875 31.2613 18.9878 31.0098 20.6505 30.4833C20.6878 30.4715 20.724 30.4557 20.7607 30.4418Z" fill="#D0D4D7"/>
<path d="M9.12974 1.46971C10.2344 0.951779 11.3867 0.57674 12.5812 0.333333C13.3321 0.180297 14.0903 0.0874004 14.857 0.038451C15.3126 0.00936543 15.7673 -0.0104176 16.2211 0.00587198C18.2969 0.0804295 20.306 0.469111 22.2131 1.31944C23.1606 1.74193 24.0828 2.2089 24.9153 2.83607C24.9859 3.0514 24.9555 3.12851 24.7558 3.19324C24.6213 3.23683 24.4826 3.26776 24.3469 3.30866C24.2633 3.33383 24.2481 3.36943 24.2954 3.44339C24.3504 3.52939 24.4064 3.61845 24.361 3.72912C24.2145 3.78837 24.1267 3.67317 24.0287 3.60834C23.1562 3.03121 22.2413 2.53373 21.2691 2.14699C20.9421 2.01694 20.6154 1.88042 20.2691 1.80337C19.2079 1.46386 18.1182 1.26228 17.011 1.17444C16.4187 1.12744 15.8226 1.05073 15.2257 1.1381C14.7066 1.20235 14.1823 1.20793 13.6635 1.28312C13.1829 1.35277 12.7098 1.45425 12.2381 1.56494C11.7839 1.65742 11.3486 1.81379 10.909 1.95637C10.8078 1.98922 10.7069 2.0522 10.5934 1.99523C10.5988 1.7238 10.8659 1.73448 11.0144 1.60547C10.9561 1.56404 10.8952 1.58296 10.8407 1.59672C10.358 1.71852 9.8587 1.68741 9.37004 1.75781C9.13596 1.79155 9.09051 1.71881 9.12974 1.46971Z" fill="#D0D4D7"/>
<path d="M24.3501 3.7355C24.3399 3.69816 24.3261 3.66139 24.3202 3.62338C24.3034 3.51519 24.1932 3.45741 24.1654 3.371C24.1025 3.17528 24.2838 3.29133 24.3484 3.25873C24.4366 3.21426 24.5268 3.16999 24.6336 3.16314C24.8303 3.15054 24.9599 3.06365 24.9173 2.83594C25.9489 3.52429 26.8621 4.35211 27.6912 5.26724C28.4815 6.13966 29.2023 7.06937 29.7452 8.12319C29.6892 8.16097 29.6895 8.20973 29.712 8.26755C29.9205 8.80347 29.931 9.37645 30.016 9.93491C30.0549 10.1905 29.9239 10.469 30.0762 10.7089C30.2587 10.9963 30.2105 11.3189 30.2726 11.6242C30.3291 11.9013 30.4446 12.1698 30.495 12.4549C30.5228 12.6124 30.5393 12.7594 30.4545 12.9024C30.3334 12.8018 30.3335 12.6504 30.3015 12.5165C30.0256 11.3622 29.6273 10.2526 29.071 9.20411C28.4672 8.0662 27.7403 7.01566 26.8662 6.06239C26.4499 5.60844 25.9922 5.20223 25.5571 4.77063C25.2208 4.49258 24.8801 4.21995 24.534 3.954C24.4589 3.89626 24.3496 3.85984 24.3501 3.7355Z" fill="#C0C5C9"/>
<path d="M9.13127 1.46973C9.1528 1.75042 9.32221 1.72642 9.52652 1.67737C9.6761 1.64146 9.83456 1.63755 9.98958 1.6302C10.3312 1.61402 10.6697 1.57773 11.0065 1.51695C11.0648 1.50642 11.1712 1.47466 11.1839 1.56987C11.1943 1.64806 11.0946 1.67054 11.031 1.69213C10.858 1.75089 10.6931 1.81726 10.5963 1.98677C10.5953 2.1055 10.4884 2.1095 10.4174 2.13862C9.88842 2.3554 9.37313 2.60045 8.86953 2.87039C8.23112 3.22381 7.58909 3.57105 7.04413 4.06793C6.95215 4.15179 6.85701 4.23592 6.74533 4.29606C6.4137 4.5073 6.1242 4.76899 5.84598 5.04442C5.74622 5.14318 5.6538 5.25358 5.50374 5.27982C5.39316 5.28545 5.32614 5.37035 5.24266 5.4246C5.17748 5.46697 5.11758 5.52154 5.03235 5.51239C4.76637 5.48383 4.70877 5.2181 4.54764 5.0711C4.45203 4.98388 4.55199 4.8534 4.6038 4.74999C4.63143 4.69486 4.68093 4.65103 4.68881 4.58566C5.09143 4.17889 5.51454 3.79386 5.96193 3.43772C6.94104 2.65832 7.99116 1.99098 9.13127 1.46973Z" fill="#C8CCCF"/>
<path d="M4.68919 4.58545C4.77211 4.69552 4.65539 4.74866 4.62148 4.82598C4.5707 4.94179 4.58161 5.01074 4.67044 5.14125C4.90945 5.49235 5.12079 5.54088 5.41042 5.22661C5.44398 5.19019 5.48013 5.22989 5.49885 5.26814C5.49308 5.38449 5.39923 5.44195 5.33047 5.51427C4.27248 6.62694 3.35937 7.84281 2.66993 9.22057C2.52215 9.51591 2.3585 9.80315 2.23744 10.1114C2.21468 10.1694 2.19339 10.231 2.12616 10.2558C2.04634 10.0482 2.12073 9.82099 2.0404 9.61153C1.99534 9.49402 1.97387 9.36012 1.85345 9.29752C1.72091 9.22862 1.70262 9.1449 1.75091 9.0106C1.79809 8.87935 1.80909 8.73646 1.87113 8.60748C1.90892 8.5289 1.92947 8.44312 1.85549 8.36792C2.31144 7.47829 2.88278 6.66441 3.50836 5.88895C3.87648 5.43265 4.25658 4.98457 4.68919 4.58545Z" fill="#BABFC3"/>
<path d="M2.12738 10.2559C2.7686 8.68776 3.67196 7.28591 4.79058 6.01616C5.01858 5.75735 5.28605 5.53853 5.50005 5.26817C5.84882 4.96414 6.19672 4.6591 6.54719 4.35705C6.60486 4.30735 6.65369 4.23832 6.74174 4.23486C6.76458 4.36922 6.65732 4.43202 6.58207 4.50385C5.83348 5.21831 5.16958 6.00313 4.59503 6.86414C3.5005 8.50435 2.74433 10.2782 2.49956 12.2463C2.44651 12.6728 2.43967 13.1116 2.60859 13.5277C2.6594 13.6529 2.67732 13.7858 2.6772 13.9211C2.68344 14.0823 2.63978 14.2384 2.6319 14.3983C2.57396 14.836 2.58741 15.2762 2.58042 15.7159C2.57304 16.1806 2.62674 16.6399 2.67627 17.0998C2.67768 17.1651 2.67953 17.2305 2.70057 17.2935C2.99434 19.274 3.69682 21.0955 4.82594 22.7507C5.21162 23.3176 5.63299 23.8547 6.09532 24.363C7.12989 25.5006 8.33966 26.4085 9.69489 27.1199C11.0085 27.8095 12.403 28.2671 13.8749 28.4846C14.7189 28.6093 15.5671 28.6635 16.417 28.6215C18.0753 28.5396 19.6742 28.1825 21.2025 27.5242C23.0162 26.743 24.5894 25.6219 25.9202 24.1656C26.4252 23.6131 26.886 23.0232 27.2555 22.3675C28.2714 20.78 28.8892 19.0482 29.154 17.1846C29.254 16.4809 29.253 15.7754 29.2447 15.0683C29.2476 14.9499 29.2371 14.8303 29.2754 14.7151C29.3095 14.6405 29.3755 14.5953 29.4363 14.5464C29.8006 14.2533 29.9154 13.8476 29.8996 13.4108C29.8645 12.4464 29.6529 11.5128 29.3356 10.6035C29.1751 10.1435 28.9861 9.69441 28.7668 9.25889C28.1691 8.05836 27.4758 6.92178 26.5757 5.91772C26.2762 5.58357 25.9572 5.26988 25.6496 4.94441C25.5989 4.89075 25.46 4.83928 25.5806 4.72231C26.6765 5.68828 27.6502 6.76155 28.4388 7.99518C29.3675 9.44788 30.0304 11.0125 30.4023 12.6983C30.4174 12.7669 30.4377 12.8343 30.4555 12.9024C30.636 13.9828 30.7478 15.0667 30.6974 16.1661C30.5937 18.4288 30.0056 20.5539 28.8915 22.5244C26.8692 26.1014 23.8394 28.4343 19.902 29.5104C14.9822 30.855 10.4664 29.916 6.48217 26.725C3.75351 24.5396 2.04171 21.6829 1.35057 18.248C0.813605 15.5794 1.11456 12.9729 2.06512 10.4329C2.08704 10.3743 2.10667 10.3149 2.12738 10.2559Z" fill="#1D1E23"/>
<path d="M25.5793 4.72248C25.5281 4.8215 25.6308 4.84166 25.6715 4.88108C26.4403 5.62549 27.1402 6.4285 27.731 7.32165C28.1323 7.92838 28.4971 8.55759 28.814 9.21345C28.6999 9.29273 28.6182 9.21918 28.5516 9.1442C28.4071 8.98148 28.2302 8.90605 28.0153 8.88982C27.8667 8.8786 27.7211 8.83591 27.5985 8.743C27.4811 8.65406 27.3433 8.62732 27.2036 8.60373C27.1687 8.59344 27.1378 8.57583 27.1111 8.55121C26.6098 7.82848 26.0665 7.13699 25.4516 6.50885C24.7755 5.81827 24.0292 5.20611 23.2244 4.66789C22.414 4.12679 21.5498 3.68953 20.6462 3.32787C20.5678 3.29648 20.4788 3.27495 20.4519 3.17597C20.5366 2.90074 20.4293 2.66245 20.3036 2.42966C20.2669 2.36149 20.207 2.30776 20.1577 2.24741C19.997 2.05065 20.0136 1.95978 20.2337 1.81945C20.2664 1.79857 20.3025 1.783 20.3308 1.75537C21.2554 2.02455 22.123 2.42542 22.9648 2.88793C23.4399 3.14901 23.8888 3.45197 24.3498 3.73568C24.7575 4.06724 25.1979 4.35812 25.5793 4.72248Z" fill="#9BA0A6"/>
<path d="M20.3308 1.75528C20.3289 1.80517 20.3136 1.85321 20.2669 1.87289C20.0032 1.98401 20.0833 2.12225 20.244 2.24897C20.4943 2.44637 20.4557 2.77076 20.5947 3.01728C20.6359 3.09028 20.502 3.10686 20.4745 3.1703C20.3769 3.24677 20.2782 3.19797 20.1843 3.16655C19.2886 2.86701 18.373 2.65881 17.4343 2.55151C16.9272 2.49355 16.419 2.47028 15.9088 2.48043C15.7764 2.48307 15.6418 2.49605 15.5122 2.45406C15.38 2.32948 15.5029 2.28112 15.5865 2.23832C15.7973 2.13035 15.8245 2.09373 15.6781 1.91744C15.535 1.74509 15.5011 1.51961 15.3551 1.35201C15.2654 1.24896 15.3406 1.18385 15.4377 1.13976C15.3613 1.1408 15.281 1.15612 15.2227 1.08504C15.5703 0.994871 15.9258 1.03333 16.2738 1.05332C16.9605 1.09275 17.6462 1.15211 18.3268 1.26832C19.0071 1.38448 19.6751 1.54236 20.3308 1.75528Z" fill="#8F9498"/>
<path d="M8.83937 2.83053C9.35691 2.51292 9.91788 2.28648 10.4745 2.05087C10.5168 2.03299 10.5562 2.00833 10.5969 1.98682C11.0863 1.8362 11.5755 1.68502 12.0654 1.53591C12.109 1.52262 12.1567 1.52272 12.2026 1.5166C12.2246 1.56808 12.1945 1.60607 12.1692 1.64534C12.0364 1.85159 12.0425 1.91292 12.2333 2.07307C12.3539 2.1743 12.4742 2.27463 12.5532 2.41291C12.6165 2.52367 12.7269 2.53025 12.8319 2.56125C12.9251 2.58877 13.0704 2.59136 13.0052 2.76322C12.7725 2.8817 12.5154 2.92505 12.2685 2.99844C11.4018 3.25607 10.5676 3.59289 9.76405 4.00689C9.68759 4.04628 9.6113 4.088 9.52248 4.09422C9.46019 4.09285 9.39864 4.08244 9.33538 4.09058C8.97766 4.1366 8.8114 4.04928 8.64137 3.72896C8.61563 3.68047 8.59787 3.62839 8.57724 3.57762C8.42207 3.19585 8.42337 3.19062 8.74469 2.93263C8.78134 2.9032 8.81915 2.87509 8.83937 2.83053Z" fill="#7A7F82"/>
<path d="M13.0068 2.73824C13.004 2.65273 12.9324 2.63196 12.8757 2.63194C12.6455 2.63185 12.5171 2.50338 12.4099 2.317C12.3576 2.22589 12.2556 2.16674 12.1667 2.10112C11.9533 1.94364 11.9664 1.80818 12.2032 1.51641C12.7472 1.34187 13.3091 1.25197 13.8737 1.1868C14.3216 1.13507 14.7735 1.11766 15.2237 1.08499C15.322 1.08496 15.4204 1.08496 15.5258 1.08496C15.5047 1.20748 15.3853 1.1848 15.3562 1.26134C15.5637 1.50353 15.6673 1.8069 15.8322 2.07448C15.8961 2.17812 15.905 2.29435 15.7149 2.26989C15.5989 2.25498 15.5187 2.3096 15.4645 2.4086C15.3021 2.53398 15.1026 2.49374 14.9227 2.51136C14.3693 2.56554 13.8215 2.64879 13.2764 2.75489C13.1872 2.77227 13.0925 2.8083 13.0068 2.73824Z" fill="#85898D"/>
<path d="M8.83957 2.83008C8.86554 2.97923 8.7352 3.0167 8.65032 3.07306C8.5296 3.15322 8.51421 3.23577 8.55805 3.37055C8.63706 3.6135 8.76318 3.82073 8.93808 4.00423C9.03237 4.10317 9.14093 4.06744 9.2443 4.049C9.33605 4.03265 9.42403 3.9833 9.5093 4.06194C9.47027 4.17978 9.35934 4.21695 9.26702 4.27128C8.64364 4.63814 8.04773 5.04386 7.49519 5.51173C6.98057 5.9404 6.49583 6.39968 6.04969 6.9C5.59328 7.41184 5.16739 7.94679 4.78048 8.51336C4.47361 8.96273 4.18785 9.42361 3.96006 9.91897C3.38455 11.0717 2.96619 12.2758 2.75411 13.5497C2.73395 13.6708 2.77039 13.8256 2.62113 13.9029C2.61708 13.8482 2.62629 13.7882 2.60704 13.7395C2.23856 12.8068 2.43543 11.8797 2.66815 10.9676C3.20317 8.87093 4.22064 7.02484 5.64049 5.39492C5.9459 5.04433 6.2781 4.72234 6.6082 4.397C6.65769 4.34823 6.69693 4.28905 6.74093 4.23466C7.371 3.6626 8.0818 3.21126 8.83957 2.83008Z" fill="#717679"/>
<path d="M29.3093 15.0781C29.3842 16.5477 29.1723 17.9794 28.7243 19.3767C28.3805 20.4491 27.9312 21.4741 27.2955 22.4101C26.6701 22.9593 26.0754 23.543 25.4155 24.0534C23.5328 25.5096 21.4421 26.5183 19.1099 27.0196C18.2857 27.1968 17.4522 27.3011 16.6141 27.372C16.4277 27.3878 16.3711 27.4599 16.3738 27.6356C16.3752 27.7237 16.4281 27.8654 16.2543 27.879C16.1651 27.6177 16.1655 27.3406 16.114 27.0725C16.0696 26.8417 16.033 26.6095 15.9421 26.3821C15.8191 26.7809 15.7121 27.1824 15.6741 27.5997C15.6656 27.6925 15.6825 27.7893 15.6263 27.8737C15.4612 27.8805 15.5079 27.7488 15.4996 27.6658C15.473 27.3981 15.4663 27.3916 15.2082 27.3809C13.2087 27.2979 11.2783 26.906 9.44713 26.0794C7.83466 25.3514 6.3686 24.4071 5.12148 23.1401C5.00594 23.0227 4.92065 22.8773 4.78319 22.7811C3.91932 21.5663 3.333 20.2233 2.9452 18.7897C2.81416 18.3053 2.6921 17.8183 2.65089 17.3156C2.64129 17.2861 2.62576 17.2537 2.64847 17.2267C2.68854 17.1791 2.71819 17.2176 2.73752 17.2483C2.90954 17.5219 3.17382 17.6687 3.46387 17.78C3.57596 17.8231 3.6942 17.8618 3.68988 18.0127C3.68591 18.1512 3.57796 18.1876 3.46947 18.221C3.43358 18.2321 3.39168 18.2395 3.37677 18.303C3.53058 18.4045 3.72308 18.4137 3.88345 18.393C4.32579 18.3361 4.76104 18.4102 5.19922 18.4117C5.49766 18.4128 5.79615 18.4149 6.09455 18.4109C6.2926 18.4082 6.48778 18.4204 6.67435 18.4909C6.97739 18.6053 7.28114 18.5092 7.58431 18.4972C7.7048 18.4925 7.73961 18.4083 7.72923 18.2992C7.72021 18.2044 7.68514 18.1163 7.65905 18.0259C7.63084 17.9281 7.59207 17.8289 7.67422 17.7367C7.8436 17.6741 7.8294 17.8302 7.85899 17.9071C7.98891 18.2448 8.1172 18.5817 8.27572 18.9084C8.53492 19.4425 8.85865 19.9329 9.22312 20.3988C9.92047 21.3024 10.7739 22.0231 11.7649 22.5867C12.8295 23.1922 13.9752 23.5522 15.1897 23.6468C16.5484 23.7527 17.8761 23.5743 19.1449 23.0442C20.1682 22.6168 21.0562 21.9888 21.859 21.2322C23.5227 19.5689 24.3436 17.553 24.3797 15.2087C24.3804 15.1696 24.3799 15.1303 24.3844 15.0914C24.3934 15.0132 24.3983 14.9285 24.4978 14.9097C24.5816 14.8939 24.6219 14.9563 24.6653 15.0138C24.8552 15.2652 24.9298 15.2864 25.2175 15.1683C25.3289 15.1226 25.4387 15.087 25.5554 15.1476C25.6228 15.2119 25.5769 15.2762 25.5553 15.3408C25.4489 15.658 25.5164 15.8834 25.755 16.0078C25.9771 16.1234 26.218 16.0406 26.4154 15.7793C26.4533 15.7292 26.4875 15.6767 26.5536 15.6596C26.9996 15.7366 27.4458 15.8043 27.8988 15.8337C28.141 15.8495 28.3824 15.8646 28.6242 15.8569C28.9696 15.8458 29.0764 15.7302 29.0842 15.382C29.154 15.277 29.1749 15.1355 29.3093 15.0781Z" fill="#E5EDEF"/>
<path d="M29.31 15.0785C29.2483 15.1758 29.2673 15.3258 29.1213 15.3683C28.9996 15.3802 28.9142 15.3073 28.8254 15.2422C28.5275 15.1387 28.2229 15.1882 27.9218 15.2106C27.6807 15.2286 27.4401 15.2603 27.199 15.2821C26.8831 15.3106 26.5976 15.2186 26.3248 15.0614C26.0153 14.8829 25.8585 14.9119 25.6233 15.1638C25.6114 15.1689 25.5993 15.1737 25.5873 15.1786C25.4357 15.1602 25.2993 15.1806 25.1643 15.2704C25.015 15.3697 24.7473 15.2996 24.6588 15.1616C24.6115 15.0879 24.6256 14.9307 24.5118 14.9553C24.3859 14.9824 24.4705 15.1303 24.4445 15.221C24.3171 15.2028 24.3444 15.0969 24.3404 15.0203C24.2509 13.2919 23.6328 11.7684 22.4987 10.4737C21.5481 9.38862 20.4099 8.54592 19.0286 8.06714C18.9286 8.03248 18.8291 8.0308 18.7267 8.0345C18.2793 7.91529 17.8365 7.78086 17.3812 7.69033C16.4376 7.50267 15.4948 7.51018 14.5496 7.66901C14.4569 7.6846 14.3639 7.70179 14.2691 7.69935C13.9875 7.63881 13.7226 7.73546 13.453 7.78775C13.4154 7.79518 13.3778 7.79549 13.34 7.79015C13.0292 7.68817 12.7568 7.50044 12.4487 7.39012C12.3609 7.35867 12.2891 7.28517 12.3342 7.1683C12.379 7.1046 12.4475 7.0883 12.5183 7.07543C13.1538 6.95998 13.7949 6.89236 14.4378 6.83188C14.9017 6.78823 15.3651 6.79418 15.8292 6.78797C17.512 6.76544 19.1544 7.02684 20.7672 7.49149C22.7711 8.06882 24.653 8.9158 26.3958 10.0642C26.6717 10.2459 26.9408 10.4389 27.2078 10.6342C27.2737 10.6825 27.3572 10.7639 27.4361 10.6862C27.4988 10.6245 27.436 10.5369 27.4046 10.4675C27.1737 9.95707 26.9014 9.46978 26.5845 9.00725C26.5323 8.93116 26.464 8.8587 26.4649 8.75587C26.485 8.72012 26.5182 8.69916 26.5563 8.69365C26.7599 8.66425 26.9666 8.64634 27.1367 8.51099C27.1527 8.52601 27.1688 8.54103 27.1848 8.55606C27.4971 8.85705 27.6782 9.24731 27.8774 9.61896C28.6448 11.0511 29.093 12.5869 29.3117 14.1931C29.3223 14.2716 29.3321 14.3494 29.3075 14.4266C29.2658 14.5145 29.1565 14.5729 29.1778 14.6874C29.1971 14.7919 29.2344 14.6938 29.2641 14.6886C29.2855 14.6833 29.3051 14.6867 29.3227 14.6996C29.3185 14.8259 29.3142 14.9522 29.31 15.0785Z" fill="#D4DDE2"/>
<path d="M7.71698 17.7163C7.66708 17.7964 7.67062 17.8745 7.70704 17.9621C7.74903 18.0631 7.78538 18.1691 7.80422 18.2765C7.84567 18.5127 7.79032 18.5611 7.54928 18.5762C6.64934 18.6326 5.76255 18.4067 4.85913 18.4654C4.56181 18.4847 4.25659 18.4314 3.94999 18.4719C3.76853 18.4959 3.57692 18.4488 3.39059 18.4275C3.31611 18.4189 3.24979 18.3735 3.24528 18.2956C3.24058 18.2144 3.30937 18.1737 3.38092 18.1559C3.4259 18.1447 3.47496 18.151 3.52184 18.1461C3.59331 18.1387 3.63876 18.0991 3.64559 18.0265C3.65314 17.9463 3.62208 17.8868 3.53711 17.8705C3.24157 17.814 3.02094 17.624 2.78468 17.4587C2.71272 17.4084 2.72946 17.3352 2.69751 17.282C2.65462 17.2105 2.67031 17.3056 2.65121 17.3156C2.61575 17.267 2.61064 17.2122 2.61828 17.1547C2.64103 16.7789 2.56951 16.4082 2.55597 16.0338C2.53923 15.5709 2.56678 15.1114 2.58506 14.6505C2.58876 14.5572 2.60062 14.4624 2.57277 14.37C2.58911 14.2144 2.60545 14.0588 2.62179 13.9031C2.73103 13.3927 2.79806 12.8736 2.94537 12.3709C3.19907 11.505 3.49534 10.6564 3.9288 9.86123C3.9641 9.88336 3.97867 9.91893 3.98652 9.95677C4.01898 10.1134 4.10175 10.1849 4.26675 10.1325C4.31887 10.1159 4.37356 10.1177 4.41741 10.1613C4.45026 10.3148 4.3484 10.43 4.30467 10.5619C4.27571 10.6493 4.2191 10.7305 4.23605 10.8319C4.32497 10.8647 4.36684 10.7924 4.41639 10.7518C4.86174 10.3872 5.33065 10.0567 5.82172 9.75625C5.99807 9.64836 6.18506 9.5688 6.37755 9.49933C6.44301 9.4757 6.52298 9.4424 6.57663 9.50603C6.64066 9.58199 6.58252 9.65888 6.53568 9.71831C6.4135 9.87335 6.32592 10.0529 6.20473 10.2054C5.95321 10.5218 5.81455 10.8837 5.71491 11.267C5.68718 11.3737 5.64934 11.4774 5.60066 11.5767C5.56945 11.6404 5.52158 11.7065 5.52809 11.7745C5.57714 12.2861 5.41278 12.7956 5.5576 13.3148C5.64133 13.6149 5.72907 13.9183 5.79182 14.2257C5.82466 14.3865 5.88889 14.5233 6.02488 14.6217C6.07471 14.6578 6.14287 14.6925 6.11846 14.7683C6.09607 14.8378 6.02242 14.8389 5.96121 14.8531C5.81342 14.8873 5.63426 14.8766 5.60755 15.0913C5.48742 15.2418 5.39076 15.4199 5.17698 15.4621C4.57495 15.3553 3.97173 15.2612 3.35685 15.2865C3.263 15.2904 3.16776 15.283 3.07803 15.3178C2.94788 15.3683 2.8739 15.4604 2.87999 15.6048C2.886 15.747 2.97678 15.8077 3.10365 15.8369C3.2501 15.8706 3.40137 15.8483 3.54775 15.8791C3.98585 15.9675 4.41164 15.8472 4.8405 15.796C4.9526 15.7826 5.07425 15.7853 5.17828 15.724C5.19808 15.6958 5.22243 15.6744 5.25838 15.671C5.33136 15.6807 5.35162 15.7464 5.38907 15.794C5.65124 16.127 5.94684 16.1399 6.22801 15.8305C6.25416 15.8018 6.27894 15.7717 6.30767 15.7455C6.48297 15.5501 6.47566 15.4101 6.28342 15.2994C6.25194 15.2797 6.23209 15.2524 6.22665 15.2152C6.26674 14.9143 6.30605 14.8951 6.54811 15.0715C6.66812 15.159 6.80197 15.208 6.94508 15.1967C7.1237 15.1826 7.26804 15.2404 7.39944 15.3511C7.43696 15.4049 7.44375 15.4659 7.44154 15.529C7.43946 15.5644 7.43129 15.5986 7.41751 15.6313C7.31742 15.7454 7.36246 15.8472 7.44578 15.9457C7.53488 16.293 7.57657 16.6479 7.61999 17.0023C7.57527 17.1299 7.51301 17.2608 7.68032 17.3529C7.73401 17.47 7.79336 17.5864 7.71698 17.7163Z" fill="#DBE3E7"/>
<path d="M16.26 27.8836C16.3667 27.7597 16.2996 27.6125 16.31 27.4767C16.3179 27.3725 16.3441 27.3252 16.4587 27.3159C17.0116 27.2713 17.5633 27.2195 18.1127 27.1352C18.7944 27.0305 19.4656 26.8844 20.1289 26.7C21.1697 26.4107 22.1559 25.9861 23.1086 25.4803C24.0046 25.0046 24.844 24.4447 25.6257 23.7977C26.091 23.4125 26.5548 23.0262 26.9767 22.592C27.0616 22.5046 27.154 22.4113 27.2935 22.4102C26.9099 23.1019 26.4206 23.7161 25.8834 24.2911C23.7082 26.6197 21.0422 28.0535 17.8963 28.5305C14.308 29.0746 11.0183 28.2698 8.04914 26.1739C6.7817 25.2792 5.73051 24.1734 4.84445 22.9054C4.81811 22.8677 4.80209 22.8227 4.78125 22.7812C4.89228 22.7805 4.94402 22.8704 5.00661 22.9365C6.18229 24.1785 7.57668 25.118 9.10641 25.858C10.3465 26.4579 11.6525 26.8648 13.0155 27.0865C13.789 27.2124 14.5648 27.3028 15.3484 27.3164C15.4971 27.319 15.5602 27.3712 15.5628 27.5247C15.5648 27.6442 15.5098 27.7768 15.6129 27.8836C15.6368 27.8789 15.6591 27.8841 15.6778 27.8986C15.9357 28.0984 15.9355 28.0984 16.1951 27.8979C16.2139 27.8834 16.2362 27.8784 16.26 27.8836Z" fill="#C7CDD1"/>
<path d="M29.2568 14.4651C29.2279 13.7952 29.0788 13.1449 28.9148 12.4997C28.568 11.1356 28.0344 9.85052 27.2385 8.68234C27.2113 8.64234 27.1839 8.60596 27.1836 8.55589C27.3611 8.54685 27.5171 8.58789 27.6579 8.70935C27.7727 8.80845 27.9297 8.83017 28.0758 8.83484C28.2877 8.8416 28.4541 8.92437 28.5799 9.08605C28.6429 9.16697 28.7117 9.21554 28.8142 9.21344C29.4708 10.542 29.9048 11.9323 29.9582 13.4233C29.9773 13.9564 29.8143 14.4142 29.3215 14.6995C29.3036 14.6979 29.2858 14.6963 29.268 14.6948C29.1957 14.6215 29.2056 14.5443 29.2568 14.4651Z" fill="#90969B"/>
<path d="M2.57248 14.3701C2.65505 14.7096 2.63301 15.058 2.59436 15.3942C2.54184 15.851 2.63289 16.2946 2.64094 16.7445C2.64342 16.8827 2.69295 17.0215 2.618 17.1548C2.49919 16.2283 2.46506 15.3004 2.57248 14.3701Z" fill="#E5EDEF"/>
<path d="M7.47488 5.47053C7.99682 4.98317 8.59843 4.60801 9.20622 4.24164C9.3065 4.18119 9.40768 4.12222 9.50843 4.06254C10.5845 3.49498 11.7129 3.06237 12.8894 2.75459C12.927 2.74478 12.9668 2.74373 13.0055 2.73856C13.8167 2.5689 14.6325 2.43319 15.4632 2.40894C15.8173 2.41001 16.1717 2.40056 16.5252 2.41419C17.5607 2.45414 18.578 2.61314 19.5732 2.90598C19.8735 2.99434 20.1739 3.08231 20.4742 3.17049C20.6802 3.31649 20.9267 3.37461 21.1528 3.47628C21.8871 3.80642 22.6029 4.16761 23.2624 4.63285C23.2593 4.77222 23.1615 4.81736 23.0485 4.83411C22.9039 4.85553 22.7865 4.92015 22.6886 5.02573C22.5845 5.04003 22.5098 4.97656 22.4307 4.92687C20.8554 3.93734 19.1546 3.27906 17.303 3.0663C15.6301 2.87408 13.9742 2.99198 12.3518 3.47655C10.7408 3.9577 9.27754 4.71759 7.96647 5.77028C7.90501 5.81964 7.84385 5.86959 7.76317 5.88558C7.49518 5.81858 7.41733 5.70635 7.47488 5.47053Z" fill="#A6B6BF"/>
<path d="M22.697 5.01508C22.675 4.78052 22.8774 4.80706 22.9993 4.78774C23.12 4.76862 23.1952 4.71795 23.2639 4.63281C24.075 5.15988 24.8166 5.77536 25.4892 6.46637C26.1006 7.0945 26.6643 7.76736 27.1363 8.5109C27.008 8.84284 26.708 8.68876 26.4813 8.74231C26.3655 8.70487 26.3185 8.59738 26.2564 8.51014C25.8448 7.93124 25.3872 7.38723 24.8834 6.89154C24.2839 6.3015 23.6378 5.75857 22.9463 5.27398C22.8485 5.20549 22.7163 5.16228 22.697 5.01508Z" fill="#C1CDD5"/>
<path d="M7.4773 5.47021C7.4765 5.66623 7.57917 5.78778 7.75528 5.85648C7.78897 5.97163 7.68043 6.00002 7.62602 6.05374C6.89182 6.77858 6.15477 7.50033 5.56343 8.35342C5.43781 8.53464 5.30867 8.71331 5.19839 8.90463C4.95763 9.25125 4.76302 9.62508 4.55663 9.99199C4.51905 10.0588 4.4936 10.1374 4.40675 10.161C4.38323 10.1622 4.35847 10.1589 4.33636 10.1651C4.00381 10.2582 3.94551 10.215 3.92969 9.86131C4.25052 9.14085 4.69847 8.49817 5.16831 7.87177C5.80134 7.0278 6.52731 6.26804 7.32295 5.57528C7.36956 5.5347 7.42563 5.50498 7.4773 5.47021Z" fill="#C7D1D6"/>
<path d="M18.7695 7.99087C18.8531 7.92221 18.9365 7.97169 19.0142 7.99873C19.981 8.33549 20.8359 8.85797 21.6163 9.52048C22.5104 10.2795 23.2209 11.1697 23.7137 12.2358C24.1228 13.121 24.361 14.0457 24.3996 15.0209C24.4024 15.0897 24.3831 15.1644 24.4438 15.2208C24.4287 17.124 23.8521 18.8405 22.7126 20.3627C22.4695 20.6875 22.2194 21.0133 21.8966 21.2699C21.5622 21.3416 21.2968 21.5402 21.0473 21.7554C20.8045 21.9647 20.5203 22.0945 20.2362 22.2268C20.1531 22.2654 20.0544 22.2995 19.9892 22.1853C20.0031 22.0854 20.0863 22.0492 20.1578 22.0022C21.0829 21.3945 21.8605 20.6369 22.4801 19.7186C22.5505 19.6142 22.6199 19.5092 22.6671 19.3913C23.0739 18.6865 23.4094 17.9519 23.6116 17.1605C23.7621 16.5712 23.8583 15.9674 23.8526 15.3652C23.8379 13.8207 23.4183 12.3898 22.5448 11.0993C21.9186 10.1742 21.1479 9.40193 20.2074 8.80049C19.856 8.57578 19.4892 8.37888 19.1055 8.21224C18.9846 8.15975 18.8213 8.15445 18.7695 7.99087Z" fill="#ABB3B8"/>
<path d="M20.0012 22.1693C20.0502 22.2279 20.1145 22.2247 20.1713 22.1952C20.4601 22.045 20.7644 21.927 21.0152 21.7034C21.1932 21.5447 21.4042 21.4206 21.6098 21.2964C21.6901 21.2478 21.7923 21.1985 21.8942 21.2697C21.3326 21.8035 20.7333 22.2829 20.0529 22.6647C19.2299 23.1264 18.3614 23.4366 17.433 23.5996C15.7327 23.898 14.0922 23.7134 12.5082 23.0283C11.3889 22.5442 10.4243 21.841 9.5969 20.9494C9.44332 20.7839 9.27858 20.623 9.17188 20.418C9.34694 20.3185 9.48932 20.4352 9.63294 20.4986C9.77582 20.5616 9.90824 20.6488 10.0558 20.7044C10.4038 20.9733 10.7202 21.2796 11.0691 21.5484C12.119 22.3571 13.2996 22.8693 14.6013 23.0869C15.5769 23.2499 16.5594 23.2624 17.5325 23.0495C18.3046 22.8805 19.0411 22.6086 19.7389 22.2346C19.82 22.1911 19.8973 22.1247 20.0012 22.1693Z" fill="#9EA6AB"/>
<path d="M10.039 20.7476C9.81475 20.7173 9.65688 20.5382 9.44432 20.482C9.35432 20.4583 9.27035 20.4081 9.17236 20.4181C8.66013 19.8277 8.29504 19.1492 7.99212 18.4347C7.89201 18.1985 7.80679 17.9561 7.71478 17.7164C7.68615 17.592 7.69032 17.4591 7.61734 17.3465C7.5643 17.2589 7.5236 17.1692 7.56665 17.0644C7.50421 16.6851 7.44176 16.3058 7.37931 15.9264C7.32892 15.8324 7.31419 15.7385 7.3801 15.6449C7.38168 15.6136 7.38326 15.5824 7.38483 15.5511C7.42523 15.4866 7.3996 15.4131 7.41304 15.3446C7.44748 15.1692 7.5008 15.1437 7.6447 15.2567C7.69357 15.2951 7.72118 15.2806 7.76747 15.2696C7.85175 15.2494 7.79383 15.1968 7.79495 15.1639C7.79838 15.0622 7.78205 14.9585 7.8159 14.8603C7.83289 14.8109 7.85921 14.7458 7.9304 14.8157C7.96581 14.8807 7.97057 14.952 7.9673 15.0223C7.90251 16.4158 8.26084 17.7101 8.88419 18.9422C9.06873 19.4521 9.38576 19.8789 9.72308 20.2954C9.83817 20.4374 10.0063 20.5468 10.039 20.7476Z" fill="#AEB6BD"/>
<path d="M28.8889 15.2197C28.9666 15.2692 29.0442 15.3187 29.1218 15.3681C29.2025 15.6886 29.107 15.8947 28.7978 15.9081C28.0317 15.9413 27.2652 15.9186 26.5246 15.6759C26.4466 15.58 26.4538 15.4842 26.5246 15.3883C26.6099 15.3254 26.7107 15.3006 26.8119 15.2939C27.4132 15.2536 28.0095 15.1393 28.6157 15.1718C28.7089 15.1768 28.8054 15.1605 28.8889 15.2197Z" fill="#1D1F22"/>
<path d="M16.501 25.5448C16.5036 25.8451 16.2461 26.121 15.9583 26.126C15.6914 26.1307 15.4281 25.8552 15.422 25.5648C15.416 25.2814 15.6695 25.0146 15.9524 25.0065C16.234 24.9985 16.4984 25.2579 16.501 25.5448Z" fill="#3FD4F7"/>
<path d="M26.5307 15.4265C26.5282 15.5096 26.5257 15.5927 26.5232 15.6757C26.452 15.9129 26.3031 16.0723 26.054 16.1128C25.8248 16.1501 25.6306 16.0705 25.508 15.8727C25.3929 15.6871 25.3922 15.4882 25.5117 15.2971C25.5366 15.2575 25.5615 15.2178 25.5864 15.1782C25.5865 15.1782 25.5809 15.1771 25.5809 15.1771C25.9426 14.8486 26.4117 14.9718 26.5307 15.4265Z" fill="#37D0F6"/>
<path d="M16.2619 27.8835C16.0471 28.2156 15.8241 28.2156 15.6148 27.8835C15.5742 27.2943 15.7681 26.7487 15.9358 26.1909C16.1439 26.7386 16.249 27.302 16.2619 27.8835Z" fill="#1D1D21"/>
<path d="M5.16016 8.88492C5.36006 8.46622 5.6645 8.11868 5.94409 7.75632C6.48064 7.06097 7.12816 6.46859 7.75383 5.85663C8.48108 5.26698 9.24757 4.7366 10.0843 4.31195C11.2755 3.70743 12.5291 3.2969 13.8461 3.06917C14.8058 2.90322 15.7728 2.88548 16.7371 2.9424C18.0787 3.0216 19.3636 3.36819 20.6013 3.89178C21.3345 4.20197 22.0263 4.58774 22.6964 5.0149C23.4468 5.55176 24.1737 6.12034 24.8347 6.76325C25.3667 7.28067 25.8508 7.84598 26.2836 8.45189C26.3515 8.54707 26.4151 8.64535 26.4807 8.74218C26.8544 9.27751 27.1901 9.83491 27.4603 10.4302C27.4894 10.4943 27.5138 10.561 27.5353 10.6281C27.5838 10.7796 27.5308 10.8422 27.3743 10.7985C27.3071 10.7797 27.2453 10.7518 27.1859 10.7073C25.827 9.69024 24.3494 8.89188 22.7764 8.25278C21.4189 7.70125 20.0192 7.31371 18.5823 7.0586C18.0763 6.96877 17.5586 6.93384 17.0437 6.89051C16.3827 6.83488 15.723 6.84477 15.0645 6.8611C14.2601 6.88105 13.4586 6.9729 12.6659 7.12076C12.5594 7.14061 12.4426 7.11487 12.3464 7.18566C12.2403 7.27899 12.1032 7.29021 11.9749 7.31856C11.2097 7.48766 10.4522 7.68311 9.71468 7.95081C9.09981 8.16244 8.48547 8.37336 7.89242 8.64455C7.51172 8.81864 7.1358 8.98434 6.6786 8.8697C6.26046 8.76485 5.82436 8.81915 5.40426 8.94802C5.3258 8.97209 5.20355 9.04773 5.16016 8.88492Z" fill="#F5F8F9"/>
<path d="M8.85449 18.9943C8.13332 17.6859 7.8258 16.2828 7.8937 14.7939C7.77796 14.5527 7.879 14.3117 7.91753 14.0803C8.16697 12.582 8.82085 11.2801 9.83096 10.1448C10.3485 9.56312 10.9362 9.07496 11.5839 8.65183C11.6239 8.62565 11.659 8.59512 11.6915 8.5606C12.2492 8.21728 12.8466 7.96549 13.476 7.78723C13.7248 7.72093 13.9696 7.63272 14.2334 7.64822C15.777 7.33953 17.288 7.46452 18.7686 7.99073C19.4348 8.28636 20.0917 8.59858 20.6759 9.04337C22.3804 10.3411 23.4713 12.027 23.8117 14.1501C24.1149 16.0411 23.7018 17.8028 22.6997 19.4297C22.0679 20.4276 21.269 21.2694 20.2765 21.9071C18.9905 22.7334 17.5828 23.1633 16.04 23.1818C14.6933 23.1979 13.4329 22.901 12.242 22.2952C11.6174 21.9775 11.0519 21.5699 10.5209 21.1068C9.83013 20.5045 9.28003 19.801 8.85449 18.9943Z" fill="#1C1D22"/>
<path d="M13.4803 7.84048C12.8738 8.04004 12.2854 8.28114 11.7319 8.60239C10.9116 9.05055 10.1663 9.614 9.51485 10.2705C8.89506 10.8951 8.41094 11.6414 8.06167 12.462C7.69713 13.3184 7.50479 14.2139 7.44346 15.1402C7.43844 15.216 7.44894 15.3002 7.38026 15.3593C7.19235 15.2662 6.98813 15.2586 6.78507 15.2489C6.59712 15.2398 6.49074 15.0917 6.35851 14.9948C6.25168 15.0447 6.33833 15.1717 6.2509 15.2193C6.03435 15.1496 5.81575 15.0896 5.58702 15.0767C5.43158 15.0252 5.53565 14.9656 5.58725 14.921C5.72789 14.7995 5.91254 14.7978 6.09943 14.7513C5.70644 14.6076 5.75357 14.2306 5.64959 13.9452C5.50569 13.5502 5.46317 13.1284 5.40394 12.7132C5.39445 12.6466 5.41671 12.5741 5.43133 12.5058C5.46558 12.346 5.51464 12.1938 5.45595 12.0222C5.41938 11.9153 5.43112 11.7868 5.48732 11.6766C5.66237 11.3334 5.70227 10.9391 5.88028 10.6007C6.02496 10.3257 6.2108 10.0715 6.38883 9.81537C6.4506 9.72648 6.52381 9.64657 6.57916 9.51472C6.33974 9.54943 6.14015 9.63691 5.95956 9.74552C5.41529 10.0729 4.88832 10.4271 4.40773 10.8456C4.37827 10.8712 4.34788 10.8974 4.31381 10.9158C4.26651 10.9412 4.21323 10.9832 4.16063 10.946C4.10209 10.9046 4.13878 10.847 4.15843 10.7966C4.24095 10.5848 4.32367 10.373 4.40631 10.1612C4.64644 9.72895 4.84633 9.27293 5.16124 8.88492C5.35935 8.96873 5.53802 8.85097 5.71667 8.81151C6.14644 8.71658 6.55858 8.76793 6.97745 8.86125C7.14852 8.89937 7.31226 8.81329 7.46889 8.74759C8.20367 8.43938 8.93348 8.11853 9.70015 7.89376C9.72111 7.92041 9.72748 7.94851 9.71 7.97979C9.69376 8.00885 9.67006 8.0273 9.63617 8.03972C10.2651 7.88828 10.8531 8.0633 11.4348 8.26621C11.6125 8.3282 11.7726 8.30005 11.939 8.24209C12.406 8.07935 12.8598 7.87887 13.3393 7.75189C13.3708 7.75175 13.4023 7.75161 13.4338 7.75146C13.4746 7.76792 13.4988 7.79305 13.4803 7.84048Z" fill="#E5EDEF"/>
<path d="M13.3373 7.75179C13.2067 7.90825 13.0054 7.91549 12.8339 7.97469C12.4382 8.11128 12.0666 8.32272 11.6417 8.37089C11.6038 8.37519 11.5545 8.39273 11.529 8.37597C11.2026 8.16141 10.8022 8.20384 10.4555 8.06218C10.3348 8.01288 10.2019 8.01552 10.0844 8.04764C9.91197 8.09478 9.7418 8.0739 9.55469 8.08288C9.57495 7.99063 9.71148 7.99391 9.69813 7.89366C10.5576 7.57177 11.443 7.3467 12.3455 7.18555C12.3461 7.307 12.4455 7.34275 12.5295 7.3684C12.8185 7.45668 13.0719 7.61618 13.3373 7.75179Z" fill="#E0E8EC"/>
<path d="M26.5318 15.4266C26.2023 14.9919 26.0307 14.945 25.6051 15.1728C25.5985 15.1763 25.5898 15.1758 25.582 15.1772C25.7358 14.8718 25.9717 14.7597 26.2468 14.9483C26.7817 15.3148 27.3449 15.2056 27.9189 15.1448C28.1977 15.1153 28.4814 15.1302 28.763 15.1277C28.8233 15.1272 28.863 15.1667 28.8886 15.2196C28.0922 15.1658 27.3088 15.2601 26.5318 15.4266Z" fill="#E5EDEF"/>
<path d="M13.4801 7.84057C13.4646 7.8109 13.4491 7.78124 13.4336 7.75156C13.6925 7.65368 13.9534 7.57166 14.2348 7.64848C13.9832 7.7125 13.7317 7.77653 13.4801 7.84057Z" fill="#E0E8EC"/>
<path d="M29.2568 14.4648C29.2605 14.5414 29.2642 14.618 29.2679 14.6946C29.2512 14.754 29.285 14.8634 29.187 14.85C29.1064 14.839 29.0943 14.7467 29.1134 14.6623C29.1334 14.5736 29.1266 14.4713 29.2568 14.4648Z" fill="#E5EDEF"/>
<path d="M7.37891 15.3595C7.42108 13.5762 7.99962 11.9897 9.13545 10.6127C9.80186 9.80475 10.6325 9.19556 11.5353 8.67881C11.5952 8.64447 11.6652 8.62756 11.7305 8.60254C11.3177 8.91104 10.8867 9.19454 10.506 9.54611C8.96925 10.9651 8.05873 12.6935 7.89401 14.7942C7.81396 14.9163 7.84151 15.057 7.85934 15.1809C7.87671 15.3017 7.77953 15.3325 7.74423 15.4077C7.71516 15.4696 7.66354 15.4302 7.63948 15.3874C7.60602 15.3278 7.60723 15.2499 7.54193 15.2007C7.42256 15.2891 7.471 15.4507 7.38606 15.5514C7.38371 15.4874 7.38131 15.4234 7.37891 15.3595Z" fill="#C4CCD1"/>
<path d="M5.2575 15.6912C5.23842 15.7058 5.21936 15.7204 5.2003 15.7351C4.66316 15.895 4.11204 15.9399 3.55486 15.935C3.37822 15.9062 3.19974 15.9442 3.01939 15.8922C2.88246 15.8527 2.8242 15.7813 2.80301 15.6601C2.77903 15.5229 2.79046 15.3937 2.92159 15.3055C3.0015 15.2517 3.08736 15.2209 3.18432 15.2176C3.87659 15.1936 4.56031 15.2508 5.23145 15.43C5.32834 15.5083 5.32708 15.5963 5.2575 15.6912Z" fill="#1D1E21"/>
<path d="M5.2567 15.6915C5.24789 15.6043 5.23908 15.5171 5.23047 15.4301C5.34834 15.3125 5.46602 15.1947 5.5837 15.0768C5.83391 14.9897 6.05511 15.0377 6.24757 15.2195C6.25998 15.2362 6.27238 15.2529 6.28478 15.2696C6.45956 15.4251 6.43492 15.6017 6.33932 15.7858C5.95334 16.2685 5.55306 16.2336 5.2567 15.6915Z" fill="#36D0F6"/>
<path d="M3.55469 15.9348C4.10498 15.8831 4.65654 15.8418 5.20012 15.7349C5.2199 15.8272 5.13084 15.8026 5.10064 15.8092C4.63447 15.9108 4.16258 15.9693 3.68486 15.9751C3.63719 15.9757 3.59018 15.9737 3.55469 15.9348Z" fill="#E5EDEF"/>
<path d="M6.33968 15.7853C6.35641 15.6095 6.36376 15.4348 6.28516 15.2691C6.3557 15.2761 6.46315 15.2337 6.47281 15.3423C6.48701 15.5018 6.54468 15.6869 6.33968 15.7853Z" fill="#E5EDEF"/>
<path d="M7.56961 17.0645C7.59328 17.1573 7.6347 17.2469 7.6203 17.3466C7.48131 17.262 7.46986 17.1983 7.56961 17.0645Z" fill="#E5EDEF"/>
<path d="M7.38262 15.645C7.38237 15.7389 7.38211 15.8328 7.38185 15.9266C7.27405 15.8324 7.21383 15.7384 7.38262 15.645Z" fill="#E5EDEF"/>
<path d="M8.85648 18.9946C9.1287 19.3589 9.35451 19.7545 9.64253 20.1094C10.6089 21.3004 11.8073 22.1773 13.2557 22.6608C16.0483 23.593 18.631 23.1603 20.9568 21.3337C21.5981 20.83 22.1339 20.2219 22.5903 19.5453C22.621 19.4997 22.6431 19.4478 22.7017 19.43C22.5067 19.8719 22.2004 20.2377 21.8809 20.5889C21.3266 21.1982 20.7183 21.7475 20.0046 22.1696C19.315 22.5496 18.5917 22.8433 17.8297 23.0465C16.9371 23.2845 16.0349 23.2936 15.1222 23.2183C14.3959 23.1583 13.7032 22.9752 13.0271 22.7183C12.1147 22.3715 11.2998 21.8628 10.5697 21.2165C10.3935 21.0605 10.2178 20.9041 10.0419 20.7479C9.62804 20.2782 9.22174 19.8027 8.94617 19.2332C8.90928 19.157 8.84676 19.0889 8.85648 18.9946Z" fill="#6D7378"/>
<path d="M15.9655 6.3902C15.7935 5.82757 15.6504 5.31587 15.5676 4.78975C15.5232 4.50788 15.6461 4.29065 15.8718 4.22381C16.042 4.17342 16.2441 4.28122 16.3322 4.46635C16.3896 4.58717 16.3813 4.71793 16.3569 4.83682C16.2534 5.34196 16.1322 5.84328 15.9655 6.3902Z" fill="#8EDAF5"/>
<path d="M15.9157 8.33502C19.7258 8.31912 22.8608 11.4257 22.88 15.2303C22.8995 19.1067 19.6379 22.1998 15.8856 22.1779C12.1278 22.156 8.94229 19.0271 8.92198 15.2712C8.90132 11.4498 12.0255 8.35125 15.9157 8.33502Z" fill="#FDFDFD"/>
<path d="M20.5779 13.2312C20.9733 14.0325 21.065 14.8886 20.9799 15.76C20.8616 16.9702 20.3497 18.0094 19.4891 18.8664C17.1353 21.2105 13.0967 20.6517 11.463 17.7614C10.4443 15.9592 10.6039 13.7786 11.8742 12.1542C11.9026 12.1179 11.9401 12.0886 11.9733 12.056C12.3486 12.1342 12.7303 12.1953 13.0362 12.4575C13.0663 12.5637 12.9917 12.6322 12.9458 12.7123C12.845 12.8882 12.7305 13.0602 12.7527 13.2783C12.7351 13.4418 12.6318 13.5702 12.5731 13.7171C12.5179 13.8178 12.4674 13.9207 12.4272 14.0286C11.8182 15.57 12.2908 17.2817 13.6359 18.3206C15.1752 19.5095 17.238 19.3753 18.5866 18.0141C19.5263 17.0656 19.8192 15.8846 19.4904 14.5718C19.411 14.1562 19.2253 13.7775 19.0765 13.3859C19.1279 13.1415 19.041 12.9295 18.9241 12.7232C18.8822 12.6493 18.8456 12.572 18.8202 12.4901C18.7524 12.2983 18.6109 12.1441 18.5494 11.9477C18.5207 11.8563 18.4672 11.772 18.5479 11.6866C18.6187 11.6118 18.7025 11.6434 18.7892 11.661C19.2512 11.7548 19.6045 11.976 19.9115 12.3591C20.1406 12.6448 20.3518 12.9437 20.5779 13.2312Z" fill="#40DAFE"/>
<path d="M20.5763 13.2317C20.5348 13.2099 20.4706 13.1985 20.4554 13.1648C20.2931 12.8073 19.9821 12.5679 19.7478 12.2683C19.5701 12.0411 19.3736 11.8232 19.0422 11.8092C18.9376 11.8048 18.8343 11.743 18.7327 11.7018C18.6676 11.6753 18.6095 11.6688 18.5641 11.7302C18.5254 11.7824 18.5506 11.8292 18.5774 11.882C18.6776 12.0791 18.771 12.2797 18.8669 12.479C18.7349 12.4807 18.6842 12.366 18.6157 12.2896C18.0471 11.6559 17.332 11.2963 16.5027 11.1515C16.1452 11.0891 15.7825 11.1363 15.4224 11.1255C15.2084 11.1377 15.0604 11.0496 14.9905 10.8417C14.9649 10.7653 14.9183 10.704 14.8519 10.6571C14.7148 10.5604 14.7206 10.4833 14.8753 10.406C15.0634 10.312 15.2534 10.2299 15.4647 10.2077C16.0236 10.1075 16.577 10.1714 17.1179 10.3055C18.7119 10.7007 19.8393 11.6724 20.55 13.1422C20.5633 13.1698 20.5677 13.2018 20.5763 13.2317Z" fill="#56D8FC"/>
<path d="M15.4656 10.2072C15.3696 10.2952 15.2273 10.2508 15.1233 10.3355C15.0287 10.4126 14.9094 10.4595 14.7662 10.539C14.9637 10.6058 15.0468 10.7524 15.1023 10.9342C15.1475 11.0825 15.3004 11.0587 15.4241 11.0636C15.4246 11.1388 15.3655 11.1495 15.313 11.1592C14.4071 11.3269 13.6752 11.7886 13.0777 12.4786C13.0562 12.4932 13.0339 12.4942 13.0111 12.4819C12.781 12.2794 12.4651 12.2874 12.2062 12.1549C12.1312 12.1164 12.0507 12.0887 11.9727 12.0561C12.7184 11.1581 13.6586 10.572 14.7943 10.3027C15.0144 10.2506 15.2346 10.1878 15.4656 10.2072Z" fill="#6CDDFD"/>
<path d="M19.1134 13.3764C19.3137 13.7485 19.471 14.1359 19.5339 14.557C19.6275 14.915 19.5584 15.2643 19.474 15.6119C19.4537 15.6953 19.4165 15.7735 19.3316 15.8149C19.2483 15.8426 19.1757 15.8135 19.1104 15.7666C18.9022 15.6169 18.6615 15.5913 18.4165 15.5768C17.3184 15.5117 16.2191 15.5293 15.1201 15.5295C14.3051 15.5297 13.4901 15.5018 12.675 15.5183C12.5882 15.5201 12.5026 15.5082 12.4203 15.4776C12.2822 15.3651 12.2876 15.2009 12.2788 15.049C12.2581 14.6909 12.263 14.3334 12.3896 13.9898C12.4238 13.885 12.4593 13.7809 12.528 13.6921C12.8669 13.6391 13.2005 13.7285 13.5378 13.7304C14.0243 13.7331 14.5102 13.7347 14.9973 13.762C15.4727 13.7886 15.9525 13.7407 16.4299 13.7913C16.5059 13.7994 16.5866 13.7812 16.654 13.734C17.023 13.8039 17.2124 13.601 17.4575 13.3417C17.822 12.956 18.3472 13.0253 18.8347 13.1536C18.8955 13.1696 18.9497 13.2038 19.0059 13.2323C19.0589 13.2674 19.1189 13.2977 19.1134 13.3764Z" fill="#096891"/>
<path d="M19.3385 15.7875C19.4988 15.3926 19.5253 14.9764 19.5346 14.5574C19.6572 14.7175 19.6507 14.9174 19.6656 15.0969C19.7638 16.2828 19.41 17.3228 18.5498 18.1501C17.9666 18.7111 17.2518 19.042 16.4367 19.1448C15.1429 19.308 14.0479 18.8921 13.1529 17.9771C12.0875 16.8879 11.8203 15.2347 12.3903 13.9902C12.3336 14.4455 12.3076 14.9007 12.3951 15.3552C12.402 15.3913 12.4236 15.4246 12.4383 15.4592C12.5129 15.5181 12.5167 15.6104 12.5449 15.6903C13.0262 17.0563 14.0201 17.8174 15.4188 18.0337C16.6587 18.2253 17.7267 17.8247 18.6075 16.9296C18.8663 16.6666 19.0227 16.3403 19.1811 16.0149C19.222 15.9311 19.2455 15.8353 19.3385 15.7875Z" fill="#2EABE2"/>
<path d="M19.1143 13.3762C19.0799 13.3449 19.0454 13.3135 19.0109 13.2822C18.0149 12.2314 16.7459 12.0598 15.3905 12.1455C14.7276 12.1874 14.1139 12.3905 13.514 12.6543C13.4898 12.6621 13.465 12.6667 13.4397 12.6693C13.2842 12.6625 13.1408 12.6308 13.0586 12.4778C13.1764 12.2096 13.407 12.0417 13.6225 11.8664C14.1496 11.4377 14.7654 11.1988 15.4254 11.0633C16.0668 11.0246 16.6966 11.0589 17.3047 11.3014C17.935 11.5529 18.4488 11.9515 18.8691 12.4783C18.9545 12.6517 19.0483 12.8217 19.1226 12.9998C19.173 13.1205 19.1962 13.2526 19.1143 13.3762Z" fill="#FDFEFE"/>
<path d="M13.4455 12.6285C13.4581 12.6274 13.4692 12.6228 13.4789 12.6147C13.6055 12.5725 13.7252 12.6012 13.8431 12.6499C14.7263 13.0147 15.6104 13.377 16.5321 13.6372C16.5997 13.6563 16.6697 13.6764 16.6941 13.7562C16.6205 13.8693 16.5045 13.8871 16.3863 13.8799C16.0546 13.86 15.7248 13.8357 15.3908 13.8308C14.618 13.8193 13.8415 13.8439 13.0709 13.7551C12.8897 13.7343 12.6959 13.8192 12.5273 13.6922C12.5898 13.553 12.6522 13.4139 12.7147 13.2748C12.8586 12.9467 13.1437 12.7782 13.4455 12.6285Z" fill="#177AA4"/>
<path d="M13.4457 12.6285C13.2019 12.8437 12.9197 13.0155 12.7149 13.2748C12.6503 13.0306 12.7992 12.8497 12.9016 12.6563C12.9335 12.5961 13.0034 12.5585 13.011 12.4819C13.0264 12.4797 13.0417 12.4784 13.0572 12.478C13.1836 12.5363 13.2993 12.6221 13.4457 12.6285Z" fill="#BEE6F6"/>
<path d="M19.3377 15.7873C18.8315 17.1714 17.8156 17.9322 16.3801 18.0991C14.7704 18.2863 13.5386 17.6388 12.7064 16.2519C12.5637 16.014 12.4598 15.7461 12.4375 15.459C12.6559 15.4746 12.8709 15.3817 13.0921 15.4419C13.1585 15.46 13.2331 15.4605 13.3025 15.454C13.6524 15.4212 14.0017 15.4517 14.3514 15.4535C15.3966 15.4589 16.4424 15.434 17.4867 15.4658C17.9135 15.4788 18.3464 15.4665 18.772 15.5454C18.9225 15.5733 19.0628 15.6049 19.166 15.7278C19.2107 15.7811 19.2731 15.7886 19.3377 15.7873Z" fill="#00567C"/>
<path d="M16.6956 13.7562C15.8161 13.4827 14.9427 13.1931 14.0976 12.8224C13.9003 12.7358 13.7082 12.6176 13.4805 12.6147C13.964 12.3735 14.4659 12.1838 15.0054 12.1213C16.2076 11.982 17.3848 12.0151 18.4401 12.7155C18.6636 12.8638 18.904 13.0099 19.0108 13.2823C18.6313 13.1287 18.2413 13.0826 17.843 13.1893C17.5747 13.2612 17.3501 13.391 17.2896 13.6965C17.2642 13.8246 17.185 13.8516 17.0631 13.8204C16.943 13.7897 16.8183 13.7769 16.6956 13.7562Z" fill="#B6DBEB"/>
</svg>