<svg width="37" height="37" viewBox="0 0 37 37" fill="none" xmlns="http://www.w3.org/2000/svg">
<path d="M36.5 18.6094C36.5 8.66719 28.4422 0.609375 18.5 0.609375C8.55781 0.609375 0.5 8.66719 0.5 18.6094C0.5 27.5953 7.08125 35.0414 15.6875 36.3914V23.8125H11.1172V18.6094H15.6875V14.6438C15.6875 10.1332 18.3734 7.64062 22.4867 7.64062C24.4555 7.64062 26.5156 7.99219 26.5156 7.99219V12.4219H24.2445C22.0086 12.4219 21.3125 13.8105 21.3125 15.2344V18.6094H26.3047L25.5066 23.8125H21.3125V36.3914C29.9188 35.0414 36.5 27.5953 36.5 18.6094Z" fill="#1877F2"/>
<path d="M25.5066 23.8125L26.3047 18.6094H21.3125V15.2344C21.3125 13.8105 22.0086 12.4219 24.2445 12.4219H26.5156V7.99219C26.5156 7.99219 24.4555 7.64062 22.4867 7.64062C18.3734 7.64062 15.6875 10.1332 15.6875 14.6438V18.6094H11.1172V23.8125H15.6875V36.3914C16.6051 36.5355 17.5437 36.6094 18.5 36.6094C19.4563 36.6094 20.3949 36.5355 21.3125 36.3914V23.8125H25.5066Z" fill="white"/>
</svg>
