<svg width="17" height="16" viewBox="0 0 17 16" fill="none" xmlns="http://www.w3.org/2000/svg">
<path d="M5.5 4.5H14.5M5.5 8H14.5M5.5 11.5H14.5" stroke="#656B61" stroke-linecap="round" stroke-linejoin="round"/>
<path d="M3 5C3.27614 5 3.5 4.77614 3.5 4.5C3.5 4.22386 3.27614 4 3 4C2.72386 4 2.5 4.22386 2.5 4.5C2.5 4.77614 2.72386 5 3 5Z" stroke="#656B61" stroke-linecap="round" stroke-linejoin="round"/>
<path d="M3 8.5C3.27614 8.5 3.5 8.27614 3.5 8C3.5 7.72386 3.27614 7.5 3 7.5C2.72386 7.5 2.5 7.72386 2.5 8C2.5 8.27614 2.72386 8.5 3 8.5Z" stroke="#656B61" stroke-linecap="round" stroke-linejoin="round"/>
<path d="M3 12C3.27614 12 3.5 11.7761 3.5 11.5C3.5 11.2239 3.27614 11 3 11C2.72386 11 2.5 11.2239 2.5 11.5C2.5 11.7761 2.72386 12 3 12Z" stroke="#656B61" stroke-linecap="round" stroke-linejoin="round"/>
</svg>