<svg width="60" height="61" viewBox="0 0 60 61" fill="none" xmlns="http://www.w3.org/2000/svg">
<rect x="0.5" y="1" width="59" height="59" rx="29.5" fill="url(#paint0_linear_1035_4691)"/>
<rect x="0.5" y="1" width="59" height="59" rx="29.5" fill="url(#paint1_linear_1035_4691)"/>
<rect x="0.5" y="1" width="59" height="59" rx="29.5" stroke="url(#paint2_linear_1035_4691)"/>
<rect x="0.5" y="1" width="59" height="59" rx="29.5" stroke="url(#paint3_linear_1035_4691)"/>
<path d="M24.4248 24.3763C23.8785 23.1902 22.5822 22.5931 21.4087 22.9889C20.1372 23.4172 19.2483 24.864 19.2461 26.5081C19.245 27.8617 19.8818 29.2167 20.6383 29.4667L20.7213 29.4937L20.7277 29.3856C20.7719 28.5912 20.7665 28.5642 20.4519 27.9766C19.9142 26.9728 19.9907 25.6516 20.6372 24.7614C21.2913 23.863 22.3537 23.6577 23.1651 24.275C23.5768 24.5884 23.9701 24.5641 24.372 24.5087L24.4808 24.4939L24.4259 24.375L24.4248 24.3763Z" fill="white"/>
<path d="M43.7421 31.0308C43.1743 31.0308 42.6969 31.5144 42.5536 32.1696H35.1358C34.9569 32.1696 34.8125 32.3506 34.8125 32.5749C34.8125 32.7991 34.9569 32.9802 35.1358 32.9802H42.5536C42.6958 33.6367 43.1743 34.123 43.7432 34.123C44.4231 34.123 44.9759 33.43 44.9759 32.5776C44.9759 31.7251 44.4231 31.0321 43.7432 31.0321L43.7421 31.0308ZM43.7421 33.3125C43.4189 33.3125 43.156 32.9829 43.156 32.5776C43.156 32.1723 43.4189 31.8427 43.7421 31.8427C44.0654 31.8427 44.3283 32.1723 44.3283 32.5776C44.3283 32.9829 44.0654 33.3125 43.7421 33.3125Z" fill="white"/>
<path d="M44.9988 22.7457C44.9988 21.8932 44.446 21.2002 43.7661 21.2002C43.0862 21.2002 42.5334 21.8932 42.5334 22.7457C42.5334 22.9942 42.5819 23.2293 42.6659 23.4387L39.5389 27.1646C38.7286 28.1426 37.873 28.0508 37.8374 28.0454C37.8267 28.0454 37.8137 28.0427 37.804 28.0427H35.2373C35.0585 28.0427 34.9141 28.2237 34.9141 28.4479C34.9141 28.6722 35.0585 28.8532 35.2373 28.8532H37.79C37.9592 28.8694 39.0163 28.9208 39.9872 27.7495L43.098 24.0426C43.2909 24.1993 43.5204 24.2925 43.7672 24.2925C44.4471 24.2925 44.9999 23.5994 44.9999 22.747L44.9988 22.7457ZM44.3523 22.7457C44.3523 23.1509 44.0894 23.4806 43.7661 23.4806C43.4429 23.4806 43.1799 23.1509 43.1799 22.7457C43.1799 22.3404 43.4429 22.0108 43.7661 22.0108C44.0894 22.0108 44.3523 22.3404 44.3523 22.7457Z" fill="white"/>
<path d="M43.7672 40.2415C43.5204 40.2415 43.2909 40.3333 43.098 40.4914L39.9872 36.7844C39.0163 35.6132 37.9592 35.6645 37.79 35.6807H35.2373C35.0585 35.6807 34.9141 35.8618 34.9141 36.086C34.9141 36.3103 35.0585 36.4913 35.2373 36.4913H37.804C37.8148 36.4913 37.8278 36.4913 37.8374 36.4886C37.8741 36.4845 38.7286 36.3913 39.5389 37.3694L42.6659 41.0953C42.5819 41.3033 42.5334 41.5384 42.5334 41.7883C42.5334 42.6407 43.0862 43.3337 43.7661 43.3337C44.446 43.3337 44.9988 42.6407 44.9988 41.7883C44.9988 40.9358 44.446 40.2428 43.7661 40.2428L43.7672 40.2415ZM43.7672 42.5232C43.4439 42.5232 43.181 42.1936 43.181 41.7883C43.181 41.383 43.4439 41.0534 43.7672 41.0534C44.0905 41.0534 44.3534 41.383 44.3534 41.7883C44.3534 42.1936 44.0905 42.5232 43.7672 42.5232Z" fill="white"/>
<path d="M32.3311 30.2904H26.8303C26.6223 30.2904 26.4531 30.0783 26.4531 29.8176C26.4531 29.5568 26.6223 29.3447 26.8303 29.3447H32.3311C32.5391 29.3447 32.7083 29.5568 32.7083 29.8176C32.7083 30.0783 32.5391 30.2904 32.3311 30.2904Z" fill="white"/>
<path d="M32.3299 32.4559H25.7795C25.5715 32.4559 25.4023 32.2438 25.4023 31.9831C25.4023 31.7223 25.5715 31.5103 25.7795 31.5103H32.3299C32.5379 31.5103 32.707 31.7223 32.707 31.9831C32.707 32.2438 32.5379 32.4559 32.3299 32.4559Z" fill="white"/>
<path d="M24.5616 32.4559H23.5412C23.3332 32.4559 23.1641 32.2438 23.1641 31.9831C23.1641 31.7223 23.3332 31.5103 23.5412 31.5103H24.5616C24.7696 31.5103 24.9388 31.7223 24.9388 31.9831C24.9388 32.2438 24.7696 32.4559 24.5616 32.4559Z" fill="white"/>
<path d="M24.5616 35.454H23.5412C23.3332 35.454 23.1641 35.2419 23.1641 34.9811C23.1641 34.7204 23.3332 34.5083 23.5412 34.5083H24.5616C24.7696 34.5083 24.9388 34.7204 24.9388 34.9811C24.9388 35.2419 24.7696 35.454 24.5616 35.454Z" fill="white"/>
<path d="M24.5616 38.4515H23.5412C23.3332 38.4515 23.1641 38.2394 23.1641 37.9787C23.1641 37.718 23.3332 37.5059 23.5412 37.5059H24.5616C24.7696 37.5059 24.9388 37.718 24.9388 37.9787C24.9388 38.2394 24.7696 38.4515 24.5616 38.4515Z" fill="white"/>
<path d="M32.3299 35.454H25.7795C25.5715 35.454 25.4023 35.2419 25.4023 34.9811C25.4023 34.7204 25.5715 34.5083 25.7795 34.5083H32.3299C32.5379 34.5083 32.707 34.7204 32.707 34.9811C32.707 35.2419 32.5379 35.454 32.3299 35.454Z" fill="white"/>
<path d="M32.3299 38.4515H25.7795C25.5715 38.4515 25.4023 38.2394 25.4023 37.9787C25.4023 37.718 25.5715 37.5059 25.7795 37.5059H32.3299C32.5379 37.5059 32.707 37.718 32.707 37.9787C32.707 38.2394 32.5379 38.4515 32.3299 38.4515Z" fill="white"/>
<path d="M34.2935 34.3489V26.496C34.2935 25.8421 33.8711 25.3112 33.3485 25.3112H33.2784C33.217 25.3058 33.1534 25.3018 33.0845 25.3018H33.0834C31.9617 25.3018 30.8399 25.3045 29.7182 25.3072C27.8594 25.3112 26.0007 25.3153 24.143 25.3112H24.1419C23.8176 25.3112 23.5719 25.4436 23.3456 25.7395C22.7422 26.5271 22.2034 27.2066 21.6959 27.8172C21.4642 28.0968 21.3651 28.3967 21.3672 28.8223C21.378 31.743 21.3845 34.6637 21.3898 37.5844C21.3931 39.0448 21.3952 40.5051 21.3995 41.9655C21.4028 43.1124 21.7066 43.5001 22.6075 43.5001H22.6139C26.0912 43.4934 29.5674 43.4853 33.0446 43.4758C33.9778 43.4731 34.2935 43.0773 34.2935 41.9087V34.3462V34.3489ZM22.7217 27.7037L23.2723 26.9783C23.3197 26.9161 23.393 26.8972 23.4555 26.9323C23.518 26.9675 23.5557 27.0485 23.5503 27.1336L23.5051 27.8239C23.4986 27.9253 23.434 28.0036 23.3531 28.0104L22.8478 28.0455C22.8478 28.0455 22.8413 28.0455 22.8392 28.0455C22.7767 28.0455 22.7195 27.9996 22.6926 27.928C22.6646 27.8523 22.6764 27.7632 22.7217 27.7037ZM22.114 29.437C22.1118 29.187 22.1431 29.0357 22.2099 28.9614C22.253 28.9141 22.3187 28.8912 22.4103 28.8912C22.4502 28.8912 22.4943 28.8952 22.5439 28.9047C22.6333 28.9209 22.7239 28.9155 22.8111 28.9101C22.8499 28.9074 22.8887 28.9047 22.9264 28.9047C23.9178 28.8966 24.2044 28.5399 24.2033 27.3187C24.2033 26.6189 24.4745 26.2686 25.0169 26.2677C25.6688 26.2663 26.3218 26.2663 26.9737 26.265C27.2959 26.265 27.6213 26.265 27.9467 26.265H33.2105C33.2957 26.2866 33.3582 26.3231 33.4023 26.3771C33.4821 26.4771 33.5176 26.6527 33.5166 26.9472C33.5058 31.0378 33.5133 35.3284 33.537 39.6973C33.5392 39.958 33.5123 40.1025 33.4487 40.1823C33.3862 40.2606 33.2774 40.293 33.0834 40.2903C31.8011 40.2701 30.4962 40.2741 29.2355 40.2768C28.7614 40.2782 28.2862 40.2795 27.812 40.2795H27.7409V40.2917C27.3034 40.2917 26.867 40.2917 26.4295 40.2903C25.1548 40.2876 23.837 40.2849 22.5417 40.3025C22.3704 40.3025 22.2734 40.2755 22.2185 40.2066C22.1625 40.1363 22.1387 40.0107 22.1387 39.7864C22.1441 36.0214 22.1355 32.6373 22.1129 29.4397L22.114 29.437ZM33.5424 41.7439C33.5381 41.8128 33.536 41.8804 33.5338 41.9466C33.523 42.3181 33.5166 42.5423 33.1049 42.5423H33.1017C29.7344 42.5315 26.2905 42.5396 22.5741 42.568H22.5655C22.1668 42.568 22.1625 42.3505 22.1571 41.9911C22.156 41.9128 22.1549 41.8317 22.1484 41.752C22.1312 41.5359 22.1484 41.4008 22.2045 41.3251C22.2605 41.2481 22.3683 41.213 22.5504 41.213C22.5579 41.213 22.5665 41.213 22.5741 41.213C23.8585 41.2333 25.1656 41.2306 26.4285 41.2265C26.8983 41.2265 27.3681 41.2238 27.8379 41.2238C28.3185 41.2238 28.7991 41.2238 29.2797 41.2252C30.5318 41.2279 31.8281 41.2306 33.1017 41.213C33.3108 41.213 33.4207 41.2441 33.4799 41.3238C33.536 41.3994 33.5554 41.5318 33.5414 41.7426L33.5424 41.7439Z" fill="white"/>
<path d="M18.0419 34.0151C17.9385 34.0151 17.8372 33.9624 17.7628 33.8611L16.2877 31.8307C16.1691 31.6672 16.1562 31.424 16.2564 31.243L17.2445 29.453C17.3232 29.1896 17.2736 29.0667 17.2575 29.0261C17.1734 28.8194 16.9234 28.6952 16.8135 28.656L15.3491 28.5182C15.1519 28.4993 15 28.2939 15 28.0467V25.1233C15 24.8909 15.1347 24.6924 15.3179 24.6559L16.8232 24.3546C17.0495 24.2857 17.1896 24.1776 17.2413 24.029C17.3232 23.7899 17.2014 23.4184 17.1519 23.3036L16.1982 21.7068C16.0862 21.519 16.1002 21.2583 16.2316 21.0921L17.8167 19.0738C17.9482 18.9063 18.1583 18.8861 18.3081 19.0238L19.5839 20.1978C19.7778 20.3113 20.0311 20.4126 20.1981 20.3005C20.3705 20.1843 20.447 19.8452 20.4621 19.7196L20.5515 17.9431C20.5645 17.6945 20.7293 17.5 20.9276 17.5H23.3251C23.5137 17.5 23.6732 17.6756 23.699 17.9093L23.9167 19.9317C23.9846 20.1667 24.0773 20.314 24.1904 20.368C24.3639 20.4518 24.5816 20.3383 24.643 20.3032L25.9145 19.0873C26.0621 18.9455 26.2701 18.9604 26.4037 19.1211L28.0836 21.1367C28.2247 21.3056 28.2398 21.5825 28.1181 21.773L27.1203 23.3401C27.1073 23.359 27.0944 23.3779 27.0793 23.3941C26.8487 23.6562 26.9866 23.9426 27.0901 24.0885C27.2269 24.283 27.214 24.5816 27.0599 24.7545C26.9058 24.9274 26.6709 24.9139 26.5319 24.7234C26.4964 24.6734 26.1796 24.2236 26.2011 23.6305C26.213 23.2928 26.3336 22.9807 26.5492 22.7227L27.3142 21.5204L26.116 20.083L25.0729 21.08C25.0589 21.0935 25.0438 21.1056 25.0287 21.1164C24.9705 21.157 24.4501 21.5055 23.9189 21.2502C23.6861 21.1381 23.3704 20.8625 23.1904 20.1924C23.1829 20.164 23.1775 20.1343 23.1743 20.1046L22.9954 18.4443H21.281L21.2131 19.7952C21.2131 19.8033 21.2131 19.8128 21.211 19.8209C21.2024 19.9155 21.1086 20.7517 20.5601 21.1272C20.1927 21.3785 19.7423 21.3461 19.2229 21.0286C19.2024 21.0165 19.183 21.0016 19.1647 20.9854L18.1238 20.0276L16.9945 21.465L17.7693 22.7619C17.7779 22.7767 17.7855 22.7916 17.793 22.8065C17.834 22.8929 18.182 23.6765 17.932 24.4033C17.8275 24.7072 17.5775 25.1057 16.9805 25.2787C16.9719 25.2814 16.9633 25.2827 16.9547 25.2854L15.7532 25.5259V27.6077L16.9019 27.7157C16.9202 27.7171 16.9374 27.7211 16.9547 27.7252C17.0258 27.7455 17.6551 27.9346 17.9245 28.5871C18.0322 28.8465 18.1195 29.2788 17.9255 29.8597C17.9158 29.8907 17.9029 29.9191 17.8878 29.9461L17.0463 31.47L18.0936 32.9114L19.2757 31.8496C19.6108 31.4646 20.308 31.1903 20.9297 31.9617C21.0784 32.1454 21.0795 32.444 20.933 32.6304C20.7864 32.8168 20.5483 32.8182 20.3996 32.6345C20.1108 32.2765 19.8845 32.4332 19.7746 32.5588C19.7606 32.575 19.7498 32.5858 19.7347 32.6007L18.2596 33.926C18.1939 33.9854 18.1163 34.0138 18.0398 34.0138L18.0419 34.0151Z" fill="white"/>
<defs>
<linearGradient id="paint0_linear_1035_4691" x1="26.4583" y1="35.6429" x2="85.8941" y2="49.4051" gradientUnits="userSpaceOnUse">
<stop stop-color="#6DE8FF"/>
<stop offset="1" stop-color="#276174"/>
</linearGradient>
<linearGradient id="paint1_linear_1035_4691" x1="23.0833" y1="24.7571" x2="71.4751" y2="39.347" gradientUnits="userSpaceOnUse">
<stop stop-color="#479EBE"/>
<stop offset="1" stop-color="#24586C"/>
</linearGradient>
<linearGradient id="paint2_linear_1035_4691" x1="26.4583" y1="35.6429" x2="85.8941" y2="49.4051" gradientUnits="userSpaceOnUse">
<stop stop-color="#6DE8FF"/>
<stop offset="1" stop-color="#276174"/>
</linearGradient>
<linearGradient id="paint3_linear_1035_4691" x1="23.0833" y1="24.7571" x2="71.4751" y2="39.347" gradientUnits="userSpaceOnUse">
<stop stop-color="#479EBE"/>
<stop offset="1" stop-color="#24586C"/>
</linearGradient>
</defs>
</svg>
