<svg width="899" height="506" viewBox="0 0 899 506" fill="none" xmlns="http://www.w3.org/2000/svg">
<path d="M-112.364 94.2584C-112.428 94.4313 -112.483 94.5706 -112.53 94.6859C-112.698 95.1075 -112.889 95.5857 -112.872 96.2057L-112.688 113.585C-112.504 130.59 -112.321 147.592 -112.209 164.603C-112.183 168.511 -108.754 170.071 -107.107 170.82C-94.6428 176.518 -82.1859 182.231 -69.7285 187.945C-57.5887 193.513 -45.4485 199.081 -33.292 204.639C-32.961 204.791 -32.6276 204.92 -32.2937 205.033C-32.5096 205.118 -32.7221 205.208 -32.9357 205.305L-54.888 215.31C-72.0456 223.134 -89.7864 231.224 -107.269 239.121C-111.86 241.202 -112.503 244.072 -112.527 246.606C-112.674 260.222 -112.878 273.847 -113.082 287.475C-113.204 295.664 -113.327 303.855 -113.437 312.047C-113.456 312.959 -113.295 313.822 -113.14 314.657C-113.129 314.715 -113.118 314.774 -113.107 314.833L-113.766 314.675L-113.757 315.417L-115.91 316.379L-113.732 317.495L-113.719 318.551L-113.204 361.191L-112.849 390.669L-112.83 392.265L-111.056 393.079C-86.941 404.144 -63.0455 415.098 -38.7168 426.251L-33.3187 428.726L-49.3013 436.005C-69.0583 445.003 -88.8101 454.001 -108.59 462.968C-111.705 464.383 -113.238 466.495 -113.279 469.424C-113.422 480.909 -113.586 492.39 -113.751 503.871C-113.906 514.759 -114.063 525.647 -114.2 536.535C-114.214 537.46 -113.894 538.257 -113.637 538.897C-113.575 539.053 -113.509 539.213 -113.449 539.381L-115.767 540.527L-112.568 542.159L-112.307 542.986L-111.529 542.69L-111.061 542.928C-110.447 543.241 -109.898 543.537 -109.386 543.813C-108.439 544.321 -107.544 544.802 -106.554 545.235L-86.8287 553.853C-69.4519 561.441 -51.4827 569.287 -33.8776 577.079C-31.7319 578.027 -29.8266 578.468 -27.8782 578.468C-25.9508 578.468 -24.0645 578.036 -21.9432 577.109C-3.46874 568.993 15.3702 560.822 33.5887 552.921L50.4267 545.615C51.3667 545.209 52.3077 544.788 53.4016 544.298L55.5515 543.338L57.616 542.422L58.2847 542.574L58.3081 542.114L60.6534 541.073L58.4203 539.911L58.4696 538.945C58.493 538.48 58.5216 538.06 58.5484 537.668C58.599 536.922 58.6415 536.27 58.6415 535.618L58.4552 520.365C58.2503 503.894 58.0387 486.861 57.9513 470.114C57.9475 468.732 57.668 467.54 57.0738 466.488C58.8861 466.287 60.4241 465.702 61.6174 465.18C81.5683 456.474 101.543 447.803 121.517 439.133L134.933 433.308C135.737 432.966 136.56 432.596 137.6 432.129L139.416 431.316L140.665 430.76L142.539 431.371L142.522 429.934L144.432 429.083L144.367 429.048C144.842 428.876 145.305 428.697 145.77 428.483L160.634 421.693C180.098 412.801 200.224 403.606 220.07 394.632C224.622 392.571 225.269 389.699 225.302 387.162C225.466 372.46 225.687 357.766 225.909 343.071C226.014 336.09 226.12 329.109 226.218 322.126C226.233 321.303 226.165 320.515 226.086 319.602C226.053 319.226 226.018 318.822 225.986 318.379L226.525 318.139L230.738 316.266C233.363 315.101 235.72 314.056 238.061 312.992L255.194 305.207C271.21 297.927 287.223 290.649 303.266 283.413C306.258 282.059 309.318 280.106 309.36 275.867C309.496 261.235 309.717 246.356 309.931 231.967C310.043 224.491 310.154 217.014 310.254 209.536C310.27 208.64 310.029 207.826 309.818 207.108C309.746 206.867 309.672 206.616 309.606 206.349L309.7 206.312L310.34 206.409L310.336 206.062C310.998 205.802 311.595 205.576 312.144 205.368C313.264 204.944 314.231 204.578 315.21 204.134C321.901 201.087 328.586 198.036 335.273 194.984C352.154 187.28 369.609 179.313 386.842 171.571C391.25 169.582 393.139 166.974 393.165 162.848C393.297 147.566 393.536 132.022 393.768 116.991C393.86 111 393.952 105.008 394.038 99.0154C394.04 98.2719 393.998 97.5444 393.937 96.7137C394.592 97.0504 395.184 97.343 395.822 97.619C402.538 100.559 409.273 103.502 416.008 106.444C433.404 114.045 451.393 121.904 469.014 129.706C471.038 130.603 472.949 131.04 474.856 131.04C476.818 131.04 478.761 130.587 480.972 129.617C492.026 124.761 503.1 119.936 514.177 115.115L516.043 114.303V114.081L537.075 104.931L552.979 98.0133C553.903 97.6165 554.848 97.193 556.052 96.6535L556.595 96.41L556.808 96.3147L557.003 96.1979C557.226 96.0645 557.449 95.9304 557.688 95.7903L557.719 95.8979L558.371 95.6071L561.064 96.8416L561.035 94.4203L562.055 93.9658L566.795 91.8574L584.115 83.9555C601.571 75.9879 619.62 67.7483 637.432 59.7245C641.85 57.7448 643.838 55.0777 643.873 51.0796C643.987 36.1383 644.219 20.9536 644.444 6.26875C644.541 -0.0763702 644.638 -6.42151 644.727 -12.767C644.744 -13.5851 644.704 -14.4231 644.652 -15.3628C644.729 -15.3251 644.808 -15.2878 644.89 -15.2515L661.603 -7.93092C681.535 0.798615 701.468 9.52777 721.371 18.2957C721.918 18.5344 722.384 18.6593 722.692 18.7425L722.872 18.7957L723.224 18.8788C724.136 19.0647 725.048 19.1589 725.935 19.1589C726.567 19.1589 727.202 19.112 727.824 19.0196L728.031 18.9886L728.232 18.9398C729.165 18.7125 730.033 18.4218 730.886 18.0497C745.113 11.8353 759.349 5.63985 773.585 -0.555634C784.275 -5.20769 794.964 -9.85974 805.647 -14.5184C806.664 -14.9655 807.417 -15.5061 808.145 -16.0286C808.428 -16.2322 808.727 -16.4487 809.064 -16.6686L809.174 -16.7395L812.115 -15.5652L812.079 -18.6362L812.865 -19.1494L812.068 -19.543L812.06 -20.262L811.218 -91.2489L811.213 -91.7249L811.006 -92.1727C810.927 -92.3464 810.841 -92.5152 810.749 -92.6796C810.92 -92.6922 811.09 -92.7074 811.261 -92.7255L811.447 -92.7458L811.63 -92.7805C812.86 -93.0155 814.034 -93.3791 815.219 -93.8927C833.477 -101.868 851.757 -109.799 870.034 -117.73L888.083 -125.563C889.502 -126.187 890.875 -126.803 893.016 -127.766L898.02 -130.015L893.249 -132.549C892.618 -132.884 892.115 -133.163 891.686 -133.4C890.897 -133.837 890.273 -134.182 889.542 -134.503L868.401 -143.747C850.879 -151.403 832.76 -159.321 814.994 -167.172C814.131 -167.553 813.256 -167.836 812.319 -168.038L812.208 -168.062L812.095 -168.08C811.454 -168.186 810.804 -168.239 810.161 -168.239C809.446 -168.239 808.715 -168.173 807.988 -168.042L807.901 -168.026L807.732 -167.992C807.369 -167.925 806.871 -167.791 806.375 -167.638C805.72 -167.424 805.151 -167.228 804.545 -166.964C789.461 -160.371 774.37 -153.802 759.282 -147.235C749.781 -143.099 740.281 -138.964 730.786 -134.824C729.825 -134.406 728.995 -133.93 728.116 -133.426C727.722 -133.201 727.303 -132.96 726.838 -132.707L726.582 -132.567L725.238 -133.114C724.934 -133.279 724.664 -133.429 724.419 -133.565C723.645 -133.995 723.034 -134.334 722.312 -134.651L702.533 -143.296C684.714 -151.08 666.289 -159.13 648.223 -167.113L648.096 -167.169L647.964 -167.217C646.183 -167.865 644.489 -168.179 642.786 -168.179C641.022 -168.179 639.267 -167.842 637.422 -167.147L637.321 -167.109L637.224 -167.066C628.155 -163.106 619.078 -159.162 609.999 -155.216L602.585 -151.994L600.122 -150.922L596.815 -149.483C587.917 -145.615 579.022 -141.743 570.13 -137.872L563.542 -135.004C562.56 -134.58 561.696 -134.091 560.781 -133.575C560.404 -133.362 560.002 -133.134 559.558 -132.893L558.977 -132.577L558.536 -132.816C558.144 -133.029 557.83 -133.21 557.56 -133.365C557.002 -133.686 556.52 -133.963 555.906 -134.221L535.833 -143.008L516.038 -151.673L514.184 -152.61L505.113 -156.579C496.94 -160.154 488.768 -163.73 480.615 -167.323C478.992 -168.041 477.403 -168.392 475.764 -168.392C473.466 -168.392 471.529 -167.672 470.098 -167.045C455.666 -160.741 441.211 -154.459 426.755 -148.177C416.594 -143.761 406.434 -139.345 396.279 -134.921C395.313 -134.5 394.491 -134.036 393.539 -133.497C393.19 -133.3 392.816 -133.088 392.401 -132.861L389.098 -134.375L389.1 -134.231C388.457 -134.55 387.856 -134.838 387.239 -135.105C380.966 -137.847 374.677 -140.591 368.388 -143.335C350.703 -151.049 332.417 -159.027 314.515 -166.97C312.392 -167.917 310.39 -168.38 308.401 -168.38C306.374 -168.38 304.366 -167.912 302.081 -166.907C283.834 -158.904 265.224 -150.839 247.226 -143.039L230.108 -135.622C228.989 -135.139 227.875 -134.64 226.521 -134.03L224.174 -132.983C223.892 -133.138 223.639 -133.277 223.409 -133.405C222.621 -133.841 221.998 -134.186 221.269 -134.506L200.182 -143.725C182.641 -151.39 164.504 -159.316 146.719 -167.174C144.96 -167.951 143.265 -168.328 141.535 -168.328C139.162 -168.328 137.188 -167.601 135.732 -166.968C120.677 -160.387 105.617 -153.831 90.5598 -147.277C81.0281 -143.128 71.4978 -138.98 61.9732 -134.827C61.0112 -134.409 60.1815 -133.933 59.3026 -133.429C58.9692 -133.238 58.6172 -133.035 58.2341 -132.824L55.1785 -134.225L55.1751 -134.098C54.7992 -134.298 54.4352 -134.479 54.0378 -134.653L34.2135 -143.318C16.2582 -151.162 -2.30946 -159.273 -20.5131 -167.319C-22.2915 -168.094 -23.9829 -168.467 -25.7034 -168.467C-28.086 -168.467 -30.0539 -167.74 -31.5027 -167.107C-47.2488 -160.23 -63.0164 -153.377 -78.7811 -146.526C-87.613 -142.687 -96.444 -138.849 -105.27 -135.007C-106.254 -134.583 -107.118 -134.093 -108.034 -133.576C-108.411 -133.363 -108.812 -133.136 -109.254 -132.895L-109.706 -132.65L-111.869 -133.448L-111.989 -131.409L-113.574 -130.548L-112.087 -129.76L-112.121 -129.183L-112.218 -127.717C-112.3 -126.568 -112.369 -125.576 -112.353 -124.544C-112.286 -118.024 -112.206 -111.49 -112.127 -104.956C-111.951 -90.4641 -111.769 -75.4785 -111.726 -60.7401C-111.706 -56.7505 -109.762 -54.1799 -105.222 -52.1403C-87.9842 -44.3408 -70.5094 -36.3188 -53.6098 -28.5607C-47.2989 -25.6634 -40.9881 -22.7665 -34.6748 -19.8744C-33.8876 -19.513 -33.0933 -19.1668 -32.1881 -18.7792L-53.7645 -8.9308C-71.6334 -0.772522 -89.5046 7.38724 -107.401 15.5156C-111.454 17.3531 -111.948 20.1122 -111.967 22.0277C-112.109 32.8276 -112.268 43.6363 -112.426 54.444C-112.593 65.886 -112.761 77.3266 -112.909 88.7654C-112.93 89.6943 -112.664 90.509 -112.407 91.2972C-112.375 91.3955 -112.342 91.4964 -112.309 91.6002L-115.109 92.8462L-112.364 94.2584ZM-105.251 168.379C-107.221 167.483 -108.535 166.608 -108.548 164.589C-108.698 141.767 -108.977 118.963 -109.212 96.1473C-109.219 95.8835 -109.047 95.6256 -108.746 94.7657C-95.0201 100.514 -81.9666 106.87 -68.6809 112.902C-55.294 118.98 -41.9611 125.163 -28.5283 131.323C-28.2455 155.299 -27.9632 179.042 -27.6847 203.277C-29.2992 202.82 -30.4642 202.644 -31.4291 202.201C-56.0611 190.939 -80.6277 179.635 -105.251 168.379ZM223.165 91.9538C195.776 79.554 169.357 67.3049 142.607 55.0817C142.325 31.1364 142.046 7.27415 141.763 -17.4143C144.474 -16.2396 146.047 -15.5955 147.57 -14.892C170.941 -4.17528 194.27 6.60463 217.726 17.1965C221.185 18.7598 222.692 20.3742 222.703 23.6314C222.718 44.6454 223.081 65.6647 223.312 86.6843C223.334 88.1594 223.235 89.6329 223.165 91.9538ZM223.309 98.8598C223.008 120.416 222.653 141.957 222.388 163.496C222.359 165.704 221.929 167.312 219.084 168.597C194.109 179.871 169.225 191.294 144.294 202.664C143.689 202.938 143.026 203.131 141.936 203.523C141.679 202.519 141.25 201.656 141.268 200.804C141.558 178.579 141.932 156.345 142.185 134.117C142.207 132.049 143.245 130.854 145.493 129.83C170.292 118.592 195.047 107.27 219.828 95.9969C220.705 95.5997 221.665 95.3529 223.062 94.8784C223.17 96.468 223.33 97.6619 223.309 98.8598ZM145.09 59.2586C169.096 69.9044 193.235 80.3743 217.322 90.9155C218.679 91.5133 219.967 92.2091 221.827 93.1255C220.18 93.9935 218.984 94.7258 217.689 95.3011C193.246 105.93 168.777 116.528 144.36 127.183C142.929 127.803 141.659 128.194 140.318 128.194C139.287 128.194 138.214 127.963 136.995 127.429C112.188 116.463 87.2902 105.635 62.4294 94.7484C61.5266 94.3596 60.716 93.8601 59.0036 92.9404C61.1784 91.9789 62.5431 91.3522 63.9364 90.7585C88.0712 80.2693 112.244 69.8272 136.305 59.2464C137.899 58.5477 139.291 58.1922 140.69 58.1922C142.081 58.1926 143.479 58.544 145.09 59.2586ZM139.188 51.7303C139.163 54.4769 137.875 55.9357 134.912 57.2806C110.527 68.2922 86.2341 79.4291 61.9049 90.515C61.0098 90.9262 60.0119 91.2096 58.2761 91.8315C58.1634 90.1717 58.0167 89.0961 58.0268 88.0263C58.3396 66.3291 58.706 44.6288 58.9176 22.9282C58.941 20.4514 59.8653 18.9246 62.7365 17.6365C87.1144 6.61017 111.418 -4.52374 135.733 -15.6207C136.789 -16.0944 137.919 -16.4861 139.661 -17.1671C139.826 -15.6713 140.072 -14.5195 140.061 -13.3678C139.753 8.33539 139.357 30.036 139.188 51.7303ZM58.171 94.4786C60.5331 95.4918 62.1031 96.1355 63.6326 96.8427C87.1402 107.602 110.61 118.444 134.207 129.112C137.53 130.613 138.88 132.228 138.89 135.264C138.957 156.553 139.297 177.82 139.529 199.111C139.544 200.434 139.404 201.764 139.309 203.584C137.534 202.939 136.265 202.556 135.106 202.023C110.824 190.903 86.5532 179.752 62.2569 168.658C59.9646 167.613 58.5111 166.592 58.5006 164.223C58.365 141.963 58.0416 119.724 57.7922 97.4808C57.7856 96.6975 57.9838 95.9145 58.171 94.4786ZM139.312 210.571C139 231.997 138.62 253.413 138.421 274.844C138.393 277.591 137.509 279.341 134.193 280.822C109.933 291.729 85.8018 302.807 61.6298 313.828C60.577 314.307 59.4354 314.69 57.8849 315.311C57.6251 314.179 57.2434 313.303 57.2506 312.432C57.5515 290.325 57.9174 268.208 58.1787 246.087C58.2002 243.94 58.9639 242.546 61.5008 241.405C86.3301 230.141 111.085 218.796 135.87 207.484C136.62 207.141 137.447 206.908 139.083 206.329C139.185 208.16 139.321 209.365 139.312 210.571ZM61.7506 171.412C85.5845 182.018 109.573 192.409 133.496 202.885C134.863 203.48 136.158 204.181 138.018 205.095C136.698 205.844 135.836 206.437 134.852 206.871C109.944 217.695 85.0275 228.498 60.1251 239.359C58.8679 239.907 57.7235 240.258 56.525 240.258C55.637 240.258 54.7195 240.065 53.7039 239.617C28.4094 228.481 3.07139 217.415 -22.2451 206.324C-22.8312 206.059 -23.3342 205.682 -24.6521 204.888C-22.4649 203.906 -20.9497 203.216 -19.4016 202.544C4.40646 192.185 28.2737 181.888 52.002 171.401C53.777 170.612 55.3189 170.215 56.8656 170.215C58.4094 170.215 59.9589 170.611 61.7506 171.412ZM-25.6083 358.454C-25.5864 356.238 -25.1216 354.635 -22.2819 353.361C2.56841 342.142 27.327 330.795 52.1152 319.494C52.8599 319.15 53.6882 318.912 54.9941 318.432C55.2071 319.718 55.5334 320.733 55.5152 321.752C55.2181 343.589 54.803 365.431 54.6349 387.267C54.6053 390.023 53.3147 391.47 50.3512 392.809C25.9666 403.824 1.67279 414.969 -22.6554 426.047C-23.5558 426.461 -24.5451 426.744 -26.2799 427.363C-26.397 425.701 -26.5446 424.626 -26.5331 423.556C-26.2245 401.855 -25.8687 380.151 -25.6083 358.454ZM-27.2687 351.852C-28.5383 351.852 -29.8275 351.543 -31.3083 350.884C-55.6489 340.101 -80.1147 329.478 -104.532 318.787C-105.742 318.265 -106.864 317.615 -108.959 316.542C-106.56 315.47 -105.045 314.792 -103.523 314.116C-79.6738 303.771 -55.7884 293.468 -32.0128 283.021C-30.278 282.261 -28.758 281.848 -27.208 281.848C-25.8051 281.848 -24.3774 282.186 -22.7414 282.913C1.28016 293.571 25.4445 304.047 49.5473 314.592C50.9082 315.192 52.1955 315.895 54.0149 316.8C52.5404 317.623 51.5277 318.324 50.3684 318.831C25.9136 329.489 1.43063 340.084 -22.9759 350.806C-24.5293 351.486 -25.8873 351.852 -27.2687 351.852ZM-25.2128 278.394C-25.4837 254.721 -25.7631 230.887 -26.0526 206.136C1.4311 218.726 27.9212 230.867 54.7194 243.144C55.0017 267.016 55.2841 290.884 55.5697 314.815C51.4288 314.128 -16.4903 283.444 -25.2128 278.394ZM-25.9823 199.764C-25.668 178.083 -25.3084 156.396 -25.0542 134.721C-25.0261 132.483 -24.5154 130.911 -21.7092 129.637C3.12632 118.429 27.8591 107.085 52.6254 95.7896C53.3849 95.446 54.2136 95.1825 55.5553 94.6663C55.7583 95.9197 56.0665 96.9244 56.055 97.9235C55.7545 119.879 55.4025 141.838 55.1236 163.794C55.1044 165.738 54.6058 167.139 52.2113 168.226C26.9458 179.68 1.73251 191.217 -23.499 202.72C-23.9504 202.927 -24.482 203.021 -25.7368 203.393C-25.8472 201.894 -26.0043 200.828 -25.9823 199.764ZM56.0435 91.8481C53.9452 91.0005 52.3865 90.4385 50.9082 89.749C27.2238 78.9018 3.59968 67.9863 -20.1764 57.2496C-23.5405 55.7317 -24.792 54.0774 -24.7944 51.0696C-24.8785 29.7751 -25.2128 8.47432 -25.4507 -12.8232C-25.4622 -14.1537 -25.3236 -15.4821 -25.2128 -17.3145C-23.114 -16.4694 -21.5449 -15.9074 -20.0732 -15.2235C3.61306 -4.36816 27.2506 6.54218 51.0147 17.2899C54.3813 18.8053 55.6108 20.451 55.6256 23.4669C55.6987 44.7703 56.0364 66.0649 56.2738 87.3513C56.2967 88.6848 56.1491 90.0072 56.0435 91.8481ZM-23.0008 58.9035C1.8161 69.8874 26.74 80.7231 51.6199 91.6131C52.5327 92.0137 53.3658 92.5243 54.7252 93.2275C53.3763 94.0219 52.3861 94.7594 51.2335 95.2564C26.7882 105.905 2.29375 116.5 -22.1166 127.211C-23.702 127.903 -25.0977 128.298 -26.5369 128.298C-27.7645 128.298 -29.0241 128.011 -30.4609 127.376C-54.9668 116.534 -79.5859 105.84 -104.146 95.0806C-105.206 94.6216 -106.182 94.0393 -108.16 93.0209C-105.83 91.9845 -104.337 91.2924 -102.818 90.6458C-78.8231 80.2099 -54.8082 69.8105 -30.8459 59.3321C-29.2677 58.6353 -27.8591 58.139 -26.3329 58.139C-25.305 58.1386 -24.2241 58.3633 -23.0008 58.9035ZM-108.867 246.626C-108.845 244.339 -108.192 242.821 -105.423 241.567C-80.6019 230.354 -55.8581 219.026 -31.0704 207.742C-30.3219 207.399 -29.4783 207.158 -27.9489 206.599C-27.861 208.273 -27.7258 209.349 -27.7473 210.418C-28.0587 232.096 -28.4184 253.78 -28.6606 275.465C-28.6897 277.741 -29.3723 279.234 -32.1341 280.488C-56.7977 291.636 -81.3767 302.914 -105.981 314.145C-106.902 314.559 -107.884 314.866 -109.316 315.422C-109.506 314.139 -109.799 313.112 -109.778 312.076C-109.483 290.251 -109.102 268.432 -108.867 246.626ZM-109.189 390.642C-109.479 366.705 -109.762 342.814 -110.059 318.523C-108.692 318.85 -107.667 318.932 -106.85 319.312C-81.9313 330.707 -57.0284 342.151 -32.0978 353.537C-30.0759 354.47 -29.0055 355.48 -28.9945 357.438C-28.822 380.114 -28.5335 402.788 -28.2937 425.464C-28.2899 425.865 -28.4227 426.271 -28.6572 427.57C-55.8285 415.114 -82.3731 402.947 -109.189 390.642ZM-109.832 538.887C-110.11 538.008 -110.551 537.286 -110.54 536.561C-110.258 514.194 -109.898 491.823 -109.619 469.453C-109.594 467.612 -108.871 466.378 -106.74 465.41C-81.3175 453.885 -55.9422 442.311 -30.5421 430.746C-30.2383 430.612 -29.871 430.584 -28.7375 430.32C-28.6381 431.721 -28.4915 432.786 -28.5097 433.844C-28.8154 455.664 -29.1746 477.48 -29.4163 499.309C-29.4411 501.482 -30.267 502.83 -32.7756 503.965C-57.582 515.209 -82.3186 526.528 -107.084 537.838C-107.843 538.187 -108.669 538.445 -109.832 538.887ZM48.634 543.143C24.4954 553.625 0.326271 564.066 -23.745 574.642C-25.2568 575.303 -26.567 575.635 -27.8787 575.635C-29.2018 575.635 -30.5259 575.297 -32.0601 574.619C-56.2283 563.922 -80.5174 553.369 -104.755 542.766C-106.094 542.182 -107.323 541.441 -109.046 540.562C-107.227 539.662 -105.962 538.961 -104.612 538.374C-80.4916 527.864 -56.3272 517.423 -32.2803 506.825C-30.618 506.093 -29.1597 505.731 -27.7057 505.731C-26.2078 505.731 -24.7151 506.114 -23.0084 506.87C0.997856 517.514 25.1341 528 49.2101 538.533C50.549 539.117 51.7742 539.861 53.7292 540.88C51.6127 541.818 50.1306 542.497 48.634 543.143ZM54.8112 538.831C53.6118 538.558 52.5805 538.482 51.7742 538.116C26.8537 526.718 1.98471 515.291 -22.931 503.905C-24.964 502.98 -26.0191 501.953 -26.0339 500.012C-26.2135 477.347 -26.4968 454.696 -26.7347 432.031C-26.7418 431.622 -26.5766 431.213 -26.3573 430.164C-24.4419 430.921 -23.0232 431.417 -21.6906 432.02C2.29424 443.014 26.226 454.04 50.2629 464.964C53.007 466.21 54.2829 467.515 54.29 470.122C54.4042 491.954 54.7228 513.79 54.9803 535.616C54.9803 536.572 54.8771 537.531 54.8112 538.831ZM133.14 430.836C108.693 441.451 84.2389 452.055 59.8137 462.712C58.3941 463.333 57.1197 463.727 55.7717 463.727C54.7376 463.727 53.6609 463.496 52.4405 462.958C27.6342 451.992 2.74467 441.164 -22.1238 430.297C-23.0189 429.9 -23.8381 429.4 -25.1985 428.674C-23.5802 427.811 -22.3956 427.073 -21.0858 426.512C3.3427 415.874 27.8114 405.277 52.2251 394.608C53.6452 393.988 54.9148 393.6 56.2523 393.6C57.2878 393.6 58.364 393.833 59.5825 394.37C84.4003 405.331 109.294 416.167 134.155 427.037C135.054 427.429 135.869 427.936 137.589 428.859C135.601 429.744 134.379 430.308 133.14 430.836ZM134.64 425.706C110.185 414.518 85.7536 403.279 61.2701 392.12C59.0069 391.09 57.9838 390.002 57.969 387.901C57.7961 365.508 57.4884 343.103 57.2315 320.706C57.2276 320.169 57.3595 319.622 57.5095 318.384C71.4815 324.206 84.5102 330.585 97.7954 336.598C111.195 342.675 124.523 348.847 137.974 355.035C138.26 378.977 138.535 402.749 138.825 427.085C137.05 426.507 135.756 426.217 134.64 425.706ZM135.957 351.043C111.612 340.26 87.1502 329.631 62.7365 318.952C61.5271 318.424 60.4156 317.774 58.4056 316.747C62.9247 314.73 66.5998 313.067 70.3156 311.458C91.8132 302.098 113.377 292.828 134.798 283.377C136.717 282.53 138.386 282.067 140.095 282.067C141.634 282.067 143.206 282.442 145.024 283.252C168.703 293.816 192.552 304.144 216.343 314.566C217.858 315.23 219.322 315.961 221.273 316.886C219.963 317.678 219.126 318.368 218.111 318.805C193.511 329.524 168.855 340.187 144.302 350.969C142.75 351.647 141.392 352.01 140.013 352.01C138.737 352.01 137.443 351.7 135.957 351.043ZM221.64 387.132C221.61 389.399 220.989 390.931 218.221 392.185C193.396 403.41 168.655 414.743 143.897 426.047C143.139 426.395 142.309 426.648 141.106 427.091C140.872 426.024 140.498 425.133 140.516 424.259C140.81 402.158 141.172 380.061 141.451 357.968C141.477 356.019 142.019 354.635 144.393 353.548C169.673 342.108 194.884 330.579 220.117 319.077C220.569 318.861 221.107 318.781 222.323 318.432C222.429 319.956 222.576 321.031 222.557 322.092C222.249 343.776 221.881 365.448 221.64 387.132ZM222.413 315.751C195.244 303.303 168.719 291.139 141.862 278.828C141.58 254.905 141.294 231.017 141.001 206.655C142.53 207.072 143.689 207.243 144.642 207.674C169.412 219.01 194.164 230.376 218.937 241.714C220.94 242.619 222.054 243.601 222.077 245.579C222.238 268.255 222.535 290.937 222.781 313.614C222.784 314.014 222.647 314.42 222.413 315.751ZM219.758 239.068C195.41 228.285 170.953 217.656 146.539 206.965C145.336 206.437 144.22 205.799 142.1 204.718C144.503 203.648 146.01 202.965 147.532 202.3C171.385 191.949 195.267 181.649 219.043 171.199C220.78 170.435 222.297 170.02 223.845 170.02C225.246 170.02 226.673 170.36 228.311 171.086C252.335 181.743 276.497 192.228 300.603 202.771C301.968 203.37 303.266 204.062 305.085 204.962C303.61 205.799 302.598 206.499 301.443 207.004C276.982 217.656 252.502 228.256 228.107 238.979C226.551 239.663 225.19 240.029 223.803 240.029C222.532 240.03 221.241 239.722 219.758 239.068ZM305.698 275.843C305.671 278.502 304.099 279.752 301.421 280.964C279.655 290.782 257.945 300.676 236.205 310.548C232.691 312.145 229.144 313.699 224.696 315.683C224.622 313.614 224.526 312.261 224.549 310.916C224.857 289.496 225.227 268.077 225.421 246.649C225.45 244.175 226.356 242.643 229.225 241.337C253.613 230.328 277.906 219.189 302.231 208.097C303.284 207.609 304.411 207.229 305.951 206.633C306.196 207.742 306.608 208.627 306.593 209.504C306.296 231.619 305.903 253.731 305.698 275.843ZM225.851 166.586C225.583 142.925 225.301 119.082 225.014 94.2857C252.637 106.955 279.043 119.076 305.779 131.328C306.069 155.171 306.351 179.036 306.637 202.964C302.584 202.355 235.329 172.011 225.851 166.586ZM225.084 88.37C225.377 66.414 225.745 44.4614 226.009 22.4966C226.035 20.57 226.478 19.1397 228.884 18.0563C254.311 6.5359 279.688 -5.0462 305.078 -16.6113C305.379 -16.7532 305.757 -16.7761 306.882 -17.034C306.985 -15.7714 307.136 -14.8436 307.121 -13.9217C306.81 8.02832 306.453 29.9872 306.212 51.9491C306.19 54.1339 305.341 55.4764 302.844 56.6107C278.023 67.844 253.297 79.1826 228.525 90.4754C227.762 90.8187 226.943 91.094 225.586 91.6131C225.384 90.3727 225.07 89.3662 225.084 88.37ZM303.586 127.277C279.406 116.568 255.128 106.025 230.879 95.4205C229.544 94.8274 228.316 94.1014 226.595 93.2072C228.385 92.3167 229.648 91.6128 230.994 91.0227C255.105 80.5243 279.275 70.077 303.324 59.4822C304.995 58.7443 306.463 58.3781 307.927 58.3781C309.415 58.3781 310.9 58.7553 312.595 59.5043C336.608 70.1446 360.743 80.6259 384.823 91.1753C386.157 91.765 387.402 92.4977 389.353 93.5187C387.244 94.4613 385.762 95.1252 384.274 95.7774C360.134 106.259 335.963 116.687 311.898 127.276C310.378 127.941 309.058 128.278 307.734 128.278C306.42 128.279 305.103 127.948 303.586 127.277ZM389.503 162.832C389.485 165.771 388.436 167.57 385.002 169.12C361.047 179.882 337.227 190.82 313.353 201.69C312.024 202.294 310.601 202.777 308.599 203.565C308.488 201.77 308.321 200.45 308.339 199.134C308.647 177.845 309.032 156.564 309.207 135.275C309.23 132.327 310.327 130.556 313.738 129.025C337.518 118.302 361.179 107.423 384.878 96.5818C386.349 95.9149 387.838 95.2708 390.094 94.2636C390.218 96.3317 390.38 97.6571 390.376 98.9818C390.07 120.271 389.686 141.546 389.503 162.832ZM390.423 91.4827C389.239 91.2159 388.197 91.1305 387.386 90.7588C362.477 79.364 337.602 67.9353 312.685 56.5483C310.653 55.6175 309.597 54.5962 309.589 52.6474C309.406 29.9935 309.131 7.33661 308.892 -15.3284C308.889 -15.7371 309.053 -16.1372 309.274 -17.1866C311.188 -16.4347 312.603 -15.9355 313.943 -15.3225C337.917 -4.35007 361.865 6.68739 385.893 17.614C388.64 18.8566 389.902 20.1765 389.905 22.7752C390.022 44.6115 390.346 66.4373 390.592 88.2625C390.607 89.2269 390.497 90.1831 390.423 91.4827ZM392.346 88.0437C392.65 66.366 393.021 44.6828 393.266 22.9991C393.292 20.7352 393.879 19.1829 396.655 17.9347C421.495 6.72102 446.25 -4.60872 471.016 -15.8901C471.778 -16.2337 472.604 -16.4861 474.167 -17.0621C474.266 -15.4053 474.398 -14.3296 474.38 -13.2629C474.075 8.41484 473.709 30.0955 473.466 51.7787C473.437 54.0405 472.81 55.5728 470.025 56.8239C445.355 67.9804 420.78 79.2536 396.173 90.4754C395.259 90.8981 394.269 91.2211 392.72 91.8141C392.573 90.3727 392.331 89.2095 392.346 88.0437ZM554.759 93.9572C553.311 94.6061 552.245 95.0868 551.183 95.5428C538.246 101.172 525.309 106.793 512.381 112.423V112.645C501.3 117.467 490.222 122.294 479.165 127.152C477.608 127.836 476.245 128.205 474.855 128.205C473.592 128.205 472.306 127.9 470.832 127.246C446.492 116.469 422.026 105.834 397.609 95.146C396.399 94.622 395.28 93.9776 393.156 92.9016C395.574 91.826 397.073 91.1483 398.592 90.4758C422.437 80.1304 446.323 69.8279 470.105 59.3805C471.844 58.6175 473.365 58.2 474.922 58.2C476.317 58.2 477.741 58.5355 479.374 59.2586C490.352 64.1324 501.364 68.9592 512.381 73.7772V73.8566C525.677 79.673 538.98 85.4842 552.28 91.3065C553.29 91.7561 554.225 92.33 555.961 93.2523C555.516 93.5031 555.137 93.7307 554.759 93.9572ZM512.918 71.4644V71.6085C500.908 66.0996 488.957 60.618 476.939 55.1069C476.648 31.2642 476.362 7.4072 476.077 -16.492C478.025 -16.2289 494.611 -9.07196 512.38 -1.09178V-0.767365C526.163 5.54488 539.851 11.8161 553.589 18.1154C554.758 18.7077 555.733 19.2173 556.489 19.6326C556.766 43.3551 557.047 67.0829 557.342 91.8415C542.264 84.9295 527.528 78.1683 512.918 71.4644ZM640.211 51.0582C640.185 54.046 638.938 55.7738 635.59 57.2751C611.988 67.9068 588.497 78.6757 564.973 89.3987C563.435 90.0811 561.85 90.7862 560.227 91.5097C559.92 90.4241 559.547 89.5993 559.563 88.7931C559.853 66.5508 560.212 44.2966 560.506 22.0492C560.509 21.7565 560.553 21.4971 560.589 21.2303C561.08 19.6537 562.266 18.5134 564.285 17.4921C589.226 6.16196 614.119 -5.22615 639.025 -16.5873C639.391 -16.7551 639.849 -16.8515 640.764 -17.0954C640.814 -16.9339 640.863 -16.7817 640.916 -16.6243C640.992 -15.1437 641.088 -13.9605 641.065 -12.7991C640.769 8.48578 640.373 29.7633 640.211 51.0582ZM732.583 -132.36C757.155 -143.074 781.763 -153.757 806.339 -164.499C806.818 -164.708 807.27 -164.86 807.723 -165.009C808.062 -165.113 808.399 -165.208 808.733 -165.272C808.759 -165.278 808.787 -165.28 808.814 -165.286C809.262 -165.366 809.708 -165.41 810.16 -165.41C810.545 -165.41 810.935 -165.378 811.335 -165.313C811.921 -165.186 812.525 -165.003 813.176 -164.715C837.977 -153.757 862.87 -142.927 887.735 -132.042C888.641 -131.644 889.444 -131.137 891.175 -130.217C889.047 -129.261 887.683 -128.649 886.289 -128.036C862 -117.489 837.686 -106.962 813.429 -96.3669C812.49 -95.9605 811.619 -95.6992 810.751 -95.5333C810.427 -95.4979 810.104 -95.4801 809.78 -95.4801C809.216 -95.4801 808.65 -95.5341 808.068 -95.6431C807.594 -95.7661 807.122 -95.8851 806.602 -96.1146C781.793 -107.076 756.891 -117.903 732.033 -128.779C731.134 -129.17 730.317 -129.667 728.945 -130.393C730.397 -131.185 731.428 -131.858 732.583 -132.36ZM727.5 -128.996C728.046 -128.774 728.529 -128.58 728.956 -128.409C755.002 -116.468 780.266 -104.885 805.951 -93.1105C806.728 -92.5777 807.222 -91.9528 807.556 -91.226C807.834 -67.8645 808.114 -44.3637 808.398 -20.2391C806.364 -21.0513 804.902 -21.5826 803.562 -22.2093C779.899 -33.0424 756.289 -43.9554 732.542 -54.6776C729.135 -56.2155 728.042 -57.9152 728.026 -60.8886C727.943 -82.0187 727.609 -103.158 727.363 -124.29C727.35 -125.585 727.435 -126.91 727.5 -128.996ZM725.756 -53.6925C727.058 -53.6711 728.382 -53.3729 729.903 -52.7004C754.083 -41.9689 778.398 -31.4225 802.656 -20.7997C803.882 -20.269 805.059 -19.6479 806.703 -18.8361C805.581 -18.1037 804.817 -17.4143 803.849 -16.989C778.937 -6.12444 753.995 4.70021 729.089 15.5788C728.414 15.8729 727.771 16.0798 727.133 16.235C726.735 16.2941 726.337 16.3237 725.938 16.3237C725.353 16.3237 724.763 16.2609 724.155 16.1371C723.833 16.0425 723.523 15.9804 723.182 15.8319C697.72 4.61559 672.21 -6.53825 646.714 -17.7095C646.255 -17.9134 645.896 -18.2283 644.601 -19.0881C646.677 -20.0071 648.158 -20.6773 649.648 -21.3328C673.658 -31.7488 697.694 -42.1252 721.646 -52.6269C722.423 -52.9702 723.154 -53.2347 723.863 -53.4195C723.991 -53.4516 724.115 -53.4516 724.241 -53.4779C724.751 -53.5902 725.255 -53.6689 725.756 -53.6925ZM724.75 -128.682C724.765 -128.687 724.773 -128.69 724.789 -128.696C724.925 -127.196 725.098 -126.045 725.084 -124.895C724.768 -103.356 724.394 -81.8232 724.181 -60.2734C724.152 -57.8192 723.359 -56.2473 720.458 -54.9392C696.092 -43.9217 671.832 -32.7819 647.521 -21.6987C646.492 -21.2261 645.323 -20.8388 643.885 -20.3053C643.757 -21.7851 643.574 -22.9435 643.592 -24.0794C643.892 -45.4932 644.304 -66.8901 644.451 -88.304C644.476 -91.2966 645.752 -92.9915 649.053 -94.4847C650.966 -95.349 652.872 -96.221 654.784 -97.0871C676.79 -107.024 698.713 -117.06 720.682 -127.063C721.866 -127.598 723.166 -128.069 724.75 -128.682ZM565.337 -132.539C576.422 -137.365 587.513 -142.194 598.606 -147.016C600.531 -147.852 602.454 -148.691 604.378 -149.528C615.93 -154.55 627.484 -159.564 639.023 -164.603C640.353 -165.104 641.573 -165.35 642.785 -165.35C643.967 -165.35 645.142 -165.117 646.407 -164.657C671.053 -153.766 695.796 -143.002 720.506 -132.19C721.405 -131.796 722.212 -131.282 723.907 -130.383C721.901 -129.492 720.675 -128.925 719.438 -128.4C694.992 -117.773 670.534 -107.179 646.113 -96.5184C644.907 -95.9923 643.81 -95.6497 642.687 -95.554C642.669 -95.5537 642.651 -95.5537 642.633 -95.5537C642.071 -95.5537 641.505 -95.6416 640.929 -95.7558C640.402 -95.8825 639.867 -96.0333 639.286 -96.2916C614.473 -107.252 589.578 -118.08 564.713 -128.964C563.829 -129.347 563.011 -129.864 561.661 -130.579C563.14 -131.382 564.173 -132.037 565.337 -132.539ZM560.323 -128.682C560.87 -128.543 561.396 -128.428 561.885 -128.317C562.664 -128.042 563.372 -127.783 564.017 -127.488C588.303 -116.374 612.562 -105.217 636.862 -94.1204C639.145 -93.0791 640.601 -92.0659 640.607 -89.6686C640.729 -67.4259 641.056 -45.1836 641.305 -22.9413C641.314 -22.1986 641.143 -21.4348 640.98 -20.1622C640.906 -20.1914 640.852 -20.211 640.779 -20.2395C638.795 -21.0893 637.373 -21.6831 636.003 -22.3113C612.496 -33.082 589.021 -43.9151 565.429 -54.5893C562.102 -56.0847 560.763 -57.7105 560.747 -60.7467C560.685 -82.0302 560.34 -103.305 560.12 -124.58C560.101 -125.813 560.221 -127.072 560.323 -128.682ZM559.002 -53.3918C559.691 -53.3918 560.378 -53.3178 561.083 -53.1616C561.867 -52.9609 562.678 -52.6731 563.548 -52.2829C587.39 -41.6881 611.378 -31.2917 635.297 -20.8048C636.661 -20.2147 637.948 -19.5138 639.808 -18.5834C638.466 -17.8455 637.582 -17.2579 636.596 -16.8323C611.69 -5.99916 586.751 4.79701 561.884 15.673C560.705 16.1947 559.651 16.4375 558.604 16.4612C557.62 16.4105 556.626 16.1777 555.518 15.69C541.339 9.45091 527.121 3.2451 512.919 -2.96884V-2.84508C501.89 -7.67523 490.865 -12.5128 479.842 -17.3489C479.251 -17.6038 478.774 -17.9929 477.498 -18.7788C479.706 -19.7606 481.228 -20.4501 482.776 -21.1226C492.819 -25.4927 502.872 -29.8525 512.92 -34.2193V-34.2001C526.747 -40.2127 540.56 -46.2363 554.331 -52.3169C555.058 -52.6376 555.728 -52.8482 556.393 -53.0374C556.776 -53.1379 557.155 -53.2266 557.526 -53.2824C557.675 -53.309 557.823 -53.3179 557.971 -53.3374C558.316 -53.3733 558.659 -53.3918 559.002 -53.3918ZM557.612 -128.839C557.701 -127.403 557.836 -126.366 557.815 -125.329C557.51 -103.654 557.141 -81.9711 556.894 -60.2904C556.873 -58.0287 556.271 -56.4882 553.49 -55.2341C539.765 -49.0342 526.069 -42.7922 512.381 -36.5387V-36.3151C501.796 -31.4809 491.214 -26.6437 480.621 -21.818C479.456 -21.273 478.194 -20.8702 476.455 -20.2203C476.333 -21.7977 476.137 -22.9838 476.151 -24.1758C476.455 -45.5867 476.873 -66.9921 477.02 -88.3975C477.037 -91.4104 478.34 -93.0905 481.667 -94.5881C492.105 -99.2934 502.513 -104.032 512.918 -108.777V-108.761C527.249 -115.293 541.587 -121.813 555.913 -128.345C556.291 -128.509 556.754 -128.61 557.612 -128.839ZM398.075 -132.457C422.68 -143.177 447.317 -153.846 471.902 -164.585C473.261 -165.18 474.48 -165.564 475.764 -165.564C476.713 -165.564 477.699 -165.354 478.803 -164.865C489.975 -159.942 501.185 -155.051 512.381 -150.149V-150.023C526.304 -143.922 540.239 -137.833 554.158 -131.736C554.779 -131.475 555.313 -131.109 556.432 -130.501C555.196 -129.752 554.271 -129.006 553.16 -128.527C539.571 -122.602 525.973 -116.694 512.381 -110.779V-110.561C501.843 -105.976 491.309 -101.384 480.808 -96.7505C478.936 -95.9235 477.297 -95.499 475.649 -95.499C474.04 -95.499 472.422 -95.9032 470.568 -96.7331C446.866 -107.274 423.021 -117.608 399.223 -128.018C397.727 -128.682 396.282 -129.426 394.246 -130.405C395.863 -131.282 396.909 -131.949 398.075 -132.457ZM473.591 -92.3586C473.88 -68.4875 474.156 -44.6305 474.438 -20.6714C469.78 -21.5542 407.032 -49.8486 393.681 -56.9848C393.391 -80.6172 393.116 -104.491 392.819 -129.381C420.42 -116.729 446.829 -104.622 473.591 -92.3586ZM395.235 -52.9639C420.042 -42.0173 444.944 -31.1783 469.813 -20.3053C470.707 -19.9139 471.515 -19.4003 472.86 -18.6739C471.242 -17.817 470.036 -17.0961 468.737 -16.5141C444.286 -5.89127 419.818 4.71202 395.407 15.3637C393.983 15.9834 392.715 16.3677 391.383 16.3677C390.342 16.3677 389.262 16.1326 388.039 15.591C363.24 4.62703 338.335 -6.19757 313.48 -17.0791C312.582 -17.4675 311.774 -17.9696 310.066 -18.8867C312.094 -19.7831 313.319 -20.3448 314.552 -20.8813C338.998 -31.4931 363.46 -42.0879 387.867 -52.7621C389.279 -53.3799 390.536 -53.752 391.849 -53.752C392.906 -53.7528 393.997 -53.5118 395.235 -52.9639ZM391.131 -125.544C390.834 -103.714 390.467 -81.8687 390.204 -60.0373C390.18 -57.7988 389.635 -56.204 386.829 -54.9389C361.982 -43.7082 337.227 -32.3555 312.436 -21.0601C311.698 -20.728 310.85 -20.5351 309.307 -20.0359C309.207 -21.6842 309.076 -22.771 309.09 -23.8577C309.399 -45.5668 309.747 -67.2559 310 -88.9565C310.03 -91.1954 310.605 -92.7558 313.396 -94.0239C338.1 -105.178 362.709 -116.445 387.342 -127.69C388.222 -128.09 389.193 -128.394 390.635 -128.936C390.842 -127.593 391.149 -126.56 391.131 -125.544ZM231.899 -133.152C255.913 -143.571 279.941 -153.945 303.889 -164.448C305.521 -165.166 306.947 -165.551 308.4 -165.551C309.746 -165.551 311.115 -165.22 312.692 -164.516C336.867 -153.791 361.186 -143.244 385.449 -132.638C386.685 -132.102 387.847 -131.475 389.495 -130.664C388.383 -129.931 387.61 -129.242 386.638 -128.811C361.736 -117.952 336.791 -107.127 311.882 -96.2483C310.625 -95.6985 309.48 -95.3501 308.283 -95.3501C307.387 -95.3501 306.463 -95.5452 305.441 -95.9956C279.978 -107.207 254.463 -118.361 228.971 -129.54C228.51 -129.738 228.15 -130.051 226.852 -130.902C228.921 -131.833 230.398 -132.504 231.899 -133.152ZM229.21 -127.855C253.984 -116.516 278.724 -105.141 303.497 -93.8229C305.504 -92.9036 306.614 -91.9133 306.629 -89.9468C306.797 -67.2703 307.08 -44.5968 307.338 -21.9089C307.329 -21.5084 307.202 -21.1001 307.132 -20.6973C303.332 -21.123 240.375 -49.4092 226.412 -56.9963C226.13 -80.8784 225.843 -104.645 225.561 -128.882C227.098 -128.456 228.25 -128.292 229.21 -127.855ZM224.56 -53.4247C226.302 -53.4247 228.027 -52.9676 230.01 -52.087C253.382 -41.6622 276.927 -31.4646 300.405 -21.1821C302.085 -20.4501 303.736 -19.7011 305.983 -18.6853C304.396 -17.766 303.395 -17.0425 302.243 -16.5374C277.943 -5.95961 253.596 4.56165 229.361 15.2244C227.63 15.9834 226.113 16.3909 224.567 16.3909C223.154 16.3909 221.717 16.0503 220.073 15.3264C196.048 4.6666 171.887 -5.82068 147.785 -16.3586C146.417 -16.9546 145.13 -17.65 142.893 -18.7563C147.47 -20.7937 151.134 -22.4565 154.842 -24.0735C176.348 -33.4145 197.919 -42.6669 219.313 -52.158C221.235 -53.0123 222.905 -53.4247 224.56 -53.4247ZM223.58 -129.449C223.711 -127.381 223.877 -126.055 223.862 -124.753C223.565 -103.458 223.132 -82.1784 223.026 -60.889C223.011 -57.6488 221.552 -55.9602 218.052 -54.3972C194.254 -43.6971 170.578 -32.8241 146.857 -22.0279C145.525 -21.4152 144.106 -20.9356 141.968 -20.1013C141.905 -22.1018 141.803 -23.3359 141.821 -24.562C142.132 -45.8539 142.52 -67.1259 142.697 -88.4233C142.722 -91.3572 143.798 -93.1471 147.216 -94.6827C170.999 -105.399 194.654 -116.284 218.352 -127.123C219.835 -127.795 221.328 -128.445 223.58 -129.449ZM63.7706 -132.36C88.343 -143.074 112.952 -153.757 137.527 -164.499C138.939 -165.114 140.204 -165.496 141.535 -165.496C142.582 -165.496 143.669 -165.26 144.903 -164.715C169.702 -153.757 194.596 -142.927 219.461 -132.042C220.367 -131.644 221.17 -131.137 222.901 -130.217C220.774 -129.261 219.408 -128.649 218.015 -128.036C193.725 -117.489 169.412 -106.962 145.156 -96.3669C143.723 -95.7469 142.448 -95.3497 141.098 -95.3497C140.073 -95.3497 139.004 -95.5792 137.79 -96.1149C112.98 -107.076 88.0788 -117.903 63.2209 -128.779C62.3224 -129.171 61.5046 -129.668 60.1333 -130.394C61.5858 -131.185 62.6166 -131.858 63.7706 -132.36ZM58.6993 -129.319C85.9924 -116.806 112.376 -104.71 139.269 -92.3811C139.551 -68.5695 139.837 -44.6219 140.126 -20.0244C137.783 -20.9718 136.213 -21.5254 134.75 -22.2093C111.088 -33.0424 87.4774 -43.9554 63.731 -54.6776C60.3239 -56.2155 59.2309 -57.9152 59.2152 -60.8886C59.1311 -82.0187 58.7977 -103.158 58.5517 -124.29C58.5379 -125.656 58.6329 -127.026 58.6993 -129.319ZM61.6298 -52.7001C85.8085 -41.9685 110.124 -31.4221 134.383 -20.7993C135.608 -20.2687 136.786 -19.6475 138.43 -18.8357C137.307 -18.1034 136.543 -17.4139 135.576 -16.9886C110.664 -6.12405 85.7216 4.70056 60.8158 15.5791C59.5605 16.1264 58.4122 16.4719 57.2133 16.4719C56.3163 16.4719 55.391 16.2786 54.3708 15.8319C28.9081 4.61559 3.39763 -6.53825 -22.098 -17.7095C-22.5566 -17.9134 -22.9162 -18.2283 -24.2102 -19.0881C-22.1343 -20.0071 -20.6531 -20.6773 -19.1633 -21.3328C4.84686 -31.7488 28.8828 -42.1252 52.8346 -52.6269C54.462 -53.3459 55.8849 -53.728 57.3342 -53.728C58.6812 -53.7276 60.0516 -53.3977 61.6298 -52.7001ZM56.8102 -124.895C56.494 -103.356 56.1204 -81.8232 55.9079 -60.2734C55.8783 -57.8192 55.0853 -56.2473 52.1855 -54.9392C27.819 -43.9217 3.55956 -32.7819 -20.752 -21.6987C-21.9141 -21.1651 -23.1871 -20.7708 -24.9076 -20.1153C-25.0366 -21.6987 -25.2377 -22.8907 -25.2195 -24.0794C-24.9186 -45.4932 -24.5083 -66.8901 -24.3612 -88.304C-24.3363 -91.3084 -23.0562 -93.0056 -19.725 -94.5035C4.20154 -105.278 28.002 -116.196 51.8697 -127.063C53.201 -127.665 54.6158 -128.155 56.494 -128.896C56.633 -127.284 56.8245 -126.101 56.8102 -124.895ZM-103.475 -132.539C-78.8933 -143.239 -54.2728 -153.91 -29.7019 -164.641C-28.2871 -165.26 -27.026 -165.635 -25.7034 -165.635C-24.6535 -165.635 -23.5649 -165.398 -22.3292 -164.86C2.47002 -153.899 27.3671 -143.069 52.2327 -132.19C53.1312 -131.796 53.9375 -131.282 55.6318 -130.383C53.6266 -129.492 52.4018 -128.925 51.1656 -128.4C26.7185 -117.773 2.2608 -107.179 -22.1601 -96.5181C-23.5788 -95.8995 -24.8474 -95.5119 -26.182 -95.5119C-27.2219 -95.5119 -28.3023 -95.7469 -29.5261 -96.2916C-54.3392 -107.252 -79.2334 -118.08 -104.099 -128.964C-104.982 -129.347 -105.8 -129.864 -107.15 -130.579C-105.672 -131.382 -104.639 -132.037 -103.475 -132.539ZM-32.8091 -22.3117C-56.3167 -33.0823 -79.7909 -43.9155 -103.383 -54.5897C-106.71 -56.0851 -108.05 -57.7109 -108.065 -60.7471C-108.127 -82.0305 -108.472 -103.305 -108.691 -124.58C-108.713 -125.911 -108.57 -127.253 -108.463 -129.054C-106.688 -128.399 -105.419 -128.019 -104.257 -127.488C-79.97 -116.374 -55.711 -105.217 -31.4114 -94.1204C-29.1292 -93.0791 -27.6728 -92.0659 -27.6656 -89.6686C-27.5457 -67.4259 -27.2181 -45.1836 -26.9687 -22.9413C-26.9577 -22.1524 -27.1517 -21.3606 -27.3246 -19.9365C-29.7162 -20.9667 -31.2753 -21.6078 -32.8091 -22.3117ZM-108.305 22.0488C-108.288 20.2585 -107.756 18.9586 -105.547 17.9569C-80.2647 6.47382 -55.0327 -5.07132 -29.786 -16.5884C-29.3389 -16.7931 -28.7958 -16.8777 -27.3905 -17.2753C-27.3136 -15.4647 -27.1818 -14.1316 -27.2076 -12.8006C-27.5047 8.4854 -27.9011 29.7633 -28.063 51.0578C-28.0879 54.0456 -29.3346 55.7734 -32.6834 57.2747C-56.6315 68.0624 -80.4653 78.992 -104.337 89.8709C-105.558 90.427 -106.781 90.9632 -108.515 91.738C-108.831 90.5205 -109.266 89.6603 -109.248 88.7927C-108.959 66.55 -108.599 44.2963 -108.305 22.0488Z" fill="url(#paint0_linear_1826_21656)" fill-opacity="0.41"/>
<defs>
<linearGradient id="paint0_linear_1826_21656" x1="37.2823" y1="102.881" x2="366.769" y2="330.103" gradientUnits="userSpaceOnUse">
<stop offset="0.576923"/>
<stop offset="1" stop-color="white"/>
</linearGradient>
</defs>
</svg>