<svg width="597" height="601" viewBox="0 0 597 601" fill="none" xmlns="http://www.w3.org/2000/svg">
<path d="M753.356 466.748C753.404 466.581 753.445 466.447 753.479 466.336C753.605 465.93 753.747 465.469 753.735 464.871L753.597 448.119C753.46 431.727 753.323 415.338 753.24 398.94C753.221 395.174 750.664 393.67 749.436 392.947C740.142 387.455 730.855 381.948 721.566 376.44C712.515 371.073 703.463 365.705 694.399 360.348C694.152 360.202 693.903 360.077 693.654 359.968C693.815 359.886 693.974 359.799 694.133 359.705L710.501 350.061C723.294 342.52 736.522 334.722 749.557 327.109C752.98 325.104 753.46 322.337 753.478 319.894C753.587 306.769 753.739 293.635 753.891 280.499C753.982 272.604 754.074 264.709 754.156 256.812C754.17 255.934 754.05 255.102 753.934 254.297C753.926 254.241 753.918 254.184 753.91 254.127L754.401 254.279L754.395 253.564L756 252.637L754.376 251.562L754.366 250.544L753.982 209.441L753.718 181.026L753.703 179.489L752.381 178.704C734.4 168.037 716.584 157.478 698.443 146.728L694.419 144.342L706.335 137.326C721.066 128.652 735.793 119.979 750.542 111.335C752.864 109.971 754.007 107.935 754.038 105.111C754.144 94.0409 754.267 82.9736 754.389 71.9071C754.505 61.4115 754.622 50.916 754.724 40.4211C754.735 39.5296 754.496 38.7613 754.304 38.1441C754.258 37.9941 754.209 37.8395 754.164 37.6778L755.892 36.5726L753.507 34.9997L753.313 34.2029L752.732 34.4886L752.384 34.2588C751.926 33.9564 751.517 33.6722 751.135 33.4062C750.428 32.9157 749.761 32.4519 749.023 32.0352L734.316 23.7277C721.359 16.4139 707.961 8.85073 694.835 1.33888C693.235 0.42528 691.815 0 690.362 0C688.925 0 687.518 0.416378 685.937 1.31003C672.162 9.13389 658.115 17.0097 644.531 24.6263L631.977 31.6687C631.276 32.0601 630.574 32.4662 629.758 32.9385L628.155 33.8642L626.616 34.7472L626.118 34.6004L626.1 35.0435L624.352 36.0469L626.017 37.1678L625.98 38.0988C625.962 38.5469 625.941 38.9519 625.921 39.3294C625.884 40.0486 625.852 40.6772 625.852 41.3055L625.991 56.0083C626.144 71.8861 626.301 88.3046 626.366 104.448C626.369 105.78 626.578 106.929 627.021 107.942C625.669 108.136 624.523 108.701 623.633 109.204C608.757 117.595 593.864 125.954 578.971 134.312L568.968 139.926C568.368 140.256 567.754 140.612 566.979 141.062L565.625 141.846L564.694 142.382L563.297 141.793L563.31 143.179L561.885 143.999L561.934 144.032C561.58 144.198 561.235 144.371 560.888 144.577L549.805 151.122C535.292 159.693 520.286 168.557 505.489 177.207C502.095 179.194 501.612 181.962 501.588 184.407C501.466 198.58 501.3 212.744 501.135 226.909C501.057 233.639 500.978 240.368 500.904 247.099C500.893 247.892 500.944 248.652 501.003 249.531C501.028 249.894 501.054 250.284 501.077 250.711L500.676 250.942L497.534 252.747C495.577 253.87 493.82 254.878 492.074 255.904L479.299 263.407C467.357 270.425 455.418 277.44 443.456 284.416C441.226 285.721 438.944 287.604 438.913 291.69C438.811 305.794 438.646 320.136 438.486 334.006C438.403 341.214 438.32 348.421 438.246 355.629C438.234 356.493 438.413 357.278 438.571 357.97C438.625 358.202 438.68 358.444 438.729 358.701L438.659 358.737L438.182 358.644L438.184 358.978C437.691 359.229 437.246 359.446 436.836 359.647C436.002 360.055 435.28 360.408 434.551 360.837C429.562 363.774 424.577 366.715 419.592 369.656C407.005 377.083 393.99 384.762 381.141 392.225C377.854 394.143 376.446 396.657 376.426 400.634C376.329 415.365 376.15 430.348 375.977 444.838C375.909 450.613 375.84 456.388 375.775 462.165C375.774 462.882 375.805 463.583 375.851 464.384C375.363 464.059 374.921 463.777 374.446 463.511C369.438 460.677 364.416 457.84 359.394 455.004C346.423 447.678 333.011 440.102 319.872 432.581C318.364 431.717 316.939 431.296 315.517 431.296C314.054 431.296 312.605 431.732 310.956 432.668C302.715 437.348 294.457 441.999 286.199 446.646L284.807 447.429V447.643L269.125 456.463L257.267 463.131C256.578 463.514 255.873 463.922 254.976 464.442L254.571 464.677L254.412 464.769L254.267 464.881C254.101 465.01 253.934 465.139 253.756 465.274L253.733 465.17L253.247 465.451L251.239 464.261L251.261 466.595L250.5 467.033L246.966 469.065L234.052 476.682C221.037 484.363 207.578 492.305 194.298 500.04C191.004 501.948 189.521 504.519 189.496 508.373C189.411 522.775 189.237 537.413 189.07 551.568C188.997 557.684 188.925 563.801 188.859 569.918C188.846 570.706 188.876 571.514 188.915 572.42C188.857 572.384 188.798 572.348 188.737 572.313L176.276 565.256C161.414 556.841 146.552 548.427 131.711 539.975C131.303 539.745 130.957 539.625 130.727 539.544L130.592 539.493L130.33 539.413C129.65 539.234 128.97 539.143 128.308 539.143C127.837 539.143 127.364 539.188 126.9 539.277L126.745 539.307L126.595 539.354C125.9 539.573 125.252 539.854 124.616 540.212C114.009 546.203 103.394 552.175 92.7797 558.146C84.8098 562.631 76.8398 567.115 68.8738 571.606C68.1152 572.037 67.5539 572.558 67.0115 573.061C66.8003 573.258 66.577 573.466 66.3259 573.678L66.2444 573.747L64.0512 572.615L64.0782 575.575L63.492 576.07L64.0861 576.449L64.0925 577.142L64.72 645.57L64.7239 646.028L64.8778 646.46C64.9373 646.628 65.0014 646.79 65.0698 646.949C64.9426 646.961 64.8155 646.976 64.6883 646.993L64.5494 647.013L64.4134 647.046C63.4963 647.273 62.6209 647.623 61.7369 648.119C48.1238 655.806 34.4939 663.451 20.8665 671.096L7.40901 678.647C6.35053 679.248 5.32695 679.842 3.73104 680.77L0 682.938L3.55724 685.381C4.02772 685.703 4.40239 685.972 4.72221 686.201C5.31057 686.622 5.7757 686.955 6.32132 687.264L22.0842 696.174C35.1488 703.555 48.658 711.187 61.905 718.754C62.5486 719.122 63.2007 719.395 63.8991 719.59L63.9821 719.613L64.0665 719.63C64.5441 719.732 65.0292 719.783 65.5082 719.783C66.0417 719.783 66.587 719.719 67.129 719.593L67.1938 719.578L67.3192 719.545C67.5903 719.481 67.961 719.351 68.3317 719.204C68.8197 718.997 69.2442 718.809 69.6962 718.555C80.9427 712.199 92.1946 705.867 103.444 699.537C110.528 695.55 117.612 691.564 124.691 687.573C125.408 687.17 126.027 686.711 126.682 686.226C126.976 686.008 127.288 685.776 127.635 685.532L127.826 685.397L128.829 685.925C129.055 686.084 129.256 686.228 129.439 686.36C130.016 686.774 130.471 687.101 131.01 687.406L145.757 695.739C159.043 703.243 172.781 711.003 186.252 718.698L186.346 718.752L186.445 718.798C187.773 719.423 189.036 719.726 190.306 719.726C191.621 719.726 192.93 719.4 194.306 718.731L194.381 718.694L194.453 718.653C201.215 714.836 207.983 711.034 214.752 707.231L220.281 704.124L222.116 703.091L224.583 701.704C231.217 697.976 237.849 694.243 244.479 690.511L249.391 687.747C250.124 687.338 250.768 686.867 251.45 686.369C251.731 686.164 252.031 685.945 252.362 685.712L252.795 685.408L253.124 685.638C253.416 685.843 253.65 686.018 253.852 686.167C254.268 686.477 254.627 686.744 255.085 686.992L270.052 695.462L284.811 703.815L286.193 704.718L292.957 708.544C299.05 711.991 305.144 715.437 311.223 718.9C312.433 719.593 313.618 719.931 314.84 719.931C316.553 719.931 317.997 719.237 319.064 718.633C329.825 712.555 340.603 706.5 351.382 700.445C358.957 696.188 366.533 691.932 374.105 687.667C374.825 687.262 375.438 686.814 376.148 686.295C376.408 686.104 376.687 685.9 376.996 685.681L379.459 687.141L379.457 687.002C379.937 687.309 380.385 687.586 380.845 687.844C385.523 690.488 390.211 693.133 394.901 695.777C408.087 703.214 421.721 710.904 435.069 718.56C436.652 719.473 438.145 719.919 439.628 719.919C441.139 719.919 442.637 719.468 444.34 718.499C457.945 710.785 471.821 703.01 485.241 695.492L498.004 688.339C498.838 687.874 499.669 687.392 500.678 686.804L502.428 685.796C502.638 685.944 502.826 686.079 502.999 686.202C503.587 686.623 504.051 686.955 504.595 687.263L520.317 696.151C533.396 703.539 546.919 711.179 560.18 718.754C561.491 719.503 562.755 719.866 564.045 719.866C565.814 719.866 567.287 719.165 568.372 718.555C579.597 712.211 590.826 705.892 602.053 699.574C609.16 695.575 616.266 691.576 623.368 687.573C624.085 687.17 624.704 686.711 625.359 686.225C625.607 686.041 625.87 685.846 626.156 685.642L628.434 686.993L628.436 686.871C628.717 687.063 628.988 687.237 629.284 687.406L644.066 695.758C657.454 703.319 671.298 711.137 684.871 718.893C686.197 719.641 687.458 720 688.741 720C690.517 720 691.985 719.299 693.065 718.689C704.805 712.06 716.562 705.454 728.316 698.85C734.902 695.15 741.486 691.45 748.067 687.747C748.8 687.337 749.445 686.866 750.128 686.367C750.409 686.162 750.708 685.943 751.038 685.711L751.374 685.475L752.987 686.244L753.077 684.279L754.258 683.448L753.149 682.689L753.175 682.133L753.247 680.72C753.308 679.612 753.359 678.656 753.347 677.661C753.297 671.376 753.238 665.078 753.179 658.78C753.048 644.81 752.912 630.365 752.88 616.158C752.865 612.312 751.415 609.834 748.031 607.868C735.178 600.35 722.149 592.617 709.548 585.139C704.843 582.346 700.137 579.554 695.43 576.766C694.843 576.417 694.251 576.084 693.576 575.71L709.663 566.216C722.987 558.352 736.311 550.487 749.655 542.651C752.677 540.88 753.046 538.221 753.06 536.374C753.166 525.964 753.284 515.545 753.402 505.127C753.527 494.097 753.652 483.069 753.763 472.043C753.778 471.147 753.58 470.362 753.388 469.602C753.364 469.508 753.34 469.41 753.315 469.311L755.403 468.11L753.356 466.748ZM748.052 395.3C749.521 396.164 750.501 397.007 750.511 398.954C750.622 420.952 750.83 442.934 751.006 464.927C751.011 465.182 750.882 465.43 750.658 466.259C740.424 460.718 730.691 454.591 720.785 448.777C710.804 442.918 700.862 436.958 690.847 431.02C690.636 407.909 690.425 385.022 690.218 361.661C691.422 362.101 692.29 362.271 693.01 362.698C711.376 373.554 729.693 384.45 748.052 395.3ZM503.181 468.97C523.603 480.922 543.301 492.73 563.246 504.512C563.457 527.594 563.665 550.596 563.876 574.394C561.854 573.262 560.681 572.641 559.546 571.963C542.121 561.633 524.726 551.241 507.237 541.031C504.658 539.524 503.534 537.968 503.526 534.829C503.515 514.572 503.244 494.311 503.071 474.049C503.055 472.627 503.128 471.207 503.181 468.97ZM503.074 462.313C503.299 441.534 503.563 420.77 503.76 400.008C503.782 397.879 504.103 396.329 506.224 395.089C524.846 384.223 543.399 373.211 561.988 362.252C562.44 361.987 562.934 361.801 563.747 361.423C563.938 362.391 564.258 363.223 564.245 364.044C564.029 385.468 563.75 406.9 563.561 428.326C563.545 430.32 562.77 431.471 561.094 432.459C542.604 443.292 524.146 454.206 505.67 465.072C505.016 465.455 504.299 465.693 503.258 466.15C503.178 464.618 503.058 463.467 503.074 462.313ZM561.395 500.486C543.496 490.224 525.497 480.132 507.537 469.971C506.525 469.394 505.566 468.724 504.178 467.84C505.406 467.004 506.298 466.298 507.264 465.743C525.489 455.497 543.733 445.281 561.939 435.011C563.006 434.413 563.953 434.037 564.953 434.037C565.722 434.036 566.521 434.259 567.431 434.774C585.927 445.345 604.491 455.782 623.028 466.276C623.701 466.651 624.305 467.132 625.582 468.019C623.96 468.946 622.943 469.55 621.904 470.122C603.909 480.233 585.885 490.299 567.945 500.498C566.756 501.171 565.718 501.514 564.675 501.514C563.638 501.513 562.596 501.175 561.395 500.486ZM565.796 507.743C565.814 505.095 566.774 503.689 568.984 502.392C587.166 491.778 605.279 481.043 623.419 470.356C624.086 469.96 624.83 469.686 626.125 469.087C626.209 470.687 626.318 471.724 626.311 472.755C626.077 493.67 625.804 514.588 625.646 535.506C625.629 537.894 624.94 539.365 622.799 540.607C604.622 551.236 586.501 561.968 568.372 572.665C567.584 573.122 566.742 573.499 565.443 574.156C565.32 572.714 565.136 571.604 565.145 570.493C565.374 549.573 565.669 528.655 565.796 507.743ZM626.203 466.536C624.441 465.559 623.271 464.939 622.131 464.257C604.603 453.886 587.104 443.435 569.51 433.151C567.032 431.704 566.025 430.148 566.018 427.222C565.968 406.7 565.714 386.201 565.541 365.676C565.53 364.402 565.634 363.119 565.706 361.366C567.029 361.987 567.975 362.356 568.839 362.87C586.944 373.589 605.041 384.337 623.156 395.031C624.866 396.039 625.949 397.023 625.957 399.307C626.058 420.763 626.299 442.201 626.485 463.642C626.49 464.397 626.342 465.152 626.203 466.536ZM565.703 354.629C565.936 333.977 566.219 313.332 566.368 292.674C566.389 290.027 567.048 288.339 569.52 286.911C587.609 276.398 605.602 265.72 623.624 255.096C624.409 254.635 625.26 254.265 626.416 253.666C626.61 254.757 626.895 255.602 626.889 256.442C626.665 277.751 626.392 299.071 626.198 320.394C626.182 322.464 625.612 323.807 623.721 324.907C605.208 335.765 586.75 346.7 568.27 357.605C567.711 357.936 567.094 358.16 565.874 358.718C565.798 356.954 565.697 355.792 565.703 354.629ZM623.534 392.377C605.763 382.153 587.877 372.136 570.04 362.039C569.02 361.465 568.055 360.789 566.668 359.908C567.652 359.186 568.295 358.615 569.029 358.197C587.601 347.762 606.178 337.349 624.746 326.879C625.683 326.352 626.537 326.013 627.43 326.013C628.092 326.013 628.777 326.198 629.534 326.631C648.394 337.366 667.286 348.033 686.162 358.724C686.599 358.978 686.974 359.342 687.957 360.108C686.326 361.054 685.197 361.719 684.042 362.367C666.291 372.353 648.495 382.278 630.803 392.387C629.479 393.147 628.33 393.531 627.176 393.531C626.025 393.531 624.87 393.149 623.534 392.377ZM688.67 212.079C688.654 214.215 688.307 215.76 686.19 216.989C667.661 227.803 649.201 238.741 630.718 249.635C630.163 249.966 629.545 250.195 628.571 250.658C628.413 249.419 628.169 248.44 628.183 247.457C628.404 226.408 628.714 205.353 628.839 184.304C628.861 181.648 629.823 180.254 632.033 178.963C650.215 168.345 668.328 157.601 686.468 146.924C687.139 146.524 687.877 146.251 689.17 145.655C689.258 147.257 689.368 148.294 689.359 149.325C689.129 170.243 688.864 191.164 688.67 212.079ZM689.908 218.443C690.855 218.443 691.816 218.741 692.92 219.376C711.069 229.77 729.311 240.01 747.516 250.316C748.419 250.819 749.255 251.445 750.817 252.48C749.029 253.513 747.899 254.167 746.764 254.818C728.982 264.791 711.173 274.721 693.445 284.793C692.152 285.524 691.018 285.923 689.863 285.923C688.817 285.923 687.752 285.597 686.532 284.896C668.622 274.622 650.604 264.524 632.633 254.359C631.618 253.781 630.658 253.103 629.302 252.23C630.401 251.437 631.156 250.762 632.021 250.273C650.255 239.999 668.509 229.786 686.707 219.451C687.865 218.796 688.878 218.443 689.908 218.443ZM688.375 289.252C688.577 312.071 688.785 335.046 689.001 358.904C668.509 346.769 648.757 335.066 628.776 323.231C628.566 300.22 628.355 277.213 628.142 254.145C631.23 254.806 681.871 284.384 688.375 289.252ZM688.949 365.047C688.715 385.947 688.447 406.851 688.257 427.744C688.236 429.902 687.855 431.417 685.763 432.645C667.245 443.449 648.804 454.384 630.338 465.272C629.772 465.604 629.154 465.857 628.153 466.355C628.002 465.147 627.772 464.179 627.781 463.216C628.005 442.051 628.267 420.885 628.475 399.72C628.489 397.847 628.861 396.496 630.647 395.448C649.485 384.407 668.284 373.286 687.097 362.198C687.433 361.999 687.83 361.908 688.766 361.55C688.848 362.994 688.965 364.021 688.949 365.047ZM627.789 469.072C629.353 469.889 630.516 470.431 631.618 471.095C649.277 481.551 666.892 492.073 684.62 502.423C687.128 503.886 688.061 505.481 688.063 508.38C688.125 528.907 688.374 549.439 688.552 569.969C688.561 571.251 688.457 572.532 688.374 574.298C686.809 573.483 685.64 572.942 684.543 572.282C666.882 561.818 649.258 551.302 631.539 540.941C629.028 539.481 628.112 537.894 628.101 534.987C628.046 514.452 627.794 493.925 627.617 473.407C627.601 472.121 627.711 470.846 627.789 469.072ZM686.725 500.828C668.222 490.241 649.638 479.796 631.087 469.298C630.407 468.912 629.785 468.42 628.772 467.742C629.777 466.976 630.516 466.265 631.375 465.786C649.602 455.521 667.866 445.309 686.067 434.984C687.249 434.317 688.289 433.936 689.362 433.936C690.278 433.936 691.217 434.212 692.288 434.825C710.56 445.276 728.916 455.583 747.229 465.955C748.019 466.398 748.747 466.959 750.221 467.941C748.484 468.94 747.371 469.607 746.239 470.23C728.348 480.29 710.442 490.314 692.575 500.415C691.399 501.087 690.349 501.565 689.21 501.565C688.444 501.565 687.638 501.349 686.725 500.828ZM750.749 319.874C750.732 322.079 750.245 323.542 748.181 324.752C729.674 335.56 711.224 346.479 692.742 357.357C692.184 357.687 691.555 357.92 690.415 358.458C690.349 356.845 690.248 355.808 690.265 354.778C690.497 333.881 690.765 312.98 690.945 292.076C690.967 289.882 691.476 288.443 693.535 287.234C711.925 276.488 730.251 265.616 748.597 254.791C749.283 254.392 750.016 254.096 751.083 253.56C751.225 254.796 751.444 255.787 751.428 256.785C751.208 277.822 750.924 298.856 750.749 319.874ZM750.989 181.052C751.205 204.126 751.416 227.155 751.638 250.57C750.618 250.255 749.854 250.176 749.245 249.81C730.665 238.826 712.097 227.795 693.508 216.819C692.001 215.919 691.203 214.945 691.195 213.058C691.066 191.2 690.851 169.343 690.672 147.485C690.669 147.099 690.768 146.708 690.943 145.455C711.202 157.462 730.995 169.191 750.989 181.052ZM751.468 38.1519C751.676 38.9996 752.004 39.6949 751.996 40.3944C751.785 61.9551 751.517 83.5186 751.309 105.082C751.29 106.857 750.751 108.047 749.163 108.98C730.207 120.09 711.287 131.246 692.348 142.394C692.122 142.523 691.848 142.55 691.003 142.804C690.929 141.454 690.819 140.428 690.833 139.408C691.061 118.374 691.329 97.3444 691.509 76.3034C691.527 74.2084 692.143 72.9094 694.014 71.8149C712.51 60.9759 730.953 50.0658 749.419 39.1635C749.986 38.8272 750.601 38.5786 751.468 38.1519ZM633.314 34.0491C651.312 23.9456 669.333 13.8811 687.281 3.68682C688.408 3.04962 689.385 2.72977 690.363 2.72977C691.35 2.72977 692.337 3.05531 693.481 3.7089C711.501 14.0203 729.611 24.1921 747.683 34.4131C748.682 34.9762 749.598 35.6907 750.883 36.538C749.527 37.4057 748.583 38.081 747.577 38.647C729.592 48.7778 711.575 58.8431 693.645 69.0587C692.406 69.7643 691.318 70.113 690.234 70.113C689.117 70.113 688.004 69.7437 686.732 69.0146C668.832 58.7551 650.836 48.6464 632.885 38.4938C631.886 37.9307 630.973 37.2137 629.515 36.2317C631.093 35.3263 632.198 34.6727 633.314 34.0491ZM628.708 38.2068C629.602 38.4693 630.371 38.543 630.973 38.896C649.554 49.8831 668.096 60.8976 686.674 71.8729C688.19 72.7651 688.976 73.755 688.987 75.626C689.121 97.4734 689.332 119.308 689.51 141.156C689.515 141.55 689.392 141.943 689.229 142.955C687.801 142.225 686.743 141.747 685.749 141.166C667.866 130.568 650.022 119.94 632.1 109.41C630.054 108.208 629.102 106.951 629.097 104.437C629.012 83.3936 628.774 62.3444 628.582 41.3059C628.582 40.3841 628.659 39.4594 628.708 38.2068ZM570.305 142.307C588.533 132.075 606.766 121.854 624.978 111.581C626.036 110.982 626.987 110.603 627.992 110.603C628.763 110.602 629.565 110.825 630.475 111.343C648.971 121.914 667.529 132.351 686.072 142.826C686.739 143.209 687.35 143.691 688.364 144.391C687.157 145.223 686.274 145.934 685.298 146.475C667.083 156.729 648.839 166.945 630.636 177.228C629.577 177.826 628.631 178.2 627.633 178.2C626.861 178.2 626.059 177.976 625.15 177.458C606.646 166.892 588.085 156.447 569.548 145.969C568.877 145.591 568.27 145.102 566.988 144.212C568.47 143.36 569.381 142.816 570.305 142.307ZM569.187 147.252C587.42 158.037 605.636 168.87 623.892 179.627C625.579 180.62 626.342 181.668 626.353 183.695C626.482 205.28 626.712 226.877 626.903 248.466C626.906 248.984 626.808 249.511 626.696 250.705C616.278 245.092 606.564 238.944 596.658 233.148C586.667 227.289 576.73 221.34 566.701 215.375C566.487 192.297 566.282 169.382 566.066 145.923C567.39 146.481 568.355 146.759 569.187 147.252ZM568.205 219.223C586.357 229.617 604.596 239.863 622.799 250.157C623.701 250.666 624.529 251.292 626.028 252.283C622.659 254.227 619.918 255.83 617.148 257.381C601.119 266.403 585.041 275.339 569.069 284.449C567.638 285.265 566.394 285.712 565.119 285.712C563.972 285.712 562.8 285.35 561.445 284.57C543.789 274.387 526.007 264.431 508.268 254.385C507.138 253.745 506.047 253.04 504.592 252.148C505.568 251.385 506.193 250.72 506.95 250.299C525.292 239.966 543.676 229.688 561.983 219.294C563.14 218.641 564.152 218.291 565.18 218.291C566.132 218.291 567.097 218.59 568.205 219.223ZM504.318 184.436C504.34 182.25 504.803 180.773 506.867 179.564C525.377 168.744 543.824 157.82 562.284 146.924C562.85 146.587 563.468 146.344 564.365 145.917C564.54 146.946 564.819 147.804 564.805 148.647C564.586 169.951 564.315 191.251 564.108 212.547C564.089 214.426 563.685 215.76 561.915 216.808C543.065 227.836 524.267 238.949 505.453 250.036C505.117 250.244 504.715 250.321 503.809 250.658C503.73 249.189 503.621 248.152 503.635 247.129C503.864 226.228 504.138 205.337 504.318 184.436ZM503.742 253.242C523.999 265.241 543.777 276.966 563.802 288.834C564.012 311.894 564.225 334.92 564.444 358.404C563.304 358.002 562.44 357.837 561.729 357.422C543.26 346.495 524.805 335.538 506.334 324.609C504.84 323.736 504.01 322.791 503.993 320.884C503.873 299.025 503.651 277.161 503.467 255.302C503.465 254.916 503.567 254.525 503.742 253.242ZM505.722 327.16C523.876 337.554 542.111 347.8 560.315 358.106C561.212 358.615 562.044 359.23 563.625 360.272C561.833 361.303 560.709 361.962 559.574 362.603C541.789 372.58 523.982 382.508 506.255 392.582C504.96 393.319 503.829 393.719 502.674 393.719C501.63 393.719 500.566 393.392 499.344 392.692C481.431 382.418 463.416 372.312 445.442 362.148C444.425 361.571 443.457 360.904 442.1 360.037C443.2 359.23 443.955 358.555 444.816 358.068C463.055 347.8 481.307 337.582 499.497 327.246C500.657 326.586 501.672 326.233 502.705 326.233C503.653 326.233 504.616 326.53 505.722 327.16ZM441.644 291.712C441.664 289.149 442.836 287.943 444.833 286.775C461.061 277.311 477.249 267.773 493.459 258.258C496.078 256.718 498.724 255.22 502.04 253.308C502.095 255.302 502.167 256.606 502.149 257.903C501.92 278.55 501.644 299.198 501.499 319.853C501.478 322.238 500.802 323.715 498.663 324.973C480.479 335.585 462.366 346.323 444.228 357.015C443.443 357.485 442.604 357.851 441.455 358.426C441.272 357.357 440.965 356.503 440.976 355.658C441.198 334.341 441.49 313.026 441.644 291.712ZM501.179 397.029C501.378 419.836 501.588 442.82 501.802 466.722C481.206 454.51 461.518 442.825 441.583 431.016C441.367 408.032 441.156 385.027 440.943 361.962C443.965 362.55 494.112 391.799 501.179 397.029ZM501.75 472.424C501.532 493.589 501.258 514.75 501.061 535.922C501.042 537.78 500.711 539.158 498.917 540.203C479.959 551.307 461.037 562.472 442.106 573.62C441.882 573.757 441.6 573.779 440.76 574.027C440.684 572.81 440.572 571.916 440.582 571.027C440.815 549.868 441.081 528.702 441.26 507.532C441.277 505.426 441.909 504.132 443.771 503.038C462.278 492.21 480.714 481.28 499.185 470.395C499.754 470.064 500.364 469.798 501.376 469.298C501.526 470.494 501.761 471.464 501.75 472.424ZM443.219 434.92C461.247 445.243 479.349 455.406 497.429 465.628C498.425 466.199 499.341 466.899 500.624 467.761C499.289 468.62 498.348 469.298 497.344 469.867C479.366 479.987 461.345 490.057 443.413 500.27C442.168 500.982 441.073 501.334 439.982 501.334C438.872 501.334 437.765 500.97 436.501 500.248C418.596 489.992 400.602 479.889 382.647 469.72C381.652 469.151 380.724 468.445 379.269 467.461C380.842 466.552 381.946 465.912 383.057 465.283C401.055 455.18 419.077 445.128 437.021 434.92C438.154 434.279 439.139 433.954 440.126 433.954C441.105 433.954 442.087 434.274 443.219 434.92ZM379.157 400.647C379.171 397.814 379.953 396.08 382.513 394.586C400.374 384.212 418.135 373.668 435.936 363.19C436.926 362.608 437.987 362.142 439.48 361.383C439.563 363.113 439.688 364.385 439.675 365.654C439.444 386.175 439.158 406.689 439.027 427.211C439.01 430.052 438.192 431.759 435.649 433.235C417.918 443.572 400.276 454.058 382.606 464.508C381.509 465.151 380.399 465.772 378.717 466.743C378.624 464.749 378.504 463.472 378.506 462.195C378.734 441.674 379.021 421.166 379.157 400.647ZM378.471 469.424C379.354 469.681 380.131 469.763 380.735 470.122C399.308 481.106 417.855 492.122 436.434 503.099C437.949 503.996 438.736 504.98 438.742 506.859C438.879 528.696 439.084 550.536 439.261 572.384C439.264 572.778 439.141 573.163 438.977 574.175C437.55 573.45 436.494 572.969 435.496 572.378C417.621 561.801 399.765 551.162 381.849 540.629C379.8 539.431 378.86 538.159 378.857 535.654C378.77 514.605 378.528 493.566 378.345 472.528C378.334 471.598 378.416 470.677 378.471 469.424ZM377.038 472.739C376.811 493.635 376.535 514.536 376.351 535.438C376.332 537.62 375.894 539.117 373.824 540.32C355.304 551.129 336.846 562.05 318.38 572.925C317.812 573.256 317.196 573.499 316.031 574.055C315.957 572.457 315.858 571.421 315.872 570.393C316.1 549.496 316.373 528.598 316.554 507.696C316.576 505.516 317.043 504.039 319.119 502.833C337.513 492.079 355.837 481.212 374.185 470.395C374.866 469.987 375.604 469.676 376.759 469.104C376.868 470.494 377.049 471.615 377.038 472.739ZM255.94 467.039C257.02 466.413 257.815 465.95 258.606 465.51C268.252 460.084 277.899 454.665 287.538 449.239V449.025C295.8 444.377 304.06 439.724 312.304 435.041C313.465 434.382 314.481 434.026 315.517 434.026C316.459 434.026 317.418 434.321 318.517 434.951C336.665 445.339 354.907 455.59 373.113 465.893C374.016 466.399 374.85 467.02 376.434 468.057C374.631 469.093 373.512 469.747 372.38 470.395C354.601 480.367 336.792 490.298 319.059 500.369C317.763 501.104 316.628 501.507 315.467 501.507C314.427 501.507 313.366 501.183 312.148 500.486C303.963 495.788 295.753 491.136 287.538 486.491V486.414C277.625 480.808 267.706 475.206 257.789 469.594C257.036 469.16 256.339 468.607 255.045 467.718C255.376 467.476 255.658 467.257 255.94 467.039ZM287.137 488.72V488.581C296.092 493.891 305.003 499.175 313.963 504.488C314.18 527.471 314.394 550.467 314.606 573.505C313.154 573.251 300.787 566.352 287.538 558.66V558.347C277.262 552.263 267.056 546.217 256.813 540.145C255.941 539.575 255.214 539.083 254.65 538.683C254.444 515.816 254.234 492.944 254.014 469.078C265.257 475.741 276.245 482.258 287.137 488.72ZM192.226 508.391C192.245 505.511 193.175 503.845 195.672 502.398C213.269 492.15 230.784 481.769 248.324 471.433C249.471 470.775 250.653 470.096 251.863 469.398C252.092 470.445 252.37 471.24 252.358 472.017C252.142 493.458 251.874 514.909 251.655 536.354C251.653 536.636 251.62 536.886 251.593 537.144C251.227 538.664 250.343 539.763 248.837 540.747C230.241 551.669 211.68 562.646 193.11 573.598C192.837 573.759 192.495 573.852 191.814 574.087C191.776 573.932 191.74 573.785 191.701 573.633C191.644 572.206 191.572 571.066 191.589 569.946C191.81 549.428 192.105 528.918 192.226 508.391ZM123.353 685.195C105.031 695.523 86.6828 705.821 68.3592 716.176C68.002 716.377 67.6647 716.523 67.3267 716.667C67.0742 716.767 66.8227 716.859 66.5741 716.92C66.5542 716.926 66.5336 716.929 66.5133 716.934C66.1799 717.011 65.8472 717.053 65.51 717.053C65.2229 717.053 64.9319 717.023 64.6338 716.96C64.1968 716.838 63.7463 716.661 63.2609 716.383C44.7696 705.82 26.2088 695.38 7.66934 684.888C6.99373 684.505 6.39468 684.016 5.10399 683.13C6.69064 682.208 7.70745 681.617 8.74706 681.027C26.857 670.861 44.9864 660.713 63.0725 650.5C63.7723 650.108 64.4219 649.856 65.0694 649.696C65.3112 649.662 65.552 649.645 65.7935 649.645C66.2137 649.645 66.6357 649.697 67.0695 649.802C67.4232 649.921 67.7747 650.035 68.1629 650.257C86.6614 660.822 105.229 671.26 123.763 681.743C124.433 682.121 125.043 682.6 126.066 683.299C124.982 684.063 124.214 684.711 123.353 685.195ZM127.142 681.953C126.735 681.738 126.375 681.552 126.057 681.387C106.636 669.876 87.7989 658.711 68.6477 647.361C68.0686 646.847 67.7003 646.245 67.451 645.544C67.2437 623.025 67.035 600.371 66.8234 577.117C68.3403 577.9 69.4298 578.412 70.4295 579.016C88.0725 589.458 105.677 599.978 123.382 610.314C125.923 611.796 126.738 613.434 126.75 616.301C126.812 636.669 127.061 657.045 127.244 677.416C127.254 678.665 127.191 679.941 127.142 681.953ZM128.443 609.364C127.472 609.343 126.485 609.056 125.35 608.408C107.322 598.063 89.1918 587.897 71.1047 577.657C70.1912 577.146 69.3133 576.547 68.0878 575.764C68.924 575.059 69.4935 574.394 70.2158 573.984C88.7908 563.511 107.388 553.077 125.958 542.591C126.461 542.307 126.941 542.108 127.416 541.958C127.713 541.901 128.009 541.873 128.307 541.873C128.743 541.873 129.183 541.934 129.637 542.053C129.877 542.144 130.108 542.204 130.362 542.347C149.347 553.159 168.368 563.91 187.378 574.678C187.72 574.875 187.988 575.178 188.953 576.008C187.405 576.893 186.301 577.54 185.19 578.171C167.287 588.212 149.366 598.214 131.507 608.337C130.928 608.668 130.383 608.923 129.854 609.101C129.759 609.132 129.666 609.132 129.572 609.157C129.192 609.265 128.816 609.341 128.443 609.364ZM129.193 681.65C129.182 681.655 129.175 681.658 129.164 681.663C129.062 680.217 128.934 679.108 128.944 678C129.179 657.237 129.458 636.481 129.617 615.708C129.638 613.342 130.23 611.827 132.393 610.566C150.56 599.945 168.649 589.208 186.775 578.524C187.543 578.069 188.414 577.695 189.487 577.181C189.582 578.608 189.718 579.724 189.705 580.819C189.481 601.461 189.174 622.086 189.065 642.728C189.045 645.613 188.094 647.247 185.633 648.686C184.207 649.519 182.785 650.36 181.36 651.194C164.953 660.773 148.606 670.447 132.226 680.09C131.343 680.605 130.374 681.058 129.193 681.65ZM248.053 685.368C239.788 690.019 231.518 694.675 223.247 699.323C221.812 700.129 220.378 700.938 218.944 701.744C210.331 706.585 201.716 711.419 193.112 716.276C192.12 716.759 191.21 716.996 190.307 716.996C189.425 716.996 188.549 716.77 187.607 716.327C169.23 705.829 150.781 695.453 132.357 685.031C131.687 684.651 131.085 684.156 129.821 683.289C131.317 682.43 132.231 681.883 133.153 681.377C151.381 671.134 169.617 660.921 187.826 650.646C188.725 650.138 189.543 649.808 190.38 649.716C190.393 649.716 190.407 649.716 190.42 649.716C190.839 649.716 191.261 649.8 191.691 649.91C192.084 650.033 192.483 650.178 192.916 650.427C211.417 660.992 229.978 671.429 248.518 681.921C249.177 682.29 249.788 682.788 250.794 683.478C249.692 684.252 248.921 684.883 248.053 685.368ZM251.792 681.649C251.384 681.515 250.992 681.405 250.627 681.298C250.046 681.033 249.519 680.783 249.037 680.499C230.93 669.786 212.842 659.031 194.723 648.334C193.021 647.331 191.936 646.354 191.931 644.043C191.84 622.603 191.596 601.163 191.411 579.723C191.404 579.007 191.531 578.27 191.653 577.044C191.708 577.072 191.749 577.091 191.803 577.118C193.282 577.937 194.342 578.51 195.363 579.115C212.891 589.497 230.394 599.94 247.985 610.229C250.466 611.671 251.464 613.238 251.475 616.165C251.522 636.681 251.779 657.188 251.943 677.696C251.958 678.884 251.868 680.098 251.792 681.649ZM252.776 609.074C252.263 609.074 251.751 609.002 251.225 608.852C250.641 608.658 250.036 608.381 249.387 608.005C231.61 597.792 213.725 587.771 195.89 577.662C194.873 577.093 193.913 576.418 192.526 575.521C193.527 574.81 194.186 574.243 194.922 573.833C213.492 563.39 232.086 552.983 250.628 542.5C251.507 541.997 252.293 541.763 253.073 541.74C253.807 541.788 254.548 542.013 255.374 542.483C265.947 548.497 276.548 554.479 287.137 560.469V560.35C295.361 565.006 303.581 569.669 311.8 574.331C312.24 574.577 312.596 574.952 313.547 575.709C311.901 576.655 310.766 577.32 309.612 577.968C302.124 582.181 294.628 586.384 287.136 590.593V590.574C276.826 596.37 266.527 602.177 256.26 608.038C255.717 608.347 255.218 608.55 254.722 608.733C254.437 608.83 254.154 608.915 253.878 608.969C253.766 608.995 253.656 609.003 253.545 609.022C253.289 609.057 253.032 609.074 252.776 609.074ZM253.813 681.8C253.747 680.417 253.646 679.417 253.662 678.418C253.889 657.525 254.165 636.623 254.348 615.724C254.364 613.544 254.813 612.059 256.886 610.85C267.12 604.874 277.332 598.857 287.538 592.829V592.613C295.43 587.954 303.32 583.291 311.219 578.639C312.087 578.114 313.028 577.726 314.325 577.099C314.416 578.62 314.562 579.763 314.552 580.912C314.325 601.551 314.013 622.184 313.904 642.818C313.891 645.722 312.919 647.342 310.439 648.785C302.656 653.321 294.895 657.889 287.137 662.462V662.447C276.453 668.743 265.762 675.029 255.08 681.325C254.798 681.483 254.453 681.58 253.813 681.8ZM372.766 685.288C354.42 695.622 336.05 705.906 317.719 716.258C316.706 716.832 315.798 717.201 314.84 717.201C314.132 717.201 313.397 716.999 312.574 716.528C304.244 711.783 295.886 707.068 287.538 702.342V702.221C277.157 696.341 266.767 690.471 256.388 684.593C255.926 684.342 255.527 683.989 254.693 683.404C255.615 682.682 256.304 681.962 257.132 681.5C267.265 675.789 277.403 670.094 287.538 664.392V664.183C295.395 659.762 303.249 655.336 311.079 650.87C312.475 650.073 313.697 649.663 314.926 649.663C316.126 649.663 317.332 650.053 318.714 650.853C336.387 661.014 354.166 670.975 371.91 681.01C373.026 681.65 374.103 682.367 375.621 683.31C374.415 684.156 373.636 684.799 372.766 685.288ZM316.46 646.636C316.245 623.626 316.039 600.629 315.829 577.534C319.302 578.384 366.087 605.659 376.042 612.538C376.258 635.318 376.464 658.331 376.685 682.324C356.105 670.128 336.414 658.457 316.46 646.636ZM374.883 608.662C356.387 598.11 337.82 587.662 319.277 577.181C318.61 576.804 318.008 576.309 317.005 575.608C318.211 574.782 319.111 574.088 320.079 573.526C338.31 563.287 356.554 553.066 374.755 542.798C375.817 542.201 376.762 541.83 377.755 541.83C378.531 541.83 379.337 542.057 380.249 542.579C398.739 553.148 417.309 563.582 435.841 574.071C436.51 574.446 437.113 574.93 438.386 575.813C436.874 576.677 435.961 577.219 435.042 577.736C416.814 587.965 398.575 598.178 380.377 608.467C379.324 609.063 378.387 609.422 377.408 609.422C376.62 609.422 375.806 609.19 374.883 608.662ZM377.943 678.625C378.164 657.582 378.438 636.524 378.635 615.48C378.652 613.323 379.058 611.785 381.151 610.566C399.677 599.74 418.135 588.797 436.619 577.909C437.169 577.588 437.802 577.402 438.953 576.921C439.027 578.51 439.125 579.558 439.114 580.605C438.884 601.532 438.624 622.439 438.435 643.357C438.413 645.515 437.985 647.019 435.903 648.241C417.484 658.993 399.135 669.854 380.768 680.693C380.112 681.079 379.388 681.372 378.312 681.894C378.159 680.6 377.93 679.604 377.943 678.625ZM496.669 685.958C478.764 696.002 460.848 706.001 442.992 716.127C441.775 716.818 440.712 717.19 439.629 717.19C438.625 717.19 437.604 716.871 436.428 716.192C418.403 705.854 400.271 695.687 382.18 685.463C381.258 684.946 380.392 684.342 379.163 683.56C379.992 682.854 380.569 682.189 381.293 681.774C399.861 671.306 418.46 660.872 437.033 650.386C437.97 649.856 438.823 649.52 439.716 649.52C440.384 649.52 441.073 649.708 441.835 650.142C460.821 660.949 479.845 671.701 498.852 682.477C499.196 682.668 499.464 682.969 500.432 683.789C498.89 684.686 497.788 685.334 496.669 685.958ZM498.674 680.852C480.202 669.923 461.756 658.958 443.284 648.048C441.788 647.162 440.96 646.207 440.949 644.311C440.824 622.453 440.613 600.597 440.421 578.727C440.427 578.341 440.523 577.947 440.574 577.559C443.408 577.969 490.349 605.235 500.76 612.549C500.971 635.57 501.185 658.479 501.395 681.843C500.249 681.432 499.39 681.273 498.674 680.852ZM502.141 609.106C500.842 609.106 499.556 608.665 498.078 607.817C480.651 597.768 463.096 587.938 445.59 578.026C444.337 577.321 443.106 576.598 441.431 575.619C442.614 574.733 443.361 574.036 444.22 573.549C462.338 563.352 480.492 553.21 498.562 542.932C499.852 542.2 500.983 541.808 502.136 541.808C503.19 541.808 504.261 542.136 505.487 542.834C523.4 553.109 541.415 563.218 559.385 573.376C560.406 573.951 561.365 574.621 563.033 575.688C559.621 577.651 556.888 579.254 554.123 580.813C538.089 589.817 522.005 598.736 506.054 607.885C504.62 608.709 503.375 609.106 502.141 609.106ZM502.872 682.389C502.774 680.395 502.65 679.118 502.661 677.863C502.882 657.336 503.205 636.823 503.285 616.301C503.296 613.178 504.384 611.55 506.993 610.044C524.737 599.729 542.391 589.248 560.077 578.841C561.071 578.251 562.128 577.789 563.723 576.984C563.769 578.913 563.846 580.102 563.832 581.284C563.6 601.808 563.311 622.313 563.179 642.843C563.16 645.671 562.358 647.397 559.81 648.877C542.076 659.207 524.439 669.699 506.769 680.147C505.664 680.795 504.551 681.421 502.872 682.389ZM622.027 685.195C603.706 695.523 585.358 705.821 567.034 716.176C565.981 716.768 565.038 717.136 564.045 717.136C563.265 717.136 562.454 716.909 561.534 716.384C543.044 705.821 524.482 695.381 505.942 684.889C505.267 684.506 504.668 684.016 503.377 683.13C504.963 682.208 505.982 681.618 507.02 681.027C525.131 670.861 543.26 660.713 561.345 650.5C562.414 649.903 563.365 649.52 564.371 649.52C565.135 649.52 565.932 649.741 566.837 650.257C585.336 660.823 603.903 671.26 622.437 681.744C623.107 682.121 623.717 682.6 624.739 683.3C623.657 684.063 622.888 684.711 622.027 685.195ZM625.809 682.263C605.459 670.202 585.787 658.542 565.735 646.658C565.525 623.705 565.312 600.621 565.096 576.91C566.843 577.823 568.014 578.357 569.105 579.016C586.747 589.459 604.352 599.978 622.057 610.314C624.598 611.796 625.413 613.435 625.424 616.301C625.487 636.669 625.735 657.046 625.918 677.416C625.929 678.733 625.859 680.053 625.809 682.263ZM623.624 608.408C605.596 598.063 587.466 587.897 569.378 577.657C568.465 577.146 567.587 576.547 566.361 575.764C567.198 575.059 567.768 574.394 568.489 573.984C587.064 563.511 605.661 553.077 624.231 542.591C625.167 542.063 626.023 541.73 626.917 541.73C627.586 541.73 628.276 541.917 629.037 542.347C648.022 553.159 667.043 563.911 686.053 574.679C686.395 574.875 686.663 575.179 687.628 576.008C686.08 576.894 684.976 577.54 683.865 578.172C665.963 588.212 648.041 598.214 630.183 608.337C628.969 609.031 627.909 609.398 626.828 609.398C625.822 609.398 624.801 609.08 623.624 608.408ZM627.218 677.999C627.453 657.237 627.732 636.48 627.89 615.708C627.913 613.342 628.504 611.827 630.666 610.566C648.834 599.945 666.922 589.207 685.049 578.524C685.916 578.009 686.865 577.629 688.148 576.997C688.244 578.524 688.394 579.673 688.38 580.819C688.156 601.461 687.85 622.086 687.74 642.728C687.722 645.624 686.767 647.26 684.283 648.704C666.443 659.089 648.697 669.614 630.901 680.089C629.909 680.669 628.854 681.142 627.453 681.856C627.349 680.302 627.207 679.161 627.218 677.999ZM746.728 685.368C728.4 695.682 710.043 705.968 691.722 716.312C690.667 716.909 689.727 717.27 688.741 717.27C687.958 717.27 687.146 717.042 686.225 716.523C667.734 705.958 649.17 695.518 630.631 685.031C629.961 684.652 629.36 684.156 628.097 683.29C629.592 682.43 630.505 681.884 631.427 681.378C649.655 671.135 667.891 660.922 686.099 650.646C687.157 650.049 688.103 649.676 689.098 649.676C689.873 649.676 690.679 649.903 691.591 650.428C710.092 660.993 728.654 671.43 747.193 681.922C747.853 682.291 748.462 682.789 749.469 683.478C748.367 684.252 747.596 684.883 746.728 685.368ZM694.039 579.115C711.566 589.497 729.069 599.94 746.66 610.229C749.14 611.67 750.139 613.238 750.15 616.164C750.196 636.68 750.454 657.188 750.617 677.696C750.633 678.978 750.527 680.272 750.448 682.009C749.124 681.377 748.178 681.01 747.311 680.499C729.202 669.785 711.115 659.031 692.997 648.334C691.295 647.33 690.209 646.354 690.204 644.043C690.114 622.602 689.87 601.162 689.684 579.722C689.676 578.962 689.821 578.199 689.95 576.825C691.733 577.818 692.895 578.436 694.039 579.115ZM750.33 536.354C750.317 538.08 749.92 539.333 748.273 540.298C729.422 551.367 710.609 562.497 691.785 573.598C691.451 573.795 691.047 573.877 689.999 574.26C689.941 572.515 689.843 571.23 689.862 569.947C690.084 549.428 690.379 528.918 690.5 508.391C690.518 505.511 691.448 503.845 693.945 502.398C711.801 491.999 729.572 481.464 747.371 470.977C748.281 470.441 749.193 469.924 750.486 469.177C750.722 470.351 751.046 471.18 751.033 472.017C750.817 493.457 750.549 514.909 750.33 536.354Z" fill="url(#paint0_linear_1826_21645)" fill-opacity="0.28"/>
<defs>
<linearGradient id="paint0_linear_1826_21645" x1="236.339" y1="239.365" x2="668.13" y2="606.124" gradientUnits="userSpaceOnUse">
<stop stop-color="white"/>
<stop offset="1"/>
</linearGradient>
</defs>
</svg>