<svg width="25" height="24" viewBox="0 0 25 24" fill="none" xmlns="http://www.w3.org/2000/svg">
<rect x="0.390625" width="24" height="24" rx="4" fill="url(#paint0_linear_1319_19080)"/>
<path d="M12.3906 6C14.7873 6 15.9855 6.00025 16.8486 6.57129C17.2341 6.82633 17.5643 7.15655 17.8193 7.54199C18.3904 8.40514 18.3906 9.60336 18.3906 12C18.3906 14.3966 18.3904 15.5949 17.8193 16.458C17.5643 16.8435 17.2341 17.1737 16.8486 17.4287C15.9855 17.9998 14.7873 18 12.3906 18C9.99398 18 8.79577 17.9998 7.93262 17.4287C7.54717 17.1737 7.21695 16.8435 6.96191 16.458C6.39087 15.5949 6.39062 14.3966 6.39062 12C6.39062 9.60336 6.39087 8.40514 6.96191 7.54199C7.21695 7.15655 7.54717 6.82633 7.93262 6.57129C8.79577 6.00025 9.99398 6 12.3906 6ZM12.3906 8.89355C10.6751 8.89355 9.28426 10.2845 9.28418 12C9.28418 13.7155 10.6751 15.1064 12.3906 15.1064C14.1061 15.1064 15.4971 13.7155 15.4971 12C15.497 10.2846 14.1061 8.89361 12.3906 8.89355ZM12.3906 9.94434C13.5257 9.94439 14.4462 10.865 14.4463 12C14.4463 13.1351 13.5257 14.0556 12.3906 14.0557C11.2555 14.0557 10.335 13.1351 10.335 12C10.335 10.8649 11.2555 9.94434 12.3906 9.94434ZM15.6191 8.00781C15.2162 8.00799 14.8896 8.33529 14.8896 8.73828C14.8899 9.14106 15.2163 9.46759 15.6191 9.46777C16.0221 9.46777 16.3494 9.14117 16.3496 8.73828C16.3496 8.33518 16.0222 8.00781 15.6191 8.00781Z" fill="white"/>
<defs>
<linearGradient id="paint0_linear_1319_19080" x1="-0.171875" y1="24.9" x2="26.5934" y2="22.2503" gradientUnits="userSpaceOnUse">
<stop stop-color="#6CD3E7"/>
<stop offset="0.557692" stop-color="#3A9DB2"/>
<stop offset="1" stop-color="#235A66"/>
</linearGradient>
</defs>
</svg>
