<svg width="142" height="40" viewBox="0 0 142 40" fill="none" xmlns="http://www.w3.org/2000/svg">
<path d="M7.84386 0.138088C4.9418 1.33808 1.7694 4.78083 0.762502 9.07598C-0.514735 14.5325 4.78732 16.8139 5.21214 16.0415C5.71421 15.1504 4.28249 14.8415 3.97352 12.0167C3.58732 8.38082 5.28938 4.31738 7.41627 2.49946C7.80248 2.15187 7.80248 2.61532 7.80248 3.46773C7.80248 4.97669 7.72524 18.7118 7.72524 21.5753C7.72524 25.4456 7.57075 26.6814 7.26179 27.8814C6.95282 29.1201 6.48662 29.9311 6.87558 30.2428C7.26179 30.5904 8.96385 29.7407 9.93212 28.3863C11.0935 26.7614 11.5183 24.789 11.5956 22.6208C11.6728 20.0277 11.6728 15.967 11.6728 13.6056C11.6728 11.4787 11.7114 5.21117 11.6342 1.41808C11.5983 0.604293 9.04385 -0.363979 7.84386 0.138088ZM110.489 18.2456C110.412 20.2566 109.948 21.8428 109.405 22.927C108.321 25.0925 106.117 25.7518 105.187 22.6566C104.685 20.9546 104.646 18.1684 105.032 15.8098C105.419 13.4098 106.464 11.5918 108.205 11.7849C109.871 11.978 110.682 14.1849 110.489 18.2456ZM81.5484 30.7421C81.5098 34.069 81.0077 37.0097 79.885 37.8621C78.2988 39.0621 76.1333 38.1711 76.5581 35.7352C76.9443 33.5697 78.8008 31.3628 81.5484 28.6538C81.5484 28.6925 81.5484 29.3104 81.5484 30.7421ZM81.1236 18.2456C81.0077 20.0635 80.5443 21.9201 80.0395 22.9656C78.9553 25.1311 76.7126 25.7904 75.8215 22.6952C75.2036 20.5684 75.3581 17.8594 75.6671 16.1187C76.0919 13.876 77.0602 11.8236 78.8395 11.8236C80.5029 11.7849 81.3553 13.6801 81.1236 18.2456ZM64.3706 18.207C64.2547 20.1408 63.8685 21.7656 63.2864 22.9656C62.2023 25.0925 59.9982 25.7904 59.0685 22.6952C58.3733 20.4911 58.605 17.4346 58.914 15.8098C59.3388 13.3711 60.423 11.6691 62.0864 11.8236C63.7526 11.978 64.5637 14.1849 64.3706 18.207ZM141.132 20.4911C140.707 20.4911 140.514 20.9159 140.356 21.6525C139.816 24.1683 139.234 24.7477 138.5 24.7477C137.686 24.7477 136.914 23.509 136.721 20.9959C136.566 19.0235 136.605 15.3849 136.798 11.7877C136.837 11.0539 136.643 10.3174 134.632 9.58357C133.78 9.2746 132.544 8.8084 131.923 10.3174C130.183 14.5353 129.485 17.9008 129.33 19.2553C129.33 19.3325 129.253 19.3325 129.214 19.178C129.099 18.0939 128.867 16.1215 128.867 11.9422C128.867 11.1284 128.674 10.4332 127.783 9.85391C127.203 9.4677 125.421 8.84702 124.803 9.62219C124.263 10.2401 123.603 11.9449 122.947 13.9946C122.406 15.6194 122.017 16.7422 122.017 16.7422C122.017 16.7422 122.017 12.3311 122.017 10.6291C122.017 10.0112 121.592 9.77667 121.438 9.73805C120.859 9.58357 119.697 9.2746 119.195 9.2746C118.577 9.2746 118.42 9.62219 118.42 10.127C118.42 10.2043 118.343 15.9698 118.343 19.9918C118.343 20.1849 118.343 20.3394 118.343 20.5711C117.995 22.4277 116.911 24.9435 115.711 24.9435C114.511 24.9435 113.97 23.898 113.97 19.1008C113.97 16.3146 114.048 15.076 114.086 13.0649C114.125 11.9036 114.163 11.0153 114.163 10.7836C114.163 10.1656 113.079 9.85391 112.577 9.73805C112.075 9.62219 111.648 9.58357 111.3 9.58357C110.798 9.62219 110.486 9.93115 110.486 10.3587C110.486 10.5905 110.486 11.0539 110.486 11.0539C109.868 10.0856 108.861 9.39047 108.205 9.19736C106.426 8.65668 104.53 9.12012 103.099 11.1311C101.976 12.7174 101.281 14.4967 101.01 17.0511C100.817 18.9077 100.895 20.8028 101.242 22.4277C100.817 24.2456 100.042 24.9821 99.1925 24.9821C97.9539 24.9821 97.0656 22.9711 97.1815 19.487C97.2587 17.2056 97.7222 15.578 98.227 13.258C98.4587 12.2511 98.2656 11.7491 97.8408 11.247C97.4546 10.7836 96.6022 10.5518 95.3635 10.8608C94.4725 11.0539 93.2366 11.2856 92.1139 11.4401C92.1139 11.4401 92.1911 11.1698 92.2298 10.6649C92.5387 8.11047 89.7525 8.34219 88.8643 9.15598C88.3236 9.65805 87.9732 10.2015 87.8574 11.2443C87.6256 12.8691 88.9801 13.6442 88.9801 13.6442C88.5553 15.6553 87.4712 18.2484 86.3484 20.1435C85.7691 21.1504 85.3029 21.9228 84.7236 22.698C84.7236 22.389 84.7236 22.1187 84.7236 21.807C84.7236 17.5891 84.7622 14.3008 84.8008 13.1008C84.8394 11.9394 84.8781 11.0512 84.8781 10.858C84.8781 10.3946 84.6077 10.2401 84.0643 10.0056C83.5622 9.81253 82.9801 9.69667 82.4008 9.61943C81.6257 9.54219 81.2008 9.96702 81.2008 10.4332C81.2008 10.5105 81.2008 11.0898 81.2008 11.0898C80.5829 10.1215 79.576 9.42633 78.9195 9.23322C77.1402 8.69254 75.245 9.15598 73.8133 11.167C72.6905 12.7532 71.9567 14.9573 71.725 17.0484C71.5319 19.0208 71.5705 20.6842 71.8409 22.1159C71.5705 23.5477 70.7181 25.018 69.7912 25.018C68.5912 25.018 67.9347 23.9725 67.9347 19.1753C67.9347 16.3891 68.0119 15.1504 68.0505 13.1394C68.0891 11.978 68.1278 11.0898 68.1278 10.858C68.1278 10.2401 67.0436 9.92839 66.5416 9.81253C66.0009 9.69667 65.5733 9.65805 65.2257 9.65805C64.7623 9.69667 64.4505 10.1215 64.4505 10.3918V11.087C63.8326 10.1187 62.8257 9.42357 62.1692 9.23047C60.3899 8.68978 58.4947 9.19184 57.063 11.1643C56.1333 12.4415 55.3995 13.8732 54.9747 17.0456C54.8589 17.9753 54.8202 18.8249 54.8202 19.6001C54.434 21.8815 52.8092 24.4745 51.4547 24.4745C50.6796 24.4745 49.9072 22.9656 49.9072 19.7159C49.9072 15.3822 50.1775 9.26909 50.2161 8.65116C50.2161 8.65116 51.9182 8.61254 52.2271 8.61254C53.0796 8.61254 53.852 8.61254 54.9747 8.57392C55.554 8.5353 56.0975 6.52427 55.5154 6.25117C55.2451 6.1353 53.3885 6.05806 52.652 6.01944C52.034 6.01944 50.2906 5.86496 50.2906 5.86496C50.2906 5.86496 50.4451 1.80153 50.4837 1.33808C50.5223 0.990496 50.0589 0.797392 49.7885 0.68153C49.132 0.411186 48.5499 0.295327 47.8934 0.140845C46.9251 -0.0522579 46.5003 0.140844 46.423 0.954634C46.3072 2.15463 46.2299 5.71324 46.2299 5.71324C45.5348 5.71324 43.1348 5.55876 42.4396 5.55876C41.783 5.55876 41.0851 8.34496 41.9761 8.38358C43.0217 8.4222 44.801 8.46082 46.001 8.49944C46.001 8.49944 45.9623 14.7284 45.9623 16.6622C45.9623 16.8553 45.9623 17.0484 45.9623 17.2415C45.3058 20.6456 42.983 22.5021 42.983 22.5021C43.4851 20.2594 42.481 18.5546 40.6603 17.1256C40.0037 16.5849 38.6493 15.578 37.1789 14.4939C37.1789 14.4939 38.0313 13.6415 38.8037 11.9394C39.3444 10.7394 39.3831 9.34633 38.0286 9.03736C35.8244 8.5353 34.0424 10.1601 33.5017 11.8622C33.0769 13.178 33.3086 14.1849 34.1196 15.1891C34.1969 15.2663 34.2355 15.3435 34.3127 15.4208C33.8107 16.3891 33.1514 17.6635 32.572 18.6318C30.9858 21.3794 29.7858 23.5835 28.859 23.5835C28.1252 23.5835 28.1252 21.3794 28.1252 19.2884C28.1252 17.5091 28.241 14.8001 28.3569 12.0139C28.3955 11.0843 27.9321 10.5822 27.1569 10.0801C26.6934 9.80977 25.6866 9.22771 25.1072 9.22771C24.2548 9.22771 21.7417 9.34357 19.3804 16.1932C19.0714 17.0456 18.4893 18.6318 18.4893 18.6318L18.528 10.3918C18.528 10.1987 18.4121 10.0056 18.1804 9.88977C17.7942 9.65805 16.71 9.23322 15.7804 9.23322C15.3169 9.23322 15.1238 9.42633 15.1238 9.85115L15.0466 22.7339C15.0466 23.7021 15.0852 24.8608 15.1624 25.3656C15.2397 25.8676 15.4328 26.2566 15.6259 26.527C15.819 26.7587 16.0507 26.9518 16.4011 27.029C16.7487 27.1063 18.6052 27.338 18.7238 26.6428C18.8397 25.7904 18.8397 24.8635 19.8466 21.3821C21.3942 15.9642 23.3666 13.3353 24.3348 12.4056C24.4893 12.2511 24.6824 12.2511 24.6824 12.4829C24.6438 13.6829 24.4893 16.6235 24.4121 19.1366C24.1417 25.8677 25.3803 27.1063 27.121 27.1063C28.4755 27.1063 30.3321 25.7904 32.3817 22.4249C33.6589 20.3366 34.8589 18.2842 35.7472 16.7753C36.3651 17.3546 37.0631 17.9366 37.7196 18.5932C39.3058 20.1022 39.8465 21.5339 39.4989 22.927C39.2286 23.9725 38.2217 25.0539 36.4424 24.0111C35.9403 23.7021 35.7086 23.4704 35.1651 23.1201C34.8948 22.927 34.47 22.8884 34.1969 23.0815C33.5403 23.5835 33.1514 24.2428 32.9196 25.0152C32.7265 25.7904 33.4603 26.1766 34.2741 26.5628C34.9693 26.8718 36.4396 27.1421 37.4079 27.1807C41.0824 27.2966 44.023 25.4014 46.0754 20.4884C46.423 24.7063 48.0092 27.1035 50.7182 27.1035C52.5361 27.1035 54.354 24.7421 55.1678 22.4608C55.3995 23.3904 55.7471 24.2401 56.1747 24.8994C58.263 28.2263 62.3264 27.4925 64.3761 24.6677C64.994 23.8152 65.1099 23.4677 65.1099 23.4677C65.4188 26.138 67.5485 27.0649 68.7843 27.0649C70.1774 27.0649 71.5705 26.4083 72.5747 24.1628C72.6905 24.3945 72.8064 24.6263 72.9609 24.858C75.0491 28.1849 79.1126 27.4511 81.1622 24.6263C81.2395 24.5104 81.3553 24.3559 81.4325 24.2787L81.5098 26.0194C81.5098 26.0194 80.3484 27.1035 79.6146 27.7601C76.4809 30.6621 74.0809 32.8276 73.8877 35.3821C73.656 38.6317 76.2878 39.8317 78.2988 39.9862C80.4257 40.1407 82.2463 38.9793 83.3277 37.3545C84.296 35.9228 84.9525 32.8276 84.9139 29.7325C84.9139 28.4938 84.8753 26.9463 84.8367 25.2828C85.9594 24.0056 87.198 22.3808 88.318 20.4856C89.5567 18.436 90.9111 15.6498 91.6063 13.4815C91.6063 13.4815 92.7677 13.4815 94.0063 13.4042C94.3925 13.3656 94.5084 13.4429 94.4311 13.7518C94.3539 14.0994 92.8449 19.8263 94.1994 23.6166C95.1291 26.2097 97.2173 27.0594 98.4559 27.0594C99.8877 27.0594 101.281 25.9752 102.015 24.3504C102.092 24.5435 102.208 24.698 102.285 24.8525C104.373 28.1794 108.437 27.4456 110.486 24.6208C110.95 24.0028 111.22 23.4208 111.22 23.4208C111.645 26.1683 113.813 27.018 115.01 27.018C116.288 27.018 117.488 26.4773 118.492 24.1545C118.53 25.1614 118.608 26.0111 118.685 26.2814C118.762 26.4359 119.11 26.629 119.38 26.7449C120.541 27.1697 121.741 26.9766 122.166 26.8994C122.475 26.8221 122.707 26.5904 122.746 25.9697C122.823 24.3063 122.784 21.5201 123.286 19.4318C124.139 15.9504 124.911 14.596 125.297 13.9367C125.49 13.5504 125.761 13.5118 125.761 13.898C125.761 14.7118 125.799 17.0704 126.147 20.2042C126.379 22.527 126.726 23.9173 126.961 24.3449C127.656 25.5835 128.547 25.6608 129.242 25.6608C129.705 25.6608 130.635 25.5449 130.558 24.7311C130.519 24.3449 130.597 21.9449 131.41 18.5408C131.951 16.298 132.881 14.2842 133.19 13.5505C133.305 13.2801 133.383 13.5118 133.383 13.5505C133.305 15.098 133.151 20.127 133.769 22.9132C134.621 26.6649 137.096 27.0539 137.948 27.0539C139.766 27.0539 141.275 25.6608 141.777 21.9863C141.865 21.1477 141.711 20.4911 141.132 20.4911Z" fill="#2E3A65"/>
</svg>
