<svg width="60" height="61" viewBox="0 0 60 61" fill="none" xmlns="http://www.w3.org/2000/svg">
<g clip-path="url(#clip0_2189_8738)">
<path d="M54.8438 25.1236C55.6219 25.1236 56.25 24.4955 56.25 23.7174V18.8611C56.25 16.6908 55.0828 14.6705 53.2031 13.583L33.0469 1.94395C31.1672 0.861133 28.8328 0.861133 26.9531 1.94395L6.79688 13.583C4.91719 14.6705 3.75 16.6908 3.75 18.8611V42.1346C3.75 44.3049 4.91719 46.3252 6.79688 47.4127L21.1359 55.6908C21.3563 55.8174 21.6 55.8783 21.8391 55.8783C22.3266 55.8783 22.7953 55.6252 23.0578 55.1752C23.4469 54.5002 23.2172 53.6424 22.5422 53.2533L8.20312 44.9799C7.19062 44.3939 6.5625 43.3064 6.5625 42.1393V18.8611C6.5625 18.7768 6.57188 18.6924 6.58125 18.6127L23.3109 28.2736C23.5312 28.4002 23.775 28.4611 24.0141 28.4611C24.5016 28.4611 24.9703 28.208 25.2328 27.758C25.6219 27.083 25.3922 26.2252 24.7172 25.8361L7.97813 16.1705C8.05313 16.1189 8.12344 16.0627 8.20312 16.0205L28.3594 4.38145C29.3719 3.79551 30.6281 3.79551 31.6406 4.38145L51.7969 16.0205C51.8766 16.0674 51.9469 16.1189 52.0219 16.1705L47.1281 18.9971C46.4578 19.3861 46.2234 20.2439 46.6125 20.9189C46.875 21.3689 47.3438 21.6221 47.8312 21.6221C48.0703 21.6221 48.3094 21.5611 48.5344 21.4346L53.4188 18.6127C53.4234 18.6971 53.4375 18.7768 53.4375 18.8611V23.7174C53.4375 24.4955 54.0656 25.1236 54.8438 25.1236Z" fill="#80CEC8"/>
<path d="M41.25 24.4062C31.4297 24.4062 23.4375 32.3984 23.4375 42.2188C23.4375 52.0391 31.4297 60.0312 41.25 60.0312C51.0703 60.0312 59.0625 52.0391 59.0625 42.2188C59.0625 32.3984 51.0703 24.4062 41.25 24.4062ZM41.25 57.2188C32.9813 57.2188 26.25 50.4922 26.25 42.2188C26.25 33.9453 32.9813 27.2188 41.25 27.2188C49.5187 27.2188 56.25 33.9453 56.25 42.2188C56.25 50.4922 49.5187 57.2188 41.25 57.2188Z" fill="#2E7382"/>
<path d="M49.1996 36.9689L40.0683 45.4439L36.1261 41.6704C35.5636 41.1361 34.6777 41.1548 34.1387 41.7126C33.5996 42.2751 33.623 43.1658 34.1808 43.7001L39.0793 48.3876C39.3512 48.6454 39.7027 48.7767 40.0496 48.7767C40.3918 48.7767 40.734 48.6501 41.0058 48.4017L51.1074 39.0267C51.6746 38.497 51.7121 37.6064 51.1824 37.0392C50.6574 36.472 49.7668 36.4392 49.1996 36.9689Z" fill="#2E7382"/>
</g>
<defs>
<clipPath id="clip0_2189_8738">
<rect width="60" height="60" fill="white" transform="translate(0 0.5)"/>
</clipPath>
</defs>
</svg>