<svg width="85" height="84" viewBox="0 0 85 84" fill="none" xmlns="http://www.w3.org/2000/svg">
<g opacity="0.15">
<path d="M34.5716 26.9482L48.7664 28.3113L45.6709 32.4129L39.8062 31.6825L37.717 34.5413L42.9405 35.4884L39.5525 39.6628L25.3171 38.1708L34.5716 26.9482Z" fill="#318C99"/>
<path d="M46.7048 33.4573L49.3638 39.8761L46.6748 43.1778L43.9492 36.5984L40.8074 40.3349L45.6797 52.0967L55.0708 41.0608L50.0691 28.9867L46.7048 33.4573Z" fill="#318C99"/>
<path d="M39.4374 41.1582L44.3072 52.9139L29.8807 51.3496L25.0797 39.7599L39.4374 41.1582Z" fill="#318C99"/>
<path d="M34.7895 22.5008L50.0884 23.7016L56.4023 17.1542L51.8331 16.4866L53.8593 14.0312L60.4771 14.4163L63.0533 20.6353L61.0375 22.7404L58.6378 19.2693L53.2251 25.9767L58.7804 39.3871L61.8253 39.861L60.2784 36.127L63.4786 36.3665L64.9028 40.1858L70.6863 40.7949L67.2892 32.4987L60.2882 31.2775L67.8866 21.1438L64.1344 10.5573L52.6618 9.63802L43.5705 19.0603L40.1199 13.3235L30.4914 12.1252L32.5263 17.0374L36.6912 17.5715L37.6462 19.8769L33.7547 20.0029L34.7895 22.5008Z" fill="#0D1D43"/>
<path d="M28.0046 52.1997L22.3614 38.9395L13.5274 37.2754L14.9273 41.4028L11.7649 41.0605L9.19972 35.3968L13.8068 29.9104L16.6409 30.4338L14.4941 34.2889L23.0786 35.1239L33.0126 23.2935L32.1063 20.5273L29.3401 23.8214L28.149 21.0539L31.048 17.8151L29.0581 12.7184L22.895 20.0045L24.8568 26.4355L12.1434 25.6514L4.02155 34.4687L8.23617 44.4225L20.9511 46.8217L17.1752 52.7682L20.3184 61.3528L23.9572 57.0194L22.6126 53.2976L24.3202 51.2637L26.1538 54.4036L28.0046 52.1997Z" fill="#0D1D43"/>
<path d="M58.4651 42.0952L48.7613 53.9548L51.1623 62.1244L54.3415 58.726L55.4343 61.5127L51.3588 66.7052L44.2526 65.9044L43.4727 63.2891L47.9803 62.9554L44.9265 55.4423L29.6029 53.715L27.4584 55.9664L31.725 56.4474L29.7059 58.9332L25.4305 58.3132L21.6213 62.7243L31.0789 63.8249L36.1298 58.7104L41.0696 69.591L52.8101 71.4685L60.1037 62.5838L56.6515 50.8226L63.8117 50.6897L70.3209 43.4316L64.7079 42.799L61.8778 45.931L59.2435 45.6343L61.3196 42.4168L58.4651 42.0952Z" fill="#0D1D43"/>
</g>
</svg>