<svg width="772" height="215" viewBox="0 0 772 215" fill="none" xmlns="http://www.w3.org/2000/svg">
<path d="M-26 167C-20.0001 225 207.407 182.816 269.5 167M269.5 167C285.585 161.925 316 126 315 99.5C314 73 283 47.125 254 58C225 68.875 207.5 92.5 214.5 119C221.5 145.5 246.5 158 269.5 167ZM269.5 167C347.019 136.539 390 117 461.5 102.5C533 88 653.5 113.5 653.5 113.5M653.5 113.5C610 156 619 174.5 628 191.5C637 208.5 675 223.5 699.5 207.5C724 191.5 726 177 719 150C712.001 123 653.5 113.5 653.5 113.5ZM653.5 113.5C653.5 113.5 783 16.5 770.5 1" stroke="#F9B69E" stroke-dasharray="6 6"/>
</svg>