<svg width="161" height="40" viewBox="0 0 161 40" fill="none" xmlns="http://www.w3.org/2000/svg">
<g clip-path="url(#clip0_2198_8463)">
<path d="M1.62695 5.91269H7.80195V28.3877H19.227V34.0877H1.62695V5.91269ZM21.952 15.0002H27.877V34.0752H21.952V15.0002ZM24.9145 5.5127C25.5943 5.5127 26.2589 5.7143 26.8242 6.09202C27.3895 6.46974 27.8301 7.0066 28.0903 7.63472C28.3505 8.26284 28.4185 8.95401 28.2859 9.62082C28.1533 10.2876 27.8259 10.9001 27.3451 11.3809C26.8644 11.8616 26.2519 12.189 25.5851 12.3216C24.9183 12.4543 24.2271 12.3862 23.599 12.126C22.9709 11.8659 22.434 11.4253 22.0563 10.86C21.6786 10.2947 21.477 9.63007 21.477 8.9502C21.477 8.03851 21.8391 7.16417 22.4838 6.51952C23.1284 5.87486 24.0028 5.5127 24.9145 5.5127ZM52.677 5.91269H58.602V22.7502L65.327 14.9752H72.5895L64.8145 23.8127L72.427 34.0877H64.977L58.677 24.6502H58.602V34.0877H52.677V5.91269ZM31.1645 15.0002H36.8145V17.6127H36.8895C37.4594 16.6396 38.282 15.8388 39.2701 15.2953C40.2582 14.7517 41.3749 14.4856 42.502 14.5252C48.5145 14.5252 49.6145 18.4752 49.6145 23.6127V34.0877H43.7395V24.8002C43.7395 22.5877 43.7395 19.8002 40.652 19.8002C37.5645 19.8002 37.0895 22.2127 37.0895 24.7002V34.1377H31.1645V15.0002Z" fill="#2E3A65"/>
<path d="M85.0777 22.3126C85.0897 21.8316 85.0039 21.3533 84.8253 20.9065C84.6468 20.4598 84.3793 20.054 84.0391 19.7138C83.6989 19.3736 83.2931 19.1061 82.8463 18.9275C82.3996 18.749 81.9212 18.6631 81.4402 18.6751C80.4043 18.6096 79.3842 18.9545 78.6006 19.6352C77.817 20.3159 77.3328 21.2777 77.2527 22.3126H85.0777ZM90.0777 30.7751C89.0889 31.9602 87.8495 32.9112 86.4488 33.5596C85.0482 34.2081 83.5211 34.5378 81.9777 34.5251C76.0527 34.5251 71.3027 30.5751 71.3027 24.4376C71.3027 18.3001 76.0527 14.3626 81.9777 14.3626C87.5152 14.3626 90.9902 18.3126 90.9902 24.4376V26.3001H77.2402C77.4036 27.3597 77.946 28.3239 78.7668 29.0137C79.5876 29.7034 80.6309 30.0717 81.7027 30.0501C82.5471 30.0489 83.3773 29.8339 84.1161 29.4252C84.8549 29.0164 85.4781 28.4273 85.9277 27.7126L90.0777 30.7751ZM103.353 19.6001C102.385 19.5702 101.431 19.8298 100.612 20.3457C99.7925 20.8615 99.146 21.6101 98.7549 22.4955C98.3637 23.381 98.2458 24.363 98.4161 25.3159C98.5864 26.2688 99.0373 27.1492 99.711 27.8443C100.385 28.5394 101.25 29.0177 102.198 29.2178C103.145 29.4179 104.13 29.3307 105.027 28.9675C105.924 28.6043 106.693 27.9816 107.234 27.179C107.775 26.3764 108.065 25.4306 108.065 24.4626C108.118 23.8203 108.033 23.174 107.814 22.5676C107.596 21.9612 107.25 21.4088 106.799 20.9478C106.349 20.4867 105.805 20.1278 105.204 19.8953C104.603 19.6628 103.959 19.5621 103.315 19.6001M113.565 34.0751H108.065V31.5751C107.378 32.4915 106.49 33.2384 105.47 33.7584C104.449 34.2785 103.323 34.5578 102.178 34.5751C96.4777 34.5751 92.7277 30.4626 92.7277 24.6501C92.7277 19.3126 96.0527 14.4126 101.478 14.4126C102.618 14.3124 103.766 14.4871 104.826 14.9221C105.885 15.3571 106.824 16.0396 107.565 16.9126H107.64V5.9126H113.565V34.0751Z" fill="#2E3A65"/>
<path d="M156.314 -1.48229e-05H122.264C121.878 -0.00499756 121.494 0.0670734 121.135 0.211992C120.777 0.35691 120.451 0.571773 120.176 0.844049C119.902 1.11632 119.684 1.44056 119.536 1.79784C119.388 2.15512 119.313 2.53828 119.314 2.92499V37.1125C119.318 37.496 119.397 37.8752 119.547 38.2281C119.697 38.581 119.915 38.9008 120.19 39.1691C120.464 39.4374 120.788 39.6489 121.144 39.7915C121.5 39.9341 121.881 40.0049 122.264 40H156.314C156.702 40.0099 157.087 39.9429 157.448 39.8027C157.809 39.6625 158.139 39.452 158.418 39.1834C158.697 38.9147 158.92 38.5934 159.074 38.2379C159.228 37.8824 159.31 37.4998 159.314 37.1125V2.92499C159.315 2.53448 159.237 2.14789 159.085 1.78804C158.933 1.42818 158.711 1.10234 158.431 0.829725C158.152 0.55711 157.82 0.343244 157.457 0.200738C157.093 0.058233 156.705 -0.0100279 156.314 -1.48229e-05ZM131.164 34.0875H125.239V15H131.164V34.0875ZM128.202 12.4125C127.522 12.4125 126.858 12.2109 126.292 11.8332C125.727 11.4554 125.286 10.9186 125.026 10.2905C124.766 9.66234 124.698 8.97117 124.831 8.30436C124.963 7.63755 125.291 7.02505 125.771 6.5443C126.252 6.06356 126.865 5.73617 127.531 5.60354C128.198 5.4709 128.889 5.53897 129.517 5.79915C130.146 6.05933 130.682 6.49992 131.06 7.06522C131.438 7.63051 131.639 8.29511 131.639 8.97499C131.639 9.88667 131.277 10.761 130.633 11.4057C129.988 12.0503 129.114 12.4125 128.202 12.4125ZM153.364 34.0875H147.439V24.8125C147.439 22.6 147.439 19.8125 144.364 19.8125C141.289 19.8125 140.802 22.225 140.802 24.7125V34.15H134.877V15H140.564V17.625H140.639C141.211 16.6542 142.034 15.8559 143.022 15.3146C144.01 14.7733 145.126 14.5091 146.252 14.55C152.252 14.55 153.364 18.5 153.364 23.6375V34.0875Z" fill="#2E3A65"/>
</g>
<defs>
<clipPath id="clip0_2198_8463">
<rect width="160" height="40" fill="white" transform="translate(0.564453)"/>
</clipPath>
</defs>
</svg>
