<svg width="25" height="24" viewBox="0 0 25 24" fill="none" xmlns="http://www.w3.org/2000/svg">
<rect x="0.390625" width="24" height="24" rx="4" fill="url(#paint0_linear_1319_19081)"/>
<path d="M6.39062 7.61321C6.39062 7.2284 6.52576 6.91094 6.79603 6.66082C7.0663 6.4107 7.41766 6.28564 7.85008 6.28564C8.2748 6.28564 8.61842 6.40877 8.88097 6.65505C9.15124 6.90902 9.28638 7.23994 9.28638 7.64784C9.28638 8.01725 9.15511 8.32508 8.89256 8.57136C8.62229 8.82533 8.26707 8.95231 7.82692 8.95231H7.81534C7.39062 8.95231 7.047 8.82533 6.78445 8.57136C6.5219 8.31739 6.39062 7.998 6.39062 7.61321ZM6.5412 17.7142V10.0028H9.11263V17.7142H6.5412ZM10.5373 17.7142H13.1088V13.4083C13.1088 13.1389 13.1397 12.9311 13.2014 12.7849C13.3095 12.5233 13.4736 12.302 13.6937 12.1211C13.9138 11.9403 14.1898 11.8499 14.5219 11.8499C15.3868 11.8499 15.8192 12.4309 15.8192 13.593V17.7142H18.3906V13.2929C18.3906 12.1538 18.1204 11.29 17.5798 10.7012C17.0393 10.1125 16.325 9.81811 15.437 9.81811C14.4408 9.81811 13.6648 10.2452 13.1088 11.0995V11.1226H13.0972L13.1088 11.0995V10.0028H10.5373C10.5528 10.2491 10.5605 11.0148 10.5605 12.3001C10.5605 13.5853 10.5528 15.39 10.5373 17.7142Z" fill="white"/>
<defs>
<linearGradient id="paint0_linear_1319_19081" x1="-0.171875" y1="24.9" x2="26.5934" y2="22.2503" gradientUnits="userSpaceOnUse">
<stop stop-color="#6CD3E7"/>
<stop offset="0.557692" stop-color="#3A9DB2"/>
<stop offset="1" stop-color="#235A66"/>
</linearGradient>
</defs>
</svg>
