<svg width="37" height="37" viewBox="0 0 37 37" fill="none" xmlns="http://www.w3.org/2000/svg">
<path fill-rule="evenodd" clip-rule="evenodd" d="M0.5 18.6094C0.5 8.66825 8.55888 0.609375 18.5 0.609375C28.4411 0.609375 36.5 8.66825 36.5 18.6094C36.5 28.5505 28.4411 36.6094 18.5 36.6094C8.55888 36.6094 0.5 28.5505 0.5 18.6094Z" fill="#0077B5"/>
<path d="M13.4875 11.7264C13.461 10.5247 12.6017 9.60938 11.2062 9.60938C9.81075 9.60938 8.89844 10.5247 8.89844 11.7264C8.89844 12.9032 9.78378 13.8449 11.1533 13.8449H11.1793C12.6017 13.8449 13.4875 12.9032 13.4875 11.7264Z" fill="white"/>
<path d="M13.2189 15.5178H9.13966V27.7741H13.2189V15.5178Z" fill="white"/>
<path d="M23.2333 15.23C25.9176 15.23 27.93 16.9821 27.93 20.7467L27.9298 27.7741H23.8508V21.2169C23.8508 19.5699 23.2605 18.4461 21.7838 18.4461C20.6569 18.4461 19.9856 19.2037 19.6908 19.9355C19.5829 20.1978 19.5565 20.5632 19.5565 20.9295V27.7744H15.4768C15.4768 27.7744 15.5305 16.6682 15.4768 15.5181H19.5565V17.2541C20.0979 16.4196 21.0675 15.23 23.2333 15.23Z" fill="white"/>
</svg>
