<svg width="217" height="48" viewBox="0 0 217 48" fill="none" xmlns="http://www.w3.org/2000/svg">
<path d="M61.3672 31.3078V2.99829C61.3672 2.44342 61.5816 1.9655 62.0103 1.56452C62.4391 1.16355 62.9501 0.963066 63.5434 0.963066H76.8958C80.0278 0.963066 82.9705 1.69559 85.7236 3.16065C88.4768 4.62524 90.6693 6.5988 92.3013 9.08136C93.9332 11.5639 94.7492 14.2545 94.7492 17.1531C94.7492 20.0521 93.9249 22.7429 92.2764 25.2255C90.6278 27.708 88.4186 29.6818 85.6489 31.1469C82.8796 32.6115 79.929 33.3438 76.7969 33.3438H63.5434C62.9501 33.3438 62.4391 33.1433 62.0103 32.7423C61.5816 32.3413 61.3672 31.8632 61.3672 31.3078ZM76.9954 23.3971C78.0824 23.3971 79.0954 23.1041 80.0344 22.5182C80.9739 21.9323 81.732 21.1228 82.3087 20.0898C82.8854 19.0567 83.1738 17.9237 83.1738 16.6907C83.1738 15.4882 82.8935 14.3782 82.3329 13.3608C81.7728 12.3433 81.0232 11.534 80.0842 10.933C79.1452 10.3316 78.1319 10.0308 77.0445 10.0308H72.4482C72.2173 10.0308 72.0275 10.108 71.8791 10.2624C71.7311 10.4163 71.6572 10.6168 71.6572 10.8638V22.5648C71.6572 22.8114 71.7311 23.0119 71.8791 23.1662C72.027 23.3201 72.2165 23.3971 72.4475 23.3971H76.9954Z" fill="#181C44"/>
<path d="M94.707 27.5726C94.707 27.0173 95.0037 26.3695 95.597 25.6292L97.4267 23.409C97.9541 22.6993 98.3743 22.1981 98.6873 21.9054C99.0008 21.6122 99.339 21.4656 99.7018 21.4656C99.9982 21.4656 100.361 21.5583 100.79 21.7437C101.218 21.9287 101.812 22.2369 102.569 22.6685C102.668 22.7301 103.509 23.2699 105.091 24.2879C106.674 25.3059 108.652 25.753 111.026 25.6292C111.817 25.5986 112.435 25.3906 112.88 25.0051C113.325 24.6197 113.548 24.1493 113.548 23.594C113.548 22.8537 113.152 22.1753 112.36 21.5587C111.569 20.9418 110.449 20.5869 108.998 20.4942H109.047C106.146 19.9388 103.888 19.2374 102.273 18.3898C100.657 17.5417 99.5035 16.5318 98.8111 15.3599C98.1192 14.1876 97.7073 12.738 97.5754 11.0113C97.4436 8.97586 97.905 7.1176 98.9598 5.43653C100.015 3.75498 101.532 2.42852 103.51 1.45715C105.488 0.485779 107.763 9.53674e-05 110.335 9.53674e-05C112.247 9.53674e-05 114.16 0.262234 116.072 0.78651C117.655 1.18748 119.098 1.71952 120.4 2.38264C121.702 3.04575 122.732 3.8091 123.491 4.6727C123.953 5.10426 124.184 5.50524 124.184 5.87562C124.184 6.18388 124.06 6.51543 123.812 6.87029C123.565 7.22467 123.145 7.71035 122.551 8.32734L121.117 9.76181C120.655 10.2244 120.301 10.5407 120.053 10.7106C119.806 10.88 119.567 10.9647 119.337 10.9647C119.106 10.9647 118.809 10.8722 118.446 10.6873C118.083 10.5019 117.729 10.3089 117.382 10.1084C117.036 9.90794 116.731 9.73051 116.467 9.57615C114.192 8.21933 112.197 7.54093 110.482 7.54093C109.427 7.54093 108.595 7.78 107.985 8.25816C107.375 8.73631 107.07 9.31448 107.07 9.99265C107.07 10.6713 107.366 11.2805 107.96 11.8203C108.554 12.3601 109.394 12.7072 110.482 12.8616C115.198 13.5398 118.718 14.8504 121.043 16.7937C123.368 18.7369 124.53 20.9573 124.53 23.4549C124.53 25.3054 123.912 27.0867 122.675 28.7988C121.439 30.5105 119.724 31.8984 117.531 32.9625C115.339 34.0266 112.89 34.5586 110.187 34.5586C105.769 34.5586 101.334 33.1091 96.8825 30.21C95.4322 29.2843 94.707 28.4052 94.707 27.5726Z" fill="#181C44"/>
<path d="M126.145 17.0321C126.145 13.9773 126.977 11.1538 128.643 8.56155C130.309 5.96935 132.568 3.90942 135.42 2.38177C138.272 0.854118 141.364 0.0902939 144.695 0.0902939C148.059 0.0902939 151.208 0.892242 154.144 2.49613C154.737 2.80439 155.034 3.25172 155.034 3.83812C155.034 4.23909 154.853 4.6403 154.49 5.04174L149.642 10.0377C149.312 10.3464 148.933 10.5008 148.504 10.5008C148.174 10.5008 147.877 10.4391 147.614 10.3158C146.723 9.94496 145.734 9.75953 144.646 9.75953C143.228 9.75953 141.917 10.076 140.714 10.709C139.51 11.342 138.562 12.199 137.869 13.28C137.176 14.3611 136.83 15.5501 136.83 16.8471C136.83 18.1131 137.185 19.2944 137.894 20.391C138.603 21.487 139.552 22.3596 140.739 23.0086C141.927 23.6571 143.23 23.9814 144.649 23.9814C145.671 23.9814 146.743 23.7649 147.865 23.3319C148.129 23.2086 148.409 23.1469 148.706 23.1469C149.135 23.1469 149.498 23.2858 149.794 23.5634L155.238 28.5608C155.633 28.9307 155.831 29.347 155.831 29.8096C155.831 30.3033 155.584 30.7198 155.089 31.0591C151.758 33.0334 148.294 34.0205 144.698 34.0205C141.367 34.0205 138.275 33.2569 135.422 31.7297C132.569 30.2021 130.309 28.1344 128.643 25.5267C126.977 22.9189 126.145 20.0874 126.145 17.0321Z" fill="#181C44"/>
<path d="M158.871 31.8075V15.3761V2.50826C158.871 1.98398 159.118 1.53665 159.612 1.16627C160.107 0.795883 160.701 0.610691 161.393 0.610691H172.124C177.003 0.610691 180.695 1.43334 183.2 3.07865C185.706 4.72349 187.058 7.2218 187.255 10.5736C187.255 10.6964 187.263 10.9579 187.279 11.3579C187.296 11.7575 187.304 12.2342 187.304 12.7881C187.304 13.5567 187.288 14.1101 187.255 14.4485C187.156 16.4844 186.538 18.4046 185.401 20.209C184.265 22.0133 182.436 23.4939 179.915 24.6507C177.395 25.8075 174.108 26.3859 170.055 26.3859V31.2957C170.055 31.9753 169.717 32.5469 169.04 33.0104C168.364 33.4735 167.531 33.7051 166.541 33.7051H161.593C160.834 33.7051 160.191 33.5199 159.663 33.1495C159.135 32.7791 158.871 32.3318 158.871 31.8075ZM167.927 17.364H170.844C172.391 17.364 173.781 17.0941 175.015 16.5543C176.249 16.014 176.866 14.772 176.866 12.8284C176.866 11.409 176.471 10.3522 175.681 9.658C174.891 8.96383 173.673 8.58591 172.026 8.52426H167.927C168.059 8.52426 168.125 8.4779 168.125 8.38519V17.549C168.125 17.4257 168.059 17.364 167.927 17.364Z" fill="#181C44"/>
<path d="M192.363 33.3438C191.803 33.3438 191.316 33.1508 190.903 32.7649C190.491 32.3785 190.285 31.8919 190.285 31.305V2.94464C190.285 2.35777 190.491 1.86361 190.903 1.46217C191.316 1.06025 191.803 0.859295 192.363 0.859295H199.041C199.602 0.859295 200.088 1.06002 200.5 1.46146C200.913 1.86243 201.119 2.35588 201.119 2.94181V23.6745H214.725C215.351 23.6745 215.887 23.8597 216.332 24.2301C216.778 24.6 217 25.0624 217 25.6173V31.4469C217 31.9712 216.778 32.4185 216.332 32.7889C215.887 33.1588 215.351 33.3438 214.725 33.3438H193.649H192.363Z" fill="#181C44"/>
<path d="M63.1 43.4026C63.1 43.1145 62.9504 42.9707 62.6509 42.9707H61.6028V45.8491H62.6509C62.9504 45.8491 63.1 45.7053 63.1 45.4172V43.4026ZM62.6509 42.3951C63.3495 42.3951 63.6988 42.7308 63.6988 43.4026V45.4172C63.6988 46.089 63.3495 46.4248 62.6509 46.4248H61.0039V42.3951H62.6509Z" fill="#181C44"/>
<path d="M66.3684 46.4248H65.7695V42.3951H66.3684V46.4248Z" fill="#181C44"/>
<path d="M69.0364 45.4172C69.0364 45.7051 69.1862 45.8491 69.4857 45.8491H70.0845C70.384 45.8491 70.5336 45.7051 70.5336 45.4172V44.6978H69.6352V44.1221H71.1324V45.4172C71.1324 46.089 70.7831 46.4248 70.0845 46.4248H69.4857C68.7868 46.4248 68.4375 46.089 68.4375 45.4172V43.4026C68.4375 42.7308 68.7868 42.3951 69.4857 42.3951H71.1324V42.9707H69.4857C69.1862 42.9707 69.0364 43.1145 69.0364 43.4026V45.4172Z" fill="#181C44"/>
<path d="M73.802 46.4248H73.2031V42.3951H73.802V46.4248Z" fill="#181C44"/>
<path d="M78.5699 42.3951V42.9707H77.522V46.4248H76.9232V42.9707H75.875V42.3951H78.5699Z" fill="#181C44"/>
<path d="M81.3998 44.9856H82.5736L81.9869 42.971L81.3998 44.9856ZM83.6339 46.4248H83.0348L82.7565 45.5613H81.2173L80.9387 46.4248H80.3398L81.5976 42.3953H82.3762L83.6339 46.4248Z" fill="#181C44"/>
<path d="M86.0051 45.8491H87.8017V46.4248H85.4062V42.3951H86.0051V45.8491Z" fill="#181C44"/>
<path d="M92.543 46.4248V45.8491H94.19C94.4894 45.8491 94.639 45.7053 94.639 45.4172V45.1297C94.639 44.8416 94.4894 44.6978 94.19 44.6978H93.5911C92.8923 44.6978 92.543 44.362 92.543 43.6902V43.4026C92.543 42.7308 92.8923 42.3951 93.5911 42.3951H95.2379V42.9707H93.5911C93.2917 42.9707 93.1418 43.1145 93.1418 43.4026V43.6902C93.1418 43.9783 93.2917 44.1221 93.5911 44.1221H94.19C94.8886 44.1221 95.2379 44.4579 95.2379 45.1297V45.4172C95.2379 46.089 94.8886 46.4248 94.19 46.4248H92.543Z" fill="#181C44"/>
<path d="M100.153 42.3951V45.4172C100.153 46.089 99.8041 46.4248 99.1052 46.4248H98.3568C97.6579 46.4248 97.3086 46.089 97.3086 45.4172V42.3951H97.9075V45.4172C97.9075 45.7053 98.0573 45.8491 98.3568 45.8491H99.1052C99.4046 45.8491 99.5545 45.7053 99.5545 45.4172V42.3951H100.153Z" fill="#181C44"/>
<path d="M102.822 42.9707V44.1221H103.87C104.169 44.1221 104.319 43.9783 104.319 43.6902V43.4026C104.319 43.1145 104.169 42.9707 103.87 42.9707H102.822ZM102.822 44.6978V46.4248H102.223V42.3951H103.87C104.568 42.3951 104.918 42.7308 104.918 43.4026V43.6902C104.918 44.362 104.568 44.6978 103.87 44.6978H102.822Z" fill="#181C44"/>
<path d="M107.587 42.9707V44.1221H108.635C108.935 44.1221 109.084 43.9783 109.084 43.6902V43.4026C109.084 43.1145 108.935 42.9707 108.635 42.9707H107.587ZM107.587 44.6978V46.4248H106.988V42.3951H108.635C109.334 42.3951 109.683 42.7308 109.683 43.4026V43.6902C109.683 44.362 109.334 44.6978 108.635 44.6978H107.587Z" fill="#181C44"/>
<path d="M112.353 45.8491H114.149V46.4248H111.754V42.3951H112.353V45.8491Z" fill="#181C44"/>
<path d="M116.581 42.3951L117.419 44.1221L118.258 42.3951H118.916L117.718 44.6978V46.4248H117.12V44.6978L115.922 42.3951H116.581Z" fill="#181C44"/>
<path d="M123.954 45.4172C123.954 45.7051 124.104 45.8491 124.404 45.8491H125.751V46.4248H124.404C123.705 46.4248 123.355 46.089 123.355 45.4172V43.4026C123.355 42.7308 123.705 42.3951 124.404 42.3951H125.751V42.9707H124.404C124.104 42.9707 123.954 43.1145 123.954 43.4026V45.4172Z" fill="#181C44"/>
<path d="M128.423 42.3951V44.1221H129.92V42.3951H130.519V46.4248H129.92V44.6978H128.423V46.4248H127.824V42.3951H128.423Z" fill="#181C44"/>
<path d="M133.345 44.9856H134.519L133.932 42.971L133.345 44.9856ZM135.579 46.4248H134.98L134.702 45.5613H133.163L132.884 46.4248H132.285L133.543 42.3953H134.321L135.579 46.4248Z" fill="#181C44"/>
<path d="M137.954 46.4248H137.355V42.3951H137.954V46.4248Z" fill="#181C44"/>
<path d="M140.622 42.3951L142.419 45.2734V42.3951H143.018V46.4248H142.419L140.622 43.5464V46.4248H140.023V42.3951H140.622Z" fill="#181C44"/>
<path d="M148.357 42.9707V44.1221H149.405C149.704 44.1221 149.854 43.9783 149.854 43.6902V43.4026C149.854 43.1145 149.704 42.9707 149.405 42.9707H148.357ZM148.357 44.6978V46.4248H147.758V42.3951H149.405C150.103 42.3951 150.453 42.7308 150.453 43.4026V43.6902C150.453 44.362 150.103 44.6978 149.405 44.6978H148.357Z" fill="#181C44"/>
<path d="M153.122 45.8491H154.919V46.4248H152.523V42.3951H153.122V45.8491Z" fill="#181C44"/>
<path d="M157.751 44.9856H158.925L158.338 42.971L157.751 44.9856ZM159.985 46.4248H159.386L159.108 45.5613H157.569L157.29 46.4248H156.691L157.949 42.3953H158.727L159.985 46.4248Z" fill="#181C44"/>
<path d="M164.452 42.3951V42.9707H163.405V46.4248H162.806V42.9707H161.758V42.3951H164.452Z" fill="#181C44"/>
<path d="M168.915 44.1221V44.6978H167.118V46.4248H166.52V42.3951H168.915V42.9707H167.118V44.1221H168.915Z" fill="#181C44"/>
<path d="M171.587 45.4172C171.587 45.7051 171.737 45.8491 172.036 45.8491H172.785C173.084 45.8491 173.234 45.7051 173.234 45.4172V43.4026C173.234 43.1145 173.084 42.9707 172.785 42.9707H172.036C171.737 42.9707 171.587 43.1145 171.587 43.4026V45.4172ZM173.833 45.4172C173.833 46.089 173.483 46.4248 172.785 46.4248H172.036C171.338 46.4248 170.988 46.089 170.988 45.4172V43.4026C170.988 42.7308 171.338 42.3951 172.036 42.3951H172.785C173.483 42.3951 173.833 42.7308 173.833 43.4026V45.4172Z" fill="#181C44"/>
<path d="M176.505 42.9707V44.1221H177.553C177.852 44.1221 178.002 43.9783 178.002 43.6902V43.4026C178.002 43.1145 177.852 42.9707 177.553 42.9707H176.505ZM177.308 44.6978H176.505V46.4248H175.906V42.3951H177.553C178.252 42.3951 178.601 42.7308 178.601 43.4026V43.6902C178.601 44.2946 178.368 44.6266 177.901 44.6861L178.601 46.4248H178.002L177.308 44.6978Z" fill="#181C44"/>
<path d="M180.668 42.3951H181.476L182.614 45.4172L183.752 42.3951H184.56V46.4248H183.961V43.4026L182.854 46.4248H182.375L181.267 43.4026V46.4248H180.668V42.3951Z" fill="#181C44"/>
<path d="M189.9 45.8491H191.696V46.4248H189.301V42.3951H189.9V45.8491Z" fill="#181C44"/>
<path d="M194.364 46.4248H193.766V42.3951H194.364V46.4248Z" fill="#181C44"/>
<path d="M196.438 42.3951H197.246L198.384 45.4172L199.522 42.3951H200.33V46.4248H199.731V43.4026L198.623 46.4248H198.144L197.036 43.4026V46.4248H196.438V42.3951Z" fill="#181C44"/>
<path d="M203.001 46.4248H202.402V42.3951H203.001V46.4248Z" fill="#181C44"/>
<path d="M207.765 42.3951V42.9707H206.717V46.4248H206.118V42.9707H205.07V42.3951H207.765Z" fill="#181C44"/>
<path d="M212.231 44.1221V44.6978H210.435V45.8491H212.231V46.4248H209.836V42.3951H212.231V42.9707H210.435V44.1221H212.231Z" fill="#181C44"/>
<path d="M216.4 43.4026C216.4 43.1145 216.251 42.9707 215.951 42.9707H214.903V45.8491H215.951C216.251 45.8491 216.4 45.7053 216.4 45.4172V43.4026ZM215.951 42.3951C216.65 42.3951 216.999 42.7308 216.999 43.4026V45.4172C216.999 46.089 216.65 46.4248 215.951 46.4248H214.305V42.3951H215.951Z" fill="#181C44"/>
<path d="M16.967 22.1475C14.089 17.3555 10.5115 11.3991 8.61577 8.2429C8.55211 8.25075 8.48816 8.25888 8.4245 8.267C8.05155 10.0877 7.67802 11.9098 7.30112 13.7495C5.24056 13.3631 3.23634 12.9945 1.21831 12.6198C0.910422 12.5627 0.598028 12.6997 0.44169 12.9612C0.285352 13.2228 0.319719 13.5513 0.526479 13.7782C1.88423 15.2688 3.22986 16.7503 4.61972 18.271C3.10817 19.5393 1.58873 20.8141 0 22.1475H16.967Z" fill="#448F9D"/>
<path d="M21.5373 8.27638C18.7441 7.35817 16.0015 6.45647 13.0742 5.49412C15.0427 8.77137 18.6607 14.7951 21.5598 19.6221C24.4382 14.8301 28.0165 8.87183 29.9128 5.71507C29.8736 5.66606 29.8345 5.61678 29.7951 5.56777C27.3427 6.3728 24.8875 7.17891 22.3889 7.9991C23.0142 7.79304 23.639 7.58698 24.2655 7.3801C23.5815 5.45214 22.9103 3.58159 22.2373 1.69615C22.1353 1.41075 21.8562 1.21877 21.5424 1.21877C21.2286 1.21877 20.9494 1.41075 20.8475 1.69615C20.1751 3.58187 19.5046 5.45214 18.821 7.3801C19.7294 7.67985 20.6342 7.97825 21.5413 8.27746C21.5401 8.27774 21.539 8.27801 21.5382 8.27855C21.5379 8.27801 21.5376 8.27692 21.5373 8.27638Z" fill="#448F9D"/>
<path d="M26.1328 22.1826H42.8404C42.8652 22.1255 42.8897 22.0683 42.9142 22.0112C41.2359 20.6015 39.5506 19.1859 37.8489 17.757C38.0373 17.914 38.2255 18.0708 38.4142 18.2281C39.806 16.6923 41.1522 15.1954 42.5111 13.6896C42.7167 13.4616 42.7497 13.1331 42.5922 12.8724C42.4348 12.6114 42.1215 12.4757 41.8136 12.5342C39.8089 12.9157 37.8176 13.2915 35.7706 13.6842C35.3939 11.8421 35.0151 9.98857 34.6193 8.05277C32.6506 11.3303 29.032 17.3554 26.1328 22.1826Z" fill="#448F9D"/>
<path d="M21.5321 29.7945C18.6538 34.5865 15.0757 40.5442 13.1797 43.701C13.2188 43.7503 13.258 43.799 13.2972 43.8483C15.1526 43.239 17.0098 42.6295 18.885 42.0138C19.5476 43.8802 20.1988 45.6953 20.8515 47.5236C20.9532 47.809 21.2324 48.001 21.5462 48.001C21.86 48.001 22.1394 47.8087 22.2411 47.5233C22.8935 45.6945 23.5439 43.8786 24.2064 42.0116C26.1076 42.6368 28.0186 43.265 30.0171 43.9222C28.049 40.645 24.4312 34.6212 21.5321 29.7945Z" fill="#448F9D"/>
<path d="M16.9614 27.2332H0.249584C0.225077 27.2903 0.20057 27.3474 0.175781 27.4046C1.63578 28.6307 3.1017 29.8619 4.57691 31.101C3.22057 32.5984 1.90536 34.0606 0.57888 35.5301C0.373246 35.7581 0.34057 36.0866 0.498035 36.3474C0.6555 36.6084 0.968457 36.744 1.27634 36.6856C3.26986 36.3062 5.25014 35.9325 7.28451 35.5423C7.6738 37.447 8.06507 39.3611 8.47465 41.3633C10.4431 38.0855 14.062 32.0604 16.9614 27.2332Z" fill="#448F9D"/>
<path d="M38.5673 31.0595C40.0456 29.819 41.5324 28.5713 43.0856 27.268H26.1211C28.9994 32.0597 32.5769 38.0166 34.4726 41.1729C34.5366 41.165 34.6002 41.1569 34.6642 41.1488C35.0498 39.2657 35.436 37.3817 35.8262 35.4775C37.8718 35.8612 39.8628 36.2276 41.8673 36.5996C42.1755 36.6568 42.4876 36.5198 42.6439 36.2582C42.8002 35.9966 42.7659 35.6682 42.5591 35.4412C41.2349 33.9874 39.9208 32.5409 38.5673 31.0595Z" fill="#448F9D"/>
</svg>
