<svg width="14" height="12" viewBox="0 0 14 12" fill="none" xmlns="http://www.w3.org/2000/svg">
<path d="M1.66146 11.0837C1.29479 11.0837 0.980903 10.9531 0.719792 10.692C0.458681 10.4309 0.328125 10.117 0.328125 9.75032V1.75033C0.328125 1.38366 0.458681 1.06977 0.719792 0.808659C0.980903 0.547548 1.29479 0.416992 1.66146 0.416992H12.3281C12.6948 0.416992 13.0087 0.547548 13.2698 0.808659C13.5309 1.06977 13.6615 1.38366 13.6615 1.75033V9.75032C13.6615 10.117 13.5309 10.4309 13.2698 10.692C13.0087 10.9531 12.6948 11.0837 12.3281 11.0837H1.66146ZM6.99479 6.41699L1.66146 3.08366V9.75032H12.3281V3.08366L6.99479 6.41699ZM6.99479 5.08366L12.3281 1.75033H1.66146L6.99479 5.08366ZM1.66146 3.08366V1.75033V9.75032V3.08366Z" fill="#2E3A65"/>
</svg>
