<svg width="28" height="28" viewBox="0 0 28 28" fill="none" xmlns="http://www.w3.org/2000/svg">
<path d="M14 0C8.17083 0 3.44531 4.72549 3.44531 10.5547C3.44531 12.5041 3.82688 14.5176 4.92187 15.9688L14 28L23.0781 15.9688C24.0727 14.6507 24.5547 12.3204 24.5547 10.5547C24.5547 4.72549 19.8292 0 14 0ZM14 6.11303C16.4527 6.11303 18.4416 8.10199 18.4416 10.5547C18.4416 13.0074 16.4527 14.9963 14 14.9963C11.5473 14.9963 9.55837 13.0074 9.55837 10.5547C9.55837 8.10199 11.5473 6.11303 14 6.11303Z" fill="url(#paint0_linear_1319_19115)"/>
<path d="M14 0C8.17083 0 3.44531 4.72549 3.44531 10.5547C3.44531 12.5041 3.82688 14.5176 4.92187 15.9688L14 28L23.0781 15.9688C24.0727 14.6507 24.5547 12.3204 24.5547 10.5547C24.5547 4.72549 19.8292 0 14 0ZM14 6.11303C16.4527 6.11303 18.4416 8.10199 18.4416 10.5547C18.4416 13.0074 16.4527 14.9963 14 14.9963C11.5473 14.9963 9.55837 13.0074 9.55837 10.5547C9.55837 8.10199 11.5473 6.11303 14 6.11303Z" fill="url(#paint1_linear_1319_19115)"/>
<defs>
<linearGradient id="paint0_linear_1319_19115" x1="12.754" y1="16.4" x2="34.1344" y2="20.1323" gradientUnits="userSpaceOnUse">
<stop stop-color="#6DE8FF"/>
<stop offset="1" stop-color="#276174"/>
</linearGradient>
<linearGradient id="paint1_linear_1319_19115" x1="11.5666" y1="11.32" x2="29.2271" y2="15.3342" gradientUnits="userSpaceOnUse">
<stop stop-color="#479EBE"/>
<stop offset="1" stop-color="#24586C"/>
</linearGradient>
</defs>
</svg>
