<svg width="120" height="40" viewBox="0 0 120 40" fill="none" xmlns="http://www.w3.org/2000/svg">
<path d="M29.5617 29.4369C25.833 27.2833 22.2663 25.2236 18.7001 23.1631C17.0538 22.2119 15.4172 21.243 13.7567 20.3177C13.2881 20.0564 13.2246 19.8397 13.4462 19.3388C14.9836 15.8617 16.4798 12.3663 17.9914 8.87771C18.2533 8.27352 18.459 7.63089 19.3173 7.62025C20.1763 7.60961 20.3896 8.22619 20.6574 8.8442C23.5218 15.4556 26.3904 22.0652 29.2631 28.6729C29.3449 28.8616 29.4134 29.0562 29.5617 29.4369ZM12.7273 20.9925C12.9468 20.4763 13.1229 20.399 13.6279 20.7055C15.3329 21.7408 17.075 22.7154 18.9147 23.7776L9.26367 29.3594" fill="#2E3A65"/>
<path d="M19.4012 37.6339C15.8634 37.6339 12.405 36.5848 9.46342 34.6193C6.52183 32.6538 4.22915 29.8602 2.87528 26.5916C1.52142 23.3231 1.16719 19.7266 1.85738 16.2567C2.54758 12.7869 4.2512 9.59963 6.75281 7.09802C9.25442 4.59641 12.4417 2.89279 15.9115 2.2026C19.3813 1.5124 22.9779 1.86664 26.2464 3.2205C29.5149 4.57436 32.3086 6.86705 34.2741 9.80863C36.2396 12.7502 37.2887 16.2086 37.2887 19.7464C37.2887 22.0954 36.826 24.4214 35.9271 26.5916C35.0281 28.7619 33.7106 30.7338 32.0496 32.3948C30.3885 34.0558 28.4166 35.3734 26.2464 36.2723C24.0762 37.1712 21.7502 37.6339 19.4012 37.6339ZM19.4012 3.76486C16.2403 3.76486 13.1505 4.70216 10.5223 6.45824C7.89417 8.21431 5.84577 10.7103 4.63617 13.6305C3.42656 16.5508 3.11008 19.7641 3.72673 22.8642C4.34338 25.9644 5.86547 28.812 8.10053 31.047C10.3356 33.2821 13.1832 34.8042 16.2833 35.4208C19.3835 36.0375 22.5968 35.721 25.517 34.5114C28.4373 33.3018 30.9333 31.2534 32.6893 28.6253C34.4454 25.9971 35.3827 22.9072 35.3827 19.7464C35.3827 15.5078 33.6989 11.4429 30.7018 8.44574C27.7047 5.44863 23.6397 3.76486 19.4012 3.76486Z" fill="#2E3A65"/>
<path d="M55.7519 12.8382H59.8043V26.3163H57.1801V17.1997C57.1801 16.9377 57.1832 16.5705 57.1894 16.098C57.1951 15.6258 57.198 15.2615 57.1983 15.0053L54.6443 26.3162H51.907L49.3714 15.0053C49.3714 15.2613 49.3744 15.6256 49.3803 16.0981C49.3862 16.5703 49.3893 16.9375 49.3895 17.1997V26.3163H46.7656V12.8379H50.8635L53.3168 23.4357L55.7519 12.8382ZM68.6944 16.5514C69.397 16.8689 69.9944 17.3802 70.4168 18.0253C70.8349 18.6429 71.1066 19.3478 71.2109 20.0863C71.2908 20.7424 71.3195 21.4038 71.2967 22.0644H64.0381C64.0784 23.0642 64.4257 23.7651 65.0801 24.1673C65.5134 24.4268 66.0119 24.5568 66.5168 24.5421C66.9241 24.5741 67.3316 24.482 67.6855 24.278C68.0395 24.074 68.3235 23.7676 68.5 23.3992H71.1607C71.0406 24.0877 70.7018 24.7193 70.1947 25.2003C69.3019 26.1696 68.052 26.6544 66.445 26.6546C65.1671 26.6715 63.9241 26.2373 62.9346 25.4284C61.9206 24.6105 61.4136 23.2804 61.4136 21.4379C61.4136 19.7116 61.8713 18.3877 62.7865 17.4662C63.2544 17.0042 63.8122 16.6432 64.4253 16.4055C65.0383 16.1679 65.6937 16.0586 66.3507 16.0844C67.1562 16.0718 67.9552 16.231 68.6944 16.5514ZM64.7961 18.8023C64.4057 19.2293 64.1623 19.7701 64.1016 20.3455H68.5915C68.589 20.0495 68.5262 19.7572 68.4068 19.4864C68.2874 19.2155 68.1139 18.972 67.8971 18.7705C67.466 18.4066 66.9155 18.2151 66.3516 18.2331C66.0671 18.2156 65.782 18.2571 65.5144 18.3551C65.2467 18.453 65.0021 18.6053 64.7961 18.8023ZM71.5905 18.2969V16.4411H72.9803V13.6613H75.559V16.4408H77.1772V18.2969H75.559V23.5637C75.5232 23.8285 75.578 24.0976 75.7144 24.3274C75.8182 24.4277 76.1352 24.4779 76.6655 24.4779C76.7446 24.4779 76.8284 24.477 76.9167 24.4738C77.005 24.4706 77.0919 24.466 77.1772 24.4598V26.4077L75.9431 26.4532C74.7116 26.4955 73.8704 26.2823 73.4193 25.8134C73.0969 25.4288 72.9392 24.9326 72.9803 24.4325V18.2969L71.5905 18.2969ZM82.7982 20.254C83.1536 20.2232 83.5034 20.1464 83.8389 20.0253C83.9994 19.9779 84.1405 19.8805 84.2417 19.7472C84.3428 19.6139 84.3987 19.4518 84.4011 19.2845C84.4182 19.117 84.3866 18.9481 84.3101 18.7981C84.2336 18.6481 84.1154 18.5234 83.9698 18.4389C83.5727 18.2611 83.1389 18.1811 82.7045 18.2054C82.0806 18.2054 81.6389 18.3579 81.3792 18.6629C81.1767 18.9294 81.0488 19.2451 81.0085 19.5774H78.4939C78.5149 18.8031 78.7712 18.0535 79.2287 17.4284C79.9206 16.5506 81.1083 16.1117 82.7919 16.1117C83.8031 16.0927 84.8043 16.3153 85.7121 16.761C86.5631 17.1939 86.9885 18.0107 86.9885 19.2115V23.7832C86.9885 24.1003 86.9945 24.4843 87.0066 24.9354C86.9999 25.1763 87.0534 25.4151 87.1623 25.6301C87.2612 25.7631 87.3937 25.8673 87.5463 25.9319V26.3163H84.7118C84.6378 26.1334 84.5825 25.9434 84.547 25.7492C84.5167 25.5724 84.4923 25.3712 84.4739 25.1457C84.109 25.5385 83.6873 25.8745 83.223 26.1425C82.6395 26.4705 81.9795 26.6376 81.3103 26.6269C80.4908 26.6578 79.6891 26.3824 79.0616 25.8544C78.76 25.5784 78.5239 25.2386 78.3703 24.8597C78.2168 24.4809 78.1497 24.0725 78.1741 23.6644C78.1741 22.4391 78.65 21.5522 79.6019 21.0037C80.3224 20.647 81.1038 20.4297 81.905 20.3633L82.7982 20.254ZM84.3916 21.47C84.2317 21.5701 84.0625 21.6544 83.8862 21.7216C83.6585 21.8006 83.4245 21.8601 83.1867 21.8995L82.5933 22.0094C82.1776 22.0633 81.7732 22.1837 81.3958 22.3661C81.1995 22.4739 81.0376 22.6349 80.9287 22.8305C80.8198 23.0262 80.7683 23.2486 80.7801 23.4722C80.7635 23.6512 80.7888 23.8315 80.854 23.999C80.9192 24.1665 81.0226 24.3164 81.1559 24.437C81.4173 24.6388 81.7406 24.7439 82.0708 24.7343C82.6337 24.7362 83.1833 24.5636 83.6442 24.2403C84.1238 23.9112 84.373 23.3109 84.3916 22.4392L84.3916 21.47ZM91.9262 26.3163H89.3198V12.8379H91.9262V26.3163ZM94.6785 12.8382H97.4949V23.8928H104.224V26.3163H94.6788L94.6785 12.8382ZM116.17 14.2737C116.591 14.8756 116.808 15.5969 116.788 16.3312C116.823 17.0459 116.602 17.7495 116.164 18.3153C115.876 18.6377 115.527 18.8989 115.136 19.0835C115.773 19.2946 116.321 19.7131 116.693 20.2721C117.057 20.8651 117.239 21.5516 117.218 22.247C117.229 23.0062 117.021 23.7525 116.618 24.396C116.35 24.8433 115.991 25.2292 115.564 25.5285C115.137 25.8278 114.652 26.0337 114.14 26.133C113.513 26.2593 112.875 26.3207 112.236 26.3163H106.163V12.8379H112.676C114.32 12.8627 115.484 13.3413 116.17 14.2737ZM108.851 15.1791V18.1505H112.127C112.624 18.1722 113.117 18.0568 113.552 17.8169C113.742 17.6873 113.893 17.5088 113.989 17.3004C114.085 17.092 114.124 16.8614 114.1 16.633C114.1 16.0051 113.858 15.5906 113.376 15.3894C112.86 15.2351 112.322 15.1641 111.783 15.1791L108.851 15.1791ZM108.851 20.3817V23.9751H112.123C112.59 23.9973 113.056 23.9161 113.488 23.7375C114.079 23.4453 114.374 22.8845 114.374 22.0552C114.399 21.7549 114.33 21.4544 114.176 21.1954C114.022 20.9364 113.791 20.7319 113.515 20.6104C113.087 20.4442 112.628 20.3664 112.169 20.3817L108.851 20.3817Z" fill="#2E3A65"/>
</svg>
