<svg width="165" height="35" viewBox="0 0 165 35" fill="none" xmlns="http://www.w3.org/2000/svg">
<g clip-path="url(#clip0_2189_8457)">
<path d="M0.230469 0V16.632H16.8625V0H0.230469ZM18.5985 0V16.632H35.2305V0H18.5985ZM153.552 5.45338C152.494 5.45338 151.571 5.69767 150.73 6.10465C149.889 6.56589 149.265 7.18982 148.804 8.0309C148.343 8.84486 148.099 9.76755 148.099 10.8257V12.9146H145.63V15.7905H148.099V27.9457H151.653V15.818H156.971V23.5506C156.971 26.725 158.463 28.3257 161.447 28.3257C161.936 28.3257 162.451 28.2444 162.94 28.163C163.455 28.0545 163.835 27.9186 164.052 27.8101L164.079 27.7831V24.8796L163.944 24.9883C163.727 25.1239 163.536 25.2328 163.211 25.3142C162.94 25.3956 162.695 25.4223 162.506 25.4223C161.8 25.4223 161.312 25.2596 160.959 24.8526C160.634 24.4728 160.471 23.8488 160.471 22.9264V15.818H164.079V12.9146H160.525V8.4649L160.417 8.49246L157.052 9.49612L156.971 9.52315V12.9146H151.653V11.0154C151.653 10.1472 151.87 9.4692 152.25 9.0351C152.63 8.60099 153.2 8.38383 153.905 8.38383C154.393 8.38383 154.909 8.49204 155.478 8.73622L155.614 8.81783V5.75173L155.533 5.7247C155.045 5.56191 154.393 5.45338 153.552 5.45338ZM73.5949 6.56568C72.998 6.56568 72.5096 6.78305 72.1027 7.1629C71.6957 7.54274 71.4784 8.03122 71.4784 8.62812C71.4784 9.19789 71.6957 9.68594 72.1027 10.0658C72.5096 10.4456 72.998 10.6354 73.5949 10.6354C74.1918 10.6354 74.7073 10.4185 75.0872 10.0658C75.4941 9.68594 75.7109 9.19789 75.7109 8.62812C75.7109 8.05835 75.4941 7.56987 75.0872 7.1629C74.7345 6.78305 74.2189 6.56568 73.5949 6.56568ZM63.4475 7.00021L58.0752 20.1591L57.0986 22.9264H57.0175C56.8547 22.3023 56.5563 21.3527 56.0679 20.2132L50.8312 7.05426H45.7032V28.0273H49.0947V15.0852C49.0947 14.2712 49.0948 13.3488 49.0677 12.2093C49.0405 11.6395 48.9862 11.2053 48.959 10.8797H49.0407C49.2034 11.6937 49.3931 12.2905 49.5287 12.6703L55.8236 27.9728H58.2109L64.4512 12.5347C64.5868 12.182 64.7225 11.4766 64.8582 10.8797H64.9398C64.8584 12.4263 64.8042 13.8101 64.7771 14.6512V27.9457H68.3853V7.00021H63.4475ZM85.8583 12.5622C84.2575 12.5622 82.7927 12.9145 81.5718 13.6199C80.3508 14.3254 79.374 15.3024 78.75 16.5234C78.0988 17.7714 77.7733 19.2094 77.7733 20.8644C77.7733 22.3024 78.0989 23.5773 78.7229 24.744C79.347 25.8835 80.2149 26.8061 81.3815 27.4301C82.4939 28.0542 83.7965 28.3797 85.2616 28.3797C86.9438 28.3797 88.3815 28.0272 89.5211 27.3761L89.5481 27.3491V24.0932L89.4124 24.2013C88.8969 24.5812 88.3003 24.907 87.7034 25.0969C87.0794 25.314 86.5093 25.4223 86.021 25.4223C84.6101 25.4223 83.4979 25.0156 82.7111 24.1203C81.8971 23.252 81.4902 22.0584 81.4902 20.5661C81.4902 19.0196 81.897 17.7987 82.7381 16.9033C83.5792 16.008 84.6919 15.5467 86.0485 15.5467C87.188 15.5467 88.3543 15.9264 89.4124 16.686L89.5481 16.7947V13.3486L89.5211 13.3216C89.0598 13.1317 88.5445 12.9146 87.8391 12.779C87.1879 12.6433 86.5094 12.5622 85.8583 12.5622ZM124.087 12.5622C122.405 12.5622 121.021 12.9689 119.936 13.8642C118.85 14.7053 118.335 15.8452 118.335 17.1746C118.335 17.8801 118.444 18.5038 118.688 19.0193C118.932 19.5348 119.285 20.0235 119.773 20.4304C120.261 20.8103 120.967 21.2444 121.944 21.6514C122.757 22.0041 123.382 22.2753 123.762 22.4924C124.142 22.7094 124.386 22.9537 124.576 23.1436C124.711 23.3607 124.792 23.6319 124.792 23.9846C124.792 24.9885 124.033 25.4769 122.486 25.4769C121.889 25.4769 121.265 25.3681 120.533 25.1239C119.8 24.8797 119.122 24.5272 118.552 24.1203L118.416 24.0116V27.4572L118.498 27.4847C119.014 27.7289 119.638 27.8915 120.397 28.0814C121.157 28.2171 121.835 28.3257 122.432 28.3257C124.25 28.3257 125.742 27.9185 126.8 27.0232C127.886 26.1549 128.455 25.0426 128.455 23.6047C128.455 22.6008 128.184 21.7054 127.587 21.0271C126.8 20.376 125.823 19.6976 124.412 19.1549C123.3 18.6937 122.595 18.3411 122.269 18.0426C121.998 17.7713 121.862 17.3917 121.862 16.9033C121.862 16.4963 122.025 16.0894 122.432 15.818C122.839 15.5467 123.3 15.4111 123.978 15.4111C124.575 15.4111 125.2 15.5196 125.797 15.6824C126.393 15.8452 126.936 16.0891 127.37 16.4147L127.506 16.5234V13.213L127.424 13.1859C127.018 13.0232 126.475 12.8606 125.824 12.7249C125.172 12.6164 124.575 12.5622 124.087 12.5622ZM109.083 12.5893C106.614 12.5893 104.633 13.3218 103.25 14.7598C101.839 16.1978 101.161 18.1781 101.161 20.6742C101.161 23.0075 101.866 24.9071 103.223 26.2908C104.579 27.6474 106.424 28.3527 108.731 28.3527C111.145 28.3527 113.072 27.6203 114.455 26.1551C115.866 24.69 116.544 22.7365 116.544 20.3218C116.544 17.9342 115.893 16.0349 114.564 14.6512C113.289 13.2674 111.416 12.5893 109.083 12.5893ZM137.762 12.5893C135.293 12.5893 133.312 13.3218 131.928 14.7598C130.545 16.1978 129.839 18.1781 129.839 20.6742C129.839 23.0075 130.545 24.9071 131.901 26.2908C133.258 27.6474 135.102 28.3527 137.409 28.3527C139.823 28.3527 141.75 27.6203 143.133 26.1551C144.544 24.69 145.223 22.7365 145.223 20.3218C145.223 17.9342 144.571 16.0349 143.242 14.6512C141.967 13.2674 140.095 12.5893 137.762 12.5893ZM99.4787 12.6703C98.6105 12.6703 97.7964 12.9421 97.0909 13.5118C96.494 14.0002 96.0871 14.7056 95.7343 15.5467H95.7073V12.9146H92.1802V27.9457H95.7073V20.2672C95.7073 18.9649 95.9784 17.8798 96.5753 17.093C97.1722 16.2791 97.932 15.8721 98.8545 15.8721C99.1801 15.8721 99.5058 15.9535 99.9128 16.0078C100.293 16.1163 100.564 16.225 100.754 16.3607L100.889 16.4688V12.9416L100.808 12.9146C100.564 12.7518 100.076 12.6703 99.4787 12.6703ZM71.8043 12.9146V27.9457H75.3315V12.9146H71.8043ZM108.92 15.4921C110.168 15.4921 111.145 15.899 111.851 16.7401C112.556 17.5812 112.936 18.8021 112.936 20.4029C112.882 22.0308 112.583 23.3062 111.905 24.1473C111.254 24.9884 110.223 25.3952 108.947 25.3952C107.672 25.3952 106.641 24.9886 105.909 24.0932C105.176 23.2522 104.823 22.031 104.823 20.4845C104.823 18.8837 105.203 17.6629 105.909 16.7947C106.641 15.9265 107.645 15.4921 108.92 15.4921ZM137.571 15.4921C138.792 15.4921 139.796 15.899 140.502 16.7401C141.207 17.5812 141.587 18.8021 141.587 20.4029C141.587 22.0308 141.234 23.3062 140.556 24.1473C139.905 24.9884 138.874 25.3952 137.599 25.3952C136.297 25.3952 135.292 24.9886 134.56 24.0932C133.827 23.2522 133.475 22.031 133.475 20.4845C133.475 18.8837 133.854 17.6629 134.56 16.7947C135.292 15.9265 136.296 15.4921 137.571 15.4921ZM0.230469 18.368V35H16.8625V18.368H0.230469ZM18.5985 18.368V35H35.2305V18.368H18.5985Z" fill="#2E3A65"/>
</g>
<defs>
<clipPath id="clip0_2189_8457">
<rect width="163.849" height="35" fill="white" transform="translate(0.230469)"/>
</clipPath>
</defs>
</svg>
