<svg width="28" height="33" viewBox="0 0 28 33" fill="none" xmlns="http://www.w3.org/2000/svg">
<path d="M13.1861 1.67529C12.8206 2.61945 12.5465 3.5027 12.5465 3.65499C12.5465 4.20321 11.9678 4.23367 10.5972 3.77681C9.80535 3.5027 9.10484 3.31996 9.04393 3.38087C8.86119 3.56362 13.8866 12.122 14.0998 12.0002C14.2825 11.9088 18.912 3.95956 19.1861 3.25905C19.247 3.13722 18.6074 3.31996 17.7546 3.65499C16.8714 3.99001 16.0795 4.26412 15.9272 4.26412C15.8054 4.26412 15.3485 3.2895 14.9526 2.13214C14.5566 0.944323 14.1302 0.00015831 14.0084 0.00015831C13.917 0.00015831 13.5211 0.761581 13.1861 1.67529Z" fill="#448F9D"/>
<path d="M4.93402 6.94437L4.56853 8.74133L2.37564 8.34539C-0.213198 7.82762 0.0609138 7.85808 0.0609138 8.22356C0.0609138 8.37585 0.700509 9.22864 1.49239 10.1119L2.89341 11.6956L1.46193 13.0053L0 14.3149H5.32996H10.6904L8.07108 9.80732C6.6396 7.34031 5.42133 5.26924 5.36041 5.23878C5.32996 5.17787 5.11676 5.93929 4.93402 6.94437Z" fill="#448F9D"/>
<path d="M20.7096 8.52813C19.6132 10.4469 18.3949 12.5484 18.0294 13.1576L17.3594 14.3149H22.6589L27.9279 14.2845L26.6487 13.1271C25.9178 12.4875 25.3391 11.8175 25.3391 11.6652C25.3391 11.5434 25.9787 10.6906 26.7401 9.80732C27.532 8.92407 28.0802 8.10173 27.9888 8.01036C27.867 7.91899 26.8924 8.01036 25.7959 8.22356C24.6995 8.43676 23.6944 8.49767 23.5726 8.4063C23.4508 8.28447 23.2071 7.46214 23.0548 6.60934L22.7502 5.02559L20.7096 8.52813Z" fill="#448F9D"/>
<path d="M1.55098 19.4927L2.89109 20.6501L1.49007 22.2643C0.698189 23.178 0.0585938 24.0308 0.0585938 24.1831C0.0585938 24.3353 0.576361 24.3658 1.21596 24.244C1.82509 24.1526 2.83017 23.9699 3.46977 23.8785L4.56621 23.6957L4.9317 25.4318C5.1449 26.376 5.38855 27.046 5.51038 26.9242C5.81495 26.5891 10.4139 18.579 10.4139 18.3962C10.4139 18.3353 8.12967 18.2744 5.32764 18.2744L0.210878 18.3049L1.55098 19.4927Z" fill="#448F9D"/>
<path d="M19.7678 22.2951C22.7831 27.5642 22.7831 27.5642 23.0572 25.5845C23.179 24.6708 23.4531 23.9398 23.6968 23.8484C23.9404 23.7571 24.976 23.8484 25.9811 24.0312C27.0166 24.2444 27.8998 24.3357 27.9912 24.2444C28.0826 24.153 27.5039 23.3002 26.6816 22.356L25.2196 20.62L26.5597 19.4322L27.9303 18.2748H22.6917H17.4531L19.7678 22.2951Z" fill="#448F9D"/>
<path d="M11.3625 24.7008C9.99194 27.0765 8.92595 29.0562 8.98686 29.1171C9.04777 29.2084 9.68737 29.0257 10.4183 28.782C11.1188 28.5384 11.8803 28.3252 12.063 28.3252C12.2762 28.3252 12.7026 29.178 13.0376 30.2135C13.3727 31.2491 13.7686 32.1323 13.9209 32.1932C14.1036 32.2541 14.5605 31.4013 14.926 30.3049C15.3219 29.2084 15.8397 28.3252 16.0529 28.3252C16.2661 28.3252 17.0275 28.5384 17.728 28.782C18.459 29.0257 19.0681 29.2084 19.0986 29.178C19.2204 29.0257 14.2254 20.4369 14.0427 20.4064C13.9209 20.4064 12.7331 22.3556 11.3625 24.7008Z" fill="#448F9D"/>
</svg>
