<svg width="60" height="61" viewBox="0 0 60 61" fill="none" xmlns="http://www.w3.org/2000/svg">
<path d="M47.1605 24.0202C53.0589 24.0202 57.8405 19.2386 57.8405 13.3402C57.8405 7.44175 53.0589 2.66016 47.1605 2.66016C41.2621 2.66016 36.4805 7.44175 36.4805 13.3402C36.4805 19.2386 41.2621 24.0202 47.1605 24.0202Z" stroke="#80CEC8" stroke-width="2" stroke-miterlimit="10" stroke-linecap="round" stroke-linejoin="round"/>
<path d="M50.161 10.5803C50.161 9.62027 49.321 8.78027 48.361 8.78027H46.321C45.121 8.78027 44.041 9.74027 44.041 11.0603C44.041 12.2603 45.001 13.3403 46.321 13.3403H48.001C49.201 13.3403 50.281 14.3003 50.281 15.6203C50.281 16.8203 49.321 17.9003 48.001 17.9003H45.961C45.001 17.9003 44.161 17.0603 44.161 16.1003" stroke="#80CEC8" stroke-width="2" stroke-miterlimit="10" stroke-linecap="round" stroke-linejoin="round"/>
<path d="M47.1602 8.78012V6.62012" stroke="#80CEC8" stroke-width="2" stroke-miterlimit="10" stroke-linecap="round" stroke-linejoin="round"/>
<path d="M47.1602 19.9403V17.7803" stroke="#80CEC8" stroke-width="2" stroke-miterlimit="10" stroke-linecap="round" stroke-linejoin="round"/>
<path d="M29.4002 49.8203V55.2203C29.4002 57.0203 27.9602 58.3404 26.2802 58.3404H5.28016C3.48016 58.3404 2.16016 56.9003 2.16016 55.2203V6.98035C2.16016 5.18035 3.60016 3.86035 5.28016 3.86035H26.2802C27.9602 3.86035 29.4002 5.30035 29.4002 6.98035V27.6204" stroke="#2E7382" stroke-width="2" stroke-miterlimit="10" stroke-linecap="round" stroke-linejoin="round"/>
<path d="M17.521 54.0205H14.041" stroke="#2E7382" stroke-width="2" stroke-miterlimit="10" stroke-linecap="round" stroke-linejoin="round"/>
<path d="M17.521 8.18066H14.041" stroke="#2E7382" stroke-width="2" stroke-miterlimit="10" stroke-linecap="round" stroke-linejoin="round"/>
<path d="M54.3607 49.82H19.3207C17.2807 49.82 15.7207 48.26 15.7207 46.22V31.1C15.7207 29.06 17.2807 27.5 19.3207 27.5H54.2407C56.2807 27.5 57.8407 29.06 57.8407 31.1V46.22C57.9607 48.26 56.2807 49.82 54.3607 49.82Z" stroke="#80CEC8" stroke-width="2" stroke-miterlimit="10" stroke-linecap="round" stroke-linejoin="round"/>
<path d="M15.7207 32.1797H57.9607" stroke="#80CEC8" stroke-width="2" stroke-miterlimit="10" stroke-linecap="round" stroke-linejoin="round"/>
<path d="M26.64 43.3401C26.04 43.9401 25.2 44.3001 24.36 44.3001C22.56 44.3001 21 42.8601 21 40.9401C21 39.1401 22.44 37.5801 24.36 37.5801C25.2 37.5801 26.04 37.9401 26.64 38.5401" stroke="#80CEC8" stroke-width="2" stroke-miterlimit="10" stroke-linecap="round" stroke-linejoin="round"/>
<path d="M28.9205 44.4202C30.7762 44.4202 32.2805 42.9159 32.2805 41.0602C32.2805 39.2045 30.7762 37.7002 28.9205 37.7002C27.0649 37.7002 25.5605 39.2045 25.5605 41.0602C25.5605 42.9159 27.0649 44.4202 28.9205 44.4202Z" stroke="#80CEC8" stroke-width="2" stroke-miterlimit="10" stroke-linecap="round" stroke-linejoin="round"/>
<path d="M37.5605 36.9805H52.5605" stroke="#80CEC8" stroke-width="2" stroke-miterlimit="10" stroke-linecap="round" stroke-linejoin="round"/>
<path d="M44.8809 41.0596H52.6809" stroke="#80CEC8" stroke-width="2" stroke-miterlimit="10" stroke-linecap="round" stroke-linejoin="round"/>
<path d="M37.5605 41.0596H41.7605" stroke="#80CEC8" stroke-width="2" stroke-miterlimit="10" stroke-linecap="round" stroke-linejoin="round"/>
<path d="M37.5605 45.0195H45.1205" stroke="#80CEC8" stroke-width="2" stroke-miterlimit="10" stroke-linecap="round" stroke-linejoin="round"/>
</svg>