<svg width="34" height="28" viewBox="0 0 34 28" fill="none" xmlns="http://www.w3.org/2000/svg">
<path d="M2.00001 27.5C1.57501 27.5 1.21901 27.356 0.932005 27.068C0.645005 26.78 0.501005 26.424 0.500005 26C0.499005 25.576 0.643005 25.22 0.932005 24.932C1.22101 24.644 1.57701 24.5 2.00001 24.5H32C32.425 24.5 32.7815 24.644 33.0695 24.932C33.3575 25.22 33.501 25.576 33.5 26C33.499 26.424 33.355 26.7805 33.068 27.0695C32.781 27.3585 32.425 27.502 32 27.5H2.00001ZM5.00001 23C4.17501 23 3.46901 22.7065 2.88201 22.1195C2.29501 21.5325 2.00101 20.826 2.00001 20V3.5C2.00001 2.675 2.29401 1.969 2.88201 1.382C3.47001 0.795 4.17601 0.501 5.00001 0.5H29C29.825 0.5 30.5315 0.794 31.1195 1.382C31.7075 1.97 32.001 2.676 32 3.5V20C32 20.825 31.7065 21.5315 31.1195 22.1195C30.5325 22.7075 29.826 23.001 29 23H5.00001Z" fill="url(#paint0_linear_1306_21539)"/>
<path d="M2.00001 27.5C1.57501 27.5 1.21901 27.356 0.932005 27.068C0.645005 26.78 0.501005 26.424 0.500005 26C0.499005 25.576 0.643005 25.22 0.932005 24.932C1.22101 24.644 1.57701 24.5 2.00001 24.5H32C32.425 24.5 32.7815 24.644 33.0695 24.932C33.3575 25.22 33.501 25.576 33.5 26C33.499 26.424 33.355 26.7805 33.068 27.0695C32.781 27.3585 32.425 27.502 32 27.5H2.00001ZM5.00001 23C4.17501 23 3.46901 22.7065 2.88201 22.1195C2.29501 21.5325 2.00101 20.826 2.00001 20V3.5C2.00001 2.675 2.29401 1.969 2.88201 1.382C3.47001 0.795 4.17601 0.501 5.00001 0.5H29C29.825 0.5 30.5315 0.794 31.1195 1.382C31.7075 1.97 32.001 2.676 32 3.5V20C32 20.825 31.7065 21.5315 31.1195 22.1195C30.5325 22.7075 29.826 23.001 29 23H5.00001Z" fill="url(#paint1_linear_1306_21539)"/>
<defs>
<linearGradient id="paint0_linear_1306_21539" x1="15.0521" y1="16.3143" x2="46.9404" y2="25.3388" gradientUnits="userSpaceOnUse">
<stop stop-color="#6DE8FF"/>
<stop offset="1" stop-color="#276174"/>
</linearGradient>
<linearGradient id="paint1_linear_1306_21539" x1="13.1958" y1="11.4157" x2="38.7594" y2="20.8358" gradientUnits="userSpaceOnUse">
<stop stop-color="#479EBE"/>
<stop offset="1" stop-color="#24586C"/>
</linearGradient>
</defs>
</svg>
