<svg width="60" height="61" viewBox="0 0 60 61" fill="none" xmlns="http://www.w3.org/2000/svg">
<g clip-path="url(#clip0_2189_8691)">
<path d="M53 4.5C53 2.294 51.206 0.5 49 0.5H11C8.794 0.5 7 2.294 7 4.5V56.5C7 58.706 8.794 60.5 11 60.5H36C37.378 60.5 38.628 59.939 39.534 59.034L51.535 47.035C52.44 46.128 53 44.878 53 43.5V4.5ZM36 58.5H11C9.897 58.5 9 57.603 9 56.5V4.5C9 3.397 9.897 2.5 11 2.5H49C50.103 2.5 51 3.397 51 4.5V43.5C51 45.154 49.654 46.5 48 46.5H42C40.346 46.5 39 47.846 39 49.5V55.5C39 57.154 37.654 58.5 36 58.5ZM47.242 48.5L41 54.742V49.5C41 48.948 41.448 48.5 42 48.5H47.242Z" fill="#80CEC8"/>
<path d="M40 23.5C44.963 23.5 49 19.463 49 14.5C49 9.537 44.963 5.5 40 5.5C35.037 5.5 31 9.537 31 14.5C31 19.463 35.037 23.5 40 23.5ZM40 21.5C38.43 21.5 36.985 20.974 35.816 20.098L40.414 15.5H46.92C46.432 18.886 43.519 21.5 40 21.5ZM46.92 13.5H41V7.58C44.059 8.021 46.479 10.441 46.92 13.5ZM39 7.58V14.086L34.402 18.684C33.526 17.515 33 16.069 33 14.5C33 10.981 35.614 8.068 39 7.58Z" fill="#448F9D"/>
<path d="M14 34.5H16C17.103 34.5 18 33.603 18 32.5V16.5C18 15.397 17.103 14.5 16 14.5H14C12.897 14.5 12 15.397 12 16.5V32.5C12 33.603 12.897 34.5 14 34.5ZM14 16.5H16L16.002 32.5H14V16.5Z" fill="#448F9D"/>
<path d="M22 34.5H24C25.103 34.5 26 33.603 26 32.5V21.5C26 20.397 25.103 19.5 24 19.5H22C20.897 19.5 20 20.397 20 21.5V32.5C20 33.603 20.897 34.5 22 34.5ZM22 21.5H24L24.002 32.5H22V21.5Z" fill="#448F9D"/>
<path d="M30 34.5H32C33.103 34.5 34 33.603 34 32.5V25.5C34 24.397 33.103 23.5 32 23.5H30C28.897 23.5 28 24.397 28 25.5V32.5C28 33.603 28.897 34.5 30 34.5ZM30 25.5H32L32.002 32.5H30V25.5Z" fill="#448F9D"/>
<path d="M38 26.5C36.897 26.5 36 27.397 36 28.5V32.5C36 33.603 36.897 34.5 38 34.5H40C41.103 34.5 42 33.603 42 32.5V28.5C42 27.397 41.103 26.5 40 26.5H38ZM38 32.5V28.5H40L40.002 32.5H38Z" fill="#448F9D"/>
<path d="M13 39.5H47C47.553 39.5 48 39.053 48 38.5C48 37.947 47.553 37.5 47 37.5H13C12.447 37.5 12 37.947 12 38.5C12 39.053 12.447 39.5 13 39.5Z" fill="#448F9D"/>
<path d="M38 43.5H13C12.447 43.5 12 43.947 12 44.5C12 45.053 12.447 45.5 13 45.5H38C38.553 45.5 39 45.053 39 44.5C39 43.947 38.553 43.5 38 43.5Z" fill="#448F9D"/>
<path d="M34 49.5H13C12.447 49.5 12 49.947 12 50.5C12 51.053 12.447 51.5 13 51.5H34C34.553 51.5 35 51.053 35 50.5C35 49.947 34.553 49.5 34 49.5Z" fill="#448F9D"/>
</g>
<defs>
<clipPath id="clip0_2189_8691">
<rect width="60" height="60" fill="white" transform="translate(0 0.5)"/>
</clipPath>
</defs>
</svg>