<svg width="169" height="242" viewBox="0 0 169 242" fill="none" xmlns="http://www.w3.org/2000/svg">
<g opacity="0.15">
<path d="M25.108 78.0339L66.2118 81.981L57.248 93.858L40.2657 91.743L34.2162 100.021L49.3419 102.764L39.5312 114.851L-1.69015 110.531L25.108 78.0339Z" fill="#318C99"/>
<path d="M60.242 96.8815L67.9416 115.468L60.1548 125.029L52.2625 105.977L43.1646 116.797L57.2734 150.855L84.4673 118.899L69.984 83.9361L60.242 96.8815Z" fill="#318C99"/>
<path d="M39.195 119.182L53.2965 153.223L11.5219 148.693L-2.38046 115.133L39.195 119.182Z" fill="#318C99"/>
<path d="M25.744 65.1556L70.0448 68.6328L88.3281 49.6734L75.0969 47.7404L80.9643 40.6301L100.127 41.7453L107.587 59.7537L101.75 65.8495L94.8013 55.7981L79.1279 75.2209L95.2141 114.053L104.031 115.425L99.5522 104.613L108.819 105.306L112.943 116.366L129.69 118.13L119.853 94.1064L99.5803 90.5704L121.583 61.2262L110.718 30.5707L77.4967 27.9089L51.1709 55.193L41.1791 38.5808L13.298 35.1111L19.1904 49.3353L31.2507 50.8818L34.0161 57.5574L22.7476 57.9223L25.744 65.1556Z" fill="#0D1D43"/>
<path d="M6.10034 151.155L-10.2406 112.757L-35.8213 107.938L-31.7675 119.89L-40.9248 118.899L-48.3529 102.499L-35.012 86.6117L-26.8055 88.1272L-33.0221 99.2904L-8.16372 101.708L20.6021 67.4512L17.9775 59.441L9.96757 68.9797L6.51842 60.9661L14.9131 51.5873L9.15086 36.8289L-8.6956 57.9272L-3.01475 76.5494L-39.8289 74.2788L-63.3473 99.8112L-51.143 128.634L-14.3245 135.582L-25.2583 152.801L-16.1566 177.659L-5.61973 165.111L-9.51337 154.334L-4.56856 148.444L0.741112 157.537L6.10034 151.155Z" fill="#0D1D43"/>
<path d="M94.3005 121.895L66.2013 156.236L73.1537 179.893L82.3599 170.053L85.5244 178.122L73.723 193.158L53.1456 190.839L50.8871 183.266L63.9399 182.3L55.0967 160.544L10.7245 155.542L4.51466 162.062L16.8694 163.454L11.0225 170.653L-1.35762 168.857L-12.3878 181.63L14.9983 184.817L29.6242 170.007L43.9284 201.514L77.9253 206.951L99.0453 181.224L89.049 147.167L109.783 146.782L128.631 125.765L112.378 123.933L104.183 133.002L96.5546 132.143L102.566 122.826L94.3005 121.895Z" fill="#0D1D43"/>
</g>
</svg>