<svg width="342" height="248" viewBox="0 0 342 248" fill="none" xmlns="http://www.w3.org/2000/svg">
<path d="M1 223C6.99988 281 175.407 218.816 237.5 203M237.5 203C273 190.575 270 166.5 263.5 151C257 135.5 235.5 134 227.5 137C219.5 140 199.5 156 206 175C212.5 194 222.5 199.5 237.5 203ZM237.5 203C315.019 172.539 382.5 169 424.5 158C466.5 147 592.5 113.5 592.5 113.5M592.5 113.5C541 157 563 180 567 191.5C571 203 605 223.5 638.5 207.5C672 191.5 673.5 183 658 150C642.5 117 592.5 113.5 592.5 113.5ZM592.5 113.5C592.5 113.5 722 16.5 709.5 1" stroke="#F9B69E" stroke-dasharray="6 6"/>
</svg>