<svg width="60" height="61" viewBox="0 0 60 61" fill="none" xmlns="http://www.w3.org/2000/svg">
<rect x="0.5" y="1" width="59" height="59" rx="29.5" fill="url(#paint0_linear_1035_4677)"/>
<rect x="0.5" y="1" width="59" height="59" rx="29.5" fill="url(#paint1_linear_1035_4677)"/>
<rect x="0.5" y="1" width="59" height="59" rx="29.5" stroke="url(#paint2_linear_1035_4677)"/>
<rect x="0.5" y="1" width="59" height="59" rx="29.5" stroke="url(#paint3_linear_1035_4677)"/>
<path d="M15 24.939C15.0632 24.7051 15.0953 24.4652 15.1883 24.2372C15.6466 23.1094 16.5286 22.3548 17.839 21.9825C17.9561 21.9487 18.017 21.9168 18.0411 21.7924C18.2857 20.5123 19.402 19.5198 20.8582 19.2799C21.375 19.1943 21.8918 19.2162 22.3994 19.3347C22.4971 19.3576 22.5396 19.3347 22.5924 19.269C23.1942 18.5174 24.0222 18.0764 25.0661 17.955C25.7495 17.8754 26.4075 17.9739 27.0277 18.2387C27.1127 18.2755 27.1632 18.2705 27.2344 18.2188C27.9786 17.6802 28.8411 17.4443 29.8035 17.511C30.6338 17.5688 31.3493 17.8644 31.9465 18.3671C32.0246 18.4328 32.0705 18.4298 32.1566 18.385C34.0768 17.3766 36.5368 18.1302 37.2971 19.9618C37.3442 20.0743 37.3993 20.1071 37.5348 20.1071C39.192 20.1032 40.6563 21.1742 40.9388 22.5918C40.956 22.6794 40.9882 22.7241 41.1053 22.746C42.5478 23.0148 43.4895 23.7594 43.8857 24.9947C44.097 25.6547 44.0178 26.3057 43.7112 26.9349C43.6721 27.0145 43.6859 27.0483 43.764 27.1001C44.6609 27.6914 45.064 28.4828 44.9813 29.4523C44.94 29.9361 44.7356 30.3761 44.3956 30.7643C44.3336 30.835 44.3175 30.8818 44.391 30.9624C45.5062 32.1788 45.0284 33.9477 43.4045 34.6107C43.2621 34.6684 43.2483 34.7122 43.3172 34.8327C43.8869 35.8321 43.0405 37.0018 41.7519 37.0018C40.8871 37.0018 40.0224 37.0028 39.1587 37.0008C39.0565 37.0008 39.0129 37.0028 39.0381 37.1182C39.2058 37.8817 38.7039 38.6452 37.8759 38.905C37.0008 39.1798 36.051 38.8841 35.6066 38.1863C35.1392 37.4527 34.6247 36.7489 33.9563 36.1387C33.3533 35.5892 32.6723 35.1383 31.8087 34.9382C31.5273 34.8735 31.2425 34.8417 30.9508 34.8417C28.9513 34.8417 26.953 34.8606 24.9536 34.8367C23.3481 34.8178 22.0905 34.2036 21.2028 33.0389C20.8134 32.5292 20.5918 31.9648 20.5206 31.3576C20.5079 31.2451 20.4517 31.264 20.3667 31.282C19.2435 31.5119 18.2076 31.3397 17.313 30.7066C16.2736 29.971 15.8487 29.0074 16.0439 27.8497C16.0623 27.7402 16.0554 27.6546 15.9613 27.56C15.4341 27.0344 15.1183 26.4232 15.0253 25.7294C15.023 25.7095 15.0092 25.6896 15 25.6707C15 25.4278 15 25.1859 15 24.943V24.939ZM16.5148 26.7308C16.6239 26.6024 16.7273 26.4799 16.8329 26.3605C16.9305 26.249 17.058 26.1743 17.2222 26.1654C17.4347 26.1544 17.6024 26.2271 17.7069 26.3914C17.8125 26.5556 17.7838 26.7477 17.6299 26.909C17.1545 27.4057 16.9374 27.9681 17.0328 28.6172C17.2326 29.9749 18.8898 30.8798 20.4379 30.3313C20.5298 30.2985 20.5631 30.2517 20.5814 30.172C20.6676 29.7878 20.8169 29.4235 21.0293 29.078C21.1557 28.873 21.3831 28.7814 21.6105 28.8242C21.8941 28.878 22.1273 29.1766 21.9251 29.5031C21.5278 30.1422 21.4026 30.826 21.5783 31.5378C21.9355 32.9852 23.34 33.9607 25.0478 33.9607C30.7601 33.9607 36.4725 33.9607 42.1849 33.9607C42.2951 33.9607 42.4031 33.9537 42.5122 33.9388C43.4252 33.8154 44.0454 33.1156 43.9719 32.2873C43.9053 31.5507 43.1197 30.9385 42.2423 30.9405C41.8381 30.9405 41.4326 30.9415 41.0284 30.9405C40.7045 30.9405 40.4909 30.7623 40.4921 30.4956C40.4921 30.2377 40.708 30.0615 41.0238 30.0605C41.3936 30.0596 41.7634 30.0645 42.1332 30.0596C42.5742 30.0536 42.9968 30.1243 43.3965 30.2845C43.4769 30.3164 43.5148 30.3054 43.5653 30.2467C43.9282 29.8286 44.0465 29.3627 43.9409 28.8501C43.7881 28.1125 42.9727 27.5072 42.1091 27.4824C41.6279 27.4684 41.1949 27.5769 40.8022 27.8178C40.561 27.9651 40.2406 27.9233 40.0821 27.7302C39.9144 27.5272 39.9603 27.2683 40.2004 27.1101C40.3026 27.0424 40.414 26.9816 40.5277 26.9289C41.1742 26.6283 41.8599 26.5297 42.5822 26.6551C42.6994 26.676 42.7545 26.6551 42.7982 26.5536C42.9555 26.1813 43.0255 25.804 42.9532 25.4089C42.7752 24.4323 41.8599 23.6778 40.716 23.5872C40.1464 23.5414 39.617 23.6579 39.1346 23.9276C38.9911 24.0083 38.8383 24.0272 38.6775 23.9844C38.4892 23.9336 38.3697 23.8211 38.3376 23.6539C38.302 23.4687 38.3686 23.3095 38.5546 23.202C38.8808 23.0118 39.238 22.8834 39.6158 22.7948C39.9489 22.7162 39.95 22.7182 39.8352 22.4245C39.4585 21.456 38.271 20.8388 37.1191 21.005C36.639 21.0747 36.2164 21.2429 35.8477 21.5167C35.6502 21.663 35.4079 21.6809 35.2127 21.5674C34.9359 21.4072 34.9026 21.0747 35.1541 20.8736C35.4607 20.6277 35.8156 20.4426 36.2072 20.3152C36.329 20.2754 36.3381 20.2296 36.2899 20.136C36.1291 19.8274 35.9086 19.5586 35.6123 19.3377C34.8015 18.7354 33.6611 18.6349 32.7286 19.1157C32.647 19.1575 32.631 19.1903 32.6734 19.266C32.8032 19.4959 32.8871 19.7388 32.9468 19.9897C33.0076 20.2485 32.8331 20.4894 32.5448 20.5382C32.2749 20.584 32.0039 20.4217 31.9511 20.1738C31.9063 19.9688 31.8316 19.7737 31.7271 19.5855C30.9657 18.2098 28.771 17.959 27.6237 19.1167C27.3286 19.4143 27.1322 19.7528 27.0461 20.141C26.9921 20.3829 26.8129 20.5282 26.5717 20.5431C26.2146 20.565 25.9642 20.2863 26.0492 19.9558C26.1284 19.6462 26.2513 19.3506 26.4305 19.0739C26.4626 19.0241 26.4891 18.9873 26.3995 18.9604C26.0722 18.8618 25.7403 18.7961 25.39 18.8121C23.8637 18.8798 22.8244 20.0683 23.0299 21.2628C23.0449 21.3514 23.0518 21.444 23.0196 21.5336C22.9495 21.7297 22.7245 21.8611 22.4913 21.8432C22.2329 21.8223 22.0526 21.6451 22.0182 21.3952C21.9642 21.013 21.9826 20.6357 22.0882 20.2624C22.11 20.1848 22.0733 20.1679 22.0113 20.1599C21.8436 20.139 21.6748 20.1032 21.5071 20.1071C20.3024 20.131 19.4112 20.788 19.1068 21.668C19.0506 21.8302 19.0517 21.8302 19.2412 21.8432C19.2665 21.8452 19.2906 21.8442 19.3159 21.8462C19.8028 21.876 20.2702 21.9806 20.7101 22.1617C21.042 22.2981 21.1074 22.6664 20.8444 22.8794C20.6722 23.0188 20.4701 23.0327 20.261 22.9501C19.8602 22.7918 19.4353 22.7013 19 22.7092C18.1272 22.7241 17.3842 23.0108 16.7835 23.5683C15.8763 24.4094 15.7534 25.7821 16.5148 26.7318V26.7308ZM39.9856 36.1218C40.5644 36.1218 41.1444 36.1218 41.7232 36.1218C42.1516 36.1218 42.4754 35.851 42.4777 35.4957C42.4789 35.1224 42.1585 34.8426 41.7209 34.8417C40.5667 34.8397 39.4137 34.8397 38.2595 34.8417C37.8334 34.8417 37.4981 35.1273 37.4958 35.4847C37.4935 35.8381 37.8323 36.1208 38.2618 36.1218C38.836 36.1228 39.4102 36.1218 39.9845 36.1218H39.9856ZM33.8196 34.8456C34.4168 35.2558 34.9118 35.7057 35.3505 36.2034C35.7777 36.6892 36.1463 37.2078 36.4874 37.7414C36.6758 38.035 37.0467 38.1804 37.3982 38.1117C37.7611 38.041 38.0241 37.7742 38.0562 37.4378C38.07 37.2865 38.0137 37.1481 37.9287 37.0187C37.8748 36.9371 37.7645 36.95 37.6795 36.9251C36.7608 36.6534 36.2715 35.8013 36.5805 35.0029C36.6 34.9521 36.6413 34.9054 36.631 34.8466H33.8196V34.8456Z" fill="white"/>
<path d="M43.222 43.4989C42.9578 43.4222 42.7017 43.3386 42.487 43.1733C42.031 42.822 41.8633 42.2366 42.0861 41.727C42.3009 41.2352 42.859 40.9147 43.462 40.8958C44.1223 40.8749 44.8631 41.289 44.9848 42.0146C45.0985 42.6915 44.6093 43.3008 43.8283 43.473C43.8054 43.478 43.7847 43.4909 43.7629 43.4998H43.2231L43.222 43.4989ZM43.9776 42.2028C43.9799 41.9679 43.7721 41.7807 43.5045 41.7777C43.2243 41.7738 43.0083 41.9539 43.006 42.1938C43.0038 42.4298 43.2105 42.6159 43.4781 42.6199C43.7583 42.6239 43.9742 42.4437 43.9765 42.2038L43.9776 42.2028Z" fill="white"/>
<path d="M39.4999 39.1597C40.5955 39.1597 41.5131 39.9401 41.5028 40.8947C41.4924 41.931 40.5427 42.6447 39.4792 42.6378C38.3147 42.6308 37.4614 41.7767 37.4889 40.8569C37.5153 39.9292 38.4054 39.1587 39.4999 39.1587V39.1597ZM39.4964 40.0397C38.9509 40.0387 38.5088 40.4219 38.5076 40.8967C38.5076 41.3726 38.9463 41.7578 39.4907 41.7588C40.0304 41.7588 40.4864 41.3686 40.4898 40.9017C40.4933 40.4388 40.035 40.0407 39.4953 40.0397H39.4964Z" fill="white"/>
<path d="M31.2143 32.2418C29.1598 32.2418 27.1063 32.2358 25.0518 32.2457C24.4523 32.2487 23.9849 31.8286 23.9883 31.324C24.0032 28.7597 23.9998 26.1954 23.9906 23.6312C23.9894 23.3097 24.2398 23.1315 24.4982 23.1275C24.7968 23.1235 25.0093 23.3365 25.0093 23.6332C25.0093 26.1497 25.0093 28.6671 25.0093 31.1836C25.0093 31.3926 24.9794 31.3588 25.216 31.3618C25.4055 31.3638 25.5961 31.3638 25.7856 31.3618C26.0027 31.3598 25.9797 31.3907 25.9797 31.1985C25.9797 30.1284 25.9797 29.0583 25.9797 27.9882C25.9797 27.395 26.4081 27.0207 27.0914 27.0246C27.4405 27.0266 27.7908 26.9988 28.1388 27.0426C28.6475 27.1063 29.0001 27.4656 29.0001 27.9156C29.0001 29.0155 29.0024 30.1165 28.9967 31.2165C28.9967 31.3379 29.0357 31.3688 29.1701 31.3638C29.409 31.3548 29.6501 31.3588 29.8902 31.3618C29.966 31.3628 30.0027 31.3459 29.9935 31.2752C29.9889 31.2413 29.9935 31.2055 29.9935 31.1717C29.9935 29.3609 29.9935 27.5502 29.9935 25.7395C29.9935 25.2388 30.4276 24.8635 31.0076 24.8626C31.3223 24.8626 31.6381 24.8695 31.9516 24.8606C32.5259 24.8436 33.0025 25.2627 32.9979 25.7694C32.9829 27.5841 32.9933 29.3998 32.9887 31.2145C32.9887 31.3319 33.0197 31.3707 33.1586 31.3638C33.3826 31.3528 33.6088 31.3538 33.8328 31.3638C33.9637 31.3698 33.9855 31.3289 33.9855 31.2254C33.9809 29.9861 33.9901 28.7478 33.9798 27.5084C33.9752 26.9639 34.4989 26.5687 35.0237 26.5986C35.3327 26.6165 35.6427 26.6016 35.9528 26.6016C36.5684 26.6016 37.0002 26.9679 37.0025 27.5035C37.0059 28.6293 37.0025 29.7561 37.0025 30.882C37.0025 31.0124 37.0048 31.1418 37.0002 31.2722C36.9979 31.3389 37.0232 31.3648 37.1024 31.3618C37.2218 31.3568 37.3424 31.3598 37.4619 31.3608C37.7674 31.3628 37.9948 31.5509 37.9959 31.7998C37.9959 32.0496 37.7697 32.2398 37.4642 32.2398C35.8896 32.2398 34.3151 32.2398 32.7418 32.2398C32.2318 32.2398 31.7219 32.2398 31.212 32.2398L31.2143 32.2418ZM31.0076 28.5377C31.0076 29.4376 31.0088 30.3385 31.0053 31.2384C31.0053 31.3299 31.0237 31.3688 31.1431 31.3648C31.382 31.3558 31.622 31.3578 31.862 31.3628C31.9539 31.3648 31.9838 31.3399 31.9815 31.2603C31.9757 31.0612 31.9792 30.8621 31.9792 30.663C31.9792 29.0663 31.9792 27.4686 31.9815 25.8719C31.9815 25.7754 31.9597 25.7346 31.8356 25.7395C31.6117 25.7485 31.3866 25.7485 31.1615 25.7395C31.0375 25.7346 31.003 25.7664 31.0042 25.8749C31.0099 26.7619 31.0076 27.6498 31.0076 28.5367V28.5377ZM34.9996 29.4227C34.9996 30.0289 35.0019 30.6351 34.9973 31.2413C34.9973 31.3389 35.0272 31.3668 35.1386 31.3628C35.3832 31.3548 35.6278 31.3578 35.8724 31.3628C35.9597 31.3648 35.9942 31.3488 35.993 31.2642C35.9896 30.0349 35.9907 28.8045 35.993 27.5751C35.993 27.5015 35.9689 27.4776 35.8828 27.4796C35.6335 27.4845 35.3832 27.4875 35.134 27.4796C35.0157 27.4756 34.9962 27.5134 34.9962 27.605C35.0008 28.2112 34.9985 28.8174 34.9985 29.4237L34.9996 29.4227ZM27.986 29.6307C27.986 29.0932 27.9837 28.5566 27.9883 28.0191C27.9883 27.9345 27.9723 27.8967 27.8609 27.8996C27.6059 27.9066 27.351 27.9046 27.096 27.9006C27.019 27.8996 26.9892 27.9176 26.9926 27.9882C26.9984 28.1047 26.9938 28.2222 26.9938 28.3386C26.9938 29.3002 26.9972 30.2618 26.9903 31.2234C26.9903 31.3419 27.0282 31.3688 27.1569 31.3638C27.3866 31.3548 27.6162 31.3558 27.8459 31.3638C27.9573 31.3678 27.9895 31.3409 27.9883 31.2423C27.9826 30.7048 27.986 30.1683 27.986 29.6307Z" fill="white"/>
<path d="M35.5331 24.6543C35.7295 24.4821 35.9201 24.3108 36.1142 24.1436C36.3278 23.9584 36.6482 23.9505 36.8515 24.1227C37.0536 24.2939 37.049 24.5736 36.8343 24.7618C36.5219 25.0355 36.2061 25.3073 35.8914 25.58C35.6273 25.808 35.316 25.803 35.0749 25.5551C34.5982 25.0664 34.1274 24.5726 33.6542 24.0809C33.4337 23.8519 33.2098 23.625 32.995 23.391C32.9227 23.3124 32.8721 23.2955 32.7688 23.3592C32.4667 23.5443 32.1567 23.7176 31.8489 23.8947C31.548 24.0679 31.3263 24.049 31.0737 23.831C30.7418 23.5434 30.4053 23.2587 30.0803 22.965C29.9838 22.8784 29.9287 22.8864 29.8288 22.959C28.9996 23.5633 28.1669 24.1635 27.3332 24.7618C27.0977 24.931 26.7877 24.9071 26.6005 24.714C26.4213 24.5278 26.4512 24.2531 26.6786 24.0879C27.6628 23.3751 28.6493 22.6644 29.637 21.9546C29.8908 21.7725 30.1503 21.7874 30.3835 21.9875C30.7441 22.299 31.1058 22.6106 31.463 22.9252C31.5319 22.9859 31.579 22.9929 31.6617 22.9421C31.9901 22.745 32.3243 22.5559 32.6574 22.3647C32.9468 22.1985 33.196 22.2294 33.4199 22.4613C34.1205 23.188 34.821 23.9156 35.5308 24.6533L35.5331 24.6543Z" fill="white"/>
<defs>
<linearGradient id="paint0_linear_1035_4677" x1="26.4583" y1="35.6429" x2="85.8941" y2="49.4051" gradientUnits="userSpaceOnUse">
<stop stop-color="#6DE8FF"/>
<stop offset="1" stop-color="#276174"/>
</linearGradient>
<linearGradient id="paint1_linear_1035_4677" x1="23.0833" y1="24.7571" x2="71.4751" y2="39.347" gradientUnits="userSpaceOnUse">
<stop stop-color="#479EBE"/>
<stop offset="1" stop-color="#24586C"/>
</linearGradient>
<linearGradient id="paint2_linear_1035_4677" x1="26.4583" y1="35.6429" x2="85.8941" y2="49.4051" gradientUnits="userSpaceOnUse">
<stop stop-color="#6DE8FF"/>
<stop offset="1" stop-color="#276174"/>
</linearGradient>
<linearGradient id="paint3_linear_1035_4677" x1="23.0833" y1="24.7571" x2="71.4751" y2="39.347" gradientUnits="userSpaceOnUse">
<stop stop-color="#479EBE"/>
<stop offset="1" stop-color="#24586C"/>
</linearGradient>
</defs>
</svg>
