<svg width="60" height="60" viewBox="0 0 60 60" fill="none" xmlns="http://www.w3.org/2000/svg">
<path d="M53 4C53 1.794 51.206 0 49 0H11C8.794 0 7 1.794 7 4V56C7 58.206 8.794 60 11 60H36C37.378 60 38.628 59.439 39.534 58.534L51.535 46.535C52.44 45.628 53 44.378 53 43V4ZM36 58H11C9.897 58 9 57.103 9 56V4C9 2.897 9.897 2 11 2H49C50.103 2 51 2.897 51 4V43C51 44.654 49.654 46 48 46H42C40.346 46 39 47.346 39 49V55C39 56.654 37.654 58 36 58ZM47.242 48L41 54.242V49C41 48.448 41.448 48 42 48H47.242Z" fill="#80CEC8"/>
<path d="M40 23C44.963 23 49 18.963 49 14C49 9.037 44.963 5 40 5C35.037 5 31 9.037 31 14C31 18.963 35.037 23 40 23ZM40 21C38.43 21 36.985 20.474 35.816 19.598L40.414 15H46.92C46.432 18.386 43.519 21 40 21ZM46.92 13H41V7.08C44.059 7.521 46.479 9.941 46.92 13ZM39 7.08V13.586L34.402 18.184C33.526 17.015 33 15.569 33 14C33 10.481 35.614 7.568 39 7.08Z" fill="#2E7382"/>
<path d="M14 34H16C17.103 34 18 33.103 18 32V16C18 14.897 17.103 14 16 14H14C12.897 14 12 14.897 12 16V32C12 33.103 12.897 34 14 34ZM14 16H16L16.002 32H14V16Z" fill="#2E7382"/>
<path d="M22 34H24C25.103 34 26 33.103 26 32V21C26 19.897 25.103 19 24 19H22C20.897 19 20 19.897 20 21V32C20 33.103 20.897 34 22 34ZM22 21H24L24.002 32H22V21Z" fill="#2E7382"/>
<path d="M30 34H32C33.103 34 34 33.103 34 32V25C34 23.897 33.103 23 32 23H30C28.897 23 28 23.897 28 25V32C28 33.103 28.897 34 30 34ZM30 25H32L32.002 32H30V25Z" fill="#2E7382"/>
<path d="M38 26C36.897 26 36 26.897 36 28V32C36 33.103 36.897 34 38 34H40C41.103 34 42 33.103 42 32V28C42 26.897 41.103 26 40 26H38ZM38 32V28H40L40.002 32H38Z" fill="#2E7382"/>
<path d="M13 39H47C47.553 39 48 38.553 48 38C48 37.447 47.553 37 47 37H13C12.447 37 12 37.447 12 38C12 38.553 12.447 39 13 39Z" fill="#2E7382"/>
<path d="M38 43H13C12.447 43 12 43.447 12 44C12 44.553 12.447 45 13 45H38C38.553 45 39 44.553 39 44C39 43.447 38.553 43 38 43Z" fill="#2E7382"/>
<path d="M34 49H13C12.447 49 12 49.447 12 50C12 50.553 12.447 51 13 51H34C34.553 51 35 50.553 35 50C35 49.447 34.553 49 34 49Z" fill="#2E7382"/>
</svg>