<svg width="11" height="9" viewBox="0 0 11 9" fill="none" xmlns="http://www.w3.org/2000/svg">
<path d="M5.1084 7.43701C5.17301 6.95348 5.27955 6.50589 5.40918 6.15576C5.47368 5.98161 5.55005 5.81622 5.63867 5.6792C5.71547 5.56049 5.85191 5.38244 6.06836 5.30127C6.22117 5.24402 6.41363 5.23528 6.55762 5.23389C6.72541 5.23228 6.92566 5.24145 7.1416 5.25928C7.57502 5.29507 8.10123 5.36664 8.61719 5.46045L8.62891 5.4624C9.01813 5.54253 9.38192 5.60441 9.68457 5.64502C9.46881 5.34839 9.18272 4.9852 8.85156 4.60498L8.8457 4.59912L7.38379 2.86279L7.07031 2.48975L7.43457 2.1665L8.77441 0.979004L8.78418 0.971191L9.11035 0.695801H0.865234L2.74805 3.96631L2.74902 3.96729C3.50415 5.28686 4.06564 6.26926 4.49023 6.97314C4.72137 7.35632 4.90406 7.64135 5.04688 7.84814C5.06527 7.72687 5.08712 7.59066 5.1084 7.43701Z" fill="white" stroke="#448F9D"/>
</svg>