<svg width="127" height="131" viewBox="0 0 127 131" fill="none" xmlns="http://www.w3.org/2000/svg">
<g opacity="0.07">
<path d="M27.4491 38.5522C18.9098 49.7884 11.3553 59.7345 10.6665 60.5813C9.50527 62.0248 10.7448 62.3102 35.2015 65.6735C49.3831 67.6241 61.6256 69.3399 62.3819 69.4258C63.4964 69.603 65.1754 67.8641 69.8436 61.7601C73.1625 57.4179 75.8041 53.7577 75.7473 53.6211C75.6906 53.4846 71.2955 52.3494 65.9394 51.2134C60.6515 50.0491 56.2165 49.0106 56.1881 48.9423C56.1597 48.874 57.9078 46.1457 60.0884 42.9173L64.0056 37.1254L75.2472 38.9371C81.7693 39.9887 86.745 40.4021 87.1093 39.9304C87.4736 39.4587 89.9105 35.8836 92.6718 31.9334L97.5738 24.8514L71.0699 21.3783C56.4504 19.5298 44.1963 17.9789 43.7583 18.0809C43.3603 18.0863 35.9884 27.316 27.4491 38.5522Z" fill="#448F9D"/>
<path d="M96.7536 37.1225L90.8836 45.7278L96.4177 59.0396L101.952 72.3513L97.079 78.5405L92.2743 84.7013L86.5637 71.5429C83.4588 64.2669 80.7565 58.3447 80.62 58.4014C80.4835 58.4582 77.9446 61.5954 74.99 65.4658L69.5649 72.445L79.3215 96.4913C84.759 109.763 89.3512 120.424 89.5392 120.106C89.8237 119.827 97.5998 110.029 106.97 98.2876L123.871 76.9297L113.711 52.4906C108.12 39.0423 103.346 28.1368 103.102 28.3185C102.76 28.4604 99.9307 32.439 96.7536 37.1225Z" fill="#448F9D"/>
<path d="M18.5021 92.7134L28.5832 116.385L54.9674 120.148C69.5072 122.189 81.818 123.877 82.381 123.883C83.1089 123.901 81.242 118.832 73.4374 100.059L63.5327 76.2344L37.9784 72.927C23.9901 71.0563 11.5428 69.4256 10.4566 69.3167L8.5176 69.082L18.5021 92.7134Z" fill="#448F9D"/>
</g>
</svg>