<svg width="20" height="24" viewBox="0 0 20 24" fill="none" xmlns="http://www.w3.org/2000/svg">
<path d="M15 15.667C15.3588 17.3369 16.663 18.6414 18.333 19C16.663 19.3586 15.3588 20.6631 15 22.333C14.6413 20.663 13.336 19.3586 11.666 19C13.336 18.6414 14.6413 17.337 15 15.667ZM7.55957 5.83301C8.31912 9.37014 11.0821 12.1339 14.6191 12.8936C11.0822 13.6533 8.31918 16.4161 7.55957 19.9531C6.79995 16.4161 4.03699 13.6533 0.5 12.8936C4.0371 12.1339 6.80001 9.37016 7.55957 5.83301ZM15.833 5.66699C16.1021 6.9194 17.0805 7.89804 18.333 8.16699C17.0804 8.43597 16.102 9.41442 15.833 10.667C15.564 9.41448 14.5855 8.43602 13.333 8.16699C14.5855 7.89803 15.5639 6.91941 15.833 5.66699Z" fill="url(#paint0_linear_1826_21856)"/>
<defs>
<linearGradient id="paint0_linear_1826_21856" x1="-3.00044" y1="4" x2="19.4996" y2="18.5" gradientUnits="userSpaceOnUse">
<stop stop-color="#FB785F"/>
<stop offset="1" stop-color="#FF7357"/>
</linearGradient>
</defs>
</svg>