<svg width="32" height="32" viewBox="0 0 32 32" fill="none" xmlns="http://www.w3.org/2000/svg">
<path d="M23.5193 27.9646L24.6214 26.8624L5.13744 7.37842L4.03526 8.4806C-1.34509 13.8609 -1.34509 22.5842 4.03526 27.9645C9.4156 33.3449 18.1389 33.3449 23.5193 27.9646Z" fill="#9E2C46"/>
<path d="M14.8788 30.8426C22.4878 30.8426 28.656 24.6743 28.656 17.0653C28.656 9.45637 22.4878 3.28809 14.8788 3.28809C7.26984 3.28809 1.10156 9.45637 1.10156 17.0653C1.10156 24.6743 7.26984 30.8426 14.8788 30.8426Z" fill="#FF523D"/>
<path d="M14.8773 28.087C20.9644 28.087 25.8991 23.1524 25.8991 17.0653C25.8991 10.9781 20.9644 6.04346 14.8773 6.04346C8.79009 6.04346 3.85547 10.9781 3.85547 17.0653C3.85547 23.1524 8.79009 28.087 14.8773 28.087Z" fill="white"/>
<path d="M14.8796 25.3315C19.445 25.3315 23.146 21.6306 23.146 17.0652C23.146 12.4998 19.445 8.79883 14.8796 8.79883C10.3143 8.79883 6.61328 12.4998 6.61328 17.0652C6.61328 21.6306 10.3143 25.3315 14.8796 25.3315Z" fill="#FF523D"/>
<path d="M14.8781 22.5765C17.9217 22.5765 20.389 20.1092 20.389 17.0656C20.389 14.022 17.9217 11.5547 14.8781 11.5547C11.8345 11.5547 9.36719 14.022 9.36719 17.0656C9.36719 20.1092 11.8345 22.5765 14.8781 22.5765Z" fill="white"/>
<path d="M14.8804 19.821C16.4022 19.821 17.6359 18.5873 17.6359 17.0655C17.6359 15.5437 16.4022 14.3101 14.8804 14.3101C13.3587 14.3101 12.125 15.5437 12.125 17.0655C12.125 18.5873 13.3587 19.821 14.8804 19.821Z" fill="#FF523D"/>
<path d="M14.8813 17.892C15.3379 17.892 15.708 17.5219 15.708 17.0654C15.708 16.6089 15.3379 16.2388 14.8813 16.2388C14.4248 16.2388 14.0547 16.6089 14.0547 17.0654C14.0547 17.5219 14.4248 17.892 14.8813 17.892Z" fill="#472331"/>
<path d="M27.5017 4.48223L23.0195 8.96441V4.48223L27.5017 0V4.48223Z" fill="#FFCD33"/>
<path d="M27.5017 4.48193L23.0195 8.96411H27.5017L31.9839 4.48193H27.5017Z" fill="#FFAA00"/>
<path d="M28.1276 3.81714C27.9124 3.60194 27.5635 3.602 27.3482 3.81714L14.4895 16.6759C14.2743 16.8911 14.2743 17.2401 14.4896 17.4553C14.4927 17.4584 14.4961 17.461 14.4992 17.464L28.1364 3.82679C28.1333 3.82364 28.1308 3.82028 28.1276 3.81714Z" fill="#5B2C3F"/>
<path d="M14.5 17.4638C14.6063 17.5653 14.743 17.6165 14.88 17.6165C15.0211 17.6165 15.1621 17.5627 15.2697 17.4551L28.1284 4.59637C28.3406 4.38425 28.3432 4.04252 28.1372 3.82666L14.5 17.4638Z" fill="#472331"/>
</svg>