<svg width="37" height="37" viewBox="0 0 37 37" fill="none" xmlns="http://www.w3.org/2000/svg">
<path fill-rule="evenodd" clip-rule="evenodd" d="M0.5 18.6094C0.5 8.66825 8.55888 0.609375 18.5 0.609375C28.4411 0.609375 36.5 8.66825 36.5 18.6094C36.5 28.5505 28.4411 36.6094 18.5 36.6094C8.55888 36.6094 0.5 28.5505 0.5 18.6094Z" fill="#55ACEE"/>
<path fill-rule="evenodd" clip-rule="evenodd" d="M17.9609 15.2398L17.9987 15.8626L17.3691 15.7864C15.0776 15.494 13.0757 14.5026 11.376 12.8374L10.545 12.0112L10.331 12.6213C9.87772 13.9814 10.1673 15.4178 11.1116 16.3838C11.6152 16.9177 11.5019 16.9939 10.6332 16.6762C10.331 16.5745 10.0666 16.4982 10.0414 16.5363C9.95326 16.6253 10.2554 17.782 10.4947 18.2396C10.822 18.8752 11.4893 19.498 12.2196 19.8666L12.8365 20.159L12.1063 20.1717C11.4012 20.1717 11.376 20.1844 11.4515 20.4513C11.7034 21.2775 12.698 22.1546 13.806 22.5359L14.5866 22.8029L13.9067 23.2096C12.8995 23.7943 11.716 24.1248 10.5324 24.1502C9.96585 24.163 9.5 24.2138 9.5 24.2519C9.5 24.379 11.0361 25.0909 11.93 25.3705C14.6118 26.1967 17.7972 25.8408 20.1894 24.4299C21.8892 23.4257 23.5889 21.4301 24.3821 19.498C24.8102 18.4684 25.2383 16.5872 25.2383 15.6847C25.2383 15.1 25.2761 15.0237 25.9811 14.3246C26.3966 13.9179 26.7869 13.473 26.8625 13.3459C26.9884 13.1044 26.9758 13.1044 26.3337 13.3204C25.2635 13.7018 25.1124 13.6509 25.6412 13.0789C26.0315 12.6722 26.4973 11.9349 26.4973 11.7188C26.4973 11.6807 26.3085 11.7443 26.0944 11.8587C25.8678 11.9858 25.3642 12.1764 24.9865 12.2908L24.3066 12.5069L23.6896 12.0875C23.3497 11.8587 22.8712 11.6044 22.6194 11.5282C21.9773 11.3502 20.9952 11.3757 20.4161 11.579C18.8422 12.151 17.8476 13.6255 17.9609 15.2398Z" fill="white"/>
</svg>
