<svg width="25" height="24" viewBox="0 0 25 24" fill="none" xmlns="http://www.w3.org/2000/svg">
<rect x="0.390625" width="24" height="24" rx="4" fill="url(#paint0_linear_1319_19079)"/>
<path d="M14.4087 7.134V7.13184H14.9713L15.1769 7.1729C15.314 7.19955 15.4384 7.23449 15.5502 7.27771C15.662 7.32093 15.7703 7.37136 15.8748 7.42899C15.9794 7.48662 16.0743 7.54533 16.1594 7.60512C16.2438 7.6642 16.3196 7.72687 16.3867 7.79314C16.453 7.86013 16.5565 7.87742 16.6972 7.84501C16.8379 7.81259 16.9894 7.76756 17.1517 7.70994C17.314 7.65231 17.4745 7.58748 17.6332 7.51543C17.7919 7.44339 17.8886 7.39765 17.9232 7.3782C17.9571 7.35804 17.9751 7.34723 17.9773 7.34579L17.9794 7.34255L17.9903 7.33714L18.0011 7.33174L18.0119 7.32634L18.0227 7.32093L18.0249 7.31769L18.0281 7.31553L18.0314 7.31337L18.0335 7.31013L18.0444 7.30689L18.0552 7.30473L18.053 7.32093L18.0498 7.33714L18.0444 7.35335L18.039 7.36956L18.0335 7.38036L18.0281 7.39117L18.0227 7.40738C18.0191 7.41818 18.0155 7.43259 18.0119 7.4506C18.0083 7.46861 17.974 7.54064 17.9091 7.66671C17.8442 7.79278 17.763 7.92065 17.6656 8.05031C17.5683 8.17998 17.481 8.27794 17.4038 8.34422C17.3259 8.41122 17.2743 8.45804 17.2491 8.4847C17.2238 8.51207 17.1932 8.53728 17.1571 8.56034L17.103 8.596L17.0922 8.6014L17.0813 8.6068L17.0792 8.61004L17.0759 8.6122L17.0727 8.61436L17.0705 8.61761L17.0597 8.62301L17.0489 8.62841L17.0467 8.63165L17.0435 8.63382L17.0402 8.63598L17.0381 8.63922L17.0359 8.64246L17.0326 8.64462L17.0294 8.64678L17.0272 8.65002H17.0813L17.3843 8.58519C17.5863 8.54197 17.7793 8.48974 17.9632 8.42851L18.2554 8.33126L18.2878 8.32045L18.3041 8.31505L18.3149 8.30965L18.3257 8.30424L18.3365 8.29884L18.3473 8.29344L18.369 8.2902L18.3906 8.28804V8.30965L18.3852 8.31181L18.3798 8.31505L18.3777 8.31829L18.3744 8.32045L18.3711 8.32261L18.369 8.32586L18.3668 8.3291L18.3636 8.33126L18.3603 8.33342L18.3582 8.33666L18.356 8.3399L18.3528 8.34206L18.3473 8.35287L18.3419 8.36367L18.3387 8.36584C18.3372 8.368 18.2914 8.42922 18.2013 8.54953C18.1111 8.67055 18.0624 8.73178 18.0552 8.73323C18.048 8.73539 18.0379 8.74619 18.0249 8.76564C18.0126 8.78581 17.9362 8.86614 17.7955 9.00661C17.6548 9.14708 17.5171 9.27206 17.3822 9.38156C17.2465 9.49178 17.178 9.62721 17.1766 9.78785C17.1744 9.94778 17.1661 10.1286 17.1517 10.3303C17.1372 10.532 17.1102 10.7499 17.0705 10.984C17.0308 11.2182 16.9695 11.4829 16.8866 11.7782C16.8036 12.0736 16.7026 12.3617 16.5836 12.6427C16.4646 12.9236 16.3401 13.1758 16.2103 13.3991C16.0804 13.6224 15.9614 13.8115 15.8532 13.9664C15.745 14.1213 15.635 14.2671 15.5232 14.404C15.4114 14.5409 15.27 14.695 15.099 14.8665C14.9273 15.0372 14.8336 15.1309 14.8177 15.1474C14.8011 15.1633 14.7304 15.2224 14.6056 15.3246C14.4815 15.4277 14.3481 15.5307 14.2052 15.6337C14.0631 15.736 13.9326 15.8213 13.8135 15.8898C13.6945 15.9582 13.551 16.0364 13.3829 16.1243C13.2155 16.2129 13.0344 16.295 12.8397 16.3706C12.6449 16.4463 12.4393 16.5165 12.2229 16.5813C12.0065 16.6462 11.7973 16.6966 11.5953 16.7326C11.3933 16.7686 11.1643 16.7993 10.9082 16.8245L10.5241 16.8623V16.8677H9.82074V16.8623L9.72877 16.8569C9.66746 16.8533 9.61696 16.8497 9.57728 16.8461C9.53761 16.8425 9.38792 16.8227 9.12823 16.7866C8.86853 16.7506 8.66475 16.7146 8.51686 16.6786C8.36899 16.6426 8.14897 16.5741 7.85681 16.4733C7.56466 16.3724 7.3147 16.2705 7.10695 16.1675C6.89992 16.0652 6.77007 16.0004 6.71741 15.973C6.66547 15.9463 6.60704 15.9132 6.54211 15.8736L6.44473 15.8141L6.44257 15.8109L6.43932 15.8087L6.43607 15.8066L6.43391 15.8033L6.42309 15.7979L6.41227 15.7925L6.41011 15.7893L6.40686 15.7871L6.40361 15.785L6.40145 15.7817L6.39929 15.7785L6.39604 15.7763H6.39062V15.7547L6.40145 15.7569L6.41227 15.7601L6.46096 15.7655C6.49342 15.7691 6.58179 15.7745 6.72606 15.7817C6.87034 15.7889 7.02363 15.7889 7.18594 15.7817C7.34824 15.7745 7.51417 15.7583 7.68368 15.7331C7.85321 15.7079 8.05339 15.6647 8.28422 15.6034C8.51507 15.5422 8.72715 15.4694 8.92048 15.3852C9.11309 15.3002 9.25014 15.2368 9.33166 15.195C9.41245 15.1539 9.5358 15.0776 9.70172 14.9659L9.95059 14.7984L9.95275 14.7952L9.956 14.793L9.95926 14.7908L9.96141 14.7876L9.96357 14.7844L9.96682 14.7822L9.97008 14.78L9.97223 14.7768L9.98305 14.7736L9.99387 14.7714L9.99604 14.7606L9.99928 14.7498L10.0025 14.7476L10.0047 14.7444L9.91813 14.739C9.86042 14.7354 9.80451 14.7318 9.75041 14.7282C9.69631 14.7246 9.61155 14.7084 9.49613 14.6796C9.38071 14.6507 9.25628 14.6075 9.12282 14.5499C8.98937 14.4923 8.85952 14.4238 8.73328 14.3446C8.60704 14.2653 8.51578 14.1994 8.45952 14.1468C8.40397 14.095 8.33183 14.0215 8.2431 13.9264C8.1551 13.8306 8.07863 13.7323 8.01371 13.6314C7.94879 13.5306 7.88675 13.4142 7.82761 13.2824L7.73778 13.0857L7.73237 13.0695L7.72696 13.0533L7.72372 13.0425L7.72155 13.0317L7.73778 13.0339L7.75402 13.0371L7.87304 13.0533C7.9524 13.0641 8.07684 13.0677 8.24635 13.0641C8.41588 13.0605 8.5331 13.0533 8.59802 13.0425C8.66294 13.0317 8.70262 13.0245 8.71705 13.0209L8.73869 13.0155L8.76574 13.0101L8.79279 13.0047L8.79495 13.0014L8.7982 12.9993L8.80146 12.9971L8.80361 12.9939L8.78197 12.9885L8.76033 12.9831L8.73869 12.9777L8.71705 12.9723L8.6954 12.9669C8.68098 12.9633 8.65574 12.9561 8.61966 12.9453C8.5836 12.9344 8.48621 12.8948 8.32751 12.8264C8.16881 12.758 8.04257 12.6913 7.94879 12.6265C7.85477 12.5615 7.76513 12.4904 7.68044 12.4136C7.59604 12.3358 7.50335 12.2357 7.40235 12.1132C7.30136 11.9908 7.21119 11.8485 7.13183 11.6864C7.05249 11.5243 6.99297 11.3694 6.95329 11.2218C6.91377 11.0749 6.8877 10.9249 6.8754 10.7733L6.85591 10.5464L6.86673 10.5486L6.87755 10.5518L6.88837 10.5572L6.89919 10.5626L6.91001 10.568L6.92083 10.5734L7.08855 10.6491C7.20037 10.6995 7.33923 10.7427 7.50514 10.7787C7.67107 10.8147 7.77025 10.8346 7.80271 10.8382L7.8514 10.8436H7.94879L7.94663 10.8403L7.94338 10.8382L7.94013 10.836L7.93796 10.8328L7.93581 10.8295L7.93255 10.8274L7.92931 10.8252L7.92714 10.8219L7.91632 10.8165L7.9055 10.8111L7.90335 10.8079L7.90009 10.8057L7.89685 10.8036L7.89468 10.8003L7.88386 10.7949L7.87304 10.7895L7.87089 10.7863C7.86872 10.7848 7.8377 10.7618 7.77782 10.7171C7.71866 10.6718 7.65663 10.613 7.59171 10.541C7.52678 10.469 7.46186 10.3933 7.39694 10.3141C7.33189 10.2347 7.27396 10.1497 7.22381 10.0602C7.17332 9.97011 7.11993 9.85556 7.06366 9.71654C7.00812 9.57822 6.96592 9.43883 6.93706 9.29836C6.90822 9.15789 6.89198 9.01922 6.88837 8.88234C6.88477 8.74547 6.88837 8.62841 6.89919 8.53116C6.91001 8.43391 6.93165 8.32405 6.96411 8.20159C6.99658 8.07913 7.04347 7.94946 7.10478 7.81259L7.19676 7.60728L7.20217 7.59107L7.20758 7.57487L7.21083 7.5727L7.21299 7.56946L7.21515 7.56622L7.2184 7.56406L7.22165 7.56622L7.22381 7.56946L7.22597 7.5727L7.22922 7.57487L7.23248 7.57703L7.23463 7.58027L7.23679 7.58351L7.24004 7.58567L7.24545 7.59648L7.25086 7.60728L7.25412 7.60944L7.25627 7.61269L7.40235 7.77477C7.49973 7.88283 7.61516 8.00349 7.74861 8.13676C7.88207 8.27002 7.956 8.33918 7.97043 8.34422C7.98486 8.34998 8.00289 8.36655 8.02453 8.39393C8.04617 8.42059 8.11831 8.48434 8.24094 8.58519C8.36358 8.68604 8.52408 8.80311 8.72246 8.93637C8.92084 9.06964 9.14085 9.20111 9.38251 9.33078C9.62418 9.46044 9.88387 9.5775 10.1616 9.68196C10.4393 9.78642 10.6341 9.85485 10.7459 9.88727C10.8577 9.91968 11.0489 9.9611 11.3194 10.0115C11.5899 10.062 11.7937 10.0944 11.9308 10.1088C12.0678 10.1232 12.1616 10.1315 12.2121 10.1336L12.2878 10.1358L12.2857 10.1196L12.2824 10.1034L12.2608 9.96831C12.2464 9.87826 12.2391 9.7522 12.2391 9.59011C12.2391 9.42803 12.2518 9.27855 12.277 9.14168C12.3023 9.0048 12.3401 8.86614 12.3906 8.72566C12.4411 8.58519 12.4905 8.47244 12.5389 8.38745C12.5879 8.30316 12.6521 8.20699 12.7315 8.09894C12.8108 7.99088 12.9136 7.87923 13.0399 7.76396C13.1661 7.6487 13.3104 7.54605 13.4727 7.456C13.635 7.36596 13.7847 7.29752 13.9217 7.2507C14.0588 7.20388 14.1742 7.17325 14.268 7.15885C14.3618 7.14445 14.4087 7.13616 14.4087 7.134Z" fill="white"/>
<defs>
<linearGradient id="paint0_linear_1319_19079" x1="-0.171875" y1="24.9" x2="26.5934" y2="22.2503" gradientUnits="userSpaceOnUse">
<stop stop-color="#6CD3E7"/>
<stop offset="0.557692" stop-color="#3A9DB2"/>
<stop offset="1" stop-color="#235A66"/>
</linearGradient>
</defs>
</svg>
