<svg width="60" height="61" viewBox="0 0 60 61" fill="none" xmlns="http://www.w3.org/2000/svg">
<path d="M35.8056 50.8223C34.2049 50.8223 32.9023 52.1248 32.9023 53.7255C32.9023 55.3261 34.2049 56.6287 35.8056 56.6287C37.4062 56.6287 38.7088 55.3261 38.7088 53.7255C38.7088 52.1248 37.4062 50.8223 35.8056 50.8223ZM35.8056 54.6932C35.2723 54.6932 34.8378 54.2597 34.8378 53.7255C34.8378 53.1913 35.2723 52.7577 35.8056 52.7577C36.3388 52.7577 36.7733 53.1913 36.7733 53.7255C36.7733 54.2597 36.3388 54.6932 35.8056 54.6932Z" fill="#80CEC8"/>
<path d="M12.581 50.8223C10.9803 50.8223 9.67773 52.1248 9.67773 53.7255C9.67773 55.3261 10.9803 56.6287 12.581 56.6287C14.1816 56.6287 15.4842 55.3261 15.4842 53.7255C15.4842 52.1248 14.1816 50.8223 12.581 50.8223ZM12.581 54.6932C12.0477 54.6932 11.6132 54.2597 11.6132 53.7255C11.6132 53.1913 12.0477 52.7577 12.581 52.7577C13.1142 52.7577 13.5487 53.1913 13.5487 53.7255C13.5487 54.2597 13.1142 54.6932 12.581 54.6932Z" fill="#80CEC8"/>
<path d="M14.5165 15.9842C16.1172 15.9842 17.4197 14.6816 17.4197 13.081C17.4197 11.4803 16.1172 10.1777 14.5165 10.1777C12.9159 10.1777 11.6133 11.4803 11.6133 13.081C11.6133 14.6816 12.9159 15.9842 14.5165 15.9842ZM14.5165 12.1132C15.0497 12.1132 15.4842 12.5468 15.4842 13.081C15.4842 13.6152 15.0497 14.0487 14.5165 14.0487C13.9833 14.0487 13.5488 13.6152 13.5488 13.081C13.5488 12.5468 13.9833 12.1132 14.5165 12.1132Z" fill="#80CEC8"/>
<path d="M53.2255 35.3389C51.6248 35.3389 50.3223 36.6414 50.3223 38.2421C50.3223 39.8427 51.6248 41.1453 53.2255 41.1453C54.8261 41.1453 56.1287 39.8427 56.1287 38.2421C56.1287 36.6414 54.8261 35.3389 53.2255 35.3389ZM53.2255 39.2098C52.6923 39.2098 52.2577 38.7763 52.2577 38.2421C52.2577 37.7079 52.6923 37.2744 53.2255 37.2744C53.7587 37.2744 54.1932 37.7079 54.1932 38.2421C54.1932 38.7763 53.7587 39.2098 53.2255 39.2098Z" fill="#80CEC8"/>
<path d="M54.151 31.5384C54.1655 31.1919 54.1935 30.8455 54.1935 30.5C54.1935 26.089 52.9897 21.801 50.729 18.0452C51.719 16.3032 52.2581 14.3165 52.2581 12.3026V12.1129C52.2581 5.70935 47.0487 0.5 40.6452 0.5C36.3503 0.5 32.6003 2.84968 30.5913 6.32581C26.8394 6.23968 23.0303 7.04 19.6297 8.65129C18.3861 7.21806 16.5571 6.30645 14.5161 6.30645C10.7806 6.30645 7.74194 9.34613 7.74194 13.0806C7.74194 14.5381 8.22387 15.981 9.09677 17.1442L9.49742 17.6784C7.26097 21.2484 6.00871 25.3119 5.84226 29.5323H3.87097C2.80355 29.5323 1.93548 30.4003 1.93548 31.4677V50.8226C0.868064 50.8226 0 51.6906 0 52.7581V54.6935C0 55.761 0.868064 56.629 1.93548 56.629H6.46935C7.55903 58.9139 9.88548 60.5 12.5806 60.5C15.2758 60.5 17.6023 58.9139 18.6919 56.629H29.6952C30.7848 58.9139 33.1113 60.5 35.8064 60.5C38.5016 60.5 40.8281 58.9139 41.9177 56.629H44.5161C45.5835 56.629 46.4516 55.761 46.4516 54.6935V52.0284C46.4516 51.7923 46.4226 51.5561 46.3655 51.3239L45.7461 48.8465C47.1881 47.6087 48.4742 46.2132 49.5861 44.6784L53.2258 49.5326L58.6452 42.3064C59.519 41.1423 60 39.6984 60 38.2419C60 34.8219 57.449 31.9923 54.151 31.5384ZM40.6452 2.43548C45.9813 2.43548 50.3226 6.77677 50.3226 12.1129V12.3016C50.3226 14.4597 49.5881 16.5839 48.2545 18.2803L40.6452 27.9665L33.0358 18.2803C31.7023 16.5839 30.9677 14.4606 30.9677 12.3016V12.1129C30.9677 6.77677 35.309 2.43548 40.6452 2.43548ZM14.5161 8.24194C17.1842 8.24194 19.3548 10.4126 19.3548 13.0806C19.3548 14.121 19.0113 15.1526 18.3871 15.9829L14.5161 21.1448L10.6452 15.9829C10.021 15.1526 9.67742 14.121 9.67742 13.0806C9.67742 10.4126 11.8481 8.24194 14.5161 8.24194ZM3.87097 31.4677H11.6129V38.84L16.4516 36.4206L21.2903 38.84V31.4677H29.0323V50.8226H18.6919C17.6023 48.5377 15.2758 46.9516 12.5806 46.9516C9.88548 46.9516 7.55903 48.5377 6.46935 50.8226H3.87097V31.4677ZM13.5484 31.4677H19.3548V35.7084L16.4516 34.2568L13.5484 35.7084V31.4677ZM30.9677 37.2742H40.1013C40.5455 37.2742 40.9326 37.5761 41.04 38.0068L41.341 39.2097H36.7742C35.7068 39.2097 34.8387 40.0777 34.8387 41.1452V43.0806C34.8387 44.1481 35.7068 45.0161 36.7742 45.0161H42.7926L44.2442 50.8226H41.9177C40.8281 48.5377 38.5016 46.9516 35.8064 46.9516C33.9116 46.9516 32.1987 47.7355 30.9677 48.9945V37.2742ZM42.3087 43.0806H36.7742V41.1452H41.8248L42.3087 43.0806ZM1.93548 54.6935V52.7581H5.88387C5.83839 53.0755 5.80645 53.3968 5.80645 53.7258C5.80645 54.0548 5.83839 54.3761 5.88387 54.6935H1.93548ZM12.5806 58.5645C9.91258 58.5645 7.74194 56.3939 7.74194 53.7258C7.74194 51.0577 9.91258 48.8871 12.5806 48.8871C15.2487 48.8871 17.4194 51.0577 17.4194 53.7258C17.4194 56.3939 15.2487 58.5645 12.5806 58.5645ZM19.2774 54.6935C19.3229 54.3761 19.3548 54.0548 19.3548 53.7258C19.3548 53.3968 19.3229 53.0755 19.2774 52.7581H29.1097C29.0642 53.0755 29.0323 53.3968 29.0323 53.7258C29.0323 54.0548 29.0642 54.3761 29.1097 54.6935H19.2774ZM35.8064 58.5645C33.1384 58.5645 30.9677 56.3939 30.9677 53.7258C30.9677 51.0577 33.1384 48.8871 35.8064 48.8871C38.4745 48.8871 40.6452 51.0577 40.6452 53.7258C40.6452 56.3939 38.4745 58.5645 35.8064 58.5645ZM42.5032 54.6935C42.5487 54.3761 42.5806 54.0548 42.5806 53.7258C42.5806 53.3968 42.5487 53.0755 42.5032 52.7581H44.5161V54.6935H42.5032ZM45.2177 46.7339L42.9184 37.5374C42.5942 36.2435 41.4358 35.3387 40.1013 35.3387H30.9677V31.4677C30.9677 30.4003 30.0997 29.5323 29.0323 29.5323H7.77677C7.93161 25.9265 8.94193 22.4465 10.7448 19.3429L14.5161 24.3713L19.9355 17.1452C20.8094 15.981 21.2903 14.5371 21.2903 13.0806C21.2903 12.0848 21.0687 11.1413 20.6806 10.2887C23.5161 8.97548 26.5452 8.29032 29.7058 8.25064C29.2781 9.46129 29.0323 10.7571 29.0323 12.1129V12.3016C29.0323 14.8923 29.9139 17.4413 31.5135 19.4764L40.6452 31.0981L49.5194 19.8035C51.3126 23.0706 52.2581 26.7384 52.2581 30.5C52.2581 30.8494 52.231 31.2006 52.2155 31.5519C48.959 32.0426 46.4516 34.851 46.4516 38.2419C46.4516 39.6994 46.9335 41.1423 47.8064 42.3055L48.3648 43.0506C47.4484 44.389 46.4003 45.6258 45.2177 46.7339ZM57.0968 41.1442L53.2258 46.3061L49.3548 41.1442C48.7306 40.3139 48.3871 39.2823 48.3871 38.2419C48.3871 35.5739 50.5577 33.4032 53.2258 33.4032C55.8939 33.4032 58.0645 35.5739 58.0645 38.2419C58.0645 39.2823 57.721 40.3139 57.0968 41.1442Z" fill="#2E7382"/>
<path d="M40.6443 19.855C44.913 19.855 48.3862 16.3817 48.3862 12.113C48.3862 7.84432 44.913 4.37109 40.6443 4.37109C36.3756 4.37109 32.9023 7.84432 32.9023 12.113C32.9023 16.3817 36.3756 19.855 40.6443 19.855ZM40.6443 6.30658C43.8465 6.30658 46.4507 8.91077 46.4507 12.113C46.4507 15.3153 43.8465 17.9195 40.6443 17.9195C37.442 17.9195 34.8378 15.3153 34.8378 12.113C34.8378 8.91077 37.442 6.30658 40.6443 6.30658Z" fill="#80CEC8"/>
<path d="M23.2266 25.6611H25.162V27.5966H23.2266V25.6611Z" fill="#2E7382"/>
<path d="M27.0977 25.6611H29.0331V27.5966H27.0977V25.6611Z" fill="#2E7382"/>
<path d="M30.9668 25.6611H32.9023V27.5966H30.9668V25.6611Z" fill="#2E7382"/>
</svg>