<svg width="153" height="181" viewBox="0 0 153 181" fill="none" xmlns="http://www.w3.org/2000/svg">
<g opacity="0.41">
<path d="M51.5457 32.9256L46.131 40.397L47.66 45.405C48.488 48.1671 49.4431 51.4453 49.7723 52.665L50.3556 54.917L38.0284 53.3499L25.7012 51.7829L18.2359 61.1328L10.7214 70.4597L14.4849 79.7379C16.5643 84.8194 18.7422 89.9467 19.3603 91.0877L20.4529 93.2113L32.352 96.407C38.8648 98.1606 44.3305 99.7007 44.4399 99.8735C44.5986 100.069 43.2923 102.904 41.5284 106.195C39.0984 110.822 38.4006 112.477 38.5795 113.322C38.9263 114.885 45.1922 131.696 45.3976 131.609C45.5003 131.566 47.0389 129.51 48.8146 127.046L52.0604 122.556L50.4364 118.509L48.8123 114.462L50.229 112.502C51.0004 111.429 51.7827 110.483 51.9538 110.411C52.125 110.338 52.8459 111.436 53.5693 112.839C54.2927 114.242 55.1447 115.766 55.4771 116.195L56.0284 116.97L57.5862 114.862L59.144 112.754L53.1715 97.5724L47.1648 82.4053L38.5317 80.0603C28.7187 77.4705 29.213 77.3046 31.1746 82.3922C31.7569 83.943 32.3158 85.6353 32.3936 86.1285C32.504 87.0025 32.4205 86.9941 29.6088 86.4768L26.6643 85.9281L24.6202 81.5333C23.525 79.1038 22.2494 76.2247 21.8133 75.138L21.0163 73.1521L25.1404 67.456C27.4011 64.3044 29.3179 61.6934 29.4548 61.6353C29.5575 61.5917 30.8018 61.897 32.2623 62.2421L34.9137 62.9589L32.9947 67.0618C31.3512 70.6532 31.1742 71.2106 31.8381 71.3674C34.9906 72.1349 47.9583 74.0002 48.2062 73.7197C48.5419 73.358 65.9891 49.2494 66.1001 49.0269C66.1042 48.9374 65.6698 47.4554 65.13 45.7112L64.1366 42.5369L61.6429 46.0066C60.2454 47.915 59.0466 49.5198 58.9781 49.5488C58.8754 49.5924 58.2848 48.2205 57.6765 46.5053L56.5311 43.3517L59.1 40.0694C61.2756 37.3047 61.6087 36.6372 61.4039 35.6278C61.0804 33.9234 57.4932 25.1843 57.2193 25.3005C57.0632 25.4106 54.5394 28.8053 51.5457 32.9256Z" fill="#1A223B" fill-opacity="0.08"/>
<path d="M62.4098 29.5454L64.6353 35.091L68.7597 35.8846L72.8842 36.6781L73.8466 39.0763C74.3879 40.4252 74.6871 41.5699 74.5501 41.628C74.379 41.7006 72.7498 41.734 70.8551 41.7047L67.4681 41.6507L68.4932 44.5045C69.0564 46.1074 69.5676 47.3813 69.6662 47.4272C69.7497 47.4357 76.4669 48.4009 84.6339 49.5843L99.503 51.6954L105.077 45.1209C108.134 41.4563 110.763 38.3239 110.825 38.0785C110.901 37.8705 109.199 37.3212 107.055 36.8713C104.862 36.3984 102.954 35.9363 102.776 35.7925C102.356 35.4445 105.411 31.0788 106.19 30.9236C106.529 30.8679 109.486 31.1482 112.807 31.5371L118.781 32.2476L121.578 39.2171L124.375 46.1866L122.631 48.3297C121.669 49.527 120.818 50.5018 120.75 50.5309C120.681 50.5599 119.538 48.8087 118.145 46.6369L115.693 42.7222L110.819 49.7449L105.965 56.7156L112.027 72.122L118.109 87.4765L120.848 88.1123L123.637 88.7711L122.16 84.7931C121.116 81.9913 120.787 80.7716 121.095 80.6409C121.335 80.5392 122.656 80.6365 124.071 80.8692L126.621 81.2343L128.316 85.558L130.012 89.8816L135.404 90.839C138.382 91.3731 140.997 91.7987 141.149 91.778C141.35 91.7804 139.734 87.5546 137.61 82.3608L133.718 72.9618L127.167 71.3122C123.551 70.3902 120.536 69.5647 120.491 69.4523C120.431 69.3024 123.297 64.666 126.878 59.1128C130.424 53.5741 133.451 48.7381 133.566 48.4261C133.869 47.6837 125.86 24.3329 125.235 24.0721C125.023 23.9428 119.941 23.1606 113.957 22.3231L103.057 20.7203L94.8155 30.5312C90.2863 35.9168 86.4559 40.3482 86.3232 40.3168C86.1904 40.2855 84.5123 37.4017 82.5785 33.8809L79.0652 27.5223L69.9704 25.724C64.9808 24.7712 60.7236 23.9463 60.5374 23.9815C60.3362 23.9791 61.1316 26.3604 62.4098 29.5454Z" fill="#1A223B" fill-opacity="0.08"/>
<path d="M61.7631 68.3639C57.558 74.3574 53.8381 79.6628 53.4983 80.1139C52.9256 80.8831 53.5552 81.0545 65.956 83.2042C73.1468 84.4509 79.3547 85.5445 79.738 85.6012C80.3033 85.7121 81.1349 84.7893 83.434 81.5337C85.0686 79.2178 86.3676 77.2636 86.3375 77.1886C86.3074 77.1137 84.0735 76.4389 81.3537 75.7511C78.6681 75.0487 76.415 74.426 76.4 74.3885C76.3849 74.351 77.2414 72.8914 78.3116 71.1657L80.2342 68.0699L85.9369 69.2025C89.2454 69.8598 91.7657 70.15 91.9451 69.8984C92.1246 69.6469 93.3209 67.7362 94.6775 65.6259L97.0851 61.842L83.648 59.6057C76.2368 58.4086 70.0247 57.4045 69.8042 57.4542C69.603 57.4518 65.9681 62.3703 61.7631 68.3639Z" fill="#328C98" fill-opacity="0.15"/>
<path d="M96.7916 68.4995L93.9098 73.0985L96.8422 80.4052L99.7745 87.712L97.3727 91.0111L95.0051 94.2958L91.9851 87.0701C90.3418 83.0752 88.9158 79.8214 88.8474 79.8504C88.7789 79.8795 87.5266 81.5509 86.0715 83.6152L83.3984 87.3364L88.5739 100.532C91.4569 107.816 93.8863 113.67 93.9781 113.499C94.1192 113.352 97.9528 108.13 102.573 101.872L110.904 90.4886L105.521 77.0741C102.559 69.6924 100.035 63.7033 99.913 63.7988C99.7418 63.8714 98.351 65.9962 96.7916 68.4995Z" fill="#328C98" fill-opacity="0.15"/>
<path d="M57.7827 97.678L63.1185 110.674L76.4979 113.066C83.8708 114.367 90.1129 115.447 90.3977 115.457C90.7659 115.476 89.7709 112.698 85.6356 102.393L80.3875 89.3159L67.4322 87.1822C60.34 85.9814 54.0294 84.9313 53.4791 84.8578L52.4962 84.7048L57.7827 97.678Z" fill="#328C98" fill-opacity="0.15"/>
<path d="M60.4982 118.32C59.5556 119.465 58.8527 120.509 58.8978 120.621C58.943 120.734 60.7526 121.15 62.8661 121.525C65.0139 121.885 66.7743 122.279 66.7893 122.316C66.8194 122.391 66.0096 123.568 65.0546 124.981L63.2597 127.497L59.2229 126.622C56.9807 126.126 55.0342 125.768 54.9315 125.812C54.7945 125.87 53.1532 127.969 51.2406 130.491C48.251 134.522 47.9221 135.1 48.6353 135.28C49.0679 135.359 53.2758 136.161 57.9848 137.014L66.5375 138.56L71.0776 133.301C73.5463 130.368 75.686 128.013 75.7504 128.074C75.8489 128.12 78.3291 133.601 81.2714 140.334C84.1986 147.029 86.6446 152.525 86.6446 152.525C86.6938 152.547 91.8722 153.771 98.1469 155.231L109.566 157.929L116.051 148.732C119.641 143.701 122.612 139.326 122.678 138.992C122.759 138.694 121.075 132.7 118.954 125.619C116.849 118.575 115.141 112.722 115.16 112.67C115.164 112.581 118.281 112.661 122.052 112.772L128.901 113.067L134.806 105.52C138.069 101.373 140.7 97.8449 140.654 97.7325C140.519 97.3952 130.369 95.5624 129.855 95.7802C129.65 95.8674 128.425 97.3078 127.139 98.9937L124.814 102.085L122.445 101.774C121.128 101.587 119.964 101.38 119.85 101.297C119.702 101.228 120.464 99.6327 121.455 97.8091C122.465 95.9336 123.292 94.399 123.277 94.3616C123.216 94.2117 117.987 93.3606 117.713 93.4768C117.542 93.5494 113.487 99.2165 108.636 106.098L99.8672 118.588L102.588 127.563C104.087 132.496 105.407 136.584 105.52 136.668C105.653 136.699 106.981 135.215 108.477 133.352C109.973 131.49 111.285 129.968 111.349 130.029C111.448 130.075 111.97 131.476 112.529 133.168L113.527 136.253L109.886 141.656L106.245 147.059L99.5064 145.84C92.1035 144.464 92.2663 144.571 91.2485 140.837L90.657 138.764L95.0092 138.627L99.3272 138.506L95.8986 129.962L92.4701 121.419L77.5807 118.659C69.4112 117.17 62.5695 115.994 62.4134 116.104C62.2765 116.162 61.3915 117.152 60.4982 118.32Z" fill="#1A223B" fill-opacity="0.08"/>
</g>
</svg>