<svg width="147" height="155" viewBox="0 0 147 155" fill="none" xmlns="http://www.w3.org/2000/svg">
<g opacity="0.5">
<path d="M45.0052 30.3905L39.9354 36.7196L41.1791 40.7999C41.8513 43.0508 42.6242 45.7233 42.8883 46.7184L43.3537 48.5565L32.3022 47.6517L21.2508 46.7468L14.2862 54.6887L7.2779 62.6133L10.4196 70.1436C12.1566 74.2672 13.9811 78.4256 14.5072 79.3468L15.4343 81.0631L26.0576 83.324C31.872 84.5651 36.7496 85.6631 36.8435 85.8021C36.9812 85.9585 35.7308 88.3361 34.0567 91.1049C31.7479 94.9951 31.0763 96.3816 31.2149 97.0725C31.4858 98.3501 36.6804 112.012 36.8675 111.933C36.9611 111.894 38.3999 110.151 40.0628 108.065L43.1022 104.261L41.7476 100.976L40.393 97.6912L41.7196 96.0307C42.4421 95.1222 43.171 94.318 43.3269 94.2527C43.4829 94.1875 44.1025 95.0695 44.7165 96.2036C45.3304 97.3376 46.0569 98.5673 46.3447 98.9105L46.8203 99.5318L48.2778 97.7452L49.7352 95.9587L44.7616 83.6311L39.7568 71.3166L32.05 69.6546C23.288 67.8277 23.7372 67.6754 25.368 71.8078C25.8511 73.0679 26.3094 74.4454 26.3663 74.8496C26.4426 75.5666 26.3677 75.5623 23.8512 75.2241L21.2161 74.8642L19.4926 71.3055C18.5712 69.3371 17.4993 67.0038 17.1356 66.1217L16.4709 64.5096L20.3324 59.6845C22.4499 57.0156 24.2437 54.803 24.3684 54.7508C24.462 54.7117 25.5736 54.9243 26.8788 55.1629L29.2458 55.6706L27.4106 59.1131C25.8368 62.1252 25.6629 62.5902 26.2562 62.6987C29.0727 63.2324 40.6926 64.3631 40.9232 64.124C41.2347 63.8153 57.5713 43.3937 57.6771 43.2068C57.6832 43.1329 57.3314 41.9249 56.8917 40.5039L56.0815 37.9184L53.746 40.8569C52.438 42.4739 51.3169 43.8345 51.2545 43.8606C51.1609 43.8998 50.6657 42.7874 50.1636 41.3925L49.2162 38.8288L51.6144 36.0424C53.6452 33.695 53.9625 33.1343 53.8049 32.3087C53.5588 30.9137 50.5615 23.8223 50.312 23.9267C50.1686 24.0223 47.8079 26.9 45.0052 30.3905Z" fill="#D2EEEE"/>
<path d="M54.2217 27.7947L56.0781 32.2965L59.7687 32.8212L63.4592 33.3459L64.262 35.2926C64.7135 36.3876 64.9525 37.3219 64.8277 37.3741C64.6718 37.4393 63.2048 37.518 61.5006 37.5533L58.4541 37.6151L59.3013 39.9355C59.7657 41.2392 60.1922 42.2733 60.2796 42.3081C60.3546 42.3124 66.3739 42.8973 73.692 43.6164L87.0168 44.89L92.2067 39.2953C95.0539 36.1784 97.5024 33.5136 97.5644 33.3093C97.639 33.1355 96.1212 32.7361 94.2041 32.4325C92.2432 32.1115 90.5383 31.7904 90.382 31.6775C90.0131 31.4038 92.878 27.7089 93.5831 27.5566C93.8889 27.5 96.5425 27.6383 99.5207 27.8546L104.878 28.2528L107.211 33.9104L109.544 39.5681L107.918 41.3895C107.021 42.4067 106.23 43.237 106.167 43.2631C106.105 43.2892 105.122 41.8814 103.926 40.1348L101.823 36.9846L97.2516 42.9269L92.699 48.8256L97.748 61.3359L102.816 73.8027L105.264 74.2409L107.756 74.6964L106.532 71.4635C105.666 69.1865 105.402 68.1914 105.683 68.0739C105.901 67.9826 107.088 68.0214 108.355 68.1687L110.64 68.3897L112.052 71.9007L113.463 75.4117L118.29 76.0317C120.956 76.3786 123.298 76.6473 123.435 76.6255C123.616 76.6211 122.274 73.1883 120.499 68.9733L117.245 61.3473L111.393 60.1931C108.164 59.5465 105.472 58.9607 105.435 58.8694C105.385 58.7478 108.087 54.8356 111.455 50.1454C114.793 45.4682 117.644 41.3865 117.756 41.1257C118.049 40.5042 111.458 21.506 110.902 21.3106C110.714 21.2107 106.162 20.7253 100.799 20.2229L91.0329 19.2437L83.3572 27.5902C79.1393 32.172 75.5754 35.9454 75.4568 35.9237C75.3381 35.902 73.9041 33.5774 72.2569 30.7357L69.2632 25.6041L61.1264 24.4071C56.6615 23.7783 52.8522 23.2319 52.6837 23.2667C52.5027 23.2711 53.1556 25.2092 54.2217 27.7947Z" fill="#D2EEEE"/>
<path d="M53.0494 59.5576C49.1303 64.5999 45.6631 69.0631 45.3473 69.4433C44.8148 70.0914 45.3736 70.2122 56.4108 71.5869C62.8109 72.3841 68.3357 73.0865 68.6771 73.121C69.18 73.1943 69.9481 72.4122 72.0903 69.6729C73.6134 67.7242 74.8268 66.0824 74.8018 66.0219C74.7769 65.9615 72.7962 65.4783 70.3811 64.9995C67.997 64.5078 65.9978 64.0678 65.9853 64.0376C65.9728 64.0073 66.7774 62.7846 67.7801 61.3372L69.5812 58.7406L74.6531 59.4907C77.5957 59.9261 79.8426 60.0852 80.0098 59.8735C80.1769 59.6618 81.2973 58.0589 82.5662 56.2874L84.8194 53.1118L72.8574 51.6986C66.2588 50.9489 60.7279 50.3199 60.5293 50.3675C60.3494 50.3719 56.9685 54.5154 53.0494 59.5576Z" fill="#3EADBC" fill-opacity="0.29"/>
<path d="M84.5163 58.792L81.7988 62.6764L84.2472 68.612L86.6956 74.5476L84.4448 77.3447L82.2251 80.1287L79.6956 74.2627C78.3209 71.0188 77.1223 68.3793 77.0599 68.4054C76.9974 68.4316 75.8252 69.8497 74.4598 71.5984L71.9534 74.7521L76.2668 85.4754C78.6715 91.3936 80.7052 96.1464 80.7924 96.0029C80.9235 95.8767 84.5149 91.4484 88.8421 86.1413L96.6485 76.4886L92.1534 65.5914C89.6799 59.595 87.5647 54.7335 87.4524 54.8161C87.2963 54.8814 85.9872 56.6779 84.5163 58.792Z" fill="#3EADBC" fill-opacity="0.29"/>
<path d="M48.9174 83.8512L53.3808 94.4051L65.3708 95.9584C71.9784 96.8002 77.5732 97.4943 77.8295 97.4942C78.1607 97.4985 77.3378 95.2372 73.8847 86.8663L69.5025 76.2428L57.8879 74.8894C51.5304 74.1215 45.8731 73.4535 45.3793 73.4102L44.4979 73.3148L48.9174 83.8512Z" fill="#3EADBC" fill-opacity="0.29"/>
<path d="M51.1641 101.185C50.2913 102.153 49.6354 103.029 49.6728 103.12C49.7102 103.21 51.3173 103.495 53.1974 103.736C55.1084 103.964 56.6721 104.231 56.6846 104.261C56.7095 104.322 55.9545 105.311 55.0635 106.498L53.3926 108.613L49.806 108.023C47.8141 107.687 46.083 107.454 45.99 107.493C45.866 107.545 44.3433 109.315 42.5669 111.44C39.788 114.833 39.4788 115.317 40.1117 115.442C40.4964 115.493 44.238 116.019 48.4262 116.57L56.0332 117.569L60.2307 113.122C62.5151 110.644 64.4902 108.649 64.5462 108.696C64.6331 108.731 66.707 113.142 69.1612 118.563C71.6029 123.953 73.6458 128.377 73.6458 128.377C73.6893 128.394 78.2874 129.235 83.8598 130.234L93.9994 132.088L100.039 124.355C103.381 120.124 106.153 116.45 106.221 116.173C106.301 115.927 104.952 111.072 103.242 105.34C101.544 99.6381 100.171 94.899 100.189 94.8558C100.195 94.7824 102.98 94.7514 106.349 94.7245L112.465 94.7529L117.943 88.3888C120.97 84.8915 123.415 81.921 123.377 81.8304C123.265 81.5585 114.237 80.3741 113.772 80.5685C113.586 80.6462 112.453 81.8638 111.259 83.2843L109.099 85.8878L106.989 85.7071C105.817 85.5953 104.781 85.4617 104.681 85.397C104.551 85.3453 105.274 84.0156 106.208 82.4916C107.16 80.9244 107.94 79.6422 107.927 79.612C107.877 79.4911 103.224 78.9572 102.976 79.0609C102.821 79.1257 99.0458 83.8922 94.5282 89.6777L86.3595 100.178L88.5566 107.442C89.7675 111.434 90.8406 114.74 90.94 114.805C91.0579 114.827 92.2838 113.57 93.6704 111.999C95.057 110.427 96.2704 109.14 96.3263 109.188C96.4133 109.222 96.8434 110.353 97.2988 111.721L98.1098 114.216L94.7127 118.754L91.3156 123.291L85.3218 122.503C78.7385 121.607 78.8813 121.689 78.0692 118.664L77.5946 116.985L81.4898 116.737L85.354 116.503L82.5125 109.615L79.671 102.727L66.4299 100.931C59.1641 99.9658 53.0773 99.2165 52.9348 99.3115C52.8108 99.3634 51.9936 100.201 51.1641 101.185Z" fill="#D2EEEE"/>
</g>
</svg>