<svg width="253" height="59" viewBox="0 0 253 59" fill="none" xmlns="http://www.w3.org/2000/svg">
<path d="M71.543 38.3622V4.02634C71.543 3.35335 71.7929 2.7737 72.2928 2.28736C72.7927 1.80104 73.3885 1.55787 74.0802 1.55787H89.6477C93.2994 1.55787 96.7302 2.44634 99.9401 4.22327C103.15 5.99963 105.706 8.39331 107.609 11.4043C109.512 14.4153 110.463 17.6787 110.463 21.1943C110.463 24.7105 109.502 27.9741 107.58 30.9851C105.658 33.9961 103.082 36.3901 99.853 38.167C96.6243 39.9434 93.1841 40.8315 89.5324 40.8315H74.0802C73.3885 40.8315 72.7927 40.5884 72.2928 40.102C71.7929 39.6157 71.543 39.0358 71.543 38.3622ZM89.7639 28.7675C91.0312 28.7675 92.2122 28.4122 93.307 27.7015C94.4024 26.9908 95.2863 26.0091 95.9587 24.7561C96.631 23.5032 96.9672 22.129 96.9672 20.6335C96.9672 19.175 96.6404 17.8288 95.9868 16.5947C95.3338 15.3606 94.4599 14.3791 93.3651 13.6502C92.2703 12.9207 91.089 12.5559 89.8211 12.5559H84.4624C84.1931 12.5559 83.9719 12.6495 83.7988 12.8368C83.6263 13.0234 83.54 13.2666 83.54 13.5663V27.758C83.54 28.0571 83.6263 28.3003 83.7988 28.4875C83.9713 28.6742 84.1922 28.7675 84.4615 28.7675H89.7639Z" fill="white"/>
<path d="M110.414 33.8326C110.414 33.159 110.76 32.3733 111.452 31.4754L113.585 28.7826C114.2 27.9218 114.69 27.3139 115.055 26.9589C115.42 26.6033 115.814 26.4255 116.237 26.4255C116.583 26.4255 117.006 26.5379 117.506 26.7628C118.006 26.9871 118.697 27.361 119.581 27.8845C119.696 27.9592 120.676 28.614 122.521 29.8486C124.366 31.0833 126.673 31.6255 129.44 31.4754C130.363 31.4383 131.083 31.186 131.602 30.7185C132.121 30.251 132.381 29.6805 132.381 29.007C132.381 28.1091 131.919 27.2862 130.996 26.5385C130.074 25.7902 128.767 25.3598 127.076 25.2473H127.134C123.751 24.5738 121.118 23.723 119.235 22.6949C117.352 21.6663 116.006 20.4414 115.199 19.0201C114.392 17.5982 113.912 15.8401 113.758 13.7458C113.605 11.2771 114.143 9.02321 115.372 6.98428C116.603 4.94478 118.371 3.33595 120.677 2.1578C122.984 0.979652 125.636 0.390575 128.635 0.390575C130.864 0.390575 133.094 0.708515 135.323 1.3444C137.169 1.83073 138.851 2.47603 140.369 3.2803C141.887 4.08456 143.089 5.01042 143.974 6.05785C144.512 6.58129 144.781 7.06762 144.781 7.51684C144.781 7.89072 144.636 8.29286 144.348 8.72325C144.06 9.15307 143.569 9.74214 142.877 10.4905L141.205 12.2303C140.667 12.7914 140.254 13.175 139.965 13.3811C139.677 13.5865 139.398 13.6893 139.13 13.6893C138.86 13.6893 138.514 13.5771 138.091 13.3528C137.668 13.1279 137.255 12.8939 136.851 12.6507C136.448 12.4075 136.092 12.1923 135.784 12.0051C133.131 10.3595 130.806 9.53665 128.807 9.53665C127.576 9.53665 126.606 9.82662 125.894 10.4066C125.183 10.9865 124.828 11.6877 124.828 12.5103C124.828 13.3334 125.174 14.0723 125.865 14.727C126.558 15.3817 127.538 15.8027 128.807 15.9899C134.304 16.8125 138.408 18.4022 141.119 20.759C143.829 23.1159 145.185 25.809 145.185 28.8383C145.185 31.0827 144.464 33.2432 143.022 35.3198C141.581 37.3958 139.582 39.0792 137.025 40.3698C134.468 41.6604 131.614 42.3057 128.462 42.3057C123.311 42.3057 118.14 40.5476 112.95 37.0314C111.26 35.9086 110.414 34.8423 110.414 33.8326Z" fill="white"/>
<path d="M147.066 21.048C147.066 17.3429 148.037 13.9184 149.979 10.7743C151.921 7.63033 154.555 5.13189 157.881 3.27905C161.206 1.4262 164.811 0.499775 168.694 0.499775C172.616 0.499775 176.288 1.47243 179.711 3.41775C180.402 3.79163 180.748 4.33418 180.748 5.04541C180.748 5.53174 180.537 6.01836 180.115 6.50526L174.462 12.5647C174.078 12.9391 173.636 13.1264 173.136 13.1264C172.751 13.1264 172.405 13.0516 172.097 12.902C171.059 12.4522 169.906 12.2273 168.638 12.2273C166.984 12.2273 165.456 12.6112 164.053 13.3789C162.649 14.1467 161.544 15.1861 160.736 16.4973C159.928 17.8084 159.525 19.2506 159.525 20.8237C159.525 22.3592 159.938 23.7919 160.765 25.1219C161.592 26.4513 162.698 27.5096 164.083 28.2968C165.467 29.0833 166.986 29.4766 168.64 29.4766C169.833 29.4766 171.083 29.214 172.39 28.6889C172.698 28.5393 173.025 28.4646 173.371 28.4646C173.871 28.4646 174.294 28.633 174.64 28.9697L180.986 35.0309C181.447 35.4795 181.678 35.9844 181.678 36.5455C181.678 37.1443 181.389 37.6495 180.813 38.061C176.929 40.4556 172.891 41.6528 168.698 41.6528C164.814 41.6528 161.209 40.7267 157.882 38.8744C154.556 37.0216 151.922 34.5137 149.979 31.3509C148.037 28.188 147.066 24.7537 147.066 21.048Z" fill="white"/>
<path d="M185.219 38.9685V19.0393V3.43222C185.219 2.79634 185.507 2.25379 186.083 1.80456C186.66 1.35533 187.352 1.13072 188.159 1.13072H200.67C206.358 1.13072 210.663 2.12849 213.584 4.12404C216.505 6.11902 218.081 9.14916 218.312 13.2145C218.312 13.3634 218.321 13.6805 218.34 14.1657C218.359 14.6503 218.369 15.2286 218.369 15.9004C218.369 16.8325 218.35 17.5038 218.312 17.9142C218.196 20.3835 217.476 22.7124 216.15 24.9009C214.825 27.0894 212.693 28.8852 209.754 30.2882C206.815 31.6913 202.983 32.3928 198.258 32.3928V38.3478C198.258 39.172 197.864 39.8653 197.075 40.4275C196.286 40.9892 195.315 41.27 194.161 41.27H188.392C187.508 41.27 186.757 41.0454 186.142 40.5962C185.526 40.147 185.219 39.6044 185.219 38.9685ZM195.777 21.4504H199.178C200.981 21.4504 202.602 21.123 204.041 20.4683C205.48 19.813 206.2 18.3067 206.2 15.9492C206.2 14.2277 205.739 12.9459 204.818 12.104C203.897 11.262 202.476 10.8037 200.557 10.7289H195.777C195.931 10.7289 196.007 10.6727 196.007 10.5602V21.6747C196.007 21.5252 195.931 21.4504 195.777 21.4504Z" fill="white"/>
<path d="M224.27 40.8315C223.617 40.8315 223.05 40.5975 222.568 40.1294C222.088 39.6608 221.848 39.0706 221.848 38.3588V3.96126C221.848 3.24947 222.088 2.65012 222.568 2.16321C223.05 1.67574 223.617 1.43201 224.27 1.43201H232.056C232.71 1.43201 233.277 1.67545 233.758 2.16236C234.239 2.64869 234.479 3.24718 234.479 3.95784V29.104H250.342C251.072 29.104 251.697 29.3286 252.216 29.7778C252.735 30.2265 252.995 30.7873 252.995 31.4603V38.5309C252.995 39.1668 252.735 39.7093 252.216 40.1586C251.697 40.6072 251.072 40.8315 250.342 40.8315H225.77H224.27Z" fill="white"/>
<path d="M73.5688 53.0317C73.5688 52.6823 73.3944 52.5079 73.0453 52.5079H71.8232V55.999H73.0453C73.3944 55.999 73.5688 55.8246 73.5688 55.4752V53.0317ZM73.0453 51.8097C73.8598 51.8097 74.267 52.2169 74.267 53.0317V55.4752C74.267 56.29 73.8598 56.6973 73.0453 56.6973H71.125V51.8097H73.0453Z" fill="white"/>
<path d="M77.3779 56.6973H76.6797V51.8097H77.3779V56.6973Z" fill="white"/>
<path d="M80.4912 55.4752C80.4912 55.8243 80.6659 55.999 81.015 55.999H81.7133C82.0624 55.999 82.2368 55.8243 82.2368 55.4752V54.6026H81.1894V53.9044H82.935V55.4752C82.935 56.29 82.5277 56.6973 81.7133 56.6973H81.015C80.2002 56.6973 79.793 56.29 79.793 55.4752V53.0317C79.793 52.2169 80.2002 51.8097 81.015 51.8097H82.935V52.5079H81.015C80.6659 52.5079 80.4912 52.6823 80.4912 53.0317V55.4752Z" fill="white"/>
<path d="M86.0459 56.6973H85.3477V51.8097H86.0459V56.6973Z" fill="white"/>
<path d="M91.603 51.8097V52.5079H90.3812V56.6973H89.683V52.5079H88.4609V51.8097H91.603Z" fill="white"/>
<path d="M94.9038 54.9517H96.2724L95.5883 52.5082L94.9038 54.9517ZM97.5085 56.6973H96.81L96.4855 55.6499H94.691L94.3662 56.6973H93.668L95.1344 51.81H96.0421L97.5085 56.6973Z" fill="white"/>
<path d="M100.272 55.999H102.367V56.6973H99.5742V51.8097H100.272V55.999Z" fill="white"/>
<path d="M107.895 56.6973V55.999H109.815C110.164 55.999 110.338 55.8246 110.338 55.4752V55.1264C110.338 54.777 110.164 54.6026 109.815 54.6026H109.117C108.302 54.6026 107.895 54.1953 107.895 53.3805V53.0317C107.895 52.2169 108.302 51.8097 109.117 51.8097H111.037V52.5079H109.117C108.767 52.5079 108.593 52.6823 108.593 53.0317V53.3805C108.593 53.73 108.767 53.9044 109.117 53.9044H109.815C110.629 53.9044 111.037 54.3116 111.037 55.1264V55.4752C111.037 56.29 110.629 56.6973 109.815 56.6973H107.895Z" fill="white"/>
<path d="M116.766 51.8097V55.4752C116.766 56.29 116.359 56.6973 115.544 56.6973H114.671C113.856 56.6973 113.449 56.29 113.449 55.4752V51.8097H114.147V55.4752C114.147 55.8246 114.322 55.999 114.671 55.999H115.544C115.893 55.999 116.068 55.8246 116.068 55.4752V51.8097H116.766Z" fill="white"/>
<path d="M119.882 52.5079V53.9044H121.104C121.453 53.9044 121.627 53.73 121.627 53.3805V53.0317C121.627 52.6823 121.453 52.5079 121.104 52.5079H119.882ZM119.882 54.6026V56.6973H119.184V51.8097H121.104C121.918 51.8097 122.326 52.2169 122.326 53.0317V53.3805C122.326 54.1953 121.918 54.6026 121.104 54.6026H119.882Z" fill="white"/>
<path d="M125.433 52.5079V53.9044H126.655C127.004 53.9044 127.178 53.73 127.178 53.3805V53.0317C127.178 52.6823 127.004 52.5079 126.655 52.5079H125.433ZM125.433 54.6026V56.6973H124.734V51.8097H126.655C127.469 51.8097 127.876 52.2169 127.876 53.0317V53.3805C127.876 54.1953 127.469 54.6026 126.655 54.6026H125.433Z" fill="white"/>
<path d="M130.991 55.999H133.086V56.6973H130.293V51.8097H130.991V55.999Z" fill="white"/>
<path d="M135.921 51.8097L136.898 53.9044L137.876 51.8097H138.643L137.247 54.6026V56.6973H136.549V54.6026L135.152 51.8097H135.921Z" fill="white"/>
<path d="M144.515 55.4752C144.515 55.8243 144.689 55.999 145.038 55.999H146.609V56.6973H145.038C144.224 56.6973 143.816 56.29 143.816 55.4752V53.0317C143.816 52.2169 144.224 51.8097 145.038 51.8097H146.609V52.5079H145.038C144.689 52.5079 144.515 52.6823 144.515 53.0317V55.4752Z" fill="white"/>
<path d="M149.726 51.8097V53.9044H151.471V51.8097H152.169V56.6973H151.471V54.6026H149.726V56.6973H149.027V51.8097H149.726Z" fill="white"/>
<path d="M155.47 54.9517H156.839L156.155 52.5082L155.47 54.9517ZM158.075 56.6973H157.376L157.052 55.6499H155.257L154.933 56.6973H154.234L155.701 51.81H156.609L158.075 56.6973Z" fill="white"/>
<path d="M160.839 56.6973H160.141V51.8097H160.839V56.6973Z" fill="white"/>
<path d="M163.948 51.8097L166.043 55.3008V51.8097H166.741V56.6973H166.043L163.948 53.2061V56.6973H163.25V51.8097H163.948Z" fill="white"/>
<path d="M172.968 52.5079V53.9044H174.19C174.539 53.9044 174.713 53.73 174.713 53.3805V53.0317C174.713 52.6823 174.539 52.5079 174.19 52.5079H172.968ZM172.968 54.6026V56.6973H172.27V51.8097H174.19C175.004 51.8097 175.412 52.2169 175.412 53.0317V53.3805C175.412 54.1953 175.004 54.6026 174.19 54.6026H172.968Z" fill="white"/>
<path d="M178.526 55.999H180.621V56.6973H177.828V51.8097H178.526V55.999Z" fill="white"/>
<path d="M183.919 54.9517H185.288L184.604 52.5082L183.919 54.9517ZM186.524 56.6973H185.825L185.501 55.6499H183.706L183.382 56.6973H182.684L184.15 51.81H185.057L186.524 56.6973Z" fill="white"/>
<path d="M191.732 51.8097V52.5079H190.51V56.6973H189.812V52.5079H188.59V51.8097H191.732Z" fill="white"/>
<path d="M196.937 53.9044V54.6026H194.843V56.6973H194.145V51.8097H196.937V52.5079H194.843V53.9044H196.937Z" fill="white"/>
<path d="M200.05 55.4752C200.05 55.8243 200.224 55.999 200.573 55.999H201.446C201.795 55.999 201.97 55.8243 201.97 55.4752V53.0317C201.97 52.6823 201.795 52.5079 201.446 52.5079H200.573C200.224 52.5079 200.05 52.6823 200.05 53.0317V55.4752ZM202.668 55.4752C202.668 56.29 202.261 56.6973 201.446 56.6973H200.573C199.759 56.6973 199.352 56.29 199.352 55.4752V53.0317C199.352 52.2169 199.759 51.8097 200.573 51.8097H201.446C202.261 51.8097 202.668 52.2169 202.668 53.0317V55.4752Z" fill="white"/>
<path d="M205.78 52.5079V53.9044H207.002C207.351 53.9044 207.526 53.73 207.526 53.3805V53.0317C207.526 52.6823 207.351 52.5079 207.002 52.5079H205.78ZM206.716 54.6026H205.78V56.6973H205.082V51.8097H207.002C207.817 51.8097 208.224 52.2169 208.224 53.0317V53.3805C208.224 54.1136 207.952 54.5162 207.407 54.5885L208.224 56.6973H207.526L206.716 54.6026Z" fill="white"/>
<path d="M210.641 51.8097H211.583L212.91 55.4752L214.237 51.8097H215.179V56.6973H214.481V53.0317L213.189 56.6973H212.631L211.339 53.0317V56.6973H210.641V51.8097Z" fill="white"/>
<path d="M221.405 55.999H223.5V56.6973H220.707V51.8097H221.405V55.999Z" fill="white"/>
<path d="M226.612 56.6973H225.914V51.8097H226.612V56.6973Z" fill="white"/>
<path d="M229.023 51.8097H229.966L231.293 55.4752L232.619 51.8097H233.562V56.6973H232.864V53.0317L231.572 56.6973H231.013L229.722 53.0317V56.6973H229.023V51.8097Z" fill="white"/>
<path d="M236.679 56.6973H235.98V51.8097H236.679V56.6973Z" fill="white"/>
<path d="M242.232 51.8097V52.5079H241.01V56.6973H240.312V52.5079H239.09V51.8097H242.232Z" fill="white"/>
<path d="M247.437 53.9044V54.6026H245.343V55.999H247.437V56.6973H244.645V51.8097H247.437V52.5079H245.343V53.9044H247.437Z" fill="white"/>
<path d="M252.299 53.0317C252.299 52.6823 252.125 52.5079 251.775 52.5079H250.553V55.999H251.775C252.125 55.999 252.299 55.8246 252.299 55.4752V53.0317ZM251.775 51.8097C252.59 51.8097 252.997 52.2169 252.997 53.0317V55.4752C252.997 56.29 252.59 56.6973 251.775 56.6973H249.855V51.8097H251.775Z" fill="white"/>
<path d="M19.7818 27.252C16.4264 21.4399 12.2554 14.2156 10.0451 10.3875C9.97089 10.397 9.89634 10.4069 9.82212 10.4167C9.38729 12.625 8.9518 14.835 8.51237 17.0663C6.10996 16.5976 3.77324 16.1506 1.42043 15.6961C1.06146 15.6268 0.69724 15.793 0.514966 16.1102C0.332692 16.4275 0.37276 16.8259 0.613822 17.1011C2.19682 18.909 3.76569 20.7058 5.38612 22.5503C3.62381 24.0886 1.8523 25.6348 0 27.252H19.7818Z" fill="#44909F"/>
<path d="M25.1093 10.4276C21.8527 9.31391 18.6551 8.22027 15.2422 7.05305C17.5372 11.0279 21.7555 18.334 25.1356 24.1885C28.4914 18.3764 32.6633 11.1498 34.8743 7.32105C34.8286 7.2616 34.783 7.20183 34.737 7.14239C31.8778 8.11878 29.0152 9.0965 26.1021 10.0913C26.8312 9.84136 27.5597 9.59143 28.2901 9.34051C27.4927 7.00215 26.71 4.73341 25.9254 2.44661C25.8065 2.10045 25.4811 1.8676 25.1152 1.8676C24.7493 1.8676 24.4239 2.10045 24.305 2.44661C23.5211 4.73374 22.7394 7.00215 21.9423 9.34051C23.0015 9.70408 24.0564 10.066 25.1139 10.4289C25.1126 10.4292 25.1113 10.4296 25.1103 10.4302C25.11 10.4296 25.1096 10.4282 25.1093 10.4276Z" fill="#44909F"/>
<path d="M30.4648 27.2939H49.9442C49.9731 27.2246 50.0017 27.1554 50.0303 27.0861C48.0735 25.3763 46.1086 23.6593 44.1246 21.9262C44.3443 22.1167 44.5637 22.3069 44.7837 22.4977C46.4064 20.6349 47.976 18.8193 49.5603 16.993C49.8 16.7165 49.8385 16.3181 49.6549 16.0018C49.4713 15.6852 49.1061 15.5207 48.7471 15.5916C46.4097 16.0544 44.0881 16.5102 41.7015 16.9864C41.2624 14.7522 40.8206 12.5041 40.3592 10.1562C38.0639 14.1314 33.845 21.4392 30.4648 27.2939Z" fill="#44909F"/>
<path d="M25.1013 36.5268C21.7455 42.3389 17.5739 49.5648 15.3633 53.3935C15.4089 53.4533 15.4546 53.5124 15.5002 53.5722C17.6635 52.8333 19.8288 52.094 22.0151 51.3471C22.7876 53.611 23.5469 55.8124 24.3079 58.0299C24.4264 58.376 24.7519 58.6089 25.1177 58.6089C25.4836 58.6089 25.8094 58.3757 25.928 58.0296C26.6886 55.8114 27.4469 53.609 28.2194 51.3445C30.4359 52.1028 32.6639 52.8648 34.9941 53.6619C32.6994 49.687 28.4814 42.3809 25.1013 36.5268Z" fill="#44909F"/>
<path d="M19.7735 33.4201H0.289172C0.260599 33.4894 0.232026 33.5587 0.203125 33.6279C1.90534 35.115 3.61445 36.6084 5.33439 38.1112C3.75304 39.9274 2.21964 41.7009 0.673097 43.4832C0.433349 43.7598 0.395252 44.1581 0.57884 44.4744C0.762428 44.791 1.12731 44.9556 1.48627 44.8846C3.81051 44.4245 6.11932 43.9713 8.49118 43.498C8.94506 45.8081 9.40124 48.1298 9.87877 50.5581C12.1738 46.5826 16.393 39.2748 19.7735 33.4201Z" fill="#44909F"/>
<path d="M44.9641 38.0614C46.6877 36.5569 48.4211 35.0435 50.232 33.4628H30.4531C33.8089 39.2746 37.9799 46.4995 40.1902 50.3276C40.2647 50.3181 40.339 50.3083 40.4135 50.2984C40.8631 48.0146 41.3134 45.7294 41.7683 43.4199C44.1533 43.8853 46.4745 44.3297 48.8116 44.7809C49.1709 44.8502 49.5348 44.684 49.717 44.3668C49.8993 44.0495 49.8593 43.6511 49.6182 43.3759C48.0743 41.6126 46.5422 39.8582 44.9641 38.0614Z" fill="#44909F"/>
</svg>
