<svg width="25" height="24" viewBox="0 0 25 24" fill="none" xmlns="http://www.w3.org/2000/svg">
<rect x="0.390625" width="24" height="24" rx="4" fill="url(#paint0_linear_1319_19082)"/>
<path d="M12.6815 16.6533L9.97337 16.6027C9.09654 16.585 8.21753 16.6202 7.35789 16.4375C6.05018 16.1645 5.95753 14.8259 5.86059 13.7031C5.72702 12.1245 5.77873 10.5173 6.0308 8.95192C6.17311 8.07358 6.73313 7.54947 7.59918 7.49243C10.5227 7.28545 13.4658 7.30998 16.3828 7.40654C16.6909 7.4154 17.0011 7.46378 17.3049 7.51885C18.8044 7.78747 18.841 9.3044 18.9382 10.5814C19.0352 11.8715 18.9942 13.1683 18.8089 14.4497C18.6603 15.5106 18.3759 16.4003 17.1756 16.4862C15.6718 16.5985 14.2025 16.6889 12.6944 16.6601C12.6945 16.6533 12.6858 16.6533 12.6815 16.6533ZM11.0894 13.9673C12.2227 13.3024 13.3343 12.6485 14.4611 11.988C13.3257 11.3231 12.2162 10.6692 11.0894 10.0087V13.9673Z" fill="white"/>
<defs>
<linearGradient id="paint0_linear_1319_19082" x1="-0.171875" y1="24.9" x2="26.5934" y2="22.2503" gradientUnits="userSpaceOnUse">
<stop stop-color="#6CD3E7"/>
<stop offset="0.557692" stop-color="#3A9DB2"/>
<stop offset="1" stop-color="#235A66"/>
</linearGradient>
</defs>
</svg>
